/* XPM */
static char * C:\Users\Rin_K\Desktop\Proyectos 42\cub3d\animacion\torch3_xpm[] = {
"64 64 42 1",
" 	c None",
".	c #8A0E06",
"+	c #A73C11",
"@	c #890806",
"#	c #890C06",
"$	c #890406",
"%	c #880106",
"&	c #E99B1C",
"*	c #CA5912",
"=	c #880005",
"-	c #F6BC20",
";	c #CA5812",
">	c #8A0D06",
",	c #F6BD20",
"'	c #F5BC20",
")	c #C95712",
"!	c #880006",
"~	c #A73B11",
"{	c #890B06",
"]	c #890706",
"^	c #A63B11",
"/	c #A63A11",
"(	c #E89A1C",
"_	c #890306",
":	c #E89B1C",
"<	c #CA5712",
"[	c #890A06",
"}	c #A63C11",
"|	c #F5BB20",
"1	c #CB5912",
"2	c #880906",
"3	c #890906",
"4	c #CB5A12",
"5	c #A73D11",
"6	c #E8991C",
"7	c #000000",
"8	c #291420",
"9	c #4E2227",
"0	c #281420",
"a	c #4D2227",
"b	c #100C18",
"c	c #181420",
"                                 .                              ",
"                                +                               ",
"                                                                ",
"                                .                               ",
"                               ...                              ",
"                                @#+                             ",
"                              $%&*                              ",
"                            .=-&;                               ",
"                           >$,')                                ",
"                          ++ !&*                                ",
"                         +    ~{.                               ",
"                              ++]>>                             ",
"                               ^&/~>.   .                       ",
"                              +^&(&/_$##.>                      ",
"                               +;:((--<*[+                      ",
"                                }*;(||':1+                      ",
"                                  *:('(;}                       ",
"                          +  +    +;((;[                        ",
"                              +    ;&;[+                        ",
"                                  +*;2.                         ",
"                          +    }**;&&1#                         ",
"                         +3* ^**;;&;*{                          ",
"                        +3;&)&(((:;4[  .                        ",
"                         *:(((((((*[5  ..                       ",
"                         ;(((||(((*#> + .                       ",
"                       +};((||||((;{.{1{>                       ",
"                        *&((||||'((;2;&;+>                      ",
"                        *;((|||((('(<:(&*                       ",
"                         ;:(6'(((||'((&;                        ",
"                          ;<-6(((||(:;^                         ",
"                           +<''((((&;}                          ",
"                           77&(-&;177                           ",
"                           7877777787                           ",
"                           7908888097                           ",
"                           7899009987                           ",
"                            78099087                            ",
"                            78900987                            ",
"                             709907                             ",
"                             788887                             ",
"                              7777                              ",
"                             788887                             ",
"                            78900987                            ",
"                            79099097                            ",
"                             777777                             ",
"                              7887                              ",
"                              7887                              ",
"                              7897                              ",
"                              78a7                              ",
"                              7897                              ",
"                              7777                              ",
"                              7bc7                              ",
"                              7bc7                              ",
"                              7777                              ",
"                              7897                              ",
"                              78a7                              ",
"                              7897                              ",
"                              7777                              ",
"                              7bc7                              ",
"                              7bc7                              ",
"                              7777                              ",
"                              7897                              ",
"                              78a7                              ",
"                              7897                              ",
"                               77                               "};
