/* XPM */
static char * C:\Users\Rin_K\Desktop\Proyectos 42\cub3d\animacion\torch12_xpm[] = {
"64 64 38 1",
" 	c None",
".	c #8A0E06",
"+	c #890806",
"@	c #880106",
"#	c #EA9C1C",
"$	c #890606",
"%	c #880006",
"&	c #E99B1C",
"*	c #CA5812",
"=	c #CB5912",
"-	c #A73A11",
";	c #F6BC20",
">	c #F5BC20",
",	c #A63C11",
"'	c #A73C11",
")	c #8A0D06",
"!	c #880005",
"~	c #E89A1C",
"{	c #CA5912",
"]	c #A63B11",
"^	c #CB5A12",
"/	c #890B06",
"(	c #890A06",
"_	c #890C06",
":	c #A83D11",
"<	c #E89B1C",
"[	c #CA5712",
"}	c #C95712",
"|	c #F5BB20",
"1	c #A63A11",
"2	c #E8991C",
"3	c #000000",
"4	c #291420",
"5	c #4E2227",
"6	c #281420",
"7	c #4D2227",
"8	c #100C18",
"9	c #181420",
"                                                                ",
"                                                                ",
"                                                                ",
"                                                                ",
"                              .                                 ",
"                             .+                                 ",
"                             @#$                                ",
"                            %&*=                                ",
"                           -;>*,         ')                     ",
"                           !;~*        ~*{                      ",
"                          ]&~*        ' ~                       ",
"                           *&{                                  ",
"                            {]{                                 ",
"                             {^/.                               ",
"                              (^_)                              ",
"                             ):_)'_.  .                         ",
"                          .   ))'{{/)_).                        ",
"                         ./{/ )'*<<*]=').                       ",
"                        ._*&**]*<~~<[&])                        ",
"                        .+&~>>[<~~~~~~{(.                       ",
"                         _*<~>}~~~||>~*^_                       ",
"                          /*<~~~~~||~<{/                        ",
"                           /*~~~~>~~&*,                         ",
"                           /*~~~~~~[1'                          ",
"                          /*<~~~~~~<*,'                         ",
"                         /[;~~~||~~~<*,                         ",
"                        ,*;|~~|||>~~~<{'                        ",
"                        {&~~~>|||~~~~<{'                        ",
"                        ,*<~~~||~~~~<*,                         ",
"                         ,*<~~||~~~<*,                          ",
"                           *&~2||~&*'                           ",
"                           33&;;;&-33                           ",
"                           3433333343                           ",
"                           3564444653                           ",
"                           3455665543                           ",
"                            34655643                            ",
"                            34566543                            ",
"                             365563                             ",
"                             344443                             ",
"                              3333                              ",
"                             344443                             ",
"                            34566543                            ",
"                            35655653                            ",
"                             333333                             ",
"                              3443                              ",
"                              3443                              ",
"                              3453                              ",
"                              3473                              ",
"                              3453                              ",
"                              3333                              ",
"                              3893                              ",
"                              3893                              ",
"                              3333                              ",
"                              3453                              ",
"                              3473                              ",
"                              3453                              ",
"                              3333                              ",
"                              3893                              ",
"                              3893                              ",
"                              3333                              ",
"                              3453                              ",
"                              3473                              ",
"                              3453                              ",
"                               33                               "};
