/* XPM */
static char * C:\Users\Rin_K\Desktop\Proyectos 42\cub3d\animacion\torch9_xpm[] = {
"64 64 39 1",
" 	c None",
".	c #CA5912",
"+	c #E89A1C",
"@	c #8A0E06",
"#	c #890806",
"$	c #890C06",
"%	c #890606",
"&	c #E99B1C",
"*	c #CA5812",
"=	c #890B06",
"-	c #F5BC20",
";	c #F6BC20",
">	c #A63A11",
",	c #8A0D06",
"'	c #A63B11",
")	c #A73B11",
"!	c #890706",
"~	c #A73C11",
"{	c #880106",
"]	c #A63C11",
"^	c #E99C1C",
"/	c #A73D11",
"(	c #890A06",
"_	c #CA5712",
":	c #CB5912",
"<	c #C95712",
"[	c #CB5A12",
"}	c #E89B1C",
"|	c #F5BB20",
"1	c #E8991C",
"2	c #890906",
"3	c #000000",
"4	c #CB5812",
"5	c #291420",
"6	c #4E2227",
"7	c #281420",
"8	c #4D2227",
"9	c #100C18",
"0	c #181420",
"                                                                ",
"                                                                ",
"                                                                ",
"                                    .                           ",
"                                     +                          ",
"                                                                ",
"                                                                ",
"                              @@                                ",
"                             #$                                 ",
"                            %&*                                 ",
"                           =*-;*                                ",
"                           .&-+*       @@                       ",
"                            >&>   @,,  ,,@                      ",
"                             '    ,))!!~~,                      ",
"                                 ,>&++&.~                       ",
"                                 #&+-+*.~                       ",
"                                 #&--*~                         ",
"                                  {&*]                          ",
"                                  $*]                           ",
"                              @@  {^'                           ",
"                             @,  %^>~                           ",
"                         $,  ,/(.*_]                            ",
"                        =:~,  ]:<;;*                            ",
"                       =.&*(~ .<;+<'~~                          ",
"                      =[*++*.'*}+-+*..(~                        ",
"                      .*}|-+**}++++++}*(@                       ",
"                       .<;1++++||+++++&:$                       ",
"                        .<;+++-||||++}*2~                       ",
"                         .<}++1||||+}*]~                        ",
"                         ].*}+||||+}*]~                         ",
"                           ~*+|||+}*~                           ",
"                           33&;;+&433                           ",
"                           3533333353                           ",
"                           3675555763                           ",
"                           3566776653                           ",
"                            35766753                            ",
"                            35677653                            ",
"                             376673                             ",
"                             355553                             ",
"                              3333                              ",
"                             355553                             ",
"                            35677653                            ",
"                            36766763                            ",
"                             333333                             ",
"                              3553                              ",
"                              3553                              ",
"                              3563                              ",
"                              3583                              ",
"                              3563                              ",
"                              3333                              ",
"                              3903                              ",
"                              3903                              ",
"                              3333                              ",
"                              3563                              ",
"                              3583                              ",
"                              3563                              ",
"                              3333                              ",
"                              3903                              ",
"                              3903                              ",
"                              3333                              ",
"                              3563                              ",
"                              3583                              ",
"                              3563                              ",
"                               33                               "};
