/* XPM */
static char * C:\Users\Rin_K\Desktop\Proyectos 42\cub3d\animacion\torch4_xpm[] = {
"64 64 43 1",
" 	c None",
".	c #A73C11",
"+	c #8A0E06",
"@	c #890406",
"#	c #880005",
"$	c #F6BC20",
"%	c #CA5812",
"&	c #F6BD20",
"*	c #E89A1C",
"=	c #C95712",
"-	c #E99B1C",
";	c #A63B11",
">	c #8A0D06",
",	c #890806",
"'	c #890C06",
")	c #880006",
"!	c #880106",
"~	c #890A06",
"{	c #CA5712",
"]	c #F5BC20",
"^	c #A63911",
"/	c #E99C1C",
"(	c #890706",
"_	c #E89B1C",
":	c #CA5912",
"<	c #A63C11",
"[	c #890B06",
"}	c #CB5A12",
"|	c #890606",
"1	c #F5BB20",
"2	c #870005",
"3	c #890906",
"4	c #A63A11",
"5	c #CB5912",
"6	c #E8991C",
"7	c #000000",
"8	c #E99A1C",
"9	c #291420",
"0	c #4E2227",
"a	c #281420",
"b	c #4D2227",
"c	c #100C18",
"d	c #181420",
"                                 .                              ",
"                                                                ",
"                                                                ",
"                                                                ",
"                                                                ",
"                                +                               ",
"                               @+                               ",
"                              #$                                ",
"                            .%&*                                ",
"                           .  =-                                ",
"                               ;                                ",
"                                 >    ,                         ",
"                                 .> ')-!                        ",
"                                 .~%{$*-!                       ",
"                                  %$]*%^/(                      ",
"                                   {_%  :.                      ",
"                             ''    <:    .                      ",
"                           '[::[  ..   +                        ",
"                          '}%_*%|+    ++                        ",
"                         >.%_*]*-#}   ++                        ",
"                         +(-*111*-2: +>                         ",
"                          '%*111**-%}[.                         ",
"                           [%*]**_%}3.                          ",
"                            .4***=:3.                           ",
"                             ;-**-:.                            ",
"                              =_=:;    +                        ",
"                           <:%_**%5[    ++                      ",
"                          <%_**1]*=%[ '+>                       ",
"                          :_**116*]$%:}[.                       ",
"                          %_*111]*]*-:~.                        ",
"                           %-111**=:5.>                         ",
"                           778$*8-577                           ",
"                           7977777797                           ",
"                           70a9999a07                           ",
"                           7900aa0097                           ",
"                            79a00a97                            ",
"                            790aa097                            ",
"                             7a00a7                             ",
"                             799997                             ",
"                              7777                              ",
"                             799997                             ",
"                            790aa097                            ",
"                            70a00a07                            ",
"                             777777                             ",
"                              7997                              ",
"                              7997                              ",
"                              7907                              ",
"                              79b7                              ",
"                              7907                              ",
"                              7777                              ",
"                              7cd7                              ",
"                              7cd7                              ",
"                              7777                              ",
"                              7907                              ",
"                              79b7                              ",
"                              7907                              ",
"                              7777                              ",
"                              7cd7                              ",
"                              7cd7                              ",
"                              7777                              ",
"                              7907                              ",
"                              79b7                              ",
"                              7907                              ",
"                               77                               "};
