/* XPM */
static char * C:\Users\Rin_K\Desktop\Proyectos 42\cub3d\animacion\torch6_xpm[] = {
"64 64 40 1",
" 	c None",
".	c #8A0E06",
"+	c #890C06",
"@	c #CA5912",
"#	c #E99B1C",
"$	c #A63911",
"%	c #C95712",
"&	c #F6BC20",
"*	c #F5BB20",
"=	c #E89A1C",
"-	c #A73C11",
";	c #CA5812",
">	c #A63C11",
",	c #8A0D06",
"'	c #A83D11",
")	c #890B06",
"!	c #880806",
"~	c #CB5A12",
"{	c #890606",
"]	c #F5BC20",
"^	c #CA5712",
"/	c #A63A11",
"(	c #890A06",
"_	c #A73D11",
":	c #880906",
"<	c #890406",
"[	c #890806",
"}	c #880005",
"|	c #E89B1C",
"1	c #880006",
"2	c #CB5912",
"3	c #A63B11",
"4	c #E8991C",
"5	c #000000",
"6	c #291420",
"7	c #4E2227",
"8	c #281420",
"9	c #4D2227",
"0	c #100C18",
"a	c #181420",
"                                                                ",
"                                                                ",
"                                                                ",
"                                                                ",
"                               .+                               ",
"                                @#$                             ",
"                                 %&*=@-                         ",
"                                   =;>                          ",
"                                                                ",
"                              ,.                                ",
"                            .+',.                               ",
"                          )@!~).                                ",
"                         );#;@-          @@                     ",
"                        +;==#@          @                       ",
"                        {=]=^/         ,-                       ",
"                       );]**=#@+.                               ",
"                       @#=]]=;(_,.                              ",
"                       >@@;%#@+  .,                             ",
"                        --  @:    -                             ",
"                             ~+                                 ",
"                              ..                                ",
"                               )@)   .<[+                       ",
"                               @#;){@}&=;+                      ",
"                              -@||^#==**&1.                     ",
"                              ->;======]=#{                     ",
"                           .   >;=]===|^;#2+                    ",
"                          ,,  >;=]=%;;@- @).                    ",
"                         ,_-@3;=**=|;2(,  .                     ",
"                         .(;#^=]**=|@-,                         ",
"                          @#===4]=|;-,                          ",
"                           ;#=**=|;-,                           ",
"                           55#&&#;~55                           ",
"                           5655555565                           ",
"                           5786666875                           ",
"                           5677887765                           ",
"                            56877865                            ",
"                            56788765                            ",
"                             587785                             ",
"                             566665                             ",
"                              5555                              ",
"                             566665                             ",
"                            56788765                            ",
"                            57877875                            ",
"                             555555                             ",
"                              5665                              ",
"                              5665                              ",
"                              5675                              ",
"                              5695                              ",
"                              5675                              ",
"                              5555                              ",
"                              50a5                              ",
"                              50a5                              ",
"                              5555                              ",
"                              5675                              ",
"                              5695                              ",
"                              5675                              ",
"                              5555                              ",
"                              50a5                              ",
"                              50a5                              ",
"                              5555                              ",
"                              5675                              ",
"                              5695                              ",
"                              5675                              ",
"                               55                               "};
