/* XPM */
static char * C:\Users\Rin_K\Desktop\Proyectos 42\cub3d\animacion\torch1_xpm[] = {
"64 64 46 1",
" 	c None",
".	c #8A0E06",
"+	c #890806",
"@	c #880106",
"#	c #E99B1C",
"$	c #E89A1C",
"%	c #880006",
"&	c #890706",
"*	c #A73C11",
"=	c #880005",
"-	c #F6BC20",
";	c #F5BB20",
">	c #E89B1C",
",	c #CA5812",
"'	c #CA5912",
")	c #890306",
"!	c #890206",
"~	c #CB5A12",
"{	c #890C06",
"]	c #880806",
"^	c #CB5912",
"/	c #A63B11",
"(	c #A73B11",
"_	c #890606",
":	c #8A0D06",
"<	c #A63A11",
"[	c #A73A11",
"}	c #A53811",
"|	c #F5BC20",
"1	c #F6BD20",
"2	c #890B06",
"3	c #E8991C",
"4	c #A63811",
"5	c #890A06",
"6	c #C95712",
"7	c #A63C11",
"8	c #890906",
"9	c #880906",
"0	c #CA5712",
"a	c #000000",
"b	c #291420",
"c	c #4E2227",
"d	c #281420",
"e	c #4D2227",
"f	c #100C18",
"g	c #181420",
"                                                                ",
"                                                                ",
"                                                                ",
"                                ..                              ",
"                               +.                               ",
"                              @#@                               ",
"                             @#$#+                              ",
"                           .%#$$#&        *                     ",
"                          .=-;$>,*       '                      ",
"                         *)-;;$,*                               ",
"                         *!-$$,~{                               ",
"                          *=#$,].                               ",
"                           *%##^{.    ..                        ",
"                             //*(_*  *:..                       ",
"                              */##<*//[).                       ",
"                              **<##}#$|-=.                      ",
"                               :*,>$$;;;1)                      ",
"                               .:2,>$|3-4*                      ",
"                         **   ...5'6$$>,*                       ",
"                         '  ..:{5~,>$>,7*                       ",
"                            {:*'',>>,'8*                        ",
"                         */ ^/,#6#>,]2*                         ",
"                        *,#,',>$>,']~*                          ",
"                        /#$>6>$|$'5:*                           ",
"                         ,>$$$|$,2{&*  {                        ",
"                        ''6$$;;$,9,#,/7~{                       ",
"                        7'>$;;;$>0>$|$,]*                       ",
"                         '>$;;;;$$$|;|>'                        ",
"                         7,>$;;;$$|3|$,'                        ",
"                          *,>$;;;$$$$,'                         ",
"                           ^,$3;;$,'^7                          ",
"                           aa#-$#,*aa                           ",
"                           abaaaaaaba                           ",
"                           acdbbbbdca                           ",
"                           abccddccba                           ",
"                            abdccdba                            ",
"                            abcddcba                            ",
"                             adccda                             ",
"                             abbbba                             ",
"                              aaaa                              ",
"                             abbbba                             ",
"                            abcddcba                            ",
"                            acdccdca                            ",
"                             aaaaaa                             ",
"                              abba                              ",
"                              abba                              ",
"                              abca                              ",
"                              abea                              ",
"                              abca                              ",
"                              aaaa                              ",
"                              afga                              ",
"                              afga                              ",
"                              aaaa                              ",
"                              abca                              ",
"                              abea                              ",
"                              abca                              ",
"                              aaaa                              ",
"                              afga                              ",
"                              afga                              ",
"                              aaaa                              ",
"                              abca                              ",
"                              abea                              ",
"                              abca                              ",
"                               aa                               "};
