/* XPM */
static char * C:\Users\Rin_K\Desktop\Proyectos 42\cub3d\animacion\torch10_xpm[] = {
"64 64 43 1",
" 	c None",
".	c #A73C11",
"+	c #8A0E06",
"@	c #890806",
"#	c #8A0D06",
"$	c #E99B1C",
"%	c #A73B11",
"&	c #880005",
"*	c #F6BD20",
"=	c #CA5812",
"-	c #E89A1C",
";	c #F6BC20",
">	c #C95612",
",	c #880006",
"'	c #A63A11",
")	c #890C06",
"!	c #A63B11",
"~	c #F5BC20",
"{	c #CB5912",
"]	c #880106",
"^	c #E99A1C",
"/	c #A63C11",
"(	c #890706",
"_	c #CA5712",
":	c #CA5912",
"<	c #890A06",
"[	c #890B06",
"}	c #E89B1C",
"|	c #F5BB20",
"1	c #880806",
"2	c #A73D11",
"3	c #A73A11",
"4	c #CB5A12",
"5	c #C95712",
"6	c #E8991C",
"7	c #000000",
"8	c #CB5812",
"9	c #291420",
"0	c #4E2227",
"a	c #281420",
"b	c #4D2227",
"c	c #100C18",
"d	c #181420",
"                                                                ",
"                                                                ",
"                                                                ",
"                                    .                           ",
"                               +                                ",
"                             @#++                               ",
"                            @$%#                                ",
"                            &*=         +                       ",
"                           -;>         @#+                      ",
"                           =-$=      +,$')+                     ",
"                            !!       ,;~${)                     ",
"                             .      ]^~-=/                      ",
"                                   ($~-=/                       ",
"                                   %$_:/                        ",
"                                  + :.                          ",
"                                  ++                            ",
"                               #   ++                           ",
"                           ++ #.:<.#+                           ",
"                          +#@)[=$=:.#                           ",
"                         +)'$==--}={                            ",
"                         ):$-~-~--:[                            ",
"                         .:-~||--}:                             ",
"                          /=--~-}=[  )@)                        ",
"                           /=}--=1++[=$=[                       ",
"                            <=}-=:[[=}-$:                       ",
"                            21=--}==--}=[                       ",
"                          .3&45~|---~-=/                        ",
"                        ./=;;5}6||6~-}:                         ",
"                        .:}~---|||~-=:/                         ",
"                         /=---||||-}:/                          ",
"                           :=-|||-}=.                           ",
"                           77$-;-$877                           ",
"                           7977777797                           ",
"                           70a9999a07                           ",
"                           7900aa0097                           ",
"                            79a00a97                            ",
"                            790aa097                            ",
"                             7a00a7                             ",
"                             799997                             ",
"                              7777                              ",
"                             799997                             ",
"                            790aa097                            ",
"                            70a00a07                            ",
"                             777777                             ",
"                              7997                              ",
"                              7997                              ",
"                              7907                              ",
"                              79b7                              ",
"                              7907                              ",
"                              7777                              ",
"                              7cd7                              ",
"                              7cd7                              ",
"                              7777                              ",
"                              7907                              ",
"                              79b7                              ",
"                              7907                              ",
"                              7777                              ",
"                              7cd7                              ",
"                              7cd7                              ",
"                              7777                              ",
"                              7907                              ",
"                              79b7                              ",
"                              7907                              ",
"                               77                               "};
