/* XPM */
static char * C:\Users\Rin_K\Desktop\Proyectos 42\cub3d\animacion\torch2_xpm[] = {
"64 64 43 1",
" 	c None",
".	c #8A0E06",
"+	c #890806",
"@	c #890C06",
"#	c #880106",
"$	c #E99B1C",
"%	c #CA5912",
"&	c #880006",
"*	c #E89B1C",
"=	c #E99A1C",
"-	c #F6BC20",
";	c #F5BC20",
">	c #CA5812",
",	c #890B06",
"'	c #A73C11",
")	c #E8991C",
"!	c #E89A1C",
"~	c #880005",
"{	c #880506",
"]	c #890706",
"^	c #A63B11",
"/	c #A73B11",
"(	c #890406",
"_	c #A53811",
":	c #A63A11",
"<	c #F5BB20",
"[	c #880206",
"}	c #C95712",
"|	c #A63C11",
"1	c #890A06",
"2	c #8A0D06",
"3	c #CA5712",
"4	c #880906",
"5	c #CB5912",
"6	c #870005",
"7	c #000000",
"8	c #CB5812",
"9	c #291420",
"0	c #4E2227",
"a	c #281420",
"b	c #4D2227",
"c	c #100C18",
"d	c #181420",
"                                 .                              ",
"                                .                               ",
"                               ..                               ",
"                                ..                              ",
"                                +@.                             ",
"                               #$%@                             ",
"                             +&$*%                              ",
"                           .#=-;>,        '                     ",
"                          .+$;)!%                               ",
"                         ...&=;>,                               ",
"                         .  '~$%@                               ",
"                             '{'].   ..                         ",
"                              '^$&/ ++((                        ",
"                               ^$!$_$!--(                       ",
"                               ':$!$!<<-[.                      ",
"                               ''>$}!;!!%@                      ",
"                               ''|%%}!!*%'                      ",
"                          '    '''%>*!*>|                       ",
"                         %   '  '|%**>%1'                       ",
"                            %   |%>$>,@2                        ",
"                             ' |%>$34.2'                        ",
"                            |5^%>*!$5,'                         ",
"                          |%%%%>*!!>1'                          ",
"                         |>$>>*!!;!>1'  2                       ",
"                         %*!!!!!<<!*>~' '2                      ",
"                         >!!!!!<<!!!!-65'2.                     ",
"                        %$!!!<<<!!!!<<-}51.                     ",
"                        |>*!!<<<!!!<<<!$%%                      ",
"                          >*!!<<<;!;!!*>'                       ",
"                           >*!)<<!!!*>%|                        ",
"                           '>!;<<!*>5|                          ",
"                           77$!-!$877                           ",
"                           7977777797                           ",
"                           70a9999a07                           ",
"                           7900aa0097                           ",
"                            79a00a97                            ",
"                            790aa097                            ",
"                             7a00a7                             ",
"                             799997                             ",
"                              7777                              ",
"                             799997                             ",
"                            790aa097                            ",
"                            70a00a07                            ",
"                             777777                             ",
"                              7997                              ",
"                              7997                              ",
"                              7907                              ",
"                              79b7                              ",
"                              7907                              ",
"                              7777                              ",
"                              7cd7                              ",
"                              7cd7                              ",
"                              7777                              ",
"                              7907                              ",
"                              79b7                              ",
"                              7907                              ",
"                              7777                              ",
"                              7cd7                              ",
"                              7cd7                              ",
"                              7777                              ",
"                              7907                              ",
"                              79b7                              ",
"                              7907                              ",
"                               77                               "};
