/* XPM */
static char * C:\Users\Rin_K\Desktop\Proyectos 42\cub3d\animacion\torch7_xpm[] = {
"64 64 38 1",
" 	c None",
".	c #890C06",
"+	c #CA5912",
"@	c #E89A1C",
"#	c #CA5812",
"$	c #F5BB20",
"%	c #A73C11",
"&	c #8A0E06",
"*	c #890B06",
"=	c #CB5912",
"-	c #E99B1C",
";	c #890606",
">	c #CA5712",
",	c #F6BC20",
"'	c #F5BC20",
")	c #A63A11",
"!	c #CB5A12",
"~	c #A63C11",
"{	c #8A0D06",
"]	c #890406",
"^	c #890806",
"/	c #880005",
"(	c #880106",
"_	c #A73D11",
":	c #890706",
"<	c #880906",
"[	c #A63B11",
"}	c #E89B1C",
"|	c #880706",
"1	c #890A06",
"2	c #000000",
"3	c #E99A1C",
"4	c #291420",
"5	c #4E2227",
"6	c #281420",
"7	c #4D2227",
"8	c #100C18",
"9	c #181420",
"                                                                ",
"                                                                ",
"                                                                ",
"                                                                ",
"                                 .+@#                           ",
"                                   $@+                          ",
"                                     %                          ",
"                                                                ",
"                                                                ",
"                             .&                                 ",
"                            *=*&                                ",
"                           *#-#*&          &                    ",
"                        & ;>,@-+          +                     ",
"                       .;#@'$@#*                                ",
"                       +-@'@@#+                                 ",
"                       *#->+)!*                                 ",
"                        ~+%  .{%                                ",
"                              &                                 ",
"                                  &     ]^                      ",
"                                  &&   /,-(                     ",
"                                 &&.{_/,'@-;                    ",
"                             &   &*=*:-'>#-=.                   ",
"                             &&  .#-#<#-[ +*                    ",
"                              {..)-@}#|+                        ",
"                             %%+#-@@@}#<                        ",
"                             ~#}@@'@@@}+.                       ",
"                            *#}@$$$$@@}+.                       ",
"                          .*#}@@$$$$@}#1&                       ",
"                         .!#}@@@$$@@}#=%                        ",
"                         .+-@@@$$$@}#!*                         ",
"                          ~=#@@$$@#+!*                          ",
"                           22-,@3-=22                           ",
"                           2422222242                           ",
"                           2564444652                           ",
"                           2455665542                           ",
"                            24655642                            ",
"                            24566542                            ",
"                             265562                             ",
"                             244442                             ",
"                              2222                              ",
"                             244442                             ",
"                            24566542                            ",
"                            25655652                            ",
"                             222222                             ",
"                              2442                              ",
"                              2442                              ",
"                              2452                              ",
"                              2472                              ",
"                              2452                              ",
"                              2222                              ",
"                              2892                              ",
"                              2892                              ",
"                              2222                              ",
"                              2452                              ",
"                              2472                              ",
"                              2452                              ",
"                              2222                              ",
"                              2892                              ",
"                              2892                              ",
"                              2222                              ",
"                              2452                              ",
"                              2472                              ",
"                              2452                              ",
"                               22                               "};
