/* XPM */
static char * C:\Users\Rin_K\Desktop\Proyectos 42\cub3d\animacion\torch11_xpm[] = {
"64 64 39 1",
" 	c None",
".	c #8A0E06",
"+	c #A73A11",
"@	c #890C06",
"#	c #A63911",
"$	c #F6BD20",
"%	c #CA5812",
"&	c #E99B1C",
"*	c #C95712",
"=	c #8A0D06",
"-	c #A73C11",
";	c #CA5912",
">	c #A63A11",
",	c #CB5912",
"'	c #F6BC20",
")	c #A63811",
"!	c #890B06",
"~	c #E89A1C",
"{	c #A73D11",
"]	c #890706",
"^	c #A73B11",
"/	c #880306",
"(	c #E99A1C",
"_	c #F5BC20",
":	c #A63C11",
"<	c #870005",
"[	c #880506",
"}	c #CB5A12",
"|	c #E89B1C",
"1	c #F5BB20",
"2	c #890A06",
"3	c #E8991C",
"4	c #000000",
"5	c #291420",
"6	c #4E2227",
"7	c #281420",
"8	c #4D2227",
"9	c #100C18",
"0	c #181420",
"                                                                ",
"                                                                ",
"                                                                ",
"                                                                ",
"                             ..                                 ",
"                            +@                                  ",
"                           #$%                                  ",
"                           &*            =                      ",
"                           %             -=                     ",
"                            -           %-=                     ",
"                                      ;*$>                      ",
"                             =      @,%')                       ",
"                             -=     =-                          ",
"                              ..                                ",
"                             .=!;!                              ",
"                         .. .=-%&%!                             ",
"                        .=..  %'~&;                             ",
"                       .={@@]^/(_%!                             ",
"                       =-:,%&~%<&[                              ",
"                        -}%|_1~%/-= ==.                         ",
"                         !}%~1_~%,2---=.                        ",
"                          !;|~~~|%;;;;-=.                       ",
"                           !%~~~~~~~~|%-=                       ",
"                           !%~~~~~11~~&,-                       ",
"                          !;|~~~~~11~|%!                        ",
"                        =-,*~~11~_1~|%:                         ",
"                       --%*'~111~~~*;:                          ",
"                       -%'_~~1111~~|;:                          ",
"                       -;~~~~~1111~~%;-                         ",
"                        -%|~~~3111~~&;-                         ",
"                         ;%&(~111~|%;;                          ",
"                           44'''(%,44                           ",
"                           4544444454                           ",
"                           4675555764                           ",
"                           4566776654                           ",
"                            45766754                            ",
"                            45677654                            ",
"                             476674                             ",
"                             455554                             ",
"                              4444                              ",
"                             455554                             ",
"                            45677654                            ",
"                            46766764                            ",
"                             444444                             ",
"                              4554                              ",
"                              4554                              ",
"                              4564                              ",
"                              4584                              ",
"                              4564                              ",
"                              4444                              ",
"                              4904                              ",
"                              4904                              ",
"                              4444                              ",
"                              4564                              ",
"                              4584                              ",
"                              4564                              ",
"                              4444                              ",
"                              4904                              ",
"                              4904                              ",
"                              4444                              ",
"                              4564                              ",
"                              4584                              ",
"                              4564                              ",
"                               44                               "};
