/* XPM */
static char * C:\Users\Rin_K\Desktop\Proyectos 42\cub3d\animacion\torch13_xpm[] = {
"64 64 40 1",
" 	c None",
".	c #8A0E06",
"+	c #890C06",
"@	c #CA5812",
"#	c #CA5912",
"$	c #CB5A12",
"%	c #890B06",
"&	c #E99B1C",
"*	c #880806",
"=	c #A73C11",
"-	c #E89B1C",
";	c #E89A1C",
">	c #CB5912",
",	c #880005",
"'	c #F6BC20",
")	c #890406",
"!	c #F5BB20",
"~	c #CA5712",
"{	c #F5BC20",
"]	c #A63B11",
"^	c #890306",
"/	c #A63911",
"(	c #A63A11",
"_	c #880106",
":	c #8A0D06",
"<	c #880006",
"[	c #890606",
"}	c #880906",
"|	c #890A06",
"1	c #A63C11",
"2	c #890906",
"3	c #E8991C",
"4	c #000000",
"5	c #A73A11",
"6	c #291420",
"7	c #4E2227",
"8	c #281420",
"9	c #4D2227",
"0	c #100C18",
"a	c #181420",
"                                                                ",
"                                                                ",
"                                                                ",
"                                                                ",
"                               .                                ",
"                               ++                               ",
"                              @#$+                              ",
"                            %@&@*.        =                     ",
"                          +@@-;&>+       @                      ",
"                          ,';;-@%       @-                      ",
"                         )'!!;@>+                               ",
"                         +~'{;@]                                ",
"                          +^/&&@+                               ",
"                            =](&_+     .                        ",
"                              =@&@=  ++:.                       ",
"                               #-&<+[##=:.                      ",
"                               }~;&~&;-@=:                      ",
"                             .+>&;;;{;;&[                       ",
"                        .   ...|@-;!!{;@=                       ",
"                        ..   .:=]~;!!;@1=                       ",
"                        ..:  :==#-;{;@1=                        ",
"                        .:=#=+=1@;;;@|=                         ",
"                         =@&@=1@-;-@%:=                         ",
"                          -;-@@-;;~}:=                          ",
"                          @;;;;;{;-@|=                          ",
"                         +#;;;!!;;;-@2=                         ",
"                        ==@;;!!!;;;;'@1                         ",
"                        =#&;;!!!!;;{!-#=                        ",
"                        =1@-;!!!!;;;'@1=                        ",
"                         =1@-;!!3;;-@1=                         ",
"                           =@;!!!;&@=                           ",
"                           44&;''&544                           ",
"                           4644444464                           ",
"                           4786666874                           ",
"                           4677887764                           ",
"                            46877864                            ",
"                            46788764                            ",
"                             487784                             ",
"                             466664                             ",
"                              4444                              ",
"                             466664                             ",
"                            46788764                            ",
"                            47877874                            ",
"                             444444                             ",
"                              4664                              ",
"                              4664                              ",
"                              4674                              ",
"                              4694                              ",
"                              4674                              ",
"                              4444                              ",
"                              40a4                              ",
"                              40a4                              ",
"                              4444                              ",
"                              4674                              ",
"                              4694                              ",
"                              4674                              ",
"                              4444                              ",
"                              40a4                              ",
"                              40a4                              ",
"                              4444                              ",
"                              4674                              ",
"                              4694                              ",
"                              4674                              ",
"                               44                               "};
