/* XPM */
static char * C:\Users\Rin_K\Desktop\Proyectos 42\cub3d\animacion\torch5_xpm[] = {
"64 64 44 1",
" 	c None",
".	c #890806",
"+	c #CA5812",
"@	c #E99B1C",
"#	c #F6BD20",
"$	c #880005",
"%	c #A63C11",
"&	c #CA5712",
"*	c #880006",
"=	c #A63B11",
"-	c #E89A1C",
";	c #A73C11",
">	c #8A0D06",
",	c #8A0E06",
"'	c #A73D11",
")	c #890C06",
"!	c #A83D11",
"~	c #A73B11",
"{	c #CA5912",
"]	c #A63A11",
"^	c #890906",
"/	c #890B06",
"(	c #F5BB20",
"_	c #CB5A12",
":	c #CB5912",
"<	c #E89B1C",
"[	c #F5BC20",
"}	c #880806",
"|	c #890A06",
"1	c #870005",
"2	c #890706",
"3	c #890406",
"4	c #F6BC20",
"5	c #880106",
"6	c #A53811",
"7	c #A63911",
"8	c #000000",
"9	c #CB5812",
"0	c #291420",
"a	c #4E2227",
"b	c #281420",
"c	c #4D2227",
"d	c #100C18",
"e	c #181420",
"                                                                ",
"                                                                ",
"                                                                ",
"                                                                ",
"                                .                               ",
"                               +@.                              ",
"                               +#$                              ",
"                               %&#*                             ",
"                                =-@.                            ",
"                                    ;                           ",
"                                                                ",
"                              >,>                               ",
"                           ,>>')!>                              ",
"                          ,>~~;'),     ;{                       ",
"                         >)]@@+^'      >                        ",
"                        >;+---@{)       ,                       ",
"                       ,/+-((-+_)       ,                       ",
"                       ):<[((-+}!>    ,                         ",
"                       ,/+-(([-+|,>; >,                         ",
"                         /+----<+|;_);                          ",
"                          %{{++@<{{{)                           ",
"                           ;; {1@{%                             ",
"                               ;2)                              ",
"                                ,)                              ",
"                                 _)    33                       ",
"                               ={{/   *44*                      ",
"                              ]@--++ 5@-4@.                     ",
"                             ]@--[-@6@+{7@.                     ",
"                           %+@--(([-@+{  =                      ",
"                          ){<--((--<+;)                         ",
"                           {@--((-<+;>                          ",
"                           88@44-@988                           ",
"                           8088888808                           ",
"                           8ab0000ba8                           ",
"                           80aabbaa08                           ",
"                            80baab08                            ",
"                            80abba08                            ",
"                             8baab8                             ",
"                             800008                             ",
"                              8888                              ",
"                             800008                             ",
"                            80abba08                            ",
"                            8abaaba8                            ",
"                             888888                             ",
"                              8008                              ",
"                              8008                              ",
"                              80a8                              ",
"                              80c8                              ",
"                              80a8                              ",
"                              8888                              ",
"                              8de8                              ",
"                              8de8                              ",
"                              8888                              ",
"                              80a8                              ",
"                              80c8                              ",
"                              80a8                              ",
"                              8888                              ",
"                              8de8                              ",
"                              8de8                              ",
"                              8888                              ",
"                              80a8                              ",
"                              80c8                              ",
"                              80a8                              ",
"                               88                               "};
