/* XPM */
static char * C:\Users\Rin_K\Desktop\Proyectos 42\cub3d\animacion\torch8_xpm[] = {
"64 64 40 1",
" 	c None",
".	c #E89A1C",
"+	c #CA5812",
"@	c #CA5912",
"#	c #8A0D06",
"$	c #8A0E06",
"%	c #890C06",
"&	c #890806",
"*	c #A73B11",
"=	c #A73C11",
"-	c #890B06",
";	c #E99B1C",
">	c #C95712",
",	c #CB5912",
"'	c #E89B1C",
")	c #F5BC20",
"!	c #F5BB20",
"~	c #A63C11",
"{	c #890406",
"]	c #E99A1C",
"^	c #F6BC20",
"/	c #880206",
"(	c #880005",
"_	c #880106",
":	c #880006",
"<	c #A63911",
"[	c #CA5712",
"}	c #870005",
"|	c #A63B11",
"1	c #CB5A12",
"2	c #A63A11",
"3	c #880906",
"4	c #000000",
"5	c #CB5812",
"6	c #291420",
"7	c #4E2227",
"8	c #281420",
"9	c #4D2227",
"0	c #100C18",
"a	c #181420",
"                                                                ",
"                                                                ",
"                                                                ",
"                                                                ",
"                                    .+                          ",
"                                     .                          ",
"                                      @                         ",
"                                                                ",
"                                                                ",
"                                                                ",
"                              #$                                ",
"                         %&  @*%$          =                    ",
"                        -+;>++;,%                               ",
"                       =@')!)'+~                                ",
"                         +.!.+-           &{$                   ",
"                            @-           &]^/                   ",
"                                    $&$  (^)+                   ",
"                                   $_;:#<^.[                    ",
"                                   &;)^};.+~                    ",
"                                   #:.);++                      ",
"                               $  %=|;[@=                       ",
"                              $$ -1@@2==                        ",
"                              $$%1+.'@=                         ",
"                               #=+.).@=                         ",
"                              ==+.!)>2 #$                       ",
"                         #%  ~@+'.)..;+=#$                      ",
"                        #=,3@@+'......'+=#                      ",
"                        %@'['...!!!....;,%                      ",
"                        %+^....!!!!)..'+~                       ",
"                         ~[^..!!!!!..'+~                        ",
"                          ~++.!!!..+@@~                         ",
"                           44;.^.;544                           ",
"                           4644444464                           ",
"                           4786666874                           ",
"                           4677887764                           ",
"                            46877864                            ",
"                            46788764                            ",
"                             487784                             ",
"                             466664                             ",
"                              4444                              ",
"                             466664                             ",
"                            46788764                            ",
"                            47877874                            ",
"                             444444                             ",
"                              4664                              ",
"                              4664                              ",
"                              4674                              ",
"                              4694                              ",
"                              4674                              ",
"                              4444                              ",
"                              40a4                              ",
"                              40a4                              ",
"                              4444                              ",
"                              4674                              ",
"                              4694                              ",
"                              4674                              ",
"                              4444                              ",
"                              40a4                              ",
"                              40a4                              ",
"                              4444                              ",
"                              4674                              ",
"                              4694                              ",
"                              4674                              ",
"                               44                               "};
