/* XPM */
static char *out[] = {
/* columns rows colors chars-per-pixel */
"64 64 68 1 ",
"  c #000000",
". c #0F0F0E",
"X c #15130F",
"o c #111110",
"O c #191611",
"+ c #1C1C1C",
"@ c #2C1F0E",
"# c #211E1A",
"$ c #2F210F",
"% c #31220F",
"& c #27251F",
"* c #2A251E",
"= c #2E281E",
"- c #352510",
"; c #3C2611",
": c #3D2A14",
"> c #30281D",
", c #232323",
"< c #292621",
"1 c #2D2924",
"2 c #332C22",
"3 c #3E3A32",
"4 c #3C3C3C",
"5 c #432B14",
"6 c #402F1C",
"7 c #453117",
"8 c #483217",
"9 c #453419",
"0 c #4A3519",
"q c #47391C",
"w c #4D3B1C",
"e c #543518",
"r c #58361A",
"t c #523E1E",
"y c #5C381B",
"u c #433522",
"i c #4D3D22",
"p c #543F20",
"a c #403C35",
"s c #54411F",
"d c #5B401F",
"f c #564121",
"g c #594422",
"h c #5E4D25",
"j c #5E4D29",
"k c #464137",
"l c #484237",
"z c #464139",
"x c #564630",
"c c #5E5335",
"v c #624521",
"b c #684724",
"n c #614D26",
"m c #694A25",
"M c #604F28",
"N c #605027",
"B c #63522A",
"V c #6E5529",
"C c #67582E",
"Z c #68582E",
"A c #71572A",
"S c #755C2D",
"D c #675930",
"F c #685A30",
"G c #76602E",
"H c #78612F",
"J c #7B6332",
"K c #444341",
/* pixels */
"FCBBBVBBBBZZZCCCBBFCCFDDFDDFZCtttgDDDFFFFFFDFFBBZZZZCCBBBVBBBVCC",
"FCBBBBNBNNBBCCBBnBCCBCCBCBBCCBwwwwCBCBBCBCCBBCBBBBCCCBBBNNBBNBCF",
"FBggttqtdsdssfsspfppffgffffgdg5555ggffffffffffssssssggfpqwsdggCC",
"FBgstt00sssswwsswtwtwtttwwpptt;;:5sfffwwttttwpwiswswtttpq8tsgsCZ",
"FBfp88888079wwtt00tt0t0077tffp:5::sgfw95e000wee0sw000888860qsgBF",
"ZBft9998878900tt00000000::wfft:555sdfw::0w0e000qst0078898889sfBD",
"gf09;0fq97qsqwdd:7wiwwww99ws09-%%%9qffsqqqqq07:7ssq779wwte::99gh",
"fi97;wn5     9gg:59      9sgw9--%;qqff:   7dd7:7gd     9ht::99is",
"*>979ui       hh0e        nntt;555rshh     Vvyq0hh      Vv7787=&",
",=686:i       hh00        MMtr5555tgBB     Jmy0ehh      Sb8987*,",
"4aiq5ux       hh0e        nntt;5:5tsBh     Jmr00hh      Sb57wi34",
"zasw5uc       Bh0w        nntt55:5tsjj     Gve0qhn      Sb7:iszz",
"FBgffffxjBBBBBhhsqsshjggBBBBgf5555sgBBBBggjhsqsshhBBBBBjfffffgBD",
"FBfpffsfhjjBjhhhssssgjgghjjMft5555tfMBBjsfhhsqqshhhjjBhgfppfpfBD",
"ngwq:q::::9::90qs::::q::99q0q0;;;;8ww09:7:9q7::9qq9999:9::7:0whj",
"ngq8:::::::::78q:::::::;;:9000%%%;0999:::;:::::9q9:;:2::::::0qfh",
"CMst8pg07:999whh60w99999:qhhpp;;;:ffhhq979sBy00qhg9;779whg88ppMZ",
"DBgs0gH       BB0e        MBfp;5;:fgjB     Jbe0eBB      Jbt0pgBZ",
"Bnsw8gA       Bn88        hhfw:;5:wshh     Jve88BB      Hv88tsMC",
"BBsw5pA       Bj88        nhsw5;;5tghj     Hde80jB      Hv88tfMB",
"ZBdt0gS       hh98        BBpt;555esBB     Jve80hh      Sv00tsBZ",
"ZBst0gS       hh80        Bnpe55;5sgBB     Jnr78hN      Age0tsBZ",
"hgq88wgdssssssgg00sgggggsdsf09--%%9qssssssghds99ggssssssdd080qgn",
"nsq88wggssssssggq8sgggfgssss07-;;;8qssssgggdggq0fsssssssshq090gn",
"ZBggfgBBBBMMBjhhsshhhnhhBMggfp5555sfggBBhnhBhhtfMMMMnMBBBBgfffCD",
"ZBgfpgBMBMhjBBhhwshhhnhhMnggpp5555sdgghNhnhhhhtphMMMnnBMBBfffgCD",
"BBfw99ppptttptstwewttttwwwsstr5555ytstwwt0tttt00fppptttptt99pfMZ",
"DBfw::008e00e0wt0000005998wwte5555tstw875800000ette00000005:wpBZ",
"DBft77wttttppfhh00tttt11##OO;555559:OO+#12twpp00hgsppttwtw99pfBD",
"DBgf79swttsffghn0efstw1,++o.;855555;.XO+,1wsffewhhfffftttt9wpgBD",
"+*99::w0679900st::q009X.@-ws------$-fw-$XX9099::stw09998q0::99<+",
",199:70q8090qwss:5qq9qOX-;wg------$;fs;-XOq0qq5:sswq9908qq::q9<,",
"4aww:9qswwwttshh77ppip99wihhe0;;;5qtjgpw99ippp77hhttssqwww59tw34",
"Kapt99ssttfsfdhB87ffffffffjBgt5;5;pgMMgpffffff79jBgfffsiss99tiaK",
"CBfpstggBjnBhNhhtthNjhBNhhhBgf;5;5rgBBMjBhhjjhtshhhhNBjhggssfxBD",
"DBggtfggnBBBNhnnwshhNnhBhnBBff5;5;tfMMhnNBNjhhswhhNnNNNhggstfgBD",
"DBffsssqtsttttssffffffffqqsfgt555;sdftw0fffffffsfsssttssssssfgCD",
"DBfpssqswwwwtsttffppffpw00tttt;;;:tstt09sfistttttttwwwsswwqstfBC",
"Mgwq::q:q:97998q997:9:797:0qq0;%%;q0qq:::::::977007779::::::00gh",
"gp99:::::::::599::::::--::7988%;%%9999:::::::::509:::::::::;90gg",
"FBfw99wtwwffpfhhq0wtwwq0tshhst5555ysnhft90wtwt80hhppptetss99tsBC",
"FBfw98ttsfffffhhe0ttswq9tghBdt5555tdBhft0qttttw0hhgfffstss9wwfBD",
"Bhfw55ttpygtffhh00tddtstwfhhsw5;;:tshhstttsttd00hhgfpttgss::wsBB",
"Cnsw:7tstttpffhh00ptttsttfhhfw;555wshhstssttdt00hhgftfptis::wsBB",
"CBdtq0ttsfffgshN88tswwstfgnBgf5555tgMMgtdtqwtt88hhtsfffptf08sgBC",
"FBgst0tpsgffgshN89wt8qtgggjBgy5555tgBMggff00wt88hhfffgfpttewsgBD",
"hhwq90gtssssssgs8qssssdssssdq0;%-;8wffssssssssq8ggssssssgs990whh",
"hsq890ddssssssddq8gdssssssssq8%%-%80fsssssssdgq0gdssssssds098qfh",
"Cjssftggpp0wttffssstdtstffpgst:;;;tpfffftpttttfssstt0wtggpppgfBZ",
"CBffpfpppp80twpfsstttttttgptss:555tffpfpttyttttsfftw00tpptpppgBZ",
"BBft000800000wtp988808570tttww;5;5ttttew7500e888ttw000800808wfMC",
"BNfw888888000ett888788::00ttse5;5;wttw0e:5689887tt0000978888tpnC",
"12pt80tttttstthg89s0rtwtttjhst;5;;tthhststttww88ngtwssfttt00ti2<",
"+=wtt0sdfffgtthh89sssstdyphBdt55;5tdBhststttts78nnstppsfpteqtw<,",
"4kq9;5qq09q88qfg5:q0qq8q0qsgq9%%%;7qsswq8q0qw8::gsw8909800::99aa",
"Klq956q890890qsg:500q8qq0qtd09;%;%80dtq8q0q0qq:5sfw999q0009:9izK",
"ccft00fwstwwpfhg77wwwwwwttffir5;55tffsstwwswsw97hhfpwwssfp00ppcc",
"CBgf00ffffwpfghh77tttstwttgfpy5555tsgfstswwsws77hjfpsiffff00pgBC",
"CBfw0wBjBjMMBhhhssjjBhjhhhhhpr5555ethhhhhhjBNBsphhjBBjjBjBw0wfBC",
"CBfi0wjBjBBMMBhhffNBhBhhhhhhpt5555eshhhhjhhhNhffhhBBjBjjBjw9tfBC",
"CBgfswsfssffgfpssfffsffffgfgpp5555pfsgfggfssfgfswsggffsssfswffBD",
"BBfiwiiqiissptwwsssiwwwsttptpp5555wpttttwwwwiisswwttssiiwwwwtfjC",
"ww::::::--:;::;;:::::;:----;;;;----------:-:;:::;;;:::-;;:::::wi",
"q9------$$$$-;$$-%%--$$$$$$-%$-----$-@@@$$-$---$$----$$$------7q"
};
