/* XPM */
static char *out[] = {
/* columns rows colors chars-per-pixel */
"64 64 255 2 ",
"   c #0E0E0E",
".  c #0D0F1B",
"X  c #10101E",
"o  c #0C0F23",
"O  c #0B0F2B",
"+  c #0C1024",
"@  c #0C102B",
"#  c #141125",
"$  c #091136",
"%  c #0A113D",
"&  c #14143A",
"*  c #2C1C39",
"=  c #3C213A",
"-  c #532B3B",
";  c #6D383C",
":  c #78473C",
">  c #070F44",
",  c #061144",
"<  c #091243",
"1  c #06124C",
"2  c #0A134C",
"3  c #0B184F",
"4  c #161647",
"5  c #061253",
"6  c #0A1353",
"7  c #06135C",
"8  c #0A145C",
"9  c #091959",
"0  c #14155C",
"q  c #181859",
"w  c #241B48",
"e  c #311E4C",
"r  c #261C59",
"t  c #372346",
"y  c #362357",
"u  c #352952",
"i  c #061463",
"p  c #0B1463",
"a  c #08176B",
"s  c #181766",
"d  c #1A156B",
"f  c #061A77",
"g  c #1A1B73",
"h  c #1B1779",
"j  c #1C197C",
"k  c #271B66",
"l  c #371C69",
"z  c #261A77",
"x  c #361E76",
"c  c #112A6F",
"v  c #1A257A",
"b  c #372568",
"n  c #272478",
"m  c #332A74",
"M  c #522E4E",
"N  c #46275A",
"B  c #6A384D",
"V  c #431F68",
"C  c #4C2A6E",
"Z  c #6C3876",
"A  c #7A4549",
"S  c #714774",
"D  c #924F36",
"F  c #AC5938",
"G  c #8D603A",
"H  c #B86734",
"J  c #CB7231",
"K  c #8F4D4C",
"L  c #A65A49",
"P  c #AC5853",
"I  c #9E6841",
"U  c #B56B51",
"Y  c #8F5174",
"T  c #A85A6C",
"R  c #AF6D70",
"E  c #CB744C",
"W  c #C67B60",
"Q  c #F19414",
"!  c #FAAF11",
"~  c #DA8C32",
"^  c #E9932E",
"/  c #F5AD2F",
"(  c #FDD826",
")  c #FACC32",
"_  c #D38B50",
"`  c #ECB24B",
"'  c #E3A258",
"]  c #CF926E",
"[  c #D6AA70",
"{  c #F8D24E",
"}  c #FDEB4B",
"|  c #F1CC66",
" . c #FCE976",
".. c #071D87",
"X. c #1C1785",
"o. c #1C1A83",
"O. c #1C1B8C",
"+. c #061E96",
"@. c #1B1C97",
"#. c #221B83",
"$. c #291C87",
"%. c #231C8B",
"&. c #311F8A",
"*. c #231D96",
"=. c #1B2986",
"-. c #1C358B",
";. c #0A2492",
":. c #1C2796",
">. c #1B3798",
",. c #26248A",
"<. c #362885",
"1. c #242497",
"2. c #382697",
"3. c #283590",
"4. c #181EA5",
"5. c #121EB1",
"6. c #231EA3",
"7. c #0824A9",
"8. c #1A24A7",
"9. c #1A38A7",
"0. c #0824B1",
"q. c #1826B7",
"w. c #1C39B8",
"e. c #2626A8",
"r. c #362AA5",
"t. c #3336AF",
"y. c #2626B6",
"u. c #2638B9",
"i. c #4A2F93",
"p. c #673A91",
"a. c #4C37B0",
"s. c #1D4598",
"d. c #2E4A94",
"f. c #1B48A6",
"g. c #1C51B0",
"h. c #2951AF",
"j. c #2747BA",
"k. c #1F68B1",
"l. c #734992",
"z. c #665E9E",
"x. c #4D4BB5",
"c. c #6F4DAA",
"v. c #4570B1",
"b. c #1B29C8",
"n. c #1B37C7",
"m. c #1A2BD8",
"M. c #1B39D7",
"N. c #252CC5",
"B. c #2336CA",
"V. c #3639C6",
"C. c #2438D7",
"Z. c #3334D4",
"A. c #172EE2",
"S. c #1C38E8",
"D. c #1B3BF9",
"F. c #253AE8",
"G. c #2E3CF0",
"H. c #493CCC",
"J. c #1B54CF",
"K. c #1C47DA",
"L. c #314DCC",
"P. c #2754C8",
"I. c #2745D8",
"U. c #2757D6",
"Y. c #1970D2",
"T. c #2F6BD1",
"R. c #1B48E6",
"E. c #1C57EA",
"W. c #0F4EFD",
"Q. c #1A48FC",
"!. c #1557FC",
"~. c #2448E8",
"^. c #364DEA",
"/. c #2759E7",
"(. c #234AF9",
"). c #2556F7",
"_. c #1A67E8",
"`. c #1D79E3",
"'. c #1965FA",
"]. c #1A77FA",
"[. c #3070E9",
"{. c #2767F8",
"}. c #2877F9",
"|. c #3876F8",
" X c #4F51CC",
".X c #6C55C9",
"XX c #476DD4",
"oX c #6066DE",
"OX c #4876EA",
"+X c #8F5789",
"@X c #AA6B8A",
"#X c #8C64A4",
"$X c #C27E86",
"%X c #9075CA",
"&X c #1793D8",
"*X c #2D8DD0",
"=X c #1A90F3",
"-X c #3888E9",
";X c #2D90E8",
":X c #2889F8",
">X c #3787F8",
",X c #2999F9",
"<X c #3998F9",
"1X c #15B3F4",
"2X c #2FADF4",
"3X c #39A7FB",
"4X c #518CD6",
"5X c #6C89CE",
"6X c #6BADD1",
"7X c #4686F6",
"8X c #4D90F1",
"9X c #6C96F3",
"0X c #47A7F7",
"qX c #52AEF6",
"wX c #6DB3F1",
"eX c #0FC6F7",
"rX c #07D7FD",
"tX c #0AD5FC",
"yX c #08DAFD",
"uX c #15DAFB",
"iX c #33D0EE",
"pX c #09E8FE",
"aX c #18E9FD",
"sX c #13F1FD",
"dX c #24ECFD",
"fX c #36F6FD",
"gX c #4CCFF6",
"hX c #67D3FA",
"jX c #4EE8F9",
"kX c #4BFCFD",
"lX c #57FDFD",
"zX c #6FECFB",
"xX c #66FDFE",
"cX c #79FDFD",
"vX c #B38EAF",
"bX c #A897A5",
"nX c #CEA08F",
"mX c #FDF38C",
"MX c #FAF2AC",
"NX c #9092CF",
"BX c #989DDB",
"VX c #8BACD7",
"CX c #C0B4D7",
"ZX c #93CCF6",
"AX c #ADCFF2",
"SX c #91E5FB",
"DX c #85FEFE",
"FX c #8BFEFD",
"GX c #97FCFD",
"HX c #B1F8FC",
"JX c #C8CFE0",
"KX c #C6FAFD",
"LX c #D3F8FD",
"PX c #E7FDFD",
"IX c #F4FEFD",
/* pixels */
". % % % % % , , , , , , 1 , , 3 % , , , , , 3 9 i 9 7 7 7 9 5 9 7 7 7 7 7 i 8 p p p 0 0 0 0 0 0 0 8 8 7 7 6 5 5 > > > % % % % + ",
". % % % , 3 9 9 3 1 , 1 1 3 , 3 1 1 3 3 5 9 a 9 i 9 7 9 9 i 8 9 q q q r q q 0 0 0 k k r k r q 0 0 0 8 8 8 6 5 5 1 > > % % % % + ",
". % > , 1 9 f f a 9 3 9 9 9 9 9 9 7 9 i a a a a a a a a a k n m b m N M C B B B M N e r r r r q s p 0 p i p 7 5 1 > > % % % % o ",
". , , , 9 a >.k.-.f 9 9 i a f f f f f f f f f f ..>.g.h.v.XXT.XXT.XXT.T.h.t.3.m B K F F B N r r s s s s p p p i 7 1 > > > , % o ",
". , , 1 i ;.;XhXY.;.f f f f ....;...........>.T.8X0X0X3X3X0X7X<X>X7X7X|.7X8X8XOXj.<.B F Q J ; t r k s 0 0 s p p i i 5 > , , , o ",
". , 1 1 9 f 9.Y.9...f f ;.+.+.7.+.+.+.w.P.`.:X,X2X2X3X3X0X0XqX8X8X7X|.|.|.|.OXOX7X8XXXz.K J Q J B y k r s 0 0 0 i i 7 5 1 > > + ",
". 1 1 1 i f ..9...f f ;.7.7.7.7.7.9.OX7X:X].:X,X,X3X3X;X[.[.U.[.[./.I.M.M.m.~.).}.|.7X9X5Xl.J Q Q F M r k q q q 5 8 7 7 1 1 , + ",
"+ 1 1 5 9 i a ..f f +.7.7.0.7.0.P.>X>X}.'.'.'.{.'.K.M.N.n.N.b.n.n.b.b.5.q.q.q.m.I.{.}.>X8X9X%XE Q Q J M r k q q 4 6 7 7 5 5 1 O ",
". 5 5 7 7 i i f f +.0.0.0.0.n.8X<X'.'.'.!.!.Q.S.F.A.C.m.B.m.C.B.N.y.q.b.q.5.5.5.5.b.R.{.}.|.9XBX_ ! ! J M k k k q 6 6 6 6 6 5 O ",
"o 5 7 7 i i a f ..7.0.0.0.U.wX8X'.!.W.W.W.W.D.D.D.F.F.G.F.F.F.~.C.B.C.[.B.b.q.q.5.5.q.M.R.'.}.8XbX{ ( ( H B y k r q 4 6 5 5 5 O ",
"o 7 i i i a a f ;.0.0.0.[.wXSXwX!.W.W.W.W.D.D.D.D.G.(.(.(.~.~.~.~.~.I.R.B.n.n.y.q.4.5.5.b.n.S./.OXbX . ./ L M b r w q 2 2 1 1 O ",
"o 7 i p p f g 3.4Xn.0.XXqX0XwXwX'.W.W.W.W.Q.D.Q.(.(.).!.{.|.|.-X'.'._.E.R.I.B.w.q.q.8.4.4.q.q.B.L.#XnXMX{ ~ K M B D t 4 4 1 5 O ",
"o i i p s c b S z.t.oXqX0X{.Q.!.Q.Q.].].!.'.).Q.).).}.gXSXKXKXHXgX{.=XgX2X_.J.I.u.u.e.:.4.4.4.5.y.l.R MX .) J K B : A w 4 6 5 O ",
"o i a d s b K L Z XX9X<X}.Q.D.D.D.!.3X:X:X].'.).}.qXcXGXFXHXHXGXFXhXzXxXkXzX4XP.P.u.8.e.8.@.4.4.e.i.Y [ MX) ' H K B M t q 4 2 O ",
"o p p k u A ~ I x.9X8X}.).D.D.D.Q.!.,X,X2X'.{.<XzXFXFXFXGXKXHXFXDXcXcXxXkXlXcXhXJ.j.9.9.1.:.4.6.*.i.S ] mX} ` J H D B t e 4 2 O ",
"o p p r B _ ^ z.9X9X|.{.(.Q.D.D.(.!.].jX:X}.0XSXGXFXFXFXGXKXGXFXDXcXxXlXkXlXxXlXiXP.u.1.1.1.*.*.*.i.Z U mXmX` W F E F M t w 4 O ",
"o 0 q y D { ~ NXBX|.{.{.Q.D.Q.D.(.).0XlX:X;XKXHXFXFXFXFXFXGXFXDXFXcXcXlXkXlXlXlXkXiXh.9.1.1.1.,.%.&.p.P mX .^ ] E L J K = w 4 o ",
". 0 q B _ { _ 9XOX/.[.}.(.Q.Q.(.!.).SXGXSXSXLXGXGXFXFXFXFXFXDXDXcXxXlXkXkXlXlXlXfXfX*Xf.>.1.O.*.%.&.C P |  .' $X$XP H J B e 4 # ",
"X q e A ' { nX9X/./.>X|.).(.(.(.).{.KXLXLXPXKXGXGXFXFXFXFXDXcXcXxXlXkXkXkXkXlXcXlXkXiXh.>.3.%.%.*.$.i.P | { E #XvXR P Q F M q # ",
"X q e D ` { nXXXU.[.wXqX{.(.Q.).(.{.LXPXPXPXHXFXFXcXcXxXxXxXlXkXfXfXfXfXkXlXlXFXcXlXkXT.9.3.=.%.%.&.C K { { W #X%X$XU Q Q M w O ",
"X w N D / ) nX XL.OXKXHX>X).).(.~.{.VXPXPXPXHXGXcXlXlXkXjXgXiXjXkXfXsXsXkXxXcXFXcXxXcX*X9.3.,.%.$.%.C K ` { R %X%XvXR ~ ) : 4 @ ",
"X w N K ^ ) ] x.V.XXAXZX>X{.~.~.).).|.LXPXPXLXHXFXlXiX*Xk.k.s.f.*XiXuXaXuXfXlXcXxXkXkXqXs.:.=.#.#.*.2.T ` ` @X.XoX%XvXJ { G u # ",
"X r y K ' / ^ l.t.G.|.|.)./.~.(.).)./.wXPXLXIXLXHX6Xk.s.s.s.s.s.s.*X*XaXyXtXuXdXfXaXaXiXf.3.,.#.#.*.i.P ) ^ @X.X.X%XvXE  ._ A # ",
"X q y l.nX] ^ P i.Z.G.^.~.~.I.~.).).I.L.wXP.AXIXJXd.d.3.-.c =.-.s.k.T.1XyXtXtXrXrXrXrX1Xf.=.j #.%.*.p.F / _ +X.X XoXNX_  .| : * ",
"X q b z.NXbXE E Y H.Z.G.I.I.C.I.~.).C.B.L.u.v.PX5Xs.-.v v n v v v s.g.`.pXrXrXrXrXrX&XJ.>.=.=.#.*.&.Z E / R l. XH..XNX]  .| A @ ",
"X q n 5X5Xz.+XY T c.H.H.V.B.B.B.C.Q.B.w.q.9.3.5Xm v n c g v g v v -.f.Y.uXrXrXrXrX&XY.j.>.=.z #.*.&.Z J E +Xc.x.H..X5X] { W s @ ",
"+ 0 3.4X4Xv.p.p.p.#Xc.H.a.N.y.y.B.~.b.q.8.:.n =.v v v g d s s g v -.f.k.uXrXrXrXeX`.J.g.-.=.z z %.2.Z J E +Xx.a.H. X%X[ { S a @ ",
"+ p f.>X8XL.t.a.a.H.a.p.t.r.y.6.4.b.B.@.o.g v h k g s s s s s d v -.f.Y.aXrXrXrXtXY.J.f.=.v z h #.<.Z W Y a.x.L.a.x.NX' ] <.s @ ",
"+ a g.:X-Xj.t.r.a.H.a.r.r.6.6.%.*.@.8.@.h d d d s d d q d q d z v -.g.&XuXrXrXrXyX2X*Xk.=.v z z $.i.S T p.t.4X9Xj.x.bX[ bX,.p @ ",
"o f P.:X7Xt.t.y.y.N.Z.6.6.&.%.X.j o.O.@.O.h d d d s s d q d d g =.-.k.eXrXrXtXpXdXfXiXs.=.z n 1.2.i.Y Y C 2.v.v.a.z.[ nX4X=.s @ ",
"o f J.>X-Xu.u.y.y.N.y.6.6.*.X.z z h h O.@.o.d s s s s 0 d d k v -.s.k.yXyXyXuXaXfXfXY.>.3.:.,.1.1.Z U B x ,.1.1.2.S nX6X4X3.q # ",
"o f Y.<X8Xu.y.y.y.N.y.6.*.&.$.z z d h z :.O.o.h d d d d d d h j s.f.Y.yXyXaXaXaXfXiXg.>.1.:.:.%.i.K P C x $.1.,.i.+XbXqX[.3.0 & ",
"o ..U.0X0Xu.y.y.y.y.6.6.*.%.z x k k k z O.,.,.<.z z z z n m m d.s.g.&XeXpXaXdXdXdX*X>.9.1.:.*.,.C K M x $.%.%.*.i.l.5X3X[.s.6 # ",
"O f Y.3X0XV.6.y.y.6.y.6.&.x V V V V l x x C x x m x m n m m m v.k.&XeXpXdXdXdXdXiXh.>.>.:.=.#.$.Z V x $.%.X.O.*.2.i.OX<X-Xv i @ ",
"O f Y.8X0XL.y.e.2.i.i.i.V V V V V l k l z x n $.x #.n z n n d.k.&XtXyXaXdXdXsXuX*Xk.>.=.g h #.2.x z z #.%.X.X.O.:.y.[.<X;X=.i @ ",
"O a P.<X<XP.y.i.p.i.2.r.2.&.z z z z z z z z z z #.h g v v c >.v.xXaXyXaXsXdXdX&XwXd.m n g d >.T.z z h X.X.X.X.O.4.u.[.2X;Xv i @ ",
"o a f.>X0XXXa.2.2.r.6.y.6.*.#.#.X.#.X.X.j h o.:.:.h g g g =.>.XXHXkXtXpXsXaXaX`.T.d.C C l k z %.h h h X.X.X.z &.:.n.T.,X;Xc 5 O ",
"o i 9.>X8X^.N.6.6.6.6.y.6.*.O.X.X.h h #.o.O.q.n.q.O.h h v -.f.4XzXdXtXpXaXaXtX`.U.3.b N N V l z h h h X.X.X.Z &.8.I.Y.3XT.i 5 + ",
"+ i 3.8X{.G.Z.r.6.6.6.y.y.4.@.%.X.X.X.X.O.q./.gX[.:.h h j :.f.;XtXtXtXyXpXaXeXY.J.9.n l l l V l x z X.X.X.X.&.X.w.K.`.2XT.7 1 + ",
"+ q m 5XOXG.F.y.6.6.6.y.6.6.*.@.$.X.X.#.X.@.C.qXT.@...o.=.=.w.=XtXrXtXtXyXdXiX_.K.K.o.d z x l V x x $.*.4.@.@.4.w.w.2X,Xs.5 1 + ",
"X q C 5XXXL.B.B.y.*.e.e.8.e.8.*.O.O.O.O.X.X.@.C.q.h o.j o.;.w._.=X1XtXtXrXdXhX].R.I.w.o.z z z z z $.2.r.q.5.4.w.q.J.1X;Xv 5 , + ",
"# r A z. XL.y.Z.C.y.e.u.9.e.1.O.*.@.O.O.o.X.O.8.O.h h j o.-.J.-XSX2X1X1XeX1X2XE.R.R.K.q.O.#.$.%.*.6.y.y.N.b.q.K.q.&X,XY.a 5 , + ",
"# y L p.oXV.L.N.~.S.M.P.P.P.q.e.4.:.*.O.X.X.X.X.X.h h j =.:.n._.ZXiX=X].].'.'.E.R.K.K.M.n.B.B.q.q.b.m.m.N.Z.n.m.M.=X=Xf.7 3 , + ",
"# N H K x.H.L.t.C.~.S.Q./.E.~.K.N.q.4.*.#.#.j j j h j h X.8.K.W.W.'._.!._._._.E.K.K.K.M.M.B.N.n.b.m.A.m.m.m.^.M.E.=X;Xc 7 5 , + ",
"& M E I 2.L.Z.t.V.~.S.R.).E.K.B.u.8.8.O.#.z j z z X.X.X.o.q.R.Q.!.E.J.Y.`.&X&X1X&XP.n.n.n.n.b.m.m.A.A.A.A.D.S.S.;X,XP.f 7 5 > + ",
"# N I ' Z XXoXL.y.~.~.R.E.E.U.J.u.e.*.%.X.h j X.j j X.j O.b.R.E.E.K.P.Y.rXrXrXrXtX&X9.9.w.b.m.m.A.F.~.F.S.R.S.E.,X7X-.p 7 5 , + ",
"# N I { L a.8X8XP.L./.U.U.U.P.P.j.9.*.%.#.#.#.z o.o.X.O.8.n.C.~.K.J.U.eXrXyXrXrX1Xg.f.9.q.q.b.m.F.~.)./.).S.R.}.7XT.f p i 5 1 + ",
"# N K { ` S  XwXqX[.OX[.`.U.U.P.j.e.*.*.%.%.%.X.#.o.@.e.b.n.V.Z.K.J.2XpXrXrXyXrX&Xg.j.w.b.b.b.b.M.{.|.>X{.Q.'.[.9X,.f i i 5 5 O ",
"# M K | } E l.5XwX0X0X0X*XT.U.L.j.t.e.1.&.*.%.%.#.1.y.y.N.Z.Z.V. X4XjXpXpXyXyXyXeXJ.C.B.b.b.b.b.m.{.<X0X<X}.|.9Xx.f g a i 7 6 O ",
"# N A _ { ) E l.9XhXqX6X0XT.T.L.L.u.e.1.*.&.$.$.*.e.u.y.r.a.H. X XVXxXpXpXpXpXpXpXuXJ.N.N.b.b.m.m.).0X3X3X<X9XNXm h d a i 7 7 O ",
"# r M I J ) / J @XVXwXhXwX8XXXL.j.t.r.e.2.&.*.$.e.t.r.i.i.a..X.X^.7XcXpXpXpXpXpXpX1XC.m.N.b.N.b.m.).3X0X0XwXNXR x z s d p 7 7 O ",
"X e N A H Q ! ! Q ] bXVXVXVX5Xx.x.t.r.a.2.i.i.i.i.i.i.l.+X@Xc.H.^.).kXpXpXpXpXpXtX_.m.Z.Z.m.m.m.S.Q.0XhXZXVXY P b z d a i 7 7 O ",
"X e - ; D H J ! ( ) ` [ nXbXbXNXc.p.p.p.p.p.Z p.+XY R E E #XH.G.G.^.}.uXpXsXpX1X_.~.F.C.m.F.m.A.D.|.ZXZXCX+XE K b v c s 8 7 5 O ",
"+ w - H D : H Q ! } mXmX{ ` ` [ ] R T T P W E _ ' ^ Q E p.H.Z.Z.G.(.(.).].}.).Q.Q.~.(.Z.H.G.G.G.^.wXAXCXR E E A b k c q 8 5 6 O ",
"X 4 - G F ; A H J / { mXmX .} ( ( ( ) ( / ( ! ! Q E T p.a.V.Z.G.G.D.(.(.(.(.(.Q.(.(.G.H..X#X#X.XVXCXnX] ~ Q J M m v.c c 7 5 5 O ",
". 4 4 t = M B B F J Q ) ( } } } } } ( ( ! ! ! E R +Xp.H.a.Z.Z.Z.G.G.D.G.(.(.Q.Q.Q.(.^.^..X@X' ^ / / Q ! ( ~ B N d.ZX4Xc 6 5 1 O ",
". % 4 & w e M M B K F J Q / / ( ) ) ) ` ` ] @X#Xc.a.H.H.H.Z.Z.C.^.D.Q.Q.Q.!.!.'.'.'.'.|.OXoXNXbXU H J J H A M b c v.k.3 3 3 3 + ",
". > 4 4 & * e t - B ; D F H J ^ ` ` [ nXvXBXNX5X X XH.H.V.Z.F.F.9X).Q.Q.!.'.].:X,X=X,X8X9XBX.XC b y N N y N r k c c c 3 3 , , + ",
". % % > > & w w e t - - ; D D F F L R bXCXNX9X4X7XOXOX^.^.).(.(.OX).Q.!.!.'.=X=X,X3X8X8XXX2.n m k k k r k r q q c c 3 3 , , , + ",
". % % % & 4 4 w e w t = - - - - ; - B B S 5X9X9X7XOX|.{.{.{.}.}.{.'.'.'.'.'.=X=X<X7XL.8...h d q q r q q 0 q 0 6 w s.3 % , , % + ",
". % % % > % 4 4 4 4 w * * * = e t t t u u m m h.XXOX7X>X>X:X,X,X,X:X=X}.:X[.[.P.w.;...f p 8 0 q 0 q 6 q 3 3 3 2 , 3 3 , , % % + ",
". $ % $ % & % & 4 4 4 4 & & & & & w w 4 4 r r s g ..-.f.k.T.T.[.[.P.P.9.;.;.f f f a i 8 8 5 6 6 6 2 2 1 3 3 2 % , , % % , $ % + ",
". $ O $ $ $ $ $ % % % & O & & & & & & & < < 4 2 2 9 8 i a f a a a i i 7 8 7 9 7 7 5 1 1 > > , , , < < < , $ % % $ $ $ $ $ $ $ . ",
"                                                                                                                                "
};
