/* XPM */
static char *out[] = {
/* columns rows colors chars-per-pixel */
"64 64 239 2 ",
"   c None",
".  c #0A0A0E",
"X  c #0B0D11",
"o  c #0F1113",
"O  c #131415",
"+  c #151619",
"@  c #1B1B1C",
"#  c #1A1917",
"$  c #120F10",
"%  c #281C17",
"&  c #25170B",
"*  c #2A221C",
"=  c #34241C",
"-  c #39261B",
";  c #1D1D21",
":  c #211F21",
">  c #1E2123",
",  c #1D2429",
"<  c #222324",
"1  c #242629",
"2  c #26292B",
"3  c #2A2A2B",
"4  c #2A2624",
"5  c #352A25",
"6  c #3B2B24",
"7  c #322D2D",
"8  c #3B2E29",
"9  c #352622",
"0  c #3D322B",
"q  c #383129",
"w  c #292C31",
"e  c #342D31",
"r  c #3D3534",
"t  c #3B3738",
"y  c #2C3133",
"u  c #1F2118",
"i  c #4D2A19",
"p  c #43332D",
"a  c #473528",
"s  c #563626",
"d  c #433531",
"f  c #443934",
"g  c #4A3B34",
"h  c #433A3A",
"j  c #4A3E3B",
"k  c #483735",
"l  c #523D37",
"z  c #402D25",
"x  c #663B29",
"c  c #4D423C",
"v  c #494036",
"b  c #51443D",
"n  c #5A483A",
"m  c #5D523F",
"M  c #664836",
"N  c #774A39",
"B  c #67543D",
"V  c #6B4B34",
"C  c #353C43",
"Z  c #453E43",
"A  c #4B4243",
"S  c #494448",
"D  c #524642",
"F  c #554A45",
"G  c #5A4C44",
"H  c #544B4C",
"J  c #594B48",
"K  c #5D524C",
"L  c #5B5144",
"P  c #444C54",
"I  c #544D52",
"U  c #5C5353",
"Y  c #5B565A",
"T  c #595658",
"R  c #48535C",
"E  c #645445",
"W  c #62554D",
"Q  c #695A4A",
"!  c #755946",
"~  c #635653",
"^  c #645A53",
"/  c #6A5D53",
"(  c #635B5C",
")  c #685A57",
"_  c #6B534A",
"`  c #78634C",
"'  c #6C625D",
"]  c #696259",
"[  c #72645B",
"{  c #7B6B5C",
"}  c #776756",
"|  c #7A705F",
" . c #4A5864",
".. c #585B65",
"X. c #635E64",
"o. c #5C666C",
"O. c #6A6364",
"+. c #696469",
"@. c #726C6C",
"#. c #766A63",
"$. c #7C7368",
"%. c #696B73",
"&. c #736D72",
"*. c #786D71",
"=. c #757173",
"-. c #7A7374",
";. c #7B767B",
":. c #79767A",
">. c #6A737E",
",. c #834E3B",
"<. c #895947",
"1. c #935D48",
"2. c #885D50",
"3. c #876857",
"4. c #956858",
"5. c #8C745B",
"6. c #92775C",
"7. c #89634B",
"8. c #AA745C",
"9. c #A5785C",
"0. c #A56E58",
"q. c #896C62",
"w. c #936E62",
"e. c #847464",
"r. c #8B7869",
"t. c #947C64",
"y. c #997868",
"u. c #847978",
"i. c #967974",
"p. c #A87B66",
"a. c #B17C63",
"s. c #B27C6B",
"d. c #A37C72",
"f. c #D3C927",
"g. c #9C8165",
"h. c #9C846A",
"j. c #99856B",
"k. c #8C8377",
"l. c #998876",
"z. c #A3896E",
"x. c #A9856B",
"c. c #B3836B",
"v. c #BA856D",
"b. c #B9876E",
"n. c #A48B72",
"m. c #AA8D74",
"M. c #A78978",
"N. c #BD8A72",
"B. c #BC8B7A",
"V. c #B58873",
"C. c #AC9274",
"Z. c #A5927C",
"A. c #AC947B",
"S. c #A99578",
"D. c #B2967B",
"F. c #B49A7D",
"G. c #BA9C7E",
"H. c #B39376",
"J. c #A9926D",
"K. c #BCA27E",
"L. c #BFB05D",
"P. c #CAB856",
"I. c #C28E75",
"U. c #C08F7C",
"Y. c #C5947C",
"T. c #C9957C",
"R. c #CB9A7F",
"E. c #CBB270",
"W. c #DFC774",
"Q. c #7D7B82",
"!. c #6E7783",
"~. c #837E83",
"^. c #7C858D",
"/. c #8A868A",
"(. c #948A8A",
"). c #8E8B92",
"_. c #928D94",
"`. c #979499",
"'. c #9D9384",
"]. c #AA9685",
"[. c #B49C82",
"{. c #BB9E82",
"}. c #B99888",
"|. c #AA908A",
" X c #BDA284",
".X c #BDA48A",
"XX c #B8A58B",
"oX c #BEAC94",
"OX c #BDA995",
"+X c #AFA594",
"@X c #9C9DA3",
"#X c #AFADB2",
"$X c #C49D81",
"%X c #CB9B84",
"&X c #CA9886",
"*X c #D29E87",
"=X c #C2A485",
"-X c #C4A985",
";X c #C9AB87",
":X c #C2A68A",
">X c #CCA58A",
",X c #C4AA8C",
"<X c #CAAC8C",
"1X c #CCA186",
"2X c #D7A58C",
"3X c #CDB18D",
"4X c #CAB481",
"5X c #D2B48E",
"6X c #C5AC92",
"7X c #CAAE92",
"8X c #C3A995",
"9X c #DCA893",
"0X c #CCB294",
"qX c #CDB39A",
"wX c #C6B29A",
"eX c #D2B494",
"rX c #D5B995",
"tX c #D1B59B",
"yX c #D5BB9B",
"uX c #D9BD9B",
"iX c #D9BA97",
"pX c #E3AC96",
"aX c #EBB49C",
"sX c #E0A98F",
"dX c #D5BCA3",
"fX c #CCB9A3",
"gX c #EBB7A3",
"hX c #F1BAA3",
"jX c #D9C39B",
"kX c #E4CB97",
"lX c #DDC2A4",
"zX c #D9C3AD",
"xX c #E3C6A7",
"cX c #F8CBB8",
"vX c #ECD2B7",
"bX c #B6B9C0",
"nX c #CFCED3",
"mX c #EEEFF3",
"MX c #DFE0E8",
/* pixels */
"                                                                                                                                ",
"                                                                                                                                ",
"                                                                                                                                ",
"                                                                                                                                ",
"                                                                                                                                ",
"                                                                                                                                ",
"                                                                                                                                ",
"                                                                                                                                ",
"Z.oXQ y 2 , , , O O o o ; t k.h.c.N.I.I.N.N.I.R.$X:XtX8X:X8XqX8XqX6X7XyXkXXXj.f u > Q x.N.&XgXcX*Xp.k.8X:X.X:X{.8XA.z.3.5.g.m. X",
"Z.+XQ 2 , , , ; O o O O @ F j.g.c.N.N.I.I.N.I.Y.$X>X,X7XtXtXqXqXyXtX0X5XjXF.$.5 + * ` p.s.&XgXhX2Xy.k..X.Xm.H.D.H.}.[.{.A. X.X.X",
"Z.+X/ q 2 , @ + X . . . u ' ].m.c.v.v.N.N.N.I.Y.G.$X8X7X7X7X$X8XtXdX0X3X0Xl.W < @ 3 { s.B.&XgXcX9Xw.k.[.H.D.{.=X{.:X:X6XXXK..X,X",
"OXoXQ y 2 > @ + X . . . 4 l.6XH.c.N.v.N.N.N.I.R.$X$X9XtXtX7X7XqXtXqXoX6Xe.& # @ ; 3 q.s.&X&XgXcX9Xq.{ 5.m.{.G.{.$X{..X.X X X X.X",
"oXoXQ y 2 u u + o . . o q F.jXXXc.c.b.N.N.N.I.T.$X%X>X.XeXtX8XqXdXqXdX8XE 4 1 1 ; e q.c.B.&XgXcX2Xy.t.C.n.{.{.:X X{.:X6X,X,X-XK.",
"XXXX/ 7 2 , u + o . . o v XXjXK.9.c.b.b.N.v.I.$X$X$X>X<X7X8XD.M.:XdXdXwXv < < 3 w t q.c.U.&XpXhX%XH.].m.z.A.m.{..X:X:X.XoX XXXK.",
"OXXX] 3 , , u u o X o u v +XoXoXx.a.v.v.v.N.I.T.%X%X<X7X:X}.}.D.:X8X8XZ.8 > @ > 1 t 4.V.U.&XpXaXR.6.` h.].F.{. XF. X X X.X:X.X,X",
"oXoX} 7 , > , u o o O u m oX4XoXx.8.b.N.N.N.N.Y.$X1X7XeXtX7X7XtXqX:X}.5.5 * > 1 3 t w.V.&X*XpXpXY. XXX,X[. X,XoX:X:X,X>X.X.X X.X",
"oXoX] 7 3 > u + + # # 7 L oXoXyXG.9.c.b.b.N.I.Y.$X>X2XeXeXqXtXtX7X8X:X} 3 : : 1 w t w.B.&X2XaXsXY.H.K.F.K.F.XX.X,X,X,X,X,X.X X,X",
"zXfX| 7 2 < @ O # @ < 4 ^ 6XfXdX0X9.a.b.N.N.Y.Y.%X>X<X<XeXtX:X:X8X7Xm.n 1 : : 1 1 d w.s.&XsXaXsXR.K.XX X.X7X.X,X7XwX0X3X6XtXuXtX",
"oXwX' 7 2 > # O > < u * $.wXqXtXuXx.a.b.b.I.Y.R.%X1X>X=X>X,X7X<X7X.Xm.b 1 : 1 : 1 r w.&X&XsXaX2XR. XK.XX-X6X,X0XrXyX6X.X.X,X0X6X",
"zXzX[ y 3 > + # u < 4 7 k.0XwXtXtXm.c.v.I.I.T.1X%X>X>X<X>X,X:X8X6XOX|.k 3 1 1 1 1 r y.&X*XpXpXR.-X.X,X.X.X7X,X6X0X.X,X X[. X:X.X",
"dXwXW 3 2 > # # < < 4 t l.6X:X6X,Xm.a.N.I.I.T.1X%X>X>X$X>X3XtX$XM.e.E f r C 3 : 3 k d.&X2XpXsXT.H.K.oX.X.X,XtX0X,X,X-X-X:X:X:X6X",
"dXwXQ 7 4 ; + O # < 4 L +X6X6X0X7X{.c.N.I.T.R.R.*X1X>X3X:Xz.3.n a 8 6 0 d Z e e e D c.&XpXaXsXV.j.XX6X6XtXwX6X.X7X-X;X,X:X{.,X7X",
"dXfXQ e < @ + + O u 3 | oXwX0XwX7X>Xv.I.T.T.R.2X%X1X>Xm.3.l l g g f g c Z k C d e _ B.&XaXgX9Xi.$.j.+XoX6XoX X X X.X=X X:X,X.X{.",
"qXoXK w , @ @ + O # t l.wXwX0XqXqX7XN.I.Y.T.R.1X&X}.5._ n j j Z A Z A S Z H H Y 8 ) }.*XgXhX2Xe.O.$.{ ].XXXXOX6X,XK. X7XyX7X,X0X",
"oXZ.v w > @ @ @ ; < K oX0XtXqX0X7X7XB.V.x.p.M.A.y.3._ J O.( H U X.( Y I Y Y Y Y f q.B.*XaXhX2X) O.#.+Xk.].wX6X.X,X.X0XeX0X,X3XtX",
",Xe.Z C w , > ; @ y { 6X0X0X,X6X{.[.i.} Q _ #.[ [ ) ) U O.+.Y O.~.~.%.X...X.X.U D i.Y.%XpXaX9Xr.u.-.O.O.] Z.OX[. X X.X-X.X:X0XyX",
"oX|  .R C , 2 > > t e.wXlXA..Xr.E [ [ ^ ( X.u.-.&.@.=.=.&.&.@.*./._.Q.o...X.Y #.l.V.N.I.*XsXhXMXbX@X=...K Q l.oX6X X.X,X.X0X0XqX",
"Z.X.o.R C t 2 > 4 v k.wXoXS./ F H ' @.&.&.&.&.Q./.Y :./.).~.%.Q._.`.~.!...Y ~.&XB.s.a.v.T.*XxXmXmXmXnX).@.D | Z.6X,X,X.X-X,X0X0X",
"] o. .R C y 2 , 3 t [ ].k.L b L ' ( X.;.(.;.%.Q.)...+.).#X).&.>.~.`.~.&.X.~.9X&Xv.a.0.a.I.2X].nXnXMXnX@X@.U ] j..X<X.X:X:X.X3X0X",
"R o.R >.P y , , t v F | #.( I I @.=.-.&.`.:.:.%._.&.R Q.#X`.%.;.Q.`.~.u.(.8X&X&Xa.8.8.8.v.1Xt.;._.#XbX#X=.T ] r. X0X,X,X0X,X,X,X",
"R  .o.^.C , , , w S H ;.@.O.O.@.~.~.(.=.&.~.).Y /.Q.I ).@X`.!.~.!.%.Y u.}.U.s.s.a.a.8.8.v.*Xl.( ~.`.).`.@.U U e.S. X0X0X0XtX0XtX",
" . .>.P , , + > t D Y ;.&.+.:.).).;.-.+.u.:.).X.Q.Q.Z Q.)./.%.X.+.Z Z |.B.4.2.0.a.a.a.a.a.T.p.~ @.=.&.:.O.K ( [ A.oX0X,XF.:X6X<X",
" . .o.y , u # 5 D ( -.-.X.X.X.~.~.~.~.~.+.~.~.+...Q.C Y &.@...I I C #.~.s.i x 1.8.a.a.8.a.T.s.W ( ( X.( ( ) ^ [ m.oX,X,X:X:X7X,X",
" .>.P 2 * # # U @.@.u.~.*.Z @.~.|.~.@X~.q.~.*.*.Z %.Z I Y Y I A Z d w.1.x & = ,.8.a.a.8.a.T.p.G ~ ~ ~ ~ ~ U W [ A..X.X,X=X,X,X.X",
"o.P w 4 q L [ -.=.=./.#X~.X.*.-.`.~.~.&X~.~.i.w.j ( S h I I A A Z Z i.M - - - x 0.8.a.0.0.v.4._ ~ ~ K H F J K }  XoX:X,XF.=X=X X",
"t 3 t K | j.r.u.k.Q./.`.u.+.) u.~.~.~.~.~.&X~.d.l ) A t H I S Z Z Z l k = 6 9 x ,.1.1.,.1.0.! l J J J D c F G { F. X X-XG.=X:X X",
"c | r.n.D.Z.r.@.:.Q.(.(.O.[ [ u.~.d.w.i.d.&X~.s.l _ Z p Z J S Z Z D g k 8 6 - N <.,.,.N 1.4.s l b b b b D D K 3.}.{.{.{.{.{.{.D.",
"F.[.{.=X$XD.5.E ( O.k.] _ 3.q.q.s.d.w.w.s.&Xs.~.p Z k 8 Z H Z g Z H D k z 8 = ! 1.1.<.,.<.2.s l b j j b D J / r.[.m.n.h.D.:X:X:X",
"3X;X<X3X7X X6.` Q W L a ! 4.w.y.w.i.i.4.d.~.d.i.9 Z k 9 k A Z Z j U _ D 6 - - N ,.,.,.,.,.N a k g l b F J E ) i.Z.y.y.M.8X:X8X,X",
"5X5XiXtXeX0X-Xz.S.F.M i V 4.y.y.d.i.d.4.w.s.w.4.= k k 9 r g k k D D Z b 8 = z l x N x s ! s z a k b E K K ~ [ '.XX6X.X.X7X8X,X:X",
">X;X-X=X-X{.:X7X0X0X7.V V 6.d.d.s.4.w.4.y.y.2.! 9 z d 9 5 d 8 r k k d g a 8 - i i i a - = - 9 6 p g b G ^ ) { ].XX6X,X,X3X<X,XK.",
"K.Y. X$XG.H.=X;X<X7Xm.7.7.y.5.3.2.2.7.4.w.2.2.M s Z d 9 5 k 8 9 8 k 0 0 0 6 8 - - - i z = = - 8 6 p v G ~ ) e.F.F. XK.K..X-XK. X",
"K. X=X=X X$X=X<X<X,Xm.x.6.3.` 7.d.3.7.<.<.! _ s G J 8 9 9 8 8 9 6 g 6 6 0 = - - - - = = = = = = 5 p k b K $.{ F. X.XK. X X-X-X<X",
"[.{.{.=X=X{.=X,X7X,XG.6.N g.wX0X&X{.{.t.x s k Z j d k 5 8 p U d 0 f 0 - = * = - a a z 6 = = % % 0 g b D u.@.} S.K.>XK.:X3XK.3X4X",
"F.}.{.:X{.G.-X.X=X{.F. X{. X XF.F.H.G.F.` z 8 k 7 D * 8 j f 0 5 F v a - * - v L { n.j.r.g & & * 6 0 J ) =.] k.K.=X X-X,X-XE.kXW.",
"[.XX[.}.{.F.F.G.D.{.F.D.H.C.D.F.H.H.J.g.y.G K ( F c % % 9 8 r v { } B v a a E 5.j.j.} v = * = 6 f g /.+X).$.j.F.K.=X XR.;XE.E.P.",
"l.m.S.S.S.H.H.C.C.H.m.n.h.g.g.j.t.6.t.m.l.} ] [ W W 4 % 5 d L ` 3.` { ` ` ` { ` ` m d 0 5 r v v ) g k.#Xk.$.h.H.G.H.F.G.>X:XE.R.",
"Z.].F.[.S.J.J.J.J.m.m.n.n.h.h.z.g.6.t.j.t.} E [ O.D % = t $./ Q Q B B ` ! ` ` ` ` n v 0 q Q ] ] ~ J -./.@.$.h.x.H.G.=X;X;X3XeX4X",
"[.].Z.Z.C.g.6.g.6.g.z.z.h.n.j.j.6.j.h.t.} ` Q ^ [ b * 5 t ] E B M V B ! ! ` ` ` ` ! W E Q { { b J #.u.u.k.l.S.J.J.V. X;X5X3X3X3X",
"OX].l.S.z.z.g.h.5.g.z.g.h.t.t.j.j.t.t.t.` } $.L ] $.f f ] L m B B ` ` ` ` ! B ! ! B _ E B B Q F W /.u.u.k.[.,X;X-X=XR.-X;X;X;X-X",
"e.Z.n.S.S.S.A.A.J.J.n.z.h.n.l.h.j.h.g.t.r.j.$.| ' e.L F =.| ` k.j.j.r.5.6.6.6.6.6.6.5.5.{ ` 3.$.'.(.( '.]. X<XeX5X3X>X;X;X;XG.K.",
"S.[.].XX X[.K. XK.K.F.F.A.D.A.S.n.C.C.h.g.n.Z.Z.k.} G k.l.j.z.J.S..XF.J.m.z.C.C.C.F.D.[.D.h.5.r.|.|.l.[.>X5XrXiX5X5X5X<X;X<X,X;X",
"L.K.XXK.[.XX.X,X6X,X:X:X:X:X.X.X.XK.F.K.K.F. XwX:XoX].XX6XoX X4X4XwX<X.X XF..X:X,X7X>X,X<XeX,X:XwXqXqXeX;X5XiXiXrX7XeXeXuXxX<X-X",
"f.f.P.4XtXjXtXqX0X0XeXeX0X<X0X3XeX3X0X3XoX<X0XrXeX0XeXqXrXrXK.S.XX,X-X-X0X0X0X3X;X0X0XeXeXeX<X7X7X7X,X XF.<XlXeX7X7XyXlXyX<X=X-X",
"P.P.E.kXvXxXyXwXlXdXjXiXuXjXrXjXjXuXyXyXjXrXyXlXrXyXuXyXeX3X X X7XyXtX3X>X,X<XeXyXuXlXlXxXuXyXyX:X;X<X>X{.;XeXeXtX7XdXyX0X,X=X;X",
"jXjX5XxXzXwXjXlXxXiX0XyXiXuXeXeXuXyX5XyXjXjXlXyXjXyXuXuXrXrXjXjXrXeXF.K.>XeXuXxXiXkXxXxXlXiXiXuX5XiXyXiXeXeX3XrXiX3X<XeX<X>X:X,X",
"                                                                                                                                ",
"                                                                                                                                ",
"                                                                                                                                ",
"                                                                                                                                ",
"                                                                                                                                ",
"                                                                                                                                ",
"                                                                                                                                ",
"                                                                                                                                "
};
