/* XPM */
static char * C:\Users\Rin_K\Documents\pared_caballero2_xpm[] = {
"64 64 362 2",
"  	c None",
". 	c #020100",
"+ 	c #010100",
"@ 	c #020101",
"# 	c #030101",
"$ 	c #040100",
"% 	c #050100",
"& 	c #060101",
"* 	c #060201",
"= 	c #080200",
"- 	c #090201",
"; 	c #060200",
"> 	c #0B0300",
", 	c #070201",
"' 	c #050201",
") 	c #070200",
"! 	c #060100",
"~ 	c #090200",
"{ 	c #040101",
"] 	c #030100",
"^ 	c #050101",
"/ 	c #080201",
"( 	c #0C0300",
"_ 	c #0A0200",
": 	c #0A0201",
"< 	c #0A0300",
"[ 	c #0A0301",
"} 	c #0D0300",
"| 	c #0E0301",
"1 	c #0E0300",
"2 	c #0D0301",
"3 	c #0B0301",
"4 	c #110401",
"5 	c #0F0400",
"6 	c #120500",
"7 	c #130500",
"8 	c #120501",
"9 	c #140500",
"0 	c #150500",
"a 	c #100401",
"b 	c #130501",
"c 	c #160600",
"d 	c #110400",
"e 	c #0F0401",
"f 	c #0B0200",
"g 	c #140501",
"h 	c #1C0901",
"i 	c #1C0800",
"j 	c #170700",
"k 	c #180700",
"l 	c #1B0801",
"m 	c #1B0800",
"n 	c #1D0900",
"o 	c #190700",
"p 	c #1A0700",
"q 	c #1A0800",
"r 	c #170600",
"s 	c #150601",
"t 	c #0E0400",
"u 	c #100400",
"v 	c #150600",
"w 	c #210B00",
"x 	c #250D00",
"y 	c #210B01",
"z 	c #1D0901",
"A 	c #1C0801",
"B 	c #220C00",
"C 	c #260E00",
"D 	c #270E00",
"E 	c #230C01",
"F 	c #1F0A00",
"G 	c #1E0900",
"H 	c #190701",
"I 	c #0C0301",
"J 	c #1F0A01",
"K 	c #240D00",
"L 	c #230C00",
"M 	c #120400",
"N 	c #270E01",
"O 	c #2A1000",
"P 	c #2C1100",
"Q 	c #291000",
"R 	c #2C1101",
"S 	c #250E00",
"T 	c #290F00",
"U 	c #220B00",
"V 	c #200A01",
"W 	c #220B01",
"X 	c #1E0A00",
"Y 	c #1C0900",
"Z 	c #200B00",
"` 	c #240D01",
" .	c #250D01",
"..	c #260D00",
"+.	c #260D01",
"@.	c #220C01",
"#.	c #200B01",
"$.	c #1E0901",
"%.	c #2C1001",
"&.	c #2E1200",
"*.	c #2D1100",
"=.	c #301300",
"-.	c #321400",
";.	c #331500",
">.	c #280F01",
",.	c #2B1001",
"'.	c #240C00",
").	c #2E1201",
"!.	c #2F1200",
"~.	c #301301",
"{.	c #311300",
"].	c #361500",
"^.	c #331400",
"/.	c #361600",
"(.	c #280F00",
"_.	c #160601",
":.	c #180701",
"<.	c #2A0F00",
"[.	c #2A1001",
"}.	c #2B1000",
"|.	c #2D1200",
"1.	c #2D1101",
"2.	c #280E00",
"3.	c #2C1000",
"4.	c #331401",
"5.	c #321401",
"6.	c #371601",
"7.	c #301200",
"8.	c #351500",
"9.	c #200A00",
"0.	c #260E01",
"a.	c #351600",
"b.	c #321300",
"c.	c #341500",
"d.	c #341400",
"e.	c #351501",
"f.	c #0E0401",
"g.	c #361601",
"h.	c #341501",
"i.	c #381700",
"j.	c #2F1201",
"k.	c #351601",
"l.	c #371600",
"m.	c #311301",
"n.	c #371701",
"o.	c #3A1800",
"p.	c #391700",
"q.	c #391800",
"r.	c #120401",
"s.	c #1A0801",
"t.	c #391701",
"u.	c #3A1801",
"v.	c #3B1800",
"w.	c #3D1900",
"x.	c #3C1801",
"y.	c #2E1100",
"z.	c #110500",
"A.	c #230B00",
"B.	c #381701",
"C.	c #321301",
"D.	c #341401",
"E.	c #3C1901",
"F.	c #401B00",
"G.	c #3D1901",
"H.	c #492000",
"I.	c #431D00",
"J.	c #481F00",
"K.	c #542601",
"L.	c #311400",
"M.	c #3B1900",
"N.	c #3D1A01",
"O.	c #3E1A00",
"P.	c #3F1A00",
"Q.	c #381600",
"R.	c #522500",
"S.	c #471F00",
"T.	c #482000",
"U.	c #4E2300",
"V.	c #371700",
"W.	c #3C1900",
"X.	c #3B1801",
"Y.	c #2E1101",
"Z.	c #401B01",
"`.	c #3E1A01",
" +	c #522501",
".+	c #461F00",
"++	c #492001",
"@+	c #3C1800",
"#+	c #411B00",
"$+	c #3F1A01",
"%+	c #3B1901",
"&+	c #3F1B01",
"*+	c #3F1B00",
"=+	c #451E00",
"-+	c #451D00",
";+	c #421C00",
">+	c #441D00",
",+	c #411B01",
"'+	c #3A1901",
")+	c #3D1A00",
"!+	c #170601",
"~+	c #441E01",
"{+	c #431C00",
"]+	c #461E00",
"^+	c #471F01",
"/+	c #381800",
"(+	c #0F0300",
"_+	c #190600",
":+	c #411C01",
"<+	c #421D00",
"[+	c #441D01",
"}+	c #3A1700",
"|+	c #421C01",
"1+	c #4B2100",
"2+	c #4E2301",
"3+	c #4B2101",
"4+	c #482001",
"5+	c #4D2200",
"6+	c #4F2400",
"7+	c #451E01",
"8+	c #4F2300",
"9+	c #4C2100",
"0+	c #4A2000",
"a+	c #4C2200",
"b+	c #4D2201",
"c+	c #502400",
"d+	c #542600",
"e+	c #572800",
"f+	c #461E01",
"g+	c #411C00",
"h+	c #431D01",
"i+	c #512400",
"j+	c #4C2201",
"k+	c #4A2101",
"l+	c #502401",
"m+	c #502300",
"n+	c #461D00",
"o+	c #512401",
"p+	c #512500",
"q+	c #4E2200",
"r+	c #2F1301",
"s+	c #4A2001",
"t+	c #532500",
"u+	c #341601",
"v+	c #4A2100",
"w+	c #522400",
"x+	c #7B3103",
"y+	c #97400E",
"z+	c #5B2501",
"A+	c #411A00",
"B+	c #180600",
"C+	c #220A00",
"D+	c #401A01",
"E+	c #311401",
"F+	c #491E00",
"G+	c #8A3808",
"H+	c #883709",
"I+	c #4F2100",
"J+	c #A63F03",
"K+	c #C45314",
"L+	c #9E3F07",
"M+	c #441E00",
"N+	c #3F1900",
"O+	c #290E00",
"P+	c #2B1100",
"Q+	c #4F2301",
"R+	c #3E1B00",
"S+	c #7D2E00",
"T+	c #C55211",
"U+	c #BF4E0E",
"V+	c #572300",
"W+	c #4A1F00",
"X+	c #862C00",
"Y+	c #882D00",
"Z+	c #822C00",
"`+	c #491F00",
" @	c #762900",
".@	c #8F3000",
"+@	c #862C01",
"@@	c #4F1E00",
"#@	c #3D1700",
"$@	c #491A00",
"%@	c #401800",
"&@	c #301201",
"*@	c #321200",
"=@	c #401C01",
"-@	c #471900",
";@	c #3F1500",
">@	c #3E1B01",
",@	c #341300",
"'@	c #2F1000",
")@	c #250C01",
"!@	c #351400",
"~@	c #2D1201",
"{@	c #391801",
"]@	c #381601",
"^@	c #371500",
"/@	c #270D00",
"(@	c #2B0F00",
"_@	c #270D01",
":@	c #290F01",
"<@	c #502200",
"[@	c #371501",
"}@	c #1D0800",
"|@	c #240B00",
"1@	c #2D1000",
"2@	c #291001",
"3@	c #1B0700",
"4@	c #492100",
"5@	c #1F0B00",
"6@	c #2F1300",
"7@	c #130300",
"8@	c #3B1A00",
"9@	c #0E0200",
"0@	c #170400",
"a@	c #170701",
"b@	c #140300",
"c@	c #0F0301",
"d@	c #331300",
"e@	c #311200",
"f@	c #250E01",
"g@	c #2A0F01",
"h@	c #2C0F00",
"i@	c #3D1B00",
"j@	c #250C00",
"k@	c #110300",
"l@	c #1A0701",
"m@	c #230A01",
"n@	c #280E01",
"o@	c #000000",
"p@	c #010101",
"q@	c #270F00",
"r@	c #1F0901",
"s@	c #240C01",
"t@	c #010000",
"u@	c #1E0A01",
"v@	c #130400",
"w@	c #0C0200",
"x@	c #160500",
"y@	c #0B0201",
"z@	c #210A00",
"A@	c #230B01",
"B@	c #1F0900",
"C@	c #100300",
"D@	c #050200",
"E@	c #140601",
"F@	c #070100",
"G@	c #080100",
"H@	c #1A0600",
"I@	c #280C00",
"J@	c #270C00",
"K@	c #140400",
"L@	c #1C0601",
"M@	c #0D0201",
"N@	c #0D0200",
"O@	c #1C0600",
"P@	c #1A0500",
"Q@	c #230800",
"R@	c #160401",
"S@	c #230900",
"T@	c #190500",
"U@	c #100200",
". + @ . . # $ $ % & * * = - = = = ; > , ' - ; ; % ; ' ) , ! ' % ! % % % ! = = ; % % ! ) ) ~ ~ ) ) = ) ; ) = ) % { $ ] ; , % . . ",
". ! ^ % , % ! % * * ~ > / - = ~ = ( = = ! , ~ > / = ~ = ) ; ) ) - = ! = - - _ : > < _ [ [ ~ ) ~ _ _ > < > ~ ) % ! % % ] ) ; ! . ",
") $ * , = ~ = = / } [ _ > > < > ( > ) ; [ ( ( ( | ( ( > > 1 2 3 ( _ 3 ~ < _ _ ( > > } } ( ( 1 ( _ } } } > > : ( ) ) ; $ $ ] $ $ ",
"% ; { } = ( } } 4 5 6 4 7 8 6 9 7 0 7 6 a 5 7 } ( > } > } } ( } } 2 ( } < 1 1 ( 5 5 b 7 b 7 9 9 c 9 d 1 1 5 4 | e 1 f 2 d > ; % ",
"2 % 5 g h i j k k l m n i o n i o p q r 9 s g 8 5 2 > > ~ _ 3 _ f > } _ ( 5 1 t u 8 r 9 0 v 9 v r c k r k i j o 0 9 5 7 9 9 5 ~ ",
"5 ~ k w x y z A B C D E h F G n n m i H o v v v 6 e } I > > > 3 < [ I } 1 1 } 5 7 s o o m q J w w i n F K L w F n i 7 s k o c M ",
"N O O P Q R x x S T D E U i V F W X o Y n r r k 9 6 u 1 1 5 f > ( 3 } e 2 e d d r p w F Z B X w ` Z E B B  .` ..E Z N K +.@.#.$.",
"%.&.P *.*.R P =.-.;.=.&.C J V L L U >.C K i Y p 9 d 1 5 ( 1 5 1 3 | 5 1 ( } d M r q z Z y D B B F O x D T ,.P *.P '.D  .K L B L ",
").&.&.!.~.&.{.=.].^.^./.{.=.(.D (.T C K Z Y X Z o _.u 5 5 } ( ( t 5 d _ > 1 d c m :.i C K O <.x x [.}.P *.|.O }.1.K D (.T D x 2.",
"3.*.{.-.^.4.5.6.7.-.5.4.-.-.8.-.(.T C %.(.9.i B z c 7 } 5 1 } > _ 3 > < 1 d d :.k m B 0.'.D T (.=.-.a.b.c.8.d.^.e.P -.5./.b.5.^.",
").=.&.-.^.4.8.{.*.*.}.1.1.=.4.{.|.*.D (.T x m X F o r u 5 ( = . + , > f.a 8 v c q Z L D x >.!.^.-.c.c.c.8.g.c.8.^.b.h.c.e.5.5.{.",
"&.~.{.d.c.c.i./.O R P &.<.&./.c.=.^.j.x x x U z G F q d 1 0 v ] ] c 7 5 9 c m m G x L x 0.!.-.k.;.i.g.c.l.g.8.i./.c.i.g.c.-.c.6.",
"m.7.=.*.h./.l.n.o.p.o.o.q.{.c.d.{.!.{.*.D >.x Y k o H r.M m s.$ ] q o } 7 r n B w >.C C =.-.h.a.l.t.l.p./.l.8./.e.].c.l.c.c.d.^.",
"R *.*.x ].g.u.o.o.v.w.x.p.*.^.=.=.y.*.j.!.}.D 9.r v m 6 z.9.A.9 0 2.w | 9 o X y U K T j.-.l./.l.B.v.p.q.^.c.4.^.C.b.7.{.b.8.D.-.",
"N T O }.^.i.p.o.i.B.E.F.G.!.1.y.&.&.}.O ,.3.T C w m c 9 d j.H.I.J.K.L.u v n k Z '.C {.^.h.h.6.l.i.M.N.O.c.~.&.&.&.!.~.C.T !.^.C.",
"-.c.e./.i.g.c.p.o.w.F.P.P.M.P.M.v.v.u.Q.c.c.m.U F w v 6 7 {.R.S.T.U.P u o c o >.T 7.!.!.m.b.p.p.p.M.O.o./.V.O.P.W.W.o.X.<.Y.7.Y.",
"5.c.8./.n.L.;.g./.v.w.w.Z.`.O.W.W.q.i.l./.5.c.<.x n k 5 7 (. +S..+++y } d b k F }.{.P &.!.d.B.@+/.t./.c.-.M.O.#+$+W.w.v.,.{.!.!.",
"h./.i.o.E.%+w.#+I.O.P.&+P.*+O.q.o.p./.g.].&.=.}.'.r 5 2 5 w =+J.H.W.i 3 = M D %.!.-.8.].l.8././.t.i./.-+;+>+,+#+,+F.O.v.i.u.B.l.",
"D.l.p.q.o.'+)+;+Z.w.E.o.].^.4.-.{.-.!.!.4.D O <.[.k 9 = u :.o }.P H c ) _ !+F.P {.&.-.h.8.).&.m.^.-.m.>+=+~+=+=+{+#+O.u.W.W./.t.",
"^.c./.o.O.Z.;+]+>+^+]+.+H.H.H.S.-+F.&+8.p.q.u.c.=./+*.; d 9 d 1 } (+d $ _+*+*+,.-.c././.E.o.F.I.=+:+<+=+]+J.]+=+[+=+*+q.w.}+o.@+",
"6.i.o.%+*+Z.;+|+S.1+1+H.2+3+4+H.I.{+)+6.o.p.q.c.-.1+5+} 0 k v b u 7 9 } M 5+6+c.;.^.6.p.W.)+$+>+=+7+T.1+1+8+9+0+++I.w.W.)+q.p.p.",
"n.i.o.o.E.:+S.]+a+0+b+b+c+c+1+H.>+>+M.}+i.l.i.8.i.d+c+p y.p a d ( 1 p >.K c.e+f+/.c.].8.u.E.F.g+h+H.S.c+8+i+j+5+k+g+:+F.*+)+N.}+",
"/.B./.o.P.>+.+S.++5+i+U.l+c+3+J..+]+W.i.u.p.l.l.E.m+;+w.v.$.r _ > r x o.1+;.n+-+{.c.l.B.O.v.)+`.[+1+k+c+i+o+p+i+U.I.F.:+M.G.o.X.",
"{.;.V.o.w.#+F.=+J.1+o+q+m+1+S.I.;+&+B./.8./.d.h.r+#+}+s+@+x u f > M L.;+t+u+U u.!.-./.i.v.)+O.W.F.^+v+v+w+m+U.a+4+;+O.F.O.W.u.l.",
"T !.!.{./.N.I.~+=+9+x+y+z+4+7+F.*+*.^.g./.4.{.7.x A+8.w.^...B+a 6 k P v+v+c C+D+!.c.c.8.p.o.E+c.i.u.g+F+G+H+F.$+E.v.)+F.W.v.o.Q.",
"m.-./.l.G.*+g+.+v+I+J+K+L+T.M+=+I.;.l.l.c.c.^.{.d.N+O+Q.{+/. .; ; P+q.Q+M.% i s+^.{.^.a.u.`.v.W.R+*+;+S+T+U+V+=+t.F.N.O.v.t.t.p.",
"h.6.p.i.)+O.F.;+]+W+X+Y+Z+O.O.#+l.b.B.e.l.V.5./.e.=+n p.`+e.u = ) u )+q+P++ M S.^.<.=.-.8.}+W.&+&+.+h+ @.@+@@@T.{.W.O.g.4.-.-.4.",
"^.V.i./.N.)+O.I.;+I.#@$@%@E.O.O.{.g.l.l.p.a.8.a.].)+r.D.W.L 9 ! % u E *+w 5 ( &@*@}./.c./.v.u.*+;+=@<+;+-@;@I.g+m.q.p.l././.m.d.",
"4.c.c.l.i.u.W.>@F.g+P+9 }.%+)+E.-.8.8.6.V.6.c.{.,@'@_ O+8.D M ^ ] d (.W.v i % )@!@D ^.5./.i.M.M.&+=@*+i.7 5 F.R+~@l./././.c.^.8.",
"~.c.c.V.B.i.M./+o.F.}.] 7.p.{@p.i.p.B./.a.c.&.]@^@/@! (@l.{.r = , k a.q.7 w ~ _@N+N+-.-.g.h.n.i.X.i.M.M.$ 6 )+q.]./.B.i.p.6.8.-.",
"L >.D (.(.P &@[.:@n.=.$ /.;.8.8./.l.g.c.;.;.0.<@[@}@7 w.7.(@r 1 (+r 2.O+T m 9 |@]+v+=.{.-.!.!.~.1.).E+W._ w W.&.c.^.q.l.a./.c.h.",
"1@!.m.{.D.l.8.L.^.a.o.! )+2@j.D.8.8.h.^.d.m.T 8+~.3@[. +F {.7 [ > c 5.m ;+d = 3 g+T.!.^.-.-.{.-.-.~.!.O.i ).M.1.h.c.i.c.4.c.^.^.",
"~.^.L.^.m.-./.4.=.Z &.R+&.y T :@T }.P P O R T U.p ! O.4@i ;.b ~ = M l.5@*+s.r , o.<+L ` ..L x x E y G !.a.c.K Y #.B }.*.*.&.j.7.",
"1.6@=.1.=.!.=.=.P b 3 ~ 5 c [.&.&.!.~.{.*.*.8.k+~ G M+0.7 C 9 ; , 9 x k K *.n 7 l.S.0.T (.1.%.|.}.D n 5 = / ( 9.C }.&@~.!.{.{.b.",
"3.j.,.7.{.P ).~@[.( % 7@^ d T }.&.&@j.*.|.P W.8@b D M.k 3@F Y > > p X A k C q 9.<.F.}.*.!.&.*.).1.,.Y % 9@_ $ ..y.P !.=.Y.&.{.&@",
",.*.Y.*.!.<...L y } ) 0@) a ` U i z h l Y h h.=._.x I.k o m m , ~ o a@p 7 C o @.*.l.}.}.P &.1.~.!.[.h ~ b@c@> E %.3.7.*.j.P 7.*.",
"O P P y.~@P }.1.T F r V p B D  .D ..N 2.2.N *.d@n T g+k 7 r r = / 0 v 9 u o 9 @.e@)+,.,.P P 1.*.*.:@K m G i F K O O P &.6@7.&.y.",
"f@T O ,.*.(.O T 0.U m 9 n y ..'.T 2.N O g@}.)+h@j.H i@u } M M % % 9 d 1 $ ~ 9 j@k@F.B D K x K  .+.'.V m 9 l@G '.C 2.(.<.T (.2.T ",
":@x :@(.}.3.3.}.C w U F @.L $.L 2.:@>.Y.D O P k m@r 9.[ ) = . ] $ ] ! ) ] $ 9 $.b x U B Y F w 9.w #.n G k c r l@F Z B B E '.E L ",
":@<.g@}.2.P !.*.:@D ..2.<.n@+.K 2.2.>.(.(. .,.9.9.r 9 _ $ , o@p@o@o@% $ % ; o G p i x K L x `  .K  .2...w V 9.L N ..C C +.T 2.2.",
"T T T q@>.}.3.,.y.}.g@D 2.2.D 2.2.2.}.T (.D i r@X c d 7 ] ; p@p@p@o@% ] ~ > p J _+o  . .K n@ .'.D C D D K w '.s@T T N 2.T 2.T 2.",
"+.L D 2.<.D T ,.,.}.}.<.K x D 2.D D N >.C F !+o l s 7 0 . ! o@o@o@o@% . _ 1 c r r v Y F D /@..:@V F 9.F w F F '.2.T D g@<.x (.n@",
" .K N ..D x }.}.y.2.T O  ...(.(.<.0.+.:@Z 9.U F $.r (+| . % o@o@o@o@{ . ! } B+A $.9.F L U x D C Z @. .K x x ..s@[.T T <.~@..0./@",
"'...'.x K B D C +.2.(.(.K  .N x '.2. .'.Z V V G i k (+} ~ ^ o@p@o@o@$ = ~ (+p n G w F U B x E L B 0.x x D  .L '.0.x C C C x x K ",
"L x K ..0.C n@(.T 2.>.D '.0.+.x K x ..L X w w $.o m d $ t@t@o@o@o@o@t@t@$ d n n 9.w u@9.w x ` x x N x x D K '.s@..T :@T ..+.D D ",
"$.F G J F U U W @.w L w L x N D h F J u@G F n 9.!+s v@1 % # o@o@o@o@. $ w@v@q m F n 9.9.w U K ` s@2...K ..x x w L L U 9.Z G w w ",
"( } e 1 } n '.F E L '.U ` L +.x m $.u@F i n i n u x@y@: ] + + p@o@+ p@] ~ f m l n G G F V B U L A.E E '.x '.w h u@n G m s.l $.n ",
"o m m q H w U s@..L '.B K E '.E m w F 9.}@$.A i u r 1 _ . p@t@o@o@t@t@. _ 1 p o m i n $.F F W w B U w x L x 9.F F F J X 9.F F z@",
"n G F w X U W K x K '.'. .` s@U Y 9.#.w 9.F F h 6 r u > % . o@p@o@o@+ $ ( d q m i n n X X w U L '.s@L L s@'.9.w F 9.Z 9.9.#.F A@",
"$.Z U @.u@F w E l 9.n $.G F $.F l n n $.i m k p a 9 _ + t@+ o@o@o@o@t@+ + _ c c r r k k m B+p l A z i A G G F n q o m p m p i i ",
"F w y U 9.w 9.U b 5 5 u 4 7 s k G u@u@n n 0 _ > } 9 ~ p@t@+ o@p@o@o@+ p@t@_ x@2 ( < ( 5 a M 7 6 9 s 7 c c !+p s.H o p q A l l p ",
"n 9.9.9.J U U @.l p o q m A Y $.G G $.X n _.g 9 7 0 ) t@+ @ o@o@o@o@+ t@+ ) r v c c k H o k :.o Y m Y m m n i n m m n n G n G B@",
"p i n A G F 9.Z r o r p n Y Y i n q :.p o k o s a u $ + t@. o@o@o@o@+ t@+ % u r k q l@k i 0 9 c r B+r k :.o H o o o o p p o q m ",
"H F z F X w X z g c k o A Y A m m r v c c r k 7 | C@# + # t@o@o@o@o@o@@ + ] d r k k p o o 9 7 9 s _.c 9 7 7 0 r p m m o l m s.m ",
"}@B@9.n G Z F n l@}@}@p i n l m m o o o k o o b 0 (+$ @ . p@o@p@o@o@o@. . ] 1 _.c k B+o H p q l i n F G G F G J n G F F G G u@n ",
"M d 6 v c ( ] , r q n B+} | 1 2 _ ) ~ ~ ~ : (+M c I ] . . p@o@p@o@o@o@. . ] ~ 1 u d b 8 9 o l m Y A G $.z F F G i G n F n n Y n ",
"o j o s.m v 7 7 o q n n u@m n i o c _.v 9 s c _.c 4 t@+ . t@o@o@t@p@o@. t@t@4 c r r B+k k c o H l Y m G z G u@m q Y Y Y i i n l ",
"3 ( | u d 7 c _.s.i i l l m A m r r c _.v c d > 3 f / & p@t@o@o@o@o@t@p@$ = d 9 r r r 9 ) = ~ ; ) / _ ( 1 > ( e d $ $ D@; ) ' f ",
"r o v :.p k o r s.i m A q q l m o k 9 v v v E@b 9 (+F@$ t@p@o@p@t@t@o@+ ] G@d v 9 c r v s v c H c r r o p k 0 c r d d 6 d M 8 M ",
"u d 6 6 7 k l s 3 _ _ < 2 r.8 7 c r f.1 1 a d 4 ; & H@% t@t@+ p@. . + . % H@% ] . ! * 3 0 v _.k k k H o l 0 ~ ~ > 9 7 7 9 7 9 v ",
"k r o r k r o a@v c 9 0 c r r r c v z.9 7 v 0 7 2 | I@} t@t@t@t@t@+ t@p@1 J@c@1 5 5 4 9 c 0 c !+c H B+H H k l@k 0 c r c 0 9 c !+",
": = = _ ~ ~ ( 5 4 1 } f.I ~ - = ) = ; ~ < > ~ f ( K@L@M@+ p@t@t@t@p@t@t@N@O@x@e 5 $ ] $ ^ ; ; ( ( } 1 u u 7 r !+v v 0 c = ( I 1 ",
"6 d d 4 u 7 9 9 c 9 7 9 g 8 u d d t } 5 5 a u a 5 P@Q@R@t@p@t@p@t@t@t@t@R@S@T@5 5 _ = ~ = ~ 3 b 7 9 9 9 s c r c v 9 c v ( u 8 b ",
"9 0 9 9 9 9 9 _.c v v 7 9 9 b 7 9 M u u a e ( 3 / 9@N@N@t@t@+ p@t@t@t@o@w@w@U@! ) = ( I 1 } | 7 v _.g 0 _.v !+r v g g 0 } u 7 7 "};
