/* XPM */
static char * C:\Users\Rin_K\Documents\pared_escudo_xpm[] = {
"64 64 502 2",
"  	c None",
". 	c #030100",
"+ 	c #020100",
"@ 	c #030101",
"# 	c #040100",
"$ 	c #050201",
"% 	c #050200",
"& 	c #080200",
"* 	c #090301",
"= 	c #080301",
"- 	c #0C0300",
"; 	c #0C0301",
"> 	c #0B0300",
", 	c #0A0300",
"' 	c #100400",
") 	c #0B0301",
"! 	c #0C0400",
"~ 	c #0C0401",
"{ 	c #0B0401",
"] 	c #0B0400",
"^ 	c #0F0500",
"/ 	c #0F0400",
"( 	c #0E0400",
"_ 	c #0D0400",
": 	c #060201",
"< 	c #070200",
"[ 	c #090200",
"} 	c #0A0301",
"| 	c #090201",
"1 	c #0D0401",
"2 	c #120500",
"3 	c #0D0300",
"4 	c #090300",
"5 	c #110500",
"6 	c #0E0401",
"7 	c #100501",
"8 	c #100500",
"9 	c #0F0501",
"0 	c #0F0401",
"a 	c #060200",
"b 	c #070201",
"c 	c #130600",
"d 	c #140601",
"e 	c #120600",
"f 	c #160700",
"g 	c #140701",
"h 	c #130601",
"i 	c #050100",
"j 	c #050101",
"k 	c #150601",
"l 	c #180800",
"m 	c #160701",
"n 	c #190800",
"o 	c #1A0900",
"p 	c #170701",
"q 	c #150600",
"r 	c #1B0900",
"s 	c #140600",
"t 	c #150700",
"u 	c #190801",
"v 	c #1A0800",
"w 	c #170700",
"x 	c #130500",
"y 	c #110501",
"z 	c #120501",
"A 	c #110400",
"B 	c #100401",
"C 	c #180801",
"D 	c #1E0A01",
"E 	c #1E0A00",
"F 	c #1C0900",
"G 	c #200C01",
"H 	c #1F0B00",
"I 	c #210C00",
"J 	c #200B00",
"K 	c #1C0A00",
"L 	c #200C00",
"M 	c #1C0A01",
"N 	c #1B0901",
"O 	c #120601",
"P 	c #1D0A00",
"Q 	c #160600",
"R 	c #180700",
"S 	c #1B0800",
"T 	c #240D00",
"U 	c #291000",
"V 	c #240E01",
"W 	c #1F0A01",
"X 	c #250E00",
"Y 	c #2A1000",
"Z 	c #260F01",
"` 	c #200B01",
" .	c #230D00",
"..	c #220D00",
"+.	c #1D0A01",
"@.	c #1E0B00",
"#.	c #170801",
"$.	c #150701",
"%.	c #240D01",
"&.	c #260E00",
"*.	c #240E00",
"=.	c #270F00",
"-.	c #1A0801",
";.	c #2C1101",
">.	c #2E1300",
",.	c #311400",
"'.	c #301401",
").	c #281000",
"!.	c #2C1100",
"~.	c #1F0A00",
"{.	c #220C01",
"].	c #250E01",
"^.	c #140700",
"/.	c #260F00",
"(.	c #270F01",
"_.	c #280F00",
":.	c #260E01",
"<.	c #2B1101",
"[.	c #291001",
"}.	c #210C01",
"|.	c #331500",
"1.	c #321400",
"2.	c #311401",
"3.	c #351700",
"4.	c #361700",
"5.	c #371800",
"6.	c #351600",
"7.	c #220C00",
"8.	c #170800",
"9.	c #220D01",
"0.	c #2A1100",
"a.	c #2D1200",
"b.	c #321500",
"c.	c #2B1100",
"d.	c #321501",
"e.	c #341601",
"f.	c #341600",
"g.	c #3C1900",
"h.	c #371700",
"i.	c #381800",
"j.	c #3A1900",
"k.	c #2C1200",
"l.	c #2E1201",
"m.	c #2F1400",
"n.	c #301400",
"o.	c #2E1200",
"p.	c #2D1100",
"q.	c #311300",
"r.	c #371701",
"s.	c #3B1A01",
"t.	c #381801",
"u.	c #3B1900",
"v.	c #391800",
"w.	c #391801",
"x.	c #3A1901",
"y.	c #2F1300",
"z.	c #361701",
"A.	c #361600",
"B.	c #331501",
"C.	c #301300",
"D.	c #391900",
"E.	c #3A1800",
"F.	c #3C1A01",
"G.	c #341500",
"H.	c #3B1A00",
"I.	c #3D1A00",
"J.	c #3D1A01",
"K.	c #3C1A00",
"L.	c #3C1901",
"M.	c #351701",
"N.	c #401C00",
"O.	c #3D1B00",
"P.	c #3F1B00",
"Q.	c #2A1001",
"R.	c #1F0B01",
"S.	c #250D00",
"T.	c #290F00",
"U.	c #3E1B00",
"V.	c #3E1B01",
"W.	c #3B1901",
"X.	c #301301",
"Y.	c #3F1B01",
"Z.	c #3F1C01",
"`.	c #401C01",
" +	c #411D00",
".+	c #3F1C00",
"++	c #391901",
"@+	c #381701",
"#+	c #2A1101",
"$+	c #3D1B01",
"%+	c #411D01",
"&+	c #441E00",
"*+	c #2E1301",
"=+	c #421D00",
"-+	c #441E01",
";+	c #351601",
">+	c #361601",
",+	c #461F00",
"'+	c #371801",
")+	c #431E00",
"!+	c #431D00",
"~+	c #401B00",
"{+	c #3E1A00",
"]+	c #321401",
"^+	c #451F01",
"/+	c #431E01",
"(+	c #1A0901",
"_+	c #1B0A01",
":+	c #451E00",
"<+	c #431D01",
"[+	c #411C00",
"}+	c #2F1301",
"|+	c #411C01",
"1+	c #472000",
"2+	c #451F00",
"3+	c #0E0502",
"4+	c #0C0402",
"5+	c #0A0402",
"6+	c #0B0402",
"7+	c #110502",
"8+	c #4A2100",
"9+	c #482000",
"0+	c #492100",
"a+	c #451E01",
"b+	c #421D01",
"c+	c #261604",
"d+	c #462605",
"e+	c #301F05",
"f+	c #382104",
"g+	c #3D2405",
"h+	c #2F1F05",
"i+	c #3E2304",
"j+	c #251604",
"k+	c #230D01",
"l+	c #4A2101",
"m+	c #4B2200",
"n+	c #4C2201",
"o+	c #4F2400",
"p+	c #4E2300",
"q+	c #4D2300",
"r+	c #4C2200",
"s+	c #462000",
"t+	c #461F01",
"u+	c #1D0E03",
"v+	c #382305",
"w+	c #271704",
"x+	c #221404",
"y+	c #211404",
"z+	c #201404",
"A+	c #271804",
"B+	c #1C0D03",
"C+	c #421E01",
"D+	c #482001",
"E+	c #4C2300",
"F+	c #502400",
"G+	c #542701",
"H+	c #512501",
"I+	c #4F2401",
"J+	c #442001",
"K+	c #472401",
"L+	c #412603",
"M+	c #321E04",
"N+	c #050303",
"O+	c #331E04",
"P+	c #3F2504",
"Q+	c #442202",
"R+	c #431F01",
"S+	c #4A2200",
"T+	c #4D2301",
"U+	c #512500",
"V+	c #502500",
"W+	c #552701",
"X+	c #522501",
"Y+	c #552700",
"Z+	c #834201",
"`+	c #5A2E01",
" @	c #2D1803",
".@	c #080403",
"+@	c #070403",
"@@	c #2C1803",
"#@	c #552B01",
"$@	c #814101",
"%@	c #401D01",
"&@	c #492101",
"*@	c #562800",
"=@	c #532600",
"-@	c #502401",
";@	c #482100",
">@	c #4C2301",
",@	c #542600",
"'@	c #522500",
")@	c #502501",
"!@	c #421E00",
"~@	c #864401",
"{@	c #1F0D02",
"]@	c #090403",
"^@	c #060303",
"/@	c #431003",
"(@	c #4D1403",
"_@	c #441103",
":@	c #1A0B02",
"<@	c #844301",
"[@	c #562700",
"}@	c #572801",
"|@	c #572800",
"1@	c #874401",
"2@	c #150802",
"3@	c #5C1802",
"4@	c #9F2F02",
"5@	c #8B2802",
"6@	c #A13001",
"7@	c #A93301",
"8@	c #802502",
"9@	c #130702",
"0@	c #864301",
"a@	c #3A1A00",
"b@	c #582800",
"c@	c #471F00",
"d@	c #7D3505",
"e@	c #9B4311",
"f@	c #622A01",
"g@	c #4B2201",
"h@	c #884400",
"i@	c #120702",
"j@	c #A63201",
"k@	c #9E2F01",
"l@	c #541503",
"m@	c #3D0E03",
"n@	c #B03502",
"o@	c #040303",
"p@	c #854301",
"q@	c #311501",
"r@	c #4E2200",
"s@	c #8F3D0C",
"t@	c #89390A",
"u@	c #532400",
"v@	c #A84305",
"w@	c #C95A1A",
"x@	c #A5460E",
"y@	c #4F2300",
"z@	c #270803",
"A@	c #9D2E02",
"B@	c #6B1E02",
"C@	c #2B0803",
"D@	c #AC3501",
"E@	c #1D0C03",
"F@	c #3E1C00",
"G@	c #873603",
"H@	c #CC5C1B",
"I@	c #C15211",
"J@	c #5B2600",
"K@	c #492000",
"L@	c #4E2201",
"M@	c #8E3300",
"N@	c #993B00",
"O@	c #983A02",
"P@	c #2C1201",
"Q@	c #7B3E01",
"R@	c #311602",
"S@	c #962C02",
"T@	c #902B01",
"U@	c #832602",
"V@	c #A53201",
"W@	c #581703",
"X@	c #7C2302",
"Y@	c #872702",
"Z@	c #301602",
"`@	c #783C01",
" #	c #331600",
".#	c #462001",
"+#	c #472001",
"@#	c #8A3601",
"##	c #A54101",
"$#	c #903501",
"%#	c #532100",
"&#	c #381700",
"*#	c #421A00",
"=#	c #592300",
"-#	c #502000",
";#	c #441F00",
">#	c #723801",
",#	c #381B02",
"'#	c #250703",
")#	c #762102",
"!#	c #752002",
"~#	c #842602",
"{#	c #591703",
"]#	c #4B1203",
"^#	c #A03001",
"/#	c #080303",
"(#	c #371A02",
"_#	c #6F3701",
":#	c #4B2000",
"<#	c #5D2400",
"[#	c #471A00",
"}#	c #391700",
"|#	c #1E0B01",
"1#	c #5D2D00",
"2#	c #3E1E02",
"3#	c #070303",
"4#	c #551603",
"5#	c #9F2F01",
"6#	c #290803",
"7#	c #6A1E02",
"8#	c #541703",
"9#	c #3C0E03",
"0#	c #3B1D02",
"a#	c #5A2C01",
"b#	c #210D00",
"c#	c #0E0300",
"d#	c #482201",
"e#	c #402102",
"f#	c #451103",
"g#	c #852602",
"h#	c #762002",
"i#	c #932B01",
"j#	c #942B01",
"k#	c #972D02",
"l#	c #6C1D02",
"m#	c #3D2002",
"n#	c #432001",
"o#	c #130400",
"p#	c #190700",
"q#	c #140400",
"r#	c #281001",
"s#	c #2E1401",
"t#	c #412302",
"u#	c #3D2203",
"v#	c #321601",
"w#	c #331601",
"x#	c #1D0700",
"y#	c #150500",
"z#	c #3D2303",
"A#	c #0F0703",
"B#	c #050304",
"C#	c #3F2403",
"D#	c #290E00",
"E#	c #2F1200",
"F#	c #2F1401",
"G#	c #3C1F03",
"H#	c #221303",
"I#	c #211304",
"J#	c #402103",
"K#	c #230C00",
"L#	c #0D0301",
"M#	c #271402",
"N#	c #2F1C04",
"O#	c #2E1C04",
"P#	c #251303",
"Q#	c #2D1201",
"R#	c #220800",
"S#	c #342105",
"T#	c #110903",
"U#	c #240900",
"V#	c #110300",
"W#	c #230800",
"X#	c #230E01",
"Y#	c #261704",
"Z#	c #291904",
"`#	c #281905",
" $	c #270A00",
".$	c #150501",
"+$	c #280F01",
"@$	c #2D1300",
"#$	c #190A02",
"$$	c #322005",
"%$	c #150B04",
"&$	c #140B03",
"*$	c #190902",
"=$	c #2B1200",
"-$	c #311500",
";$	c #422504",
">$	c #402405",
",$	c #210B01",
"'$	c #291A05",
")$	c #261805",
"!$	c #291A04",
"~$	c #180701",
"{$	c #1F0C00",
"]$	c #110702",
"^$	c #312005",
"/$	c #140802",
"($	c #291100",
"_$	c #140A03",
":$	c #2D1301",
"<$	c #250F00",
"[$	c #250F01",
"}$	c #150B03",
"|$	c #322106",
"1$	c #221504",
"2$	c #130A03",
"3$	c #3F2405",
"4$	c #110803",
"5$	c #110902",
"6$	c #291101",
"7$	c #1C0901",
"8$	c #270E00",
"9$	c #1B0A00",
"0$	c #0E0500",
"a$	c #0E0501",
"b$	c #080300",
"c$	c #110600",
". + @ . # $ % % & * = * - ; > > - , ' ) * ; > , , ! ) ! ~ > { , > > ] ! ^ / ( - , , ! _ _ ( _ > , _ , , > - , & : < % [ } < # . ",
"+ < : & | < & & | * - ( ; 1 > > > 2 3 3 4 } / 5 6 / / ( ( _ ( ^ 7 8 _ 8 9 0 8 7 5 5 8 0 7 ( - ( ( _ ( ( / - > & & & < # , [ , . ",
", a b } , - > > ) ' 6 _ / / ( ( 5 8 - > 0 2 c 2 d 2 c e c f g h c e g 5 e 8 ' 5 8 5 c c c c c 8 / 8 ' 8 ( ( 1 ( 4 , & i a % % a ",
"a & j ' > / / ' d 2 f k l m f n l o n n p q r q c 2 s 2 s t s t s g c t 2 t s 2 s f u o u n v n v w q 5 x x k y z A - B q / & < ",
"0 a 5 C D E v r F G H I J K I L H H E K o M N u w d 5 s 5 e O 5 2 c t 5 c f s q w u K r r o v K r r F F P H F F w w 5 Q R R 2 > ",
"' , S T U V W D X U Y Z `  .I I ..I J +.@.F r r n #.f h c c e h e h $.t q s c t v M @.H L H %.&.*.J I  .=.&.T ..J E f -.F F R x ",
";.>.>.,.>.'.U ).U !.Y Z T ~.{. .]. .@.I  .H P @.r v l f l l ^.t t h t #.k m l l P J *. ././.I T (.T ].X X (.(._.:. .<._.[.].V }.",
"'.|.1.1.,.2.,.3.4.5.6.1.U }.{.&.&.X <.U U ..7.@.r n q w t f l 8.$.#.f f q q w n P H 9.*.Z 0.&.X 7.!._.Y a.'.|.b.b._.c.<.U =.=._.",
"d.b.1.|.e.|.f.6.g.h.i.j.6.|.0.U c.c.U _.*... .T I +.l l l f f f o o n x c q R P J +.I ).=.a.k.=._.l.m.,.,.f.n.,.d.=.!.a.o.!.Y p.",
"q.n.f.4.h.r.r.s.6.4.r.t.i.h.i.4.c.c._.l.0.X ..&.9.@.o w l l l f s d s s w w n +.E J &.[./.U !.!.6.h.u.h.v.j.w.i.x.y.4.z.u.6.r.h.",
"d.f.b.4.h.r.i.A.b.b.y.d.B.6.t.6.b.C.Y c.!.).L ..*.H H v v w l 8.l C w C u u v r H *.&.U =.[.|.D.i.j.E.j.j.F.v.j.i.6.w.i.w.z.z.G.",
"b.B.A.i.5.i.u.j.n.b.b.b.y.6.H.v.f.h.2._.=._.X 9. .T I r l n R w r r P K P P J J 7._.&._.[.f.i.F.j.I.F.v.I.J.j.I.u.h.K.x.i.4.i.L.",
"M.|.|.,.w.u.K.F.N.O.P.P.P.v.j.v.5.f.3.n.Y Q.=.I E J R.N F r C r P l r r F J 7.S.T Q.T.Y f.v.x.H.U.V.I.P.j.K.u.u.W.E.i.u.i.i.i.h.",
"X.n.,.).j.x.Y.N.P.N.N.Z.P.f.j.A.4.|.n.B.b.k.Y  .P K I K K F n F w R r +.H J 7.%.X =.!.e.h.U.I.U.`. +.+N.4.i.++i.z.h.6.4.A.v.@+h.",
"#+c.k.>.h.I.U.P.I.$+%+&+%+6.d.b.f.f.n.>.*+>.Y U X 7.H E r R.K K l u R n I X J X =.U 6.i.s.W.$+K.N.=+-+&+h.M.|.|.|.|.;+z.k.|.4.>+",
"6.h.t.j.K.x.v.U.P.=+,+&+&+=+&+N.N.N.Z.K.D.h.B.T  .U J P H L o r r K @.I 7.I ..<.c.1.f.6.'+i..+Y..+)+&+N.u.I.!+)+N.~+{+V.k.2.G.]+",
";+h.i.u.s.3.i.W.j.N.=+=+^+/+&+ +=+.+U.K.u.z.4.c.Y 0.X P H @.(+C _+(+_+L  .9.X *.o.f.b.f.f.v.V. +H.Y.O.K.v. +!+:+<+[+~+~+}+6.|.|.",
"r.j.u.I.Y.|+=+:+1+)+&+/+&+2+)+.+N..+K.F.u.f.|.c.Y y.+.3+3+4+4+5+5+5+6+3+7+D =.[.n.6.v.H.O.i.U.U.V.P.P.8+9+0+a+2+^+:+b+V.I.V.s.g.",
"r.j.K.I.U.`.=+,+^+=+%+P.j.v.w.i.h.i.3.f.t.k.a.0.].[.c+d+e+e+e+f+g+h+h+e+i+j+k+U C.|.3.x.H.2.f.t.j.v.t.0+8+l+m+8+9+:+=+J.[+N.j.J.",
"h.i.j.O.!+a+1+8+0+n+8+m+o+o+p+q+r+s+t+j.U.O.F.y.].u+v+w+x+y+z+z+z+z+y+y+A+v+B+` a.4.D.H.C+U.1+0+r+D+9+m+m+E+8+8+D+0+)+O.N.U.U.~+",
"W.I.U.`.&+-+,+D+r+F+p+q+G+H+I+o+8+0+=+F.I.H.b.J+K+L+M+N+N+N+N+N+N+N+N+N+N+O+P+Q+R+*+t.I.)+=+-+S+T+T+E+U+V+W+F+q+T+9+ +N.=+I.K.{+",
"s.H.U.P.`.^+m+8+F+p+H+X+Y+Y+V+p+m+0+ +P.K.j.>.Z+`+ @.@N+N+N+N+N+N+N+N+N+N++@@@#@$@Y h.D.V.%@,+9+&@o+q+*@Y+*@X+=@-@2+-+&+:+%+|+{+",
"i.J.u.I.)+;@8+8+>@U+,@'@W+Y+)@p+E+r+!@O.$+u.a.~@{@]@^@N+N+N+/@N+N+(@_@N+N+^@]@:@<@k.i.F.)+N.)+^+l+U+I+[@*@}@|@|@=@9+2+t+N.`..+Y.",
"6.i.H.N.[+&+&+8+m+o+,@'@Y+F+p+S+9+t+V.j.i.i.k.1@2@]@^@N+N+3@4@N+5@6@7@8@N+^@]@9@0@y.h.a@.+)+&+&+9+>@o+o+b@G+=@U+T+,+=+&+=+N.V.g.",
"a.b.1.A.H.%+c@D+8+F+d@e@f@T+g@,+2+6.i.x.D.;+#+h@i@]@^@N+/@j@k@N+l@N+m@n@o@^@]@i@p@a.3.i.O.N.q@D.K.`.&+r@s@t@&+/+`.P. +&+N.P.O.K.",
";+4.j.j.`.)+2+m+p+u@v@w@x@y@0+8+0+j.H.u.5.4.k.1@{@]@^@z@A@B@4@N+N+N+C@D@o@^@]@E@0@c.3.i.Z.b+F@=+&+2+,+G@H@I@J@K@x.&+b+!+N.J.J.{+",
"r.++I.K.=+=+:+2+8+L@M@N@O@)+)+,+I.i.F.++j.j.P@Q@R@]@N+S@T@U@V@W@N+N+X@Y@N+^@.@Z@`@=. #;+a@.+=+t+.#E++#@###$#%#q+ #[+)+x.t.&#h.>+",
"4.j.I.u.b+ +)+1+,+s+*#=#-#/+;#&+i.F.O.u.H.5.|.>#,#.@'#)#!#~#j@{#N+]#^#z@N+^@/#(#_#U 5.i.K.N.%+,+9+t+s+:#<#[#K@2+B.I.O.u.u.v.z.}#",
";+4.5.j.H.V.N.b+)+2+a.|#|.-+!@C+v.u.j.s.u.w.6.1#2#3#^@N+N+4#5#N+6#6@7#8#9#^@3#0#a#k.6.'+H.O.=+=+^+.#;#P.b#5 :+&+*+u.H.j.j.v.h.v.",
";+h.h.j.F.I..+K.P.&+y.c#&#P.Z.N.I.U.$+D.D.4.y.d#e#3#^@N+N+f#g#N+h#i#j#k#l#N+3#m#n#n.3.i.J.s.V..+/+.+ + +o#p#=+U.h.v.F.K.K.x.i.A.",
"&.<.0.k.a.,.e.X.l.w.,.q#u.N.v.H.K.K.s.v.i.3.r#s#t#^@N+N+N+N+N+N+N+N+N+N+N+N+^@u#v#n.b.4.5.6.3.'+w#M.F. +x#T I.b.i.5.I.j.D.v.i.r.",
"y.b.e.f.z.j.i.4.h.A.j.y#K@b+B.W.j.j.w.4.i.w#k.k+z#A#N+N+N+N+N+B#N+N+N+N+N+N+A#C#].m.b.i.5.i.i.D.j.++U.q+D#X.u.'.t.i.j.i.z.h.h.6.",
"B.6.f.4.B.f.j.r.f.7.E#&+P.J.n.'.y.b.b.b.y.F#c.c.G#H#N+N+N+N+N+N+N+N+N+N+N+N+I#J#K#*.=.[.a.U a.k.<.#+b.,+U.6.S.H V =.y.n.n.,.d.|.",
"'.b.b.}+|.|. #f.n.k L#s I y.d.h.6.h.z.h.b.n.y.;.M#N#N+N+N+N+N+N+N+N+N+N+N+N+O#P#U ).#+>.y.d.e.4.f.n.y._.w ; ( K#Y y.d.B.|.G.|.A.",
"l.2.Q#b.|.y.B.2.Q#( < R#1 S ,.|.h.'+z.f.|.,.y.k.G S#T#N+N+N+N+N+N+N+N+N+N+T#S#D 0.>.n.|.4.f.f.'+r.z.(./ U#V#a T.,.>.|.b.d.b.G.B.",
"l.C.'.,.b.o.0._.V A 3 W#( C Q#U  .V V X# .}.|#o N Y#Z#N+N+N+N+B#N+N+N+N+N+`#Y#:.k.n.,.b.f.f.z.t.5.B.].2  $.$/ +$X.>.|.n.B.y.|.y.",
"@$m.y.1.d.n.n.d.>.&.I Q.X c.n.}+y.>.}+m.y.P@k.U X #$$$%$N+N+N+N+N+N+N+N+&$$$*$].0.=$2.w#f.|.z.4.4.B.y.=.Y J *.0.C.>.n.b.b.|.,.,.",
"[.a.o.*+,.a.m.>.Q#U X P =.<.y.>.-$-$2.b.2.-$>.k.r#k+x+;$^@N+N+N+N+N+N+N+>$y+,$T ).0.c.n.k.a.>.}+}+y.#+X H {.X c.c.a.a.y.a.k.k.o.",
"*+0.*+k.y.m.2.,.a.U c.U Q#a.r#a.b.e.d.z.-$ #>.=$P@X C '$A+N+N+N+N+N+N+)$!$~$H k+(.).c.k.*.).k.0.k.#+=.).I {$7.k+=.=.).U r#0.[.U ",
"}+>.*+n.a.b.6.|.'.y.y.n.-$2.}+>.,.,.d.b.-$*+<.0.U /.I ]$^$y+o@B#N+N+y+^$/$H I /.0.c.>.y.c.y.}+}+m.'.-$n.($[.c.k.X.a.k.k.<.>.a.o.",
">.@$y.>.}+,.b.d.6.b.d.n.,.b.,.,.,.n.f.-$-$y.k.[.=.X  .m _$$$y+N+N+y+$$_$P I *.Z U 0.*+'.k.d.F#a.,.,.-$,.=$k.a.*+,.b.:$a.>.>.X.o.",
"#+U @$y.,.>.n.d.d.1.|.b.y.>.,.,.-$,.'.q@n.0.<.<$[$].I P t }$|$1$1$$$&$h r @.L H  ./.).0.n.n.n.e.[.U U ).U 0.0.a.n.n.y.'.n.k.o.l.",
"#+0.*+a.>.a.b.f.6.>.n.f.*+n.b.-$|.'.'.e.@$c.@$=$r#/. .u c y 2$f+3$2$9 t l J  .[$(.0.($>.k.y.b.b./.:$2.>.>.>.y.}+B.n.n.,.;+a.P@a.",
"U a.0.=$c.c.y.y.l.y.n.b.a.:$F#}+>.n.}+y.k.#+:$U /.*.J w t h ( 4$5$^ s l o H *.X =.0.U >.k.>.}+@$U q@y.m.b.}+>.>.}+a.>.o.a.k.k.0.",
").a.k.a.Q#>.}+,.,.C.'.n.a.2.}+y.y.m.y.>.k.k.@$#+=.<$T o n 8.c _ ^ c 8.o F I *./.0.=$#+a.k.n.'.m.k.2.,.>.-$>.a.Q#>.,.2.n.a.Q#>.o.",
"%./.X (.&.0.U [.#+Y k.c.>.>.'.b.r#0.#+#+c.c.U a.].R.E w n m 5 / 2 s f 8.v H *.X k.U a.a.a.a.y.F#F#|.n.y.n.y.>.).c.Y Y ).=.X U U ",
"e s k s 2 &.k._.<.c.!.!.*+a.'.>.).6$#+0.U 0.0.c.@.K 7$d t q e 7 e s h q n I I ].U Y c.c.P@k.>.>.>.*+Q#@$y.y.0.k+r#=.=.T k+k+:.X ",
"H I L L +.=.U #+a.!.k.c.>.Q#a.Q#X k.0.c.U [.[.).H @.P f t m 5 2 c 2 s q f @.I *.&.U 0.<.!.U *+a.a.a.c.>.a.y.U /.U U +$X ).8$=.T.",
" .X /.=.*._.[.k.a.a.a.a.*+}+:$k.).k.P@a.k.k.=$#+H I H t t s 5 7 8 e t t f E ../.=.0.c.=$0.c.>.>.y.l.a.a.*+y.0.).($0.#+/._.r#_.Q.",
"V /.).#+].=.).<.%.&.&.:.=._.(.U (.U U #+)./.*.*.+.K n s s 5 5 8 8 c c t s P H H .. .X &./.T *.(.:.+$/.:.=.).=.X  .T T .. .I  . .",
"&.=.r#U =.=.=.0.N w l w u r }. .U Q.[.U 0.I w w o 9$o 7 ^.^ ( 7 5 ^.c m f r H m f f n o (+P @.P L G @.L L G  .}.{.I ..7.V k+{.J ",
" .=.&.&.:.U ).[.k+..7. .*.V =.r#_.).[.0.=.V G L @.@.P n ^ 7 ( > ( ^ 8 t 8.E L H I  .X :.X T V X U =._.X X =.=. .T X X X /.X X =.",
"L  . .}.T =._.=.J 7.H 7././.=.&.=./.k+X  . .*.R.(+v R c w t 8 , , _ ! 0$8 E P H T /.Z *.).H J 7. . .7.7.{...9.J 7.K#I 7.K#7.7...",
"R.*.k+X &._.X ].7$E H P ].=.Z &.X ..L 7... .T @.C n -.c h c e ^ ! > 8 y > r o J  .T /.X X K @.@.R.G J P r r F E 7. . .I k+ .{.7.",
"T X &.T T =./.X k+X  .E X _.(.8$&.&.&.=./.=.T }.H H P h 2 7 8 a$_ / e s 2 v J G 7.T  .&.].&.X :./.=.U =.=.U =.(. .X /.&.*.X ]. .",
"R w l r K 5 b$z J  .*.K c k q d 2 5 c s s d n E I |#F c e 7 5 1 5 5 5 8 2 ! s w F P R.D J T (.&.=.Z _.+$:._._.X 7.=.T &.*.T ..T ",
"J H J }.7.F r v 7. .X *.(. ./.&...I 9.....{.7.{.L |#r t 8 ^ ^ _ ( O 5 5 c q M J .. .T T ....X %.]./.X =.:.=.(. .I *. . . . .*.%.",
"7 2 d f R r @.N {.T  .].%.T ].X ..7.7.9.7.7.v s O c y O 6 > > _ ! _ e h c c P E 7. .T J ( 5 8 _ _ 7 2 s Q x s k n b$b$4 4 > } ' ",
"P H P R...L I P k+X  .]. .T ].*. .7.L 7.I 7.}.D P F r 5 _ ) > } > , _ s C s r @.E 7.T I ` 7.I k+J 7.I  . .J F J K#t l o l l u R ",
"q w w l o L %.+.7 8 8 5 d (++.E H 7.-.l n N K +.^ b < _ _ - 8 O s f f l l a a b$4 / y d J 7.9.I I ..k+ .V F ( / 8 v n o r r F F ",
"H P I E J J I ` P H P P P I I I I J @.I H H H H u h c 5 ^ _ 8 8 ( c$5 7 8 c d l r F +.H 7.I 7.}.L %.7.9.9.H k+I r E H H n F E D ",
"1 _ _ ' _ 8 c w u f s $.z / y 5 / 8 ^ c t q c t w 5 7 0 ( ~ _ _ ! ~ ! ( ^ c l u K ( , - 1 ( / f t f R n l r J R.F E E E ! 2 h Q ",
"l w w p w v F K H E F K 7$(+w n o o n o F M r N l / , ~ , 7 ! { ] , b$, { 8 c w v s s s s t p |#E @.@.H R.H H H P P E P 5 f -.-.",
"o r r r v r K +.H H H F P P 7$P @.P r r 7$N s d * - > < > ] 4 * b$, b$b$b$b$4 & ( _ w C o n N P J G D @.G E G I K +.M P 5 f v r "};
