/* XPM */
static char * C:\Users\Rin_K\Documents\prueba2_xpm[] = {
"64 64 327 2",
"  	c None",
". 	c #010100",
"+ 	c #010000",
"@ 	c #010101",
"# 	c #020101",
"$ 	c #020100",
"% 	c #030100",
"& 	c #050101",
"* 	c #040101",
"= 	c #070200",
"- 	c #080201",
"; 	c #0D0300",
"> 	c #060201",
", 	c #090200",
"' 	c #080200",
") 	c #0A0200",
"! 	c #0B0301",
"~ 	c #0C0300",
"{ 	c #0B0300",
"] 	c #060200",
"^ 	c #050100",
"/ 	c #040100",
"( 	c #030101",
"_ 	c #0F0400",
": 	c #0C0301",
"< 	c #0E0301",
"[ 	c #0D0301",
"} 	c #0E0401",
"| 	c #0F0401",
"1 	c #0E0300",
"2 	c #060100",
"3 	c #050200",
"4 	c #0A0300",
"5 	c #090201",
"6 	c #100400",
"7 	c #120500",
"8 	c #140501",
"9 	c #120400",
"0 	c #110400",
"a 	c #140500",
"b 	c #110401",
"c 	c #120401",
"d 	c #0F0300",
"e 	c #070201",
"f 	c #150500",
"g 	c #170600",
"h 	c #160600",
"i 	c #160601",
"j 	c #1D0900",
"k 	c #150600",
"l 	c #130500",
"m 	c #170601",
"n 	c #1A0700",
"o 	c #180700",
"p 	c #0A0201",
"q 	c #150501",
"r 	c #1A0801",
"s 	c #190700",
"t 	c #1C0800",
"u 	c #1A0800",
"v 	c #1F0A00",
"w 	c #1B0800",
"x 	c #220C00",
"y 	c #1E0900",
"z 	c #1D0901",
"A 	c #1B0801",
"B 	c #180701",
"C 	c #0E0400",
"D 	c #190701",
"E 	c #200B00",
"F 	c #1C0801",
"G 	c #170701",
"H 	c #240D00",
"I 	c #270E00",
"J 	c #240D01",
"K 	c #1C0901",
"L 	c #210B00",
"M 	c #200A00",
"N 	c #1E0A00",
"O 	c #130501",
"P 	c #230C01",
"Q 	c #250D00",
"R 	c #110501",
"S 	c #260D01",
"T 	c #280E00",
"U 	c #280F00",
"V 	c #2A1001",
"W 	c #220B00",
"X 	c #260E00",
"Y 	c #220C01",
"Z 	c #200A01",
"` 	c #230C00",
" .	c #250D01",
"..	c #210B01",
"+.	c #1C0900",
"@.	c #220B01",
"#.	c #1A0701",
"$.	c #280F01",
"%.	c #2B1000",
"&.	c #2A1000",
"*.	c #2A0F00",
"=.	c #2B1001",
"-.	c #290F00",
";.	c #301300",
">.	c #311300",
",.	c #321400",
"'.	c #2C1100",
").	c #1E0A01",
"!.	c #1E0901",
"~.	c #170700",
"{.	c #270E01",
"].	c #2C1101",
"^.	c #301200",
"/.	c #2E1200",
"(.	c #240C00",
"_.	c #240C01",
":.	c #2D1100",
"<.	c #2F1200",
"[.	c #361500",
"}.	c #331400",
"|.	c #351600",
"1.	c #321300",
"2.	c #260D00",
"3.	c #2C1000",
"4.	c #2D1101",
"5.	c #250C00",
"6.	c #301301",
"7.	c #351501",
"8.	c #331401",
"9.	c #361600",
"0.	c #381700",
"a.	c #2E1201",
"b.	c #1F0A01",
"c.	c #290F01",
"d.	c #291000",
"e.	c #351500",
"f.	c #3A1800",
"g.	c #371700",
"h.	c #371600",
"i.	c #341500",
"j.	c #361601",
"k.	c #2F1201",
"l.	c #2E1100",
"m.	c #301201",
"n.	c #311401",
"o.	c #331500",
"p.	c #280E01",
"q.	c #381701",
"r.	c #321401",
"s.	c #3B1800",
"t.	c #3A1700",
"u.	c #391800",
"v.	c #3C1901",
"w.	c #3E1A00",
"x.	c #3B1801",
"y.	c #2B1100",
"z.	c #341501",
"A.	c #391700",
"B.	c #3B1900",
"C.	c #2B1101",
"D.	c #3D1900",
"E.	c #3D1901",
"F.	c #3C1900",
"G.	c #3F1B00",
"H.	c #401B01",
"I.	c #2F1300",
"J.	c #2F1100",
"K.	c #351601",
"L.	c #381600",
"M.	c #391801",
"N.	c #421C00",
"O.	c #421C01",
"P.	c #411B00",
"Q.	c #311301",
"R.	c #3E1A01",
"S.	c #411C01",
"T.	c #431C01",
"U.	c #401B00",
"V.	c #431D01",
"W.	c #2F1301",
"X.	c #411C00",
"Y.	c #431D00",
"Z.	c #441D01",
"`.	c #441D00",
" +	c #3F1A00",
".+	c #391701",
"++	c #3D1A00",
"@+	c #3F1A01",
"#+	c #451D00",
"$+	c #260E01",
"%+	c #421D00",
"&+	c #200B01",
"*+	c #461E00",
"=+	c #3A1801",
"-+	c #361501",
";+	c #3D1A01",
">+	c #431C00",
",+	c #441E01",
"'+	c #451E00",
")+	c #471F00",
"!+	c #311400",
"~+	c #481F01",
"{+	c #321301",
"]+	c #4D2200",
"^+	c #4F2300",
"/+	c #512400",
"(+	c #502400",
"_+	c #4F2401",
":+	c #4B2100",
"<+	c #4E2300",
"[+	c #4D2201",
"}+	c #2D1200",
"|+	c #481F00",
"1+	c #532601",
"2+	c #512500",
"3+	c #4A2101",
"4+	c #4C2101",
"5+	c #4B2201",
"6+	c #4F2400",
"7+	c #532600",
"8+	c #4E2301",
"9+	c #4C2100",
"0+	c #4A2000",
"a+	c #552600",
"b+	c #522500",
"c+	c #451E01",
"d+	c #492000",
"e+	c #542600",
"f+	c #562700",
"g+	c #461F00",
"h+	c #2D1201",
"i+	c #401C01",
"j+	c #512401",
"k+	c #502401",
"l+	c #4F2301",
"m+	c #411B01",
"n+	c #5B2900",
"o+	c #572701",
"p+	c #532501",
"q+	c #482000",
"r+	c #552601",
"s+	c #582800",
"t+	c #471F01",
"u+	c #331301",
"v+	c #4C2200",
"w+	c #592901",
"x+	c #542601",
"y+	c #3F1B01",
"z+	c #532500",
"A+	c #5A2900",
"B+	c #4D2301",
"C+	c #341400",
"D+	c #4B2101",
"E+	c #682B01",
"F+	c #943F13",
"G+	c #783207",
"H+	c #4B2200",
"I+	c #461E01",
"J+	c #492100",
"K+	c #8D3C0B",
"L+	c #903C12",
"M+	c #4A1F00",
"N+	c #502200",
"O+	c #9A3A03",
"P+	c #CB581B",
"Q+	c #B95119",
"R+	c #522300",
"S+	c #4A2100",
"T+	c #471E00",
"U+	c #3C1A01",
"V+	c #5A2601",
"W+	c #C75518",
"X+	c #CB571B",
"Y+	c #8D3703",
"Z+	c #371601",
"`+	c #331300",
" @	c #852B00",
".@	c #933200",
"+@	c #AD4103",
"@@	c #491F01",
"#@	c #612700",
"$@	c #B34403",
"%@	c #913100",
"&@	c #762901",
"*@	c #2E1101",
"=@	c #441E00",
"-@	c #3C1600",
";@	c #541D01",
">@	c #5A2200",
",@	c #3A1701",
"'@	c #5E2300",
")@	c #4F1C01",
"!@	c #431B00",
"~@	c #482001",
"{@	c #331501",
"]@	c #341401",
"^@	c #401C00",
"/@	c #3E1B00",
"(@	c #361700",
"_@	c #0D0200",
":@	c #250E00",
"<@	c #0E0200",
"[@	c #3B1901",
"}@	c #491F00",
"|@	c #110300",
"1@	c #2A0F01",
"2@	c #371701",
"3@	c #190401",
"4@	c #140401",
"5@	c #1A0500",
"6@	c #1C0500",
"7@	c #2C1001",
"8@	c #200601",
"9@	c #100401",
"0@	c #1C0600",
"a@	c #210601",
"b@	c #120501",
"c@	c #270F01",
"d@	c #291001",
"e@	c #150601",
"f@	c #180600",
"g@	c #0B0200",
"h@	c #1F0900",
"i@	c #210A00",
"j@	c #110500",
"k@	c #060101",
"l@	c #1D0800",
". + @ . . # $ $ % & * * = - = = = = ; - > - , ' ' , - ) ! ' - = ' ' ' ' ) ~ { ' = = ' , , , , = ] ' ^ ^ ^ ] ^ / ( % $ % * % . + ",
"+ % # % * % / % * & = ' > - = = = _ ) , ] > ~ _ : ; ; ~ ~ , { ~ < ; , ; [ } _ | _ 1 ; [ : , ' , ) , , ' , = 2 % % % % $ ^ / / + ",
"/ $ ( & / 3 ^ ^ & 4 5 = , , ' , ; ; = = : 6 6 7 8 9 0 0 9 a 8 b 9 6 c _ 0 d d 0 _ _ 6 6 ; ; ; ~ ) { ) { ' ' e = / / % $ $ $ $ $ ",
"$ % @ ' ^ ' = ' < ~ 0 < 0 b 7 a f g h g i a j f 0 7 a 7 a k l a a 8 7 f 0 f a l a k m n i g o k h l _ ~ ; { < p p , / e ~ = % $ ",
"e $ ' | q h 6 9 k r s t j u v j w x y j n z A B h 8 6 7 C 0 b 1 6 7 f 0 7 g k g g D w w u n s u o s s o o o k a 0 1 ' ; d _ = % ",
"' / _ u E F m G v H I J K L M v L L M F N j t w s m h O 9 7 0 b 0 b O f k k l h u z t v E v P Q L N N L Q L E t s h C R l _ ~ ' ",
"S T I U U V Q W H T X Y L w Z E P x n v x E j y w u s k n o l l a b f B m m n w j W H ` U Q M W  .x P L W P P ` ..+.P L @.z F #.",
"$.%.&.*.&.=.-.;.>.,.;.'.Q ).!.` ` x V -.-.H x y +.n h ~.h h n s 8 m g g h g s u j L P x {.-.H x E I H H -.].^.^./.v (._.x L E L ",
"=.&.&.%.].'.:.<.[.}.,.|.1.>.I I -.-.U I 2.W (.H x ).u s s h o o t +.t a f g w v L ).L I T :.&.Q H =.:./.<.>.:.3.4.y 2.I I Q (.5.",
"T -.:./.>.6.6.7.;.,.8.7.9.|.0.|.-.-.I a.-.2.H X J E w g s n w g k i h h o s w b.E x I c.` I &.d.e.0.f.}.g.h.e.i.j.Q ^.k.}.l.k.<.",
"c.:.%.:.k.m.>.;./.<.%.a.n.i.j.[.o.;.U %.:.*.` H I x L t +.s u n w A s r r A +.y W I U &.X p.i.f.0.f.0.h.h.q.i.[.i.%.r.>.r.a.k.'.",
"%.=.l./.<.>.o.o.%.4.:./.'.}.s.t.h.u.8.-.I -.I  .X I ` y w j s s v L W v L L (.x X %.-.&.c.9.f.v.f.w.x.9.u.x.9.g.i.:.[.r.>.<.;.8.",
"=.%.y.I 6.}.i.z.0.|.u.s.f.A.B.s.u.|.A.,.&.C.&.H L ` Y !.v j A M L w M L v Q I U U a.'.<.u.D.E.F.G.H.D.D.i.h.h.h.z.^.I.}.;.<.<.J.",
"$.-.-.N ,.n.K.h.h.t.s.v.F.i.u.h.L.e.}.7.e.:.:.X M L H v v v j L t w N P H (.X p.-.&.<.M.w.N.N.N.O.P.G.w./.,.7.}.Q.;.'./.:.<.4.l.",
"_.Q X I /.o.e.9.i.j.x.w.R.i.k.>.e.|.,.;.Q.}.:.:.-.2.` W N P E L t z w w X &.H U &.:.B.G.S.O.T.U.N.N.V.P.<.Q.;.^./.'.4.k.L -.3.4.",
":.<.6.>.o.W.I.|.0.f.w.G.X.X.Y.N.U.N.Z.`.U. +.+-.I /.H E ` Q N E E x ` X X X I Q.;.s.s.++@+ +#+T.U.`.`.D.i.A.F.D.A.L.e.j.v $+&.c.",
"4.:./.>.r./.;.Q.}.u.f.F.S.S.Y.%+`.N.`.Y.X.R.U.,./.;.&.H I X P &+` .._.U &.$.3.&.[.U.g.s.F.D.T.*+g.H.w.F.L.w.F.D.=+h.h.e.@.*.-.-.",
"a.<.,.}.z.-+[.f.++++F.;+U.U.P.>+Y.Y.`.,+'+U.U.0.>.e.;.c.U I I H x E ` $+'.}./.n.D.P.`.)+)+w.#+#+R.P.U.'+N.Y.R.D.E.f.h.1./.r.Q.>.",
"4.<.>.}.}.8.h.f.x.F.=+i.h.9.7.g.A.f.F.F.T.h.A.9.Q.i.>.:.&.{.H H x Y I !+I.7.I.f.w.U.N.~+*+z.f.x.f.0.q.`.>+O.U. +F.f.e.k.i.e./.{+",
"'.:.;.>.9.q.f.F.++H.++F.'+)+]+^+/+(+_+:+]+<+[+'+Y.g./.}+:.I ` I Q Q '.'.}+|.i.;+X.|+:+]+1+|+/+2+^+[+`.'+X.N.w.w.v.B.h.<.i.,.,.e.",
"Q.>.}.8.9.q.9.=+F.w.G.++3+4+5+6+(+7+/+8+<+]+9+*+N.F.I.<.I X (.J H H &.<.,./.0.U.*+0+[+(+a+]+8+b+b+_+N.|+`.c+U. +;+e.;.,.i.,.,.1.",
"6.,.}.}.8.j.F.B.D.w.v.=+d+9+^+b+e+f+(+/+(+]+:+g+>+D.:.%.-.Q Y ` H Q -.h+&.y.u.i+)+d+^+^+j+k+a+a+l+^+Y.:+'+'+m+N.H.9.7.9.9.e.7.>.",
"<.r.>.,.e.A.s.s.x.D.G.B.)+<+l+7+f+n+o+b+p+^+d+q+Z.N.>.<.-.$.H x 2.H &.-.%.I.f.G.`.:+(+r+s+b+a+1+p+b+t+:+)+c+Y.#+P.9.e.q.i.7.}.u+",
"%./.;.o.9.g.h.f.s.B.++B.)+d+v+/+e+w+x+]+v+v+*+c+;+w./.8.%.I Q Q Q ` X I 9.K.9.y+`.|+]+z+f+A+(+e+2+B+Y.Y.Y.N. +P.E.9.C+0.9.e.8.>.",
"` -.U &.I.z.g.M.0.w.G.s.N.t+D+<+E+F+G+8+H+I+#+G.}.i./.,./.-.H J H Q U <.I./.%.++X.|+J+v+b+K+L+M+X.;+++++s..+}.7.Q.;.i.0.e.i.,.>.",
"=.'.;.>.7.g.u.B.U.++H.v.'+)+|+N+O+P+Q+R+S+)+T+`.w.f.e.,.%.X P ` H Q I n./././.U+`.'+q+:+V+W+X+Y+q+~+++Y.'+G.B.A.=.|.Z+h.e.r.Q.`+",
"k.Q.C+}.h.9.0.0.B.++N.f.F.G.N.g+ @.@+@@@)+:+I+)+V.G.e.}.'.$+(.L H Q I 3.<.>./.[.f.++'+g+#@$@%@&@[+6+y+Y.'+H. +w.L e.0.k.h+'.:.*@",
"<.}.}.>.q.u.A.F.A.B.w.w.U.H.=@g+-@;@>@`.)+S+)+'+Y.D.z.C.d.U Q L H H P X &.}.e.,@++w.|+)+S+'@)@!@|+t+++`.Y.w.w.f._.e.i.!+,.>.a.^.",
"<.;.;.,.!+z.9.M.u.F.F. +B.H.X.t+}+h e.S.`.I+Y.X.D.A.}.'.'.U Q P ` ` ` X &.>.9.q.B. +`.c+g+/.l 0.~@c+++G.U.++w.B.@.,.i.I.>.<.l.>.",
"4.;.;.,.{@9.0.|.A.F.u.f.R.s.R.N.i.) ]@N.N.^@X.y+F.0.i.<.-.` H ` Y E x I '.<.1.q. +N.X.X.I+4.5 0.V.F.F./@w.F.w.f.>.;.8.i.,.Q.^.:.",
"L J Q X I %./.].].W.!+0.h.9.i.f.(@_@v.S+++U.n.&.$.&.U -.:@I H x M L Q X X &.;.9.s.w.D.++:+h.<@[@j.8.q.}+:.<./.;.,.>.|.,.;.;.<.4.",
"I d.4.'.k.;.i.o.h.h.e.h.h.z.k.>.G.<@4+6+s.v.0.h.j.i.a.{.X Q ` b.j N ..L x Q ;.j.0.s.u.F.b+}@|@'+<.z.0.o.i.8.i.z.j.!+i.;.k././.:.",
"'.;.<.;.].:.|.7.e.|.}.e.h.z.%.!.'.U.g+)+;.7.9.u.A.i./.U X :@Y v N v L L I $+H c.'.%.-.1@J+*+w.%.A @.I X %.` X -.c.Q :.:.%.:.C.%.",
"c.:.:.V :.%.<.>.e.r.z.i.C+}+4.g ~ { P |.>.g.f.2@h.,.:.c.U ` L t ).` X X %.I l.;.}.<.6./.i.&+! ~ s -.<.>.>.=.'.;.'.%.6.W.:./.:./.",
"T ].1@:./.I k.r.r.1.>.}.{+<.:.0 / 3@4@o }.9.9.9.7.;.%.` ` x x j j j ` Y ` -./.;.e.9.e.|.k 5@6@* B 4.<.;.,.i.}.e.,.'.<.^.4.:.l.7@",
"c.%.7@%.:.-.T -.1@2.2.U I c.$.a ] 8@! 9@N ....M !.+.+.L L H j z t w z E v I :.8.9.f.e.I.a 0@a@[ j a.4.1.i.8.o.Q.Q.%.I.l.a.'.'.*.",
"U &.*.%.4.l.:.Q.;.<.:.k.<.<.'.J N *.Y X %.Q.1.1.3.-.H Q H M j u r o w N N 2.:.W.}.i.8.r.'.W 1@Q &.].<.<.>.1.}.<.1.'./././.:.&.%.",
"P U &.1@3.-.:.:.4.'.'.%.l.&.&.T *.L {.<.Q.e.e.}.6.].H +.t s s s s j j v M H T %.<.<.:.;.I L t J $+&.=.*.l.4.%.y.&.U -.-.-.T X 2.",
"{.Q c.-.%.:./.<.3.&.:.%.a.'.{.%.3.4.4.7.>.e.o.o.z.'.I A j N j s o t j +.t j W p.=.:.:.:.v W Q ` X {.2.I x E x P X H I Q  .Q P W ",
"{.T c.%.T :.1.^.*@:.l./.>.6.].:.<.;.m.}.i.{+r.;.;.'.I u u A h i g w +.j y L (.%.<.<.,.>.-.:.4.*@'.].^.<.-.$.-.-.].*.-.T {.-.T T ",
"-.U -.-.1@'.:.4.;.<.6./.;.>.<.>.}.,.e.i.9.,.'.6.l.%.2.t t t D D B o s t N x X 7@<.<.r.z.%.8.m.%.^.;.^.I.d.-.&.=.:.:.V U -.-.-.I ",
"$+H U *.'.%.&.*@k.:.>.<.<./.;.>.>.}.r.7.>./.a.-.c.{.W N y s s h k k h u n M W x H U &.:.<.>.>.z.1@*.T I H X 2.&.:.%.*.7@&.T I p.",
"{.I c.U &.&././.;.%.:.>.*@;.,.}.o.Q.Q.Z+,.I.,.;.4.I ` B h s h k k f m h g L (.c.V './.>./.^.}.i.H 4.a.:.:.:.3.7@a.%.&.:.k.I {.I ",
"Q T X I I I %.'.c.'.:.<.:.4.k.6.<.,.n.>./.].Q.:.-.I L h o i f b@k g o w s y Q U %.:.'.>.<.>.k./.X 8.l.'./.4.%.*.V -.-.-.U I I H ",
"Q U I -.1@&.7@l.:.'.].}+'.6.6.I.>.;.,.;.<./.<.k.%.T (.w w o k 0 l g n w w E X *.:.^.4./.:.>.r.<.%.{+^.%.^.3.-.1@-.'.7@*.T {.T T ",
").W L P L 2.(. .$+X -.T '.'.m.}.c@&.=.V :.:.%.;.$...j h n B 7 6 7 f g g s N H I /.3.<././.:.;.W.m.}.<.'.:.3.*.Q I 2.Q (.` L x W ",
"C _ 9@1 ) L U ` p.T U -.].:.k.<.*.d@V :.%.3.%.'.v w D O a k l 9@6 7 b f ~.L ` {.3.:.:.%.].'.:./.:.*@7@&.:.%.2.Z  .Q Q M b.b...v ",
"u +.+.w e@` H {.*.T -.U '.=.:.4.I l.3.:.&.].V *.L v w k f 8 _ 6 0 6 a f k t L H U %.'.7@3.U 6.:.'.'.-.%.&.3.X ` Q Q J E (.W ` (.",
"M L L x j ` S T -.&.&.%.4.a.4.3.U :.a.^./././.=.x L t 7 f 0 0 < ; 6 l a a t ` I -.'.'.:.*.%.<.<.l.*@3.'.4.:.X Q Q X X x (._.`  .",
"Z W (.$+..W Q {...5.(._.Q I {.-.p.-.&.].*.T Q Q !.w f@l 9 1 6 1 ; 0 6 a 0 n v v ` ` Q 2.X (.(.{.S  .H  .Q Q x L L E L y v j v v ",
"L ` J (.` (.` 2.m l a a i h !.W -.=.V *.%.` h a s w o : 7 ; ~ < ; 6 0 8 a s v e@h h o s B w j t N ).t y j !.M z b.v M v &+b.b.y ",
"v x ` x @.Q (.$+..v v E W &+2.$.-.&.c.%.I {...x v N j u ; [ ) = { g@~ 0 a j M v W (.2.{.Q (.J Q U 2.2.(.(.Q H M L ` ` W x L L W ",
"+.h@M !.L ` (.Q y M j M Q H :@Q T I _.X H H 2...A u k _ h 7 g@= = , ' = ) j +.L Q U $.Q U y M W x W i@L Z L &+j v M y y h@y j y ",
"K L b.L W Q ` Y r t j n _.X S 2.I ` E W W (.Q L r s m 6 9@6 _ ~ ' ] { [ = w n L H Q T I I n j +.z b.y w o o n u y M E y b.M ).y ",
"M L (.L W Q (.W @.` L w Q X  .2.2.I 2.I X T 2.@.W M t b 1 : { p ' ~ _ 9 6 s h@..W H Q T  .X Q  .X X U X Q X (.Y M W (.` L ` ..v ",
"a a k o n 1 / 9@N E W o 6 b@l b@6 1 6 7 9 b o y x b.w 6 C : ; 5 ; ; ; ; 6 ) 9 g t j ..!.v Q p.Q I S I {._.2.Q L j (.W W L M N h@",
"+.w w z v s s o v L (.` {.` X Q (.` P x x ..E @.L b.s 7 ; ~ ) , , | 1 ; 6 a A M ` (.Q H x x 2.J  .Q ` Q P H  .v y L v v M M M ).",
"[ 1 9@7 a s t B ..x L P @.` _.Q ` (.` Y W ` h a b@9 | | : ' ' , ' ' 1 | 6 j@j v ` (.Q L ~ _ _ { { [ _ 9 l 6 9 c k / ^ ] ] ' > ~ ",
"u j s K M y y w Z ` L _.W `  .(.(.x L ` W x ..b.y w g 1 { - ' e = 2 2 0 o l t M v x H M Z W L Y v L M x L j n j v 0 f h k f i f ",
"9 7 k k g y @.D [ ~ ; 1 9@D A t y W D g g r t z 1 * / ) { , 1 | 9 k k s g / % ^ ^ ~ | b@v W @.L L L @.W Y u , ~ ; h h g o o o s ",
"t s y w j j N !.t j u u u E L E M M N L v M M v #.8 0 1 { { 1 ~ ) ~ ; p { _ O g n +.!.E L M L ..v Y L &+&+j Z v o w j j k s w A ",
"! ) ) ~ ) ; _ a m 7 0 b@[ { [ 1 ~ 1 ; 6 l 7 0 l g _ : ! ) - , = = e ] ' 4 0 k B w ~ = , p { { l 7 l f g f o t z s w w t ] 1 | 0 ",
"f l a 8 l h s n +.w s s B G k g o s o s u A n r o C = - 2 : 2 k@^ ^ ^ 2 k@{ 6 h o 9 0 0 7 7 8 z t +.t w F u l@l@n n w t , 7 m m ",
"s o o o o s u A j j +.s u w #.w t t w w F A 9 b > ' = % = = / * / 2 / / % / ^ / ~ ) h m o g D l@v !.A t !.w K y s #.#.u , 9 h g "};
