/* XPM */
static char * C:\Users\Rin_K\Documents\prueba_xpm[] = {
"64 64 376 2",
"  	c None",
". 	c #000000",
"+ 	c #010101",
"@ 	c #020101",
"# 	c #020001",
"$ 	c #010001",
"% 	c #040100",
"& 	c #050200",
"* 	c #030101",
"= 	c #050100",
"- 	c #060101",
"; 	c #060201",
"> 	c #050201",
", 	c #040101",
"' 	c #050101",
") 	c #070201",
"! 	c #030100",
"~ 	c #010000",
"{ 	c #070200",
"] 	c #080201",
"^ 	c #090201",
"/ 	c #040201",
"( 	c #020100",
"_ 	c #030001",
": 	c #010100",
"< 	c #0B0301",
"[ 	c #0D0301",
"} 	c #0C0301",
"| 	c #0D0401",
"1 	c #090301",
"2 	c #110401",
"3 	c #0F0401",
"4 	c #0E0301",
"5 	c #100401",
"6 	c #0E0401",
"7 	c #0E0402",
"8 	c #0F0402",
"9 	c #0B0201",
"0 	c #080301",
"a 	c #0A0201",
"b 	c #120502",
"c 	c #130501",
"d 	c #0F0301",
"e 	c #0C0201",
"f 	c #110501",
"g 	c #100402",
"h 	c #140602",
"i 	c #120501",
"j 	c #110402",
"k 	c #120401",
"l 	c #0C0302",
"m 	c #0F0501",
"n 	c #100501",
"o 	c #140601",
"p 	c #140501",
"q 	c #170701",
"r 	c #140502",
"s 	c #120402",
"t 	c #150501",
"u 	c #150601",
"v 	c #160601",
"w 	c #180700",
"x 	c #180701",
"y 	c #190701",
"z 	c #1A0701",
"A 	c #0A0301",
"B 	c #110502",
"C 	c #130602",
"D 	c #130502",
"E 	c #0E0302",
"F 	c #170601",
"G 	c #190801",
"H 	c #180601",
"I 	c #1B0801",
"J 	c #1C0901",
"K 	c #1B0800",
"L 	c #1A0801",
"M 	c #100301",
"N 	c #150602",
"O 	c #150502",
"P 	c #180702",
"Q 	c #1C0801",
"R 	c #130401",
"S 	c #170600",
"T 	c #130500",
"U 	c #140500",
"V 	c #160600",
"W 	c #1C0800",
"X 	c #1D0901",
"Y 	c #1B0901",
"Z 	c #160701",
"` 	c #170702",
" .	c #1E0901",
"..	c #1E0A01",
"+.	c #1F0A01",
"@.	c #160602",
"#.	c #1F0901",
"$.	c #180801",
"%.	c #210B01",
"&.	c #1F0B01",
"*.	c #1A0702",
"=.	c #1B0802",
"-.	c #170602",
";.	c #1D0902",
">.	c #200B01",
",.	c #220C01",
"'.	c #230C01",
").	c #1E0A02",
"!.	c #1D0A01",
"~.	c #220B01",
"{.	c #240D01",
"].	c #1A0802",
"^.	c #240C01",
"/.	c #1C0902",
"(.	c #1D0801",
"_.	c #240D02",
":.	c #230C02",
"<.	c #1C0A01",
"[.	c #240E01",
"}.	c #260E01",
"|.	c #250D01",
"1.	c #260E02",
"2.	c #240C02",
"3.	c #220C02",
"4.	c #210A01",
"5.	c #200A02",
"6.	c #1D0802",
"7.	c #250D02",
"8.	c #240E02",
"9.	c #250E01",
"0.	c #260D01",
"a.	c #250C01",
"b.	c #210C01",
"c.	c #1B0902",
"d.	c #210B02",
"e.	c #1F0B02",
"f.	c #1A0902",
"g.	c #270E01",
"h.	c #270E02",
"i.	c #200B02",
"j.	c #200A01",
"k.	c #250E02",
"l.	c #230D02",
"m.	c #1F0A02",
"n.	c #270F02",
"o.	c #280F02",
"p.	c #1E0B02",
"q.	c #110601",
"r.	c #1C0802",
"s.	c #200C02",
"t.	c #260F02",
"u.	c #290F02",
"v.	c #210C02",
"w.	c #2B1102",
"x.	c #2A1002",
"y.	c #290F01",
"z.	c #260D02",
"A.	c #291002",
"B.	c #280E02",
"C.	c #170700",
"D.	c #220D02",
"E.	c #230D03",
"F.	c #281001",
"G.	c #291001",
"H.	c #2C1102",
"I.	c #280F01",
"J.	c #2B0F01",
"K.	c #2C1001",
"L.	c #2B1001",
"M.	c #2A1001",
"N.	c #260D03",
"O.	c #250E03",
"P.	c #2B1002",
"Q.	c #2A0F02",
"R.	c #2B1101",
"S.	c #160702",
"T.	c #2A1102",
"U.	c #2E1202",
"V.	c #331402",
"W.	c #321401",
"X.	c #2D1201",
"Y.	c #220B02",
"Z.	c #2C1101",
"`.	c #2A0F01",
" +	c #2A1003",
".+	c #1C0A02",
"++	c #190702",
"@+	c #280F03",
"#+	c #2C1202",
"$+	c #2D1102",
"%+	c #341501",
"&+	c #341601",
"*+	c #2F1302",
"=+	c #230B01",
"-+	c #2C1002",
";+	c #2D1101",
">+	c #2B1003",
",+	c #230C03",
"'+	c #1B0702",
")+	c #301201",
"!+	c #361601",
"~+	c #2D1002",
"{+	c #2E1101",
"]+	c #2F1202",
"^+	c #2D1202",
"/+	c #2E1102",
"(+	c #2E1201",
"_+	c #311401",
":+	c #321402",
"<+	c #280E01",
"[+	c #2A1103",
"}+	c #351601",
"|+	c #3D1902",
"1+	c #3C1802",
"2+	c #301302",
"3+	c #331401",
"4+	c #0F0300",
"5+	c #4A1E03",
"6+	c #80340A",
"7+	c #83360B",
"8+	c #502003",
"9+	c #261001",
"0+	c #0B0300",
"a+	c #2F1201",
"b+	c #281002",
"c+	c #000001",
"d+	c #120500",
"e+	c #3D1A01",
"f+	c #0F0400",
"g+	c #301301",
"h+	c #1E0B01",
"i+	c #662604",
"j+	c #AC450B",
"k+	c #AE460D",
"l+	c #6A2805",
"m+	c #1F0C01",
"n+	c #381701",
"o+	c #220C03",
"p+	c #1B0701",
"q+	c #3E1B03",
"r+	c #461F01",
"s+	c #311302",
"t+	c #210D02",
"u+	c #5E1F02",
"v+	c #8E3303",
"w+	c #8D3304",
"x+	c #5B1F02",
"y+	c #411B01",
"z+	c #160501",
"A+	c #180802",
"B+	c #512503",
"C+	c #4B2202",
"D+	c #220D01",
"E+	c #361201",
"F+	c #451400",
"G+	c #441300",
"H+	c #320E01",
"I+	c #481F02",
"J+	c #371701",
"K+	c #321301",
"L+	c #421D03",
"M+	c #5D2C02",
"N+	c #290F00",
"O+	c #4D2302",
"P+	c #2E1302",
"Q+	c #190A01",
"R+	c #060501",
"S+	c #0A0501",
"T+	c #170801",
"U+	c #2F1301",
"V+	c #4A2102",
"W+	c #5A2902",
"X+	c #622E02",
"Y+	c #502402",
"Z+	c #4C2202",
"`+	c #612D02",
" @	c #160700",
".@	c #612E02",
"+@	c #512501",
"@@	c #190802",
"#@	c #4E2301",
"$@	c #100400",
"%@	c #602D02",
"&@	c #4F2301",
"*@	c #290E01",
"=@	c #0C0300",
"-@	c #5F2C02",
";@	c #5B2B02",
">@	c #4E2302",
",@	c #2E1301",
"'@	c #4F2302",
")@	c #5C2A02",
"!@	c #1A0901",
"~@	c #542602",
"{@	c #391801",
"]@	c #3A1801",
"^@	c #4D2202",
"/@	c #270F01",
"(@	c #311301",
"_@	c #3D1901",
":@	c #552702",
"<@	c #492001",
"[@	c #200901",
"}@	c #482001",
"|@	c #552701",
"1@	c #572802",
"2@	c #0D0300",
"3@	c #441D01",
"4@	c #0F0201",
"5@	c #431C01",
"6@	c #552601",
"7@	c #1C0900",
"8@	c #532602",
"9@	c #411C01",
"0@	c #3F1B01",
"a@	c #080200",
"b@	c #512302",
"c@	c #502502",
"d@	c #120400",
"e@	c #3F1B02",
"f@	c #190700",
"g@	c #502401",
"h@	c #4C2302",
"i@	c #411C02",
"j@	c #371601",
"k@	c #431D02",
"l@	c #331501",
"m@	c #140401",
"n@	c #441E02",
"o@	c #3E1A02",
"p@	c #210A02",
"q@	c #230D01",
"r@	c #451E02",
"s@	c #431E02",
"t@	c #351501",
"u@	c #180600",
"v@	c #1D0A02",
"w@	c #421D01",
"x@	c #090200",
"y@	c #0C0200",
"z@	c #150600",
"A@	c #170501",
"B@	c #060200",
"C@	c #020000",
"D@	c #3C1901",
"E@	c #3F1C01",
"F@	c #3D1B02",
"G@	c #3A1802",
"H@	c #401A02",
"I@	c #3A1702",
"J@	c #1B0A02",
"K@	c #361602",
"L@	c #3B1802",
"M@	c #3C1A01",
"N@	c #401B02",
"O@	c #331502",
"P@	c #250D00",
"Q@	c #220B00",
"R@	c #000100",
"S@	c #220A01",
"T@	c #070101",
"U@	c #060100",
"V@	c #240C00",
"W@	c #0D0302",
"X@	c #130601",
"Y@	c #150702",
"Z@	c #0E0400",
"`@	c #040200",
" #	c #130402",
".#	c #100502",
"+#	c #0F0302",
"@#	c #0A0200",
"##	c #0D0201",
"$#	c #110301",
"%#	c #070100",
"&#	c #030201",
". . . . . . . . . + . . @ # $ # @ % & * @ * % % = % % - ; > , , ' ' , % - ) ) , * * ! % * @ * @ + @ ~ . + + + . . . . + . . . . ",
". . . . . . . . . $ + + + # + + * > ' , * @ = ; ; ; { { ) ; ; ; ] ] - ) ^ ^ ] ] ) { ; > / * * ( * @ _ @ # + + . . . . . . + + . ",
". . . + . . . . : @ @ + @ @ @ @ , > ( + , ) ] < [ } < < } | [ } } < } } < ^ ^ 1 ] ^ ^ { ' , * , ! ( @ @ # @ + + . . . . . . . . ",
". . . + . + + + * * , @ , > > ) ] ] ^ } } [ 2 3 < [ 4 [ 3 5 6 7 8 6 [ [ [ } } } } [ } [ 9 < < ^ ] ; % * % @ * + + @ . $ + + . . ",
"+ . + * * > * * = 0 ^ a < < 4 4 [ b 2 5 5 c 2 [ [ } 9 < a < } a < 4 6 } [ 3 4 | 3 4 d 5 d 4 4 [ e < a ^ ] ) ; > % ( $ @ * * ~ . ",
"@ ~ ( ] ^ ^ ' ) } 8 f g [ 3 3 6 5 h i d j c k 2 3 6 6 [ | | | l l < [ 3 3 [ } | 3 5 3 i i g i b 6 4 [ m n [ } a ] > * / > * @ $ ",
"6 4 [ 5 2 2 3 } 6 2 i 4 4 e [ 6 3 g } [ b o f 5 j i f 5 i 2 4 3 6 [ 6 5 5 3 5 2 i p j i q r d 3 2 8 6 } 4 3 d [ 6 [ 5 s 3 [ } < ",
"c t u v v w x y z y q v 5 < A [ 4 3 2 c t v p 5 B 2 5 2 2 f c p k 2 2 2 5 3 2 5 s c i i C D 2 E 6 | 4 4 p F G q H v x x x F v u ",
"u t v v q x y z I I J K L q d M 3 5 5 f N p i k r p i i f f i O P P c d 4 d i c D 2 5 g i o 2 6 [ i L Q I Q I I R v x y v F S v ",
"5 2 T c U V v v G I W Q X X Y Z 3 d 5 f 2 r p R u p 2 2 k u ` O k i 2 5 5 3 i c c c D f [ 4 2 c x Q  . .X Q J W o k q v i u u v ",
"5 5 f i p i i c x I X  . ...+. .F o M j 2 p p p @.N h u v v u u F v t r D f 2 k p p c c 3 6 v Q #.+. ... . .X Q x 3 v t u p p i ",
"p v x q x $.y z I J .. .X +.%.%.&.X q i 3 2 p t u u F x F Z u @.*.X ..=.-.v t p u F u k k x ..%.%.%.+. .X X X J G c G I z q q q ",
"v x x F y y I L J ;.J ..+.>.,.'.,.%.>.J c 2 p u u v v F P v q X ).J ..X y x q p v ` @.x !.>.,.'.'.~.X F L y y z F u y I L x y F ",
"u v x x q y z I J X !.X J %.'.'.{.'.,.%.J i 2 c p u p F x v *.X Y q ]...Y F u o p c F +.'.'.'.^.^.'.../.(.=.Q I ].2 y L L y x F ",
"v q q x y I I Q J Q G u ..^.{.,.{.{._.{.:.I i R p u v v v x ..>.<.].@.v ].P u r 2 t ).[.}.|.|.1.|.{.{.2.3.4.5.).).5 u x x x x y ",
"F x x x L L L J X L c 6.^.|.7.8.|.9.9.0.a.b.G k k N @.v q c.5.d.,.3.e.f.u t N p p I ,.0.g.0.g.h.0.1.0.7.:.>.i.j.+.f c F y z y x ",
"q F y y z Q z L J L @.>.|.^.7.7.7.k.k.}.}.k.e.u i N -.z ;.l.1.{.:.,.%...H t u v =.m.>.%.^.2.:._.n.o.g.1.k.p.J j...q.5 F y y y x ",
"u y y x z L I /.r.c.d.s._.3.7.h.t.1.h.u.o.o.1.>.q s @./.v.o.w.x.}.,.&...L u v L ~.h.u.o.y.y.z.7.1.A.B.h.1.3.x I !.C 2 y y q y F ",
"v x C.y z L J X *.s.l.D.3.E.h.A.x.A.u.A.F.G.o.|. .i 5 =.k.x.H.x.x.I.^.%...u 2 Q 0.J.K.L.M.x.u.1.o.u.o.z.1.N.d.o y L k H x y x F ",
"V F x y y I I I ).v.3.7.D.O.o.A.P.Q.x.u.x.R.Q.n.%.S.3 =.h.T.U.V.W.X.h.Y.i.P p +.g.L.Z.Z.P.`.g.n. +x.u.o.h.7._..+o I c H y x y F ",
"v v y y L I J ++v.3._.1.k.e.@+A.u.w.#+P.$+$+w.x.|.G 8 c.h.x.U.%+&+*+u.:.m.J I =+y.-+K.;+;+y.h.x.>+u.7.A.n.:.7.,+o z y z L y x x ",
"o F q x y y I '+%.l.l._.v.v 3.x.w.#+H.Z.X.;+;+P.}.J r I '.`.)+%+!+V.~+1.>.;.Q =+y.`.K.{+]+^+$+/+-+t.q s.h.k.k.7.Y y I L I z y y ",
"c u v F y L I Q 3.'._.l.u Q h o.U.U.H.L.Z.(+;+R.h.X F I ^.;+%+W._+%+:+^+l.++z ,.I.M.M.Z.U.U.U.$+o.c.v i _.h.7._.Y.-.J I z z y x ",
"u q x y I Q r.X :.7._.c.} <+e d.w.P.[+x.H.(+Z.L.I.+.u y 9.(+}+|+1+%+W.2+3.i L h.U.U.H.H.T.^+U.R.%.6 ^.5 J 1._.k.l.].Q z z y x F ",
"v x y x I J X e.3.7.,.< d 3+4+i o.Q.x.w.^+;+K.L.<+>.p P k.[.5+6+7+8+9+P.J c J h.U.2+*+$+A.H.U.x.x 0+a+v [ l.{.7.2.i.q L z G y q ",
"F x x x L I !.d.3.{.b+c+d+e+f+, 7.H.H.(+g+]+]+$+y.'.v y D.h+i+j+k+l+m+[.Y v ..o.;+g+a+-+u.Z.{+u.[ a n+x c+:.7.'.'.o+h z z I y x ",
"F F y L p+I !.j.i.7.q+L '.r+ .a X H.^+]+s+U.*+*+H.k.x y t+Q.u+v+w+x+|.b.I F %.y.;+a+{+u.L.;+Z.:.A F y+g.z+Q.1.2.'.:.A+I I z L F ",
"t v y x x L ;.i.>.g.B+}+%+C+]+u c x.^+$+*+U.U.*+x.:.G L D+y.E+F+G+H+'.%.].q %.y.;+(+X.A.$+a+R.y } g.I+J+K+L+M.|._.'.<.L =.y L H ",
"p p t u o x ;.i.m.I.M+Z.N+O+<+9 < 1.H.H.U.P+#+x.B.3.y I {.}.Q+R+S+T+>.b.I x b.y.;+U+X.x.^+*+A.5 @ ~.V+{+`.W+g+'.2.d.p.F z z y H ",
"o v u F u I ;.e.;.h.X+v y Y+I c+< v.P.^+U.P+^+L.A._.I L ,.}.%.A , J {.%.L y b.y.;+U+^+P.H.H.7.} . F Z+>.f `+W.5.'.,.d.t z z y y ",
"t v  @C.u Q J !. .Y..@v Q +@Q c+5 ;.x.U.U.$+H.H.A._.X I ..M._+J @@U+R.X x y %.<+L.Z.;+Z.L.`.m.[ c+F #@'.$@%@g+i.,.,.d.c y y x F ",
"p u V V p y I Y X X %@c x &@H c+i *.A.H.P.u.u.u.o._.X J ..M.!+#+w.!+G.y x F +.|.<+y.M.Z.L.*@I 3 . i #@~.=@-@U.%.,.>.J f z+v z+r ",
"F v p x q x L L I '.;@y.L.>@Z. .I P 1.o.h.h.u.I.g.l.J L ..b.y.U.,@`.+.c.G x j.}.I.`.M.L.M.0.x L X y.'@)+g.)@]+>.+.!@F u t u t D ",
"H H c x L z I =.I P.~@{@]@^@e+W.'.++_.h.h.o.u./@_.&.q q ..L i F x c L e.@@z '.<+y.L.L.M.y.1.].=+(@1+>@_@{@:@2+#.X !@*.z v u u c ",
"C.x o x z p+Y J I _.:@/@L.<@R.4.I x :.1.h.u.Q.o.|.+.v p I F - c+c+> v I F L '.h.B.y.`.y.y.}./.I [@u.}@a+g.|@x.(.X J I I p F w z+",
"w x S y y p+Y J I J 1@2@R 3@$@c+R q '.1.1.n.o.u.g.%.y p ++q } d 4@^ i F t y '.g.h.B.y.y.y.<+X c c+0+5@I ' 6@{.I ..7@7@I k F y x ",
"y F x H H y y L y J 8@4+c 9@i c+p x _.1.1.7.z.z.|.,.L N P A+o t t i u F p v  .'.'.7.}.9.g.7.Y c . 2@0@L a@b@^.L !.Y I y f c F q ",
"S F F v u v u v p /.c@I Q 0@+.i v =.l.1.k.7.2.:.3.%.L r u x v i i v x q c 2 t y X d.,.%.%...Z t d@(.e@~.f@g@z.y I y H c n 2 R c ",
"V C.x $.x F q x x 7.h@3+:+i@!+X.../.'.k.k.1.1.z.{.%.L c p F @.i i v x v i c F p+m.,.{.{.'.%.G Y {+j@k@}+l@#@H.I K L f@f p o p m@",
"V S F G L x y G L 1.n@g+s+o@3+L...G %.:._.|.}.}.|.%.@@b c t r D p v ` u c u I p@:.|.0.}.|.q@Y I L.%+o@l@_+r@w.7@J I p+c v S F v ",
"C.S u v H q q q q Q s@v z t@u@d c o v@e.%.%.%.%.>.;.u 2 p o c c c c t r 5 c I ~.{.|.|.{.'.,.x i 3 S }+ .t w@,.y Q p+y i F C.C.v ",
"v S u m@F v H x u u w@x@9 )+y@. d p v@m.+.).;.Q G v 2 2 u u c i 2 5 2 2 3 p Q j.'.3.'.^.'.v.Z 4 . { (@i = 9@ .F z L H o w C.z@v ",
"u S q A@v v ++x H u 0@, ^ {+B@. [ u 5.%.%.d.>...J y p 3 j i 2 5 5 5 5 3 6 u X >.,.,.3.l.^.b.Z } . C@K.3 . D@I x L z y H q x V u ",
"U z@v F u v F F H I e@X ..(@j.y u q 5.,.3.,.%.%.+.Q F 3 3 2 5 4 3 2 i f 3 p Q +.5.~.d.i.v.&.q c H  .a+>.W _@%.G L x w H q v v p ",
"c c p u u u p c o 1.E@e+F@G@H@I@3.J@>.,.3.d.4.%.>.X y c i i 6 } 4 2 c c 3 5 z+*.;...v@/.J =.$.).K@e@L@M@D@N@H.z y y x S V p p p ",
"2 k k c p t v v v Y O@{.|.M.^.4.p o <.&.+.+.+.>.>.J P 2 2 5 } a } 3 5 5 3 d c y X ..h+..!.I u c +.^.J.P@Q@:+e.x y y C.S v u u c ",
"9 e e 6 2 k z+q F c (@. # ,.R@c+a [ u q v F I !.J x c [ [ d [ a 9 } } [ 4 5 c q I ......X L c 0+. . S@T@. U.Z F y S V v t U p 2 ",
"4 4 } 4 i i V q q c g+U@T@V@x@R@=@3 x y y H y I I x c [ } [ 9 9 9 A } [ W@2 u y I Q /.X X I X@2@~ - =+[ = a+F S C.q F p p u p i ",
"k k 2 5 U p v v v c M.[ [ 4.4 ) 5 p z I I L G L z x c [ 9 9 a ^ ^ A } [ } 5 v L I Q J J X J Y@f a } j.3 a G.v u v v u u p i t p ",
"k k k k p p i c o u y x x L z L ].L z I I y -.v v t f } A ^ ] ] 1 < } } < 2 Z f@p+I I L y x F L L y L x F L w k k c f i R 6 2 2 ",
"2 2 k c p p c i i t Z y x q L Q I L y p+I L q t c 5 A ) 1 ] ) ) ] ^ 9 e } f v f@p+I Q x 5 3 p L Y L y L z q x A 9 } a ^ a@; ^ ^ ",
"3 3 5 5 s k t c c p F v u v q x x y x H ].I y x x u k 3 a ) ; = ; ; a@a } 2 t x y y G q c p F x y y y y x x q } 5 i 2 3 } [ 6 Z@",
"a ] ] ] ) ^ W@i k 3 2 r p i 4 } } 3 i i x y x x x F R } } < ) % % `@`@`@> a d c 5 4 | [ c v P ++y x F v X@| A ^ 2 D i i 6 5 [ } ",
"6 [ 4 6 4 [ 5 i p i p v F v  #2 f u v c F x q x v p 5 A ^ ^ ] B@& % ; ; ' [ k o c c c c v F q x x v V S z@4 } d  #s k i [ 2 3 4 ",
"3 8 5 5 5 2 k c D i D u v Z u o p F v c S H q x F p 3 A ) ) ; ; ' ; ] ] ] 6 c u p p p u x x v v u v v V v 3 3 2 i D c b } 3 5 3 ",
"3 f+5 [ n f k k 2 k 5 f i c 2 p z@Z u i k i c c i k 4 ^ ) ; ) - ; ) { ) ] } 2 c c p p u u u N p c c c p c 4 f c .#D c i 7 2 5 g ",
"+#d 8 6 5 5 5 i d } < a @#^ < D u t u p i 5 3 [ } 9 9 a ) ; ' ' - ) ] ) ] e 5 f 2 i p t u p u @.u c 2 d } < 2 p 5 k s k 5 2 8 4 ",
"8 4 5 5 3 3 2 2 2 3 5 5 c k 2 p p p v F t u p p f 3 e ^ ; = , / / ' ) ] ] ##k c 2 c u v u z+@.N u @.O p c k i i 4 i k i 5 5 [ 5 ",
"E [ 4 4 5 +#5 5 2 k 2 p p p c k c D p p o p p p f 5 [ a@' & `@* * ( , A 3 d $#D k 2 c t F v v u p t p D D D i i 4 5 3 5 5 5 3 3 ",
"4 6 [ [ 3 4 [ 6 2 k k c c c p D c p c i c p p f 3 d } ) ' = ; 1 < [ E 7 } 9 4 B 2 c p u u t u t p o b s j 2 2 B } } g 3 [ d 4 4 ",
"[ [ [ 4 [ 4 < ] 4 k k 2 k R c D c p c i 2 5 5 B [ ^ ) U@; = > > U@; ) ; ' - ' & A 2 r o u t p u c p p c 2 2 d [ ) ^ < < a ] %#= ",
"4 [ [ 4 3 5 3 6 5 5 f c k 2 R k o p R p p t p c 2 [ 1 > ' , &#/ * @ * , ' 1 } < d b r z@u p c p u p p 2 5 5 2 2 [ < 6 3 3 3 4 [ ",
"< < < 9 [ 4 } d f+5 5 k k 2 M d 2 R c c 2 5 2 i 3 a % * ! ' , @ @ @ @ @ : , ) < 5 c R i 5 2 2 5 5 2 f d 5 4 [ 4 4 @#f+f+f+3 8 4 ",
"@#a x@a@a@= - 4 3 5 } 3 2 i k d } 2 U p c 3 B@! ( @ * ( @ * @ + @ @ @ + + @ ( C@* > 6 i 6 [ [ 4 4 2@} [ 3 5 ) ! ( A 5 3 3 4 3 4 "};
