/* XPM */
static char * C:\Users\Rin_K\Documents\puerta2_xpm[] = {
"64 64 634 2",
"  	c None",
". 	c #030100",
"+ 	c #040101",
"@ 	c #040100",
"# 	c #050100",
"$ 	c #070201",
"% 	c #050201",
"& 	c #060201",
"* 	c #080200",
"= 	c #0C0300",
"- 	c #0D0300",
"; 	c #0B0200",
"> 	c #0B0300",
", 	c #0C0301",
"' 	c #0A0301",
") 	c #0A0200",
"! 	c #090200",
"~ 	c #060200",
"{ 	c #050200",
"] 	c #050101",
"^ 	c #070200",
"/ 	c #0A0300",
"( 	c #060100",
"_ 	c #0F0401",
": 	c #110400",
"< 	c #120500",
"[ 	c #110401",
"} 	c #100400",
"| 	c #0D0301",
"1 	c #0B0301",
"2 	c #090201",
"3 	c #0E0300",
"4 	c #080201",
"5 	c #0F0400",
"6 	c #0F0300",
"7 	c #160600",
"8 	c #140600",
"9 	c #170700",
"0 	c #130500",
"a 	c #0E0400",
"b 	c #100401",
"c 	c #150601",
"d 	c #170600",
"e 	c #150600",
"f 	c #170701",
"g 	c #120400",
"h 	c #0E0401",
"i 	c #0E0301",
"j 	c #140500",
"k 	c #190700",
"l 	c #180701",
"m 	c #150500",
"n 	c #180700",
"o 	c #1B0800",
"p 	c #1A0800",
"q 	c #1A0700",
"r 	c #120501",
"s 	c #110501",
"t 	c #130501",
"u 	c #1C0800",
"v 	c #1E0900",
"w 	c #1D0900",
"x 	c #160601",
"y 	c #190701",
"z 	c #1D0901",
"A 	c #1F0A00",
"B 	c #210B00",
"C 	c #220B01",
"D 	c #220C01",
"E 	c #200B00",
"F 	c #140601",
"G 	c #110500",
"H 	c #170601",
"I 	c #1C0900",
"J 	c #1F0A01",
"K 	c #1E0A00",
"L 	c #200A00",
"M 	c #1B0801",
"N 	c #1A0801",
"O 	c #1C0901",
"P 	c #140501",
"Q 	c #210B01",
"R 	c #250D00",
"S 	c #270E00",
"T 	c #290F00",
"U 	c #2B1000",
"V 	c #260E00",
"W 	c #240C01",
"X 	c #2C1100",
"Y 	c #2A1001",
"Z 	c #2A1000",
"` 	c #280E00",
" .	c #280F00",
"..	c #230C00",
"+.	c #220B00",
"@.	c #220C00",
"#.	c #250D01",
"$.	c #240D00",
"%.	c #290F01",
"&.	c #2A0F00",
"*.	c #2B1001",
"=.	c #2E1200",
"-.	c #311301",
";.	c #351500",
">.	c #361500",
",.	c #381600",
"'.	c #341400",
").	c #311300",
"!.	c #2F1200",
"~.	c #291000",
"{.	c #331400",
"].	c #301200",
"^.	c #301300",
"/.	c #321401",
"(.	c #2C1000",
"_.	c #2B0E00",
":.	c #270C00",
"<.	c #280D00",
"[.	c #2D1100",
"}.	c #2F1201",
"|.	c #2E1100",
"1.	c #280F01",
"2.	c #341500",
"3.	c #361600",
"4.	c #371600",
"5.	c #351501",
"6.	c #381701",
"7.	c #371601",
"8.	c #361601",
"9.	c #331500",
"0.	c #331501",
"a.	c #331401",
"b.	c #321400",
"c.	c #2D1101",
"d.	c #2A0E00",
"e.	c #260900",
"f.	c #260700",
"g.	c #300A00",
"h.	c #2F0B00",
"i.	c #2A0900",
"j.	c #280800",
"k.	c #2C0900",
"l.	c #2F0B01",
"m.	c #300B00",
"n.	c #340C00",
"o.	c #2A0A00",
"p.	c #2A0D00",
"q.	c #321300",
"r.	c #381700",
"s.	c #3B1801",
"t.	c #391700",
"u.	c #341501",
"v.	c #371700",
"w.	c #381601",
"x.	c #2F1100",
"y.	c #280C00",
"z.	c #2E0A00",
"A.	c #310B00",
"B.	c #330C00",
"C.	c #2C0A00",
"D.	c #2B0900",
"E.	c #300B01",
"F.	c #320C00",
"G.	c #350C01",
"H.	c #2A0801",
"I.	c #310A00",
"J.	c #350C00",
"K.	c #2D0B00",
"L.	c #2B0F00",
"M.	c #3A1800",
"N.	c #391701",
"O.	c #3B1900",
"P.	c #391800",
"Q.	c #3B1800",
"R.	c #270B00",
"S.	c #270800",
"T.	c #290A01",
"U.	c #2E0B00",
"V.	c #290800",
"W.	c #2A0800",
"X.	c #350B00",
"Y.	c #370D00",
"Z.	c #360D00",
"`.	c #380D00",
" +	c #230700",
".+	c #280B00",
"++	c #2E1201",
"@+	c #3C1900",
"#+	c #3C1801",
"$+	c #3D1900",
"%+	c #3E1A01",
"&+	c #391801",
"*+	c #280A00",
"=+	c #2B0B00",
"-+	c #2F0C00",
";+	c #350D00",
">+	c #310C00",
",+	c #2F0A00",
"'+	c #340D00",
")+	c #390E00",
"!+	c #380E00",
"~+	c #290801",
"{+	c #3A1801",
"]+	c #3C1800",
"^+	c #3E1A00",
"/+	c #3F1A00",
"(+	c #300F00",
"_+	c #2C0B00",
":+	c #2E0C00",
"<+	c #2D0900",
"[+	c #3C0F00",
"}+	c #390E01",
"|+	c #3A0F00",
"1+	c #2B0A00",
"2+	c #3C1901",
"3+	c #3D1A00",
"4+	c #3A1700",
"5+	c #2E0F00",
"6+	c #3B0E00",
"7+	c #310D00",
"8+	c #370E00",
"9+	c #290900",
"0+	c #330D00",
"a+	c #3B0F00",
"b+	c #2F0C01",
"c+	c #2D0B01",
"d+	c #2F0E00",
"e+	c #401B00",
"f+	c #421C00",
"g+	c #401B01",
"h+	c #411B00",
"i+	c #351600",
"j+	c #301000",
"k+	c #320B00",
"l+	c #3A0F01",
"m+	c #340E00",
"n+	c #350E00",
"o+	c #320D00",
"p+	c #390F00",
"q+	c #3D0F00",
"r+	c #3A0E00",
"s+	c #3D1000",
"t+	c #3D1001",
"u+	c #360E00",
"v+	c #2F0F00",
"w+	c #3F1B00",
"x+	c #431D00",
"y+	c #381800",
"z+	c #421B00",
"A+	c #441D00",
"B+	c #431D01",
"C+	c #451E01",
"D+	c #471E00",
"E+	c #461E00",
"F+	c #431C00",
"G+	c #3F1B01",
"H+	c #2F1000",
"I+	c #3B1000",
"J+	c #3A1000",
"K+	c #350D01",
"L+	c #3C0F01",
"M+	c #3B0E01",
"N+	c #3F1000",
"O+	c #380F00",
"P+	c #401000",
"Q+	c #320B01",
"R+	c #2D1000",
"S+	c #431C01",
"T+	c #441D01",
"U+	c #451D00",
"V+	c #451E00",
"W+	c #471F01",
"X+	c #4B2100",
"Y+	c #492000",
"Z+	c #3E1000",
"`+	c #3B0F01",
" @	c #370F00",
".@	c #3E1100",
"+@	c #330B00",
"@@	c #390F01",
"#@	c #401100",
"$@	c #381000",
"%@	c #2A0A01",
"&@	c #451D01",
"*@	c #421C01",
"=@	c #471F00",
"-@	c #481F01",
";@	c #481F00",
">@	c #4A2000",
",@	c #4B2101",
"'@	c #300C00",
")@	c #330D01",
"!@	c #3D1100",
"~@	c #360F01",
"{@	c #411100",
"]@	c #3B1001",
"^@	c #461D01",
"/@	c #4C2100",
"(@	c #461F00",
"_@	c #311100",
":@	c #3F1200",
"<@	c #491401",
"[@	c #411200",
"}@	c #401200",
"|@	c #411000",
"1@	c #431100",
"2@	c #3D1101",
"3@	c #3C1100",
"4@	c #421200",
"5@	c #3F1100",
"6@	c #3C1000",
"7@	c #381201",
"8@	c #411C00",
"9@	c #4E2200",
"0@	c #4B2000",
"a@	c #4F2300",
"b@	c #4F2301",
"c@	c #4A2100",
"d@	c #4D2201",
"e@	c #4D2200",
"f@	c #4C2200",
"g@	c #300D01",
"h@	c #471400",
"i@	c #3F1201",
"j@	c #350F00",
"k@	c #330C01",
"l@	c #421000",
"m@	c #421100",
"n@	c #451300",
"o@	c #471300",
"p@	c #431300",
"q@	c #360E01",
"r@	c #461E01",
"s@	c #492001",
"t@	c #502300",
"u@	c #522500",
"v@	c #4A2001",
"w@	c #421300",
"x@	c #441300",
"y@	c #411300",
"z@	c #391000",
"A@	c #360C00",
"B@	c #401101",
"C@	c #411001",
"D@	c #441000",
"E@	c #391001",
"F@	c #441200",
"G@	c #491400",
"H@	c #451301",
"I@	c #4A1501",
"J@	c #3E0F00",
"K@	c #4D2300",
"L@	c #4E2300",
"M@	c #491F00",
"N@	c #381400",
"O@	c #3F1101",
"P@	c #401300",
"Q@	c #411101",
"R@	c #390D00",
"S@	c #431200",
"T@	c #441100",
"U@	c #4D1500",
"V@	c #4E1600",
"W@	c #411201",
"X@	c #4B1500",
"Y@	c #351101",
"Z@	c #532600",
"`@	c #320E00",
" #	c #451400",
".#	c #461500",
"+#	c #3D1301",
"@#	c #3E1300",
"##	c #3E1101",
"$#	c #300A01",
"%#	c #3C0E00",
"&#	c #3C1101",
"*#	c #491500",
"=#	c #4C1500",
"-#	c #330E00",
";#	c #582800",
">#	c #592800",
",#	c #542600",
"'#	c #883806",
")#	c #933E0C",
"!#	c #522501",
"~#	c #502400",
"{#	c #350E01",
"]#	c #481400",
"^#	c #4A1600",
"/#	c #360F00",
"(#	c #391200",
"_#	c #3F1301",
":#	c #461400",
"<#	c #3A1001",
"[#	c #4D1600",
"}#	c #8D3A05",
"|#	c #913D09",
"1#	c #562600",
"2#	c #512400",
"3#	c #652601",
"4#	c #BD4C0A",
"5#	c #C65415",
"6#	c #6D2D02",
"7#	c #2E0D00",
"8#	c #3D1200",
"9#	c #3E1200",
"0#	c #451200",
"a#	c #3B0D00",
"b#	c #3D0F01",
"c#	c #461300",
"d#	c #481401",
"e#	c #4B1501",
"f#	c #4A1500",
"g#	c #702A01",
"h#	c #C5510E",
"i#	c #BF4E0D",
"j#	c #662A00",
"k#	c #5D2000",
"l#	c #812A00",
"m#	c #923200",
"n#	c #642500",
"o#	c #471500",
"p#	c #431400",
"q#	c #300E00",
"r#	c #3E1201",
"s#	c #441201",
"t#	c #380C00",
"u#	c #451201",
"v#	c #451401",
"w#	c #752900",
"x#	c #933200",
"y#	c #832B00",
"z#	c #562101",
"A#	c #3C1400",
"B#	c #4F1D00",
"C#	c #3C1200",
"D#	c #360D01",
"E#	c #240801",
"F#	c #461401",
"G#	c #411B01",
"H#	c #4B1B00",
"I#	c #411700",
"J#	c #3D1201",
"K#	c #3A0E01",
"L#	c #4A1400",
"M#	c #160500",
"N#	c #290A00",
"O#	c #3B1100",
"P#	c #2C0A01",
"Q#	c #2D0A00",
"R#	c #220700",
"S#	c #250700",
"T#	c #300D00",
"U#	c #340D01",
"V#	c #100300",
"W#	c #3A1101",
"X#	c #421201",
"Y#	c #1B0700",
"Z#	c #341401",
"`#	c #3A1100",
" $	c #380F01",
".$	c #2B0A01",
"+$	c #280901",
"@$	c #360C01",
"#$	c #340B00",
"$$	c #310D01",
"%$	c #3E1B00",
"&$	c #301301",
"*$	c #270E01",
"=$	c #3B1101",
"-$	c #320C01",
";$	c #2D0C01",
">$	c #340E01",
",$	c #370E01",
"'$	c #3F0F00",
")$	c #240800",
"!$	c #130400",
"~$	c #0D0200",
"{$	c #160401",
"]$	c #260D00",
"^$	c #3D0E00",
"/$	c #250800",
"($	c #1E0600",
"_$	c #260D01",
":$	c #120300",
"<$	c #1A0500",
"[$	c #240C00",
"}$	c #290901",
"|$	c #2D0A01",
"1$	c #2C0901",
"2$	c #2E0B01",
"3$	c #310B01",
"4$	c #280A01",
"5$	c #260E01",
"6$	c #1D0600",
"7$	c #140400",
"8$	c #280900",
"9$	c #260800",
"0$	c #2E0900",
"a$	c #2A0B00",
"b$	c #3F0F01",
"c$	c #270A00",
"d$	c #270900",
"e$	c #2F0A01",
"f$	c #210701",
"g$	c #2C0800",
"h$	c #2B0901",
"i$	c #2C1101",
"j$	c #250801",
"k$	c #330B01",
"l$	c #250701",
"m$	c #240700",
"n$	c #270700",
"o$	c #270801",
"p$	c #311400",
"q$	c #2A0901",
"r$	c #370D01",
"s$	c #321301",
"t$	c #210600",
"u$	c #1F0500",
"v$	c #250601",
"w$	c #240601",
"x$	c #200500",
"y$	c #1A0400",
"z$	c #1E0500",
"A$	c #290700",
"B$	c #280700",
"C$	c #170400",
"D$	c #190400",
"E$	c #471D00",
"F$	c #1C0401",
"G$	c #1A0401",
"H$	c #140300",
"I$	c #150400",
"J$	c #210700",
"K$	c #2B0801",
"L$	c #340B01",
"M$	c #260600",
"N$	c #220600",
"O$	c #210601",
"P$	c #1D0501",
"Q$	c #270D00",
"R$	c #1D0800",
"S$	c #250600",
"T$	c #280801",
"U$	c #230600",
"V$	c #240701",
"W$	c #2A0700",
"X$	c #240600",
"Y$	c #0A0100",
"Z$	c #361700",
"`$	c #250A00",
" %	c #1F0601",
".%	c #1D0500",
"+%	c #301100",
"@%	c #200600",
"#%	c #0F0301",
"$%	c #160400",
"%%	c #2D0901",
"&%	c #130300",
"*%	c #2E1000",
"=%	c #120301",
"-%	c #1F0501",
";%	c #1B0400",
">%	c #290E00",
",%	c #1F0600",
"'%	c #2B0800",
")%	c #220601",
"!%	c #210500",
"~%	c #170300",
"{%	c #3D1800",
"]%	c #200501",
"^%	c #230C01",
"/%	c #230601",
"(%	c #220500",
"_%	c #2C0801",
":%	c #1C0500",
"<%	c #1C0400",
"[%	c #1B0500",
"}%	c #1D0801",
"|%	c #1E0501",
"1%	c #290701",
"2%	c #230500",
"3%	c #180401",
"4%	c #180400",
"5%	c #1D0400",
"6%	c #150300",
"7%	c #280E01",
"8%	c #1F0900",
"9%	c #160300",
"0%	c #1C0501",
"a%	c #210501",
"b%	c #1B0401",
"c%	c #1E0400",
"d%	c #2B0700",
"e%	c #230B00",
"f%	c #170401",
"g%	c #250C00",
"h%	c #180300",
"i%	c #190300",
"j%	c #270600",
"k%	c #170301",
"l%	c #120200",
"m%	c #130301",
"n%	c #0F0200",
"o%	c #190401",
"p%	c #240500",
"q%	c #150401",
"r%	c #210A00",
"s%	c #180301",
"t%	c #140301",
"u%	c #110300",
"v%	c #160301",
"w%	c #200A01",
"x%	c #1E0901",
"y%	c #120401",
"z%	c #1D0401",
"A%	c #190301",
"B%	c #110200",
"C%	c #180600",
"D%	c #130200",
"E%	c #1C0801",
"F%	c #1E0401",
"G%	c #1F0400",
"H%	c #110201",
"I%	c #100200",
"J%	c #1B0300",
"K%	c #1A0701",
"L%	c #1A0300",
"M%	c #0F0201",
"N%	c #150301",
"O%	c #180601",
"P%	c #0E0200",
"Q%	c #100201",
". . + @ # $ @ # # % $ & # * = - ; > - , ' ) ! ~ # { ] @ ] # & ! ) > ! ! * ^ * ! / ! * * ! ! ! ! * ! ~ # ^ ( ^ - _ : < - = @ # * ",
"* ^ & * ~ @ * > [ [ } : < | ; } - > > > ! 1 * > > / = / / ! * * ) ! ! ) 1 * ! ^ = = * $ 2 - 3 = > = * * ^ > = > ! = } = = > ( # ",
"~ ^ 4 $ ^ ! 5 } = 5 : ) / } > = 6 3 - - 1 > = / > > ! > / > 1 ) * ^ & ^ * ! > / ! ! - 3 - = = } - 5 } : : } 7 8 9 0 5 ! * * ! ) ",
"= a - a < 5 3 5 b : } < 7 c d 0 } - } } } 5 } 5 } : - a 3 - > > = , - 5 - } 3 5 } 5 _ < c d d 7 7 7 e e 7 7 f e 0 g } h 5 = ! * ",
"i 5 g j : : 0 k k l 7 e m n o p o q d j e e c r : s } } 3 5 b 5 } - 5 : < 0 : < 0 t e 7 e e o q p u u k n j d 8 v w o 7 0 3 3 } ",
": 0 d j e x y z w A B C D E u k q k k y n d n d 8 e j F 0 < 0 [ } 5 : < : } G < e H k d d n k I A A A o k n q p p d e l 9 9 e j ",
"H j e k v J K I w A K J L w M u M p p k 7 d 7 n e < } : : < : j 0 r : r t r g 0 7 k k o p u p o N e 9 e p M L p 7 u O k 7 r P g ",
"Q R S S T U U U U U U T V W X X U U Y Z T ` V S T  .` ..v I w o M A E B A B L B +.v z @.#.@.@.$.R $.Z S S %. . .T &.T Y  .V $.R ",
"*.U X =.-.;.>.,.'.).!.~.S ..;.;.;.{.{.{.!.].^.).]./.).!.(._.:.<._._.(.U T [.!.!.=.}.X V U ].).{.|.1.;.2.;.3.3.4.5.3.2.'.;.{.!.!.",
"'.>.{.;.4.6.7.8.3.;.9.0.;.2.3.3.;.;.{.a.b.^.{.).c.d.e.f.g.h.i.j.k.l.m.n.j.o.p.d.[.q.^.).=.[.].!.b.!.{.{.2.3.3.4.3.4.r.s.t.3.8.>.",
"5.;.2.'.;.a.{.b.>.2.3.u.v.r.w.3.3.;.2.'.).).x.y.o.z.j.f.A.B.C.k.D.E.F.G.H.I.J.n.K.L.q.).=.[.` &.|.!.=.!.!.u.4.r.t.M.N.M.O.N.N.,.",
",.w.r.t.P.Q.M.M.t.t.P.4.r.t.r.r.4.3.;.2.!.R.S.T.U.F.D.V.m.J.B.D.D.B.F.J.W.X.Y.Z.`. +.+(.++|.q.).^.^.-.).3.M.r.r.M.t.@+#+Q.$+Q.w.",
"t.4.Q.$+%+@+Q.&+r.M.@+P.t.,.;.3.r.t.X |.*+i.S.=+-+;+i.S.>+Y.;+D.,+Z.'+;+W.n.)+!+!+~+i.*+d.q.a.t.t.{+t.Q.M.@+$+]+7.t.M.M.Q.Q.t.,.",
"M.t.]+^+/+%+@+t.4.r.t.s.r.2.;.t.O.r.(+G._+C.i.:+:+Y.,+S.;+Y.Z.C.k.Y.Z.;+<+n.[+}+|+i.i.h.1+:.).2.2+3+$+^+/+^+%+/+5.4.,.r.t.4+8.;.",
"s.,.M.@+@+Q.4.4.;.u.5.2.;.;.2+Q.r.5+6+Y.-+C.k.7+:+8+g.i.;+;+!+h.9+)+)+0+z.`.a+|+|+D.h.Z.b+c+d+;.3.e+f+e+f+g+h+h+3.b.u.u.2.3.{.-.",
"r.r.3.4.3.i+v.M.P.r.4.i+2.3.@+M.j+k+l+|+m+:+E.n+o+!+A.V.8+|+p+m.1+q+a+)+I.r+s+t+a+A.F.[+u+'+,+v+b.M.e+w+h+e+e+x+y+3.{.4.3.^.{.'.",
"%+z+A+A+B+f+x+C+D+A+E+F+G+2+^+H+`.F.I+J+|+K+F.p+m+p+m.D.!+p+a+m.U.a+L+6+A.M+N+s+O+h.Z.P+|+u+Q+J.R+w./+h+h+h+h+A+S+f+f+F+g+/+$+$+",
"T+U+E+V+W+C+V+E+X+Y+E+C+e+x+w+-+Z+'+I+`+ @'+;+.@n+[+B.H.>+Z.u+z.F.s+a+L++@`.N+@@m+C.8+#@s+$@B.n.%@M.v./+h+f+&@U+E+U+E+D+A+f+*@z+",
"T+E+E+=@Y+-@;@>@,@=@C+A+U+f+7.8+s+'@|+n+)@h.;+!@~@p+B.f.m.B.>+j.A.#@Z+N+J.X.r+;+>+i.)+{@.@]@;+k+i.>.%+@+e+&@;@;@Y+Y+=@-@D+V+F+^@",
"V+;@E+Y+/@/@Y+x+(@C+E+A+V+F+_@s+:@p+<@[@}@O+E.!@n+a+n.g.)+#@s+m.k+{@[+N+X.|@1@2@3@F.s+4@5@}@r+6@|+7@w+/+8@;@=@Y+9@;@E+=@f+x+f+h+",
"D+;@0@X+a@b@c@d@e@f@;@D+C+g+g@{@[@5@h@i@}@$@'@5@j@a+`.,+[+{@#@k@B.1@Z+P++@l@m@J+J+Z.1@n@o@p@L+I+#@q@e+f+f+r@D+Y+s@X+e@f@e@>@Y+E+",
"&@F+E+;@,@t@f+u@a@9@v@-@;@t.[+[@w@I+x@y@w@O+F.!@z@a+A@I.|@#@B@'@Y.m@q+C@m.D@{@E@5@Z.F@G@H@I@J@5@o@|+,.V+8@8@T+E+F+t@b@t@a@/@W+>@",
"h+T+A+;@X+K@O.t@L@e@M@;@;@N@O@}@p@J+y@P@y@J+Z.3@J+a+k++@P+Q@p+F.R@m@P+P+B.J@N+ @S@'+T@U@h@V@{@W@X@.@Y@x+A+s@X+;@/+/@e@s@Y+E+A+-@",
"x+x+V+;@>@/@Z@a@9@/@=@D+D+`@F@ #.#E@+#@# #J+;+##.@|+A.$#[+m@O+n.%#{@Z+N+A.)+N+&#o@B.#@h@*#=#m@p@=#x@-#e+A+E+;@;@-@;#>#,#9@X+X+M@",
"f+f+=@>@E+'#)#!#~#X+X+Y+V+{#[@]#^#/#(#_#:#<#Z.!@#@|+m.<+a+F@J+K+%#{@s+s+B.!+N+5@5@Z.m@[@G@=#m@x@[#I@ @h+A+r@Y+e@W+}#|#1#2#>@Y+E+",
"S+A+E+Y+3#4#5#6#X+X+-@-@w+u+4@h@*#7#8#9#]#I+;+J+0#J@n.D.6@0#I+Y.a#P+P+b#A.!+#@##J+F.1@c#d#e#N+w@X@f#I+f+f+x+;@Y+g#h#i#j#9@s@W+F+",
"*@A+U+V+k#l#m#n#>@;@=@V+^+p+S@o#p#q#_#r#:#I+;+!@s#N+t#<+O+u#I+Z.`.P+N+q+A.)+N+I+u+F.{@x@]#[#P+v#e#*#O+e+f+B+=@;@w#x#y#z#X+=@A+&@",
"e+h+8@F+s.A#B#;@=@V+V+F+O.n+S@p#@#j@8#C#x@I+'+!@{@|@D#E#p+F@z@`.A@m@l+P+B.!+[+p+O+B.p+:@*#X@Z+}@]#F#n+/+x+f+V+V+G#H#I#E+;@E+S+F+",
"{.{.{.{.[._ w s.P.r.v.3.2.{#[@:#w@|+:@J#p@]@;+I+a+q+z.S.|+{@I+K#J.N+q+P+k+B.O+q@m+n.5@2@L#f#[+p@G@H@-#t.@+M.t.r.8.o } F+f+e+/+$+",
"5.2.;.>.Q.- M#t.Q.t.$+^+t.N#'@u+8+O+O#3@n@6@V.P#Q#i.R#D.I+5@p+)+~+,++@g.S#B.m+T#T#J.+@>+U#K#k@p@:#c#m+4.$+@+^+Q.@+V#, ]+e+g+^+M.",
"4.6.>.4.3+I L w+O.s.Q.3+r.>+s+C#8#n+W#z@[@a+>+|+L+)+9+9+6@.@I+`.n.|@N+|@Q#F.n+T#:+h.J@3@[@G@r+i@W@X#)@4.O.3+3+3+w+v Y#3+b.^.).-.",
"2.>.Z#^.3+B d.=@M.4+r.M.4.>+]@O#O#;+$@`##@ $K.|+r+;+.$+$6@N+s+@$#$N+J@[+D.F.n+$$7+U.|+z@5@o@)+5@.@<#-+4.t.s.@+{+W+<.` %$&$).q.{.",
"q.q.).S *$i+3+G+i+t.@+@+4.b+u+=$5@0+ @.@[@u+1+p+!+'@,+S.|+s+Z+n.X.[+J@a+1+-$o+;$'@9+6+<#s+n@`.s+2@>$U.i+t.P.t.v.3+Q.v. .Z ).).;.",
"{.).!.$.- * g ..!.4.P.M.{.K.)@m+6@'@E@.@#@;+9+,$'+>+z.S.!+a+[+F.J.'$'$%#i.F.0+'@-+)$J@ @O+F@G.6@|+:+1+'.4.t.4.^.@.!$2 i ` ).).'.",
").^.!.B # ~${$, x v $.S ]$N#'+7#p+h.J+Z+{@0+o.;+c+m.z.j.)+a+a+,+k+r+^$)+9+m.Z.:+:+/$r+7+n+m@n.!+u+c+1+b.b.!.U @.> ($~$# _$).).'.",
"|.!.}.$.- :$<$= [$!.b.2.b.}$U#T# @C.@@O+s+)@|$0+U.K.z.i.Z.[+!+1$g.r+K#`.j.Q#n.2$=+)$n.-+'+Z+3$q@7+4$9+^.b.a.b.5$b 6$7$: 5$|.).{.",
"(.|.!.[.5$L ]$Q (.^.^.2.).8$F.'@'+h.Z+p+q+Z.j.F.U.1+,+9$'+a+8+Q#0$Y.r+`.i.C.m._+N# +B.'@o+[+3$Y.'@N#9+=.b.).b.=.S ` +.S X !.^.).",
"c.=.=.=.U R R Z c.).b.{.|.9$1+a$-+I.b$|+|+J.j.h.P#i.g.R#'+r+Z.k.D.n.Y.`.W.Q#U.m.c$R#m.U.'@r++@U#-$d$~+[.{.&$^.).[. .@.T [.!.^.'.",
"|.!.++[.X X |.=.!.b.b.{.[.j.+$K.>+e$M+M+!+n.S#C.i.D.,+f$n.Z.n.D.g$m.A@B.V.k.k+E.4$ +,+m.h.r+,+F.m.h$9$U b.).=.}.^.!.]$&.i$=.}.{.",
"|.=.=.=.U [.!.^.!.^.).).[.j$}$o.J.k.M+)+Z.k$l$C.d$D.k.m$B.B.n.~+j.z.+@+@n$D.m.A.1+R#0$k+'@`.<+F.m.o$R#[.).-.p$b.-.^.|.V [.[.[.!.",
"^.=.!.!.++Z S B $.` |.].[. +j.9+J.W.6+R@J.A.f.}$S.9+k.m$k+k+A.H.n$D.+@Q#V.V.Q#k+m.f.q$z.C.r$1$g.z.V.6$[.^.!.^.p$b.{.s$[$R R V [$",
"/.=.=.^.).).b.!.++=.!.!.X t$S#D.k+u$v$w$t$x$n$i.j$i.W.y$z$t$z$y$A$D.I.k.B$C$z$x$z$D$9$o+E$o+n$F$G$H$I$|.=.[.).).!.q.^.V Z X !.c.",
"5$ .1.U &.Z Z U T T Z Z %.J$f.<+I.K$L$k+g.k.M$i.m$V.W.l$k.g.D.f.A$i.g.i.f. +D.h$<+N$5+` S ;@,.V.S.O$P$S T S (.%. .U ` +.5$&.Y Q$",
"B ..B +.[$$.S T &.(.T V R$O$N$k.<+S$e$g.g.T$w$D.m$D.V.U$z.g.V.V$W$k.0$V.X$m$D.j.V.5+=.Y$! ~$Z$`$m$ %.%[$S 5$]$$.W B B +.....[$R ",
"S  .T  .U U &.U U X =.[.]$($N$j.g$N$<+0$z.j.t$1$S#D.V.u$k.,+V.N$B$0$W.S.t$ +j.j.S.+%V#N$@%n$#%$%U$N$y$R T X (.Z Z T %.` &.1. .` ",
"*$ .` %.U [.X Y Y Z [.[. .($t$f.K$X$k.%%<+n$N$k.~+o$U$u$<+K$j.t$M$<+S.f.u$t$f.W.n$&%Q$N$ +g$*%=%-%t$;%R T U U X Z T &.Z T T T >%",
"]$S %.T ` U Z V #.R T |.%.,% %f.'%)%K$<+<+S#U$g$V.n$O$-%'%W.S#z$!%W.T$S#u$@%R#~+S#~%).{%m$d$S ~%.%]%;%.. .` S *$5$S S Z %.` %.` ",
"]$$...+.^%v p w A I n k j P$u$l$W$x$W.W.g$/%U$'%B$N$t$(%'%_%N$y$:%B$f.f.z$u$ +n$S#;%) 1.y+= ] <%x$x$[%+.S ]$]$R +.L #.T ` V ` S ",
"V V ]$S S ]$W ]$$...@.B }%<%|%N$B$u$K$B$'%x$!%1%B$U$t$2%g$g$f.3%.%B$f.f.<%.%N$f.f.;%<%H$4%5%6%u$z$u$<$R *$` V ` ]$S  .&.` ` ]$]$",
"7% .S #.]$S ]$5$1.]$[$#.8%<%:%N$S$<%B$H.W.!%u$A$1%U$X$2%A$A$S$D$;%S#X$f.5%z$U$X$X$y$.%z$X$S$9%0%|%a%[%R  .S T ` S ` S S ]$]$S R ",
"V ` 1.]$R R R ` 1.]$]$T R y$0%N$U$b%v$A$W$x$c%n$X$N$X$2%d%S$N$F$4%N$N$U$D$u$t$v$t$C$y$t$)%S$9%[%u$|%<$..]$S ]$_$_$[$+.R R R W e%",
"+.R $.R W L A Q R ..[$V [$G$[%]%!%y$U$n$B$]%<%S$@%X$(%u$S$/%x$y$C$:%N$X$C$u$@%N$t$9%4%]%u$X$f%;%z$z$D$..V R [$]$S ..j K ....[$g%",
"E +.[$$.R +.....e%..[$R ..H$H$9%h%i%/%S$j%x$6%G$k%;%i%c%S$x$x$D$l%&%~%;%H$.%u$N$N$H$m%h%~%h%n%;%.%y$D$..V ]$^%..[$..q +...e%+...",
"Q B L v v A [$^%^%..R [$C 6%k%y$4%h%!%U$M$u$i%5%F$c%F$c%j%X$!%4%6%y$4%.%9%;%.%U$X$H$~%4%6%y$&%.%P$o%D$w A w w u w R$v +...+.Q B ",
"B B L +.E E ....W ..[$B B ~%4%;%D$~%!%U$X$5%y$a%x$!%c%5%p%w$x$D$<%.%:%x$9%4%;%/%!%6%4%D$q%<%&%b%y$;%4%w A A A v A w A +.[$..C +.",
"L L L r%+.A ....[$[$..B E H$4%o%y$9%u$2%(%<%y$z$.%z$;%5%(%]%u$s%y$<%:%z$H$6%4%(%<%6%f%f%4%<%t%y$4%D$~%A B L A L B L E +...$.B B ",
"v A A A B w L ..+...+.B L &%9%9%D$H$]%x$x$;%9%!%.%.%5%<%(%u$x$h%;%;%5%.%u%9%D$x$5%6%9%D$;%<%&%F$v%4%H$w w%B J A w L E L B +.E r%",
"J R$x%w w n m c y%g < t P &%m%9%4%&%5%-%z$;%~%x$P$<%z%A%<%D$u$~%~%<%u$<%&%9%;%u$z$9%h%y$C$;%B%D$6%s%&%q v v +.B u d 7 0 j 7 d C%",
"L L v z o p q 7 r j m d n u%=%H$h%&%<%<%c%y$~%|%5%5%5%~%5%G$5%v%H$;%u$;%&%9%;%5%<%~%h%<%o%;%D%3%6%9%H$p v v A B w v o q q o N q ",
"L A w w v u y w w u w w E%m%:$6%H$D%y$<%c%;%h%F%;%|%<%6%c%;%;%k%:$y$G%y$H$~%y$<%<%6%v%F%4%D$H%~%9%~%6%w w%A A A A I n u w v w v ",
"< d o o w u d M w u u u p I%l%~%:$B%~%y$<%;%~%<%G$F%J%9%;%D$;%~%l%~%5%4%H$9%;%5%<%6%9%;%~%i%B%k%9%v%H$x%w%v x%v A o = 5 - ! * & ",
"M o o v v u 7 q z w o z K%u%=%9%&%l%h%i%;%L%9%;%~%<%A%t%h%3%;%6%B%~%5%4%6%6%;%<%y$H$9%h%s%~%B%i%~%~%&%u K v w w v I } 7 n n H e ",
"o p w E%u p d k w u u w N M%B%6%B%n%9%D$;%L%H$~%~%y$9%m%h%3%;%N%l%h%y$~%m%~%c%5%h%I%9%h%i%H$I%k%~%9%:$w w w v v v w } e k o K%O%",
"o u k k q n d 7 I p o w q P%n%6%~$n%6%h%b%A%D%k%~%h%H$l%;%L%D$m%l%h%~%h%&%i%5%<%h%I%H$t%~%:$Q%6%6%N%:$w z u z u u N 5 7 n q p k "};
