/* XPM */
static char * C:\Users\Rin_K\Documents\suelo_oscuro_xpm[] = {
"64 64 107 2",
"  	c None",
". 	c #070200",
"+ 	c #090300",
"@ 	c #0D0301",
"# 	c #0E0300",
"$ 	c #100400",
"% 	c #100401",
"& 	c #120400",
"* 	c #110400",
"= 	c #0F0401",
"- 	c #0E0400",
"; 	c #110401",
"> 	c #0D0300",
", 	c #130500",
"' 	c #110501",
") 	c #140501",
"! 	c #140500",
"~ 	c #120500",
"{ 	c #110500",
"] 	c #0C0300",
"^ 	c #0D0400",
"/ 	c #0D0401",
"( 	c #0B0301",
"_ 	c #0B0300",
": 	c #0A0300",
"< 	c #080200",
"[ 	c #0C0301",
"} 	c #0F0400",
"| 	c #130501",
"1 	c #100501",
"2 	c #120501",
"3 	c #160500",
"4 	c #150501",
"5 	c #100500",
"6 	c #0F0300",
"7 	c #150500",
"8 	c #150600",
"9 	c #150601",
"0 	c #140601",
"a 	c #0F0501",
"b 	c #0A0301",
"c 	c #0E0401",
"d 	c #160600",
"e 	c #170600",
"f 	c #160601",
"g 	c #140600",
"h 	c #0E0301",
"i 	c #090301",
"j 	c #0A0200",
"k 	c #0B0200",
"l 	c #090201",
"m 	c #090200",
"n 	c #180600",
"o 	c #130600",
"p 	c #180700",
"q 	c #180601",
"r 	c #190700",
"s 	c #0C0401",
"t 	c #120600",
"u 	c #120601",
"v 	c #130601",
"w 	c #110600",
"x 	c #160501",
"y 	c #130400",
"z 	c #170700",
"A 	c #170701",
"B 	c #160700",
"C 	c #150701",
"D 	c #1A0700",
"E 	c #150700",
"F 	c #160701",
"G 	c #110601",
"H 	c #170601",
"I 	c #100301",
"J 	c #100300",
"K 	c #1B0800",
"L 	c #1A0801",
"M 	c #140700",
"N 	c #180701",
"O 	c #190701",
"P 	c #0F0500",
"Q 	c #1A0800",
"R 	c #190801",
"S 	c #190800",
"T 	c #140701",
"U 	c #1A0701",
"V 	c #1B0801",
"W 	c #1B0700",
"X 	c #1C0801",
"Y 	c #120401",
"Z 	c #0E0500",
"` 	c #1C0800",
" .	c #180801",
"..	c #180800",
"+.	c #1D0800",
"@.	c #1E0900",
"#.	c #1D0900",
"$.	c #1D0901",
"%.	c #1C0901",
"&.	c #0C0400",
"*.	c #190601",
"=.	c #1B0701",
"-.	c #190600",
";.	c #1D0801",
">.	c #1E0800",
",.	c #0A0201",
"'.	c #0B0400",
". + @ # $ % & & * % = = - ; * > , , * ' % % $ $ * , ) ! ) , ) ~ * { * ~ , ! , $ $ * * $ $ * * $ ] $ - ^ - > - - / > ] ] ( _ _ : ",
"< + [ # @ } $ $ % ; $ $ ; | * > $ * $ 1 $ ' { , | , , , { { { , 2 ~ ~ 3 4 | - = 5 } $ ' | ~ { - _ ^ - - - ^ } $ } } } # # # # # ",
"> 6 % % * * * * ; * % } $ $ * ] $ $ $ * ' { ~ { 2 , 7 7 , { 2 ) 8 , | 8 8 { ~ { - } { ~ ~ 5 5 - ] - $ ' } - / } } - # ] ] ] : : ",
"# } = 6 # } } $ ; } $ ; * ; * # $ ~ , , 4 ! , , , , ! ! { { , , | 9 , 8 ! 0 ~ { } 5 a ~ 9 { ~ } ] $ ^ $ } - / ( [ ] _ b + + : : ",
"@ > } = c # } $ $ % $ $ $ $ $ > * & , ! , 2 ) | ! | 8 d e ! f ! , ~ ~ , ~ ~ ! ! ~ 1 5 , ! ! , , # { { * $ $ } - > > ] > > > ] ] ",
": _ > - - c / = } } & 2 ' $ { > ~ , , 2 ~ ~ { , g 9 ! 9 8 e 8 9 8 0 0 , 8 , ~ 0 8 0 ! { ~ , | , } ~ , * * * $ } - } $ % $ > ] : ",
"h # > - } c ^ } $ $ $ ' { { 1 - ' , ! , , , ! ~ ~ , d d 8 g g g g 9 8 f 0 0 8 g 8 d , , , ~ ~ 5 [ / = - - c c - c $ c > [ ( b i ",
"[ ] : j k l : : _ _ ] ] ] @ [ _ - - = } } } } } } $ $ } } - ^ > / = } $ } } } $ * } / - / - > > j _ : : : ( _ _ _ : : i m m < . ",
"= - ] ] c $ } } } $ $ $ ~ * $ } { ! , ! 8 d d d 8 0 , ~ { { ~ ~ , , { ~ , 8 d n e 9 d , d ! d e d 4 ! ~ , ~ * $ ; * $ } - # # # ",
"* $ $ $ * ; % % $ ~ ; | , ! ! ! { { ~ | , g g d 9 o , g 8 d 8 ~ , f d d e p n q r n d f , , ! ! e d ! { ~ { ~ ~ = ^ ^ s - # @ > ",
"% * $ - % ; & * ~ ~ { | | ! 4 d e 8 8 ! , g , o t { { g o o o 5 { u o 0 ' v 8 d e 8 8 d d 0 8 , 8 ~ } } - 1 { { $ } = } c c c } ",
"$ % & * * ~ ! , ! | ~ ~ , ~ , ! ! d 9 d 8 g e f d d g 8 8 g o 5 5 o g g 8 g { u 8 o o g 0 g d 9 g g 9 7 7 f 7 ! , & ~ 2 * * * ; ",
"= - } } ' $ } % ~ ~ , , ~ , 8 e e g d d d f e 8 g o 0 v o g f ~ ~ 0 g g { 1 w w t 0 v o g g f d 8 9 ! 8 7 7 7 ! x ! ! ! y 7 7 ! ",
"= ^ ^ - $ ; 2 ~ , ! ! 0 e n e d d z z A p r p p A z B v g t 0 2 { o g C B 9 o u u w o v { o 8 d 9 d d d d 7 f n q 3 7 7 3 7 ) y ",
"; * $ & , , , , , 9 | ! | 8 f e p D r B A z B r r z E B v C B g 8 B p z F z p o g o 0 G u 0 o t ~ o 9 8 e H d d 7 ~ | 4 7 7 , | ",
"# 6 I $ 6 % & & y & * * ~ * { ~ ! 3 H 7 d d 4 ! ! ! 8 ~ 5 { ~ $ ~ ! , ! ! ! , | { } 5 { ) ! , | { $ ~ & * * * * & $ } = $ = J % ",
"; $ & ~ ' , ! 4 8 d e d 9 9 p , 8 A D K K L A z C M E B z z A A r L L r N N B g z O p p d d A d ~ H d d g , , { | , ! ~ ' $ $ * ",
"; ~ $ * 1 1 { P { , 8 N D e d , d d z L D Q Q A E E B R S Q K Q K Q S A p B t A N p p F z e e e 2 e d 8 8 ! | ! 2 ~ ~ , * ; % } ",
"= ~ ~ , { 1 ~ ~ ' 5 u 8 p r N , p d z r L p D z A r p r S R K K A L K p E T A D p B 8 9 8 9 d 9 & 8 9 d 8 9 7 7 ! ~ ~ ' * $ } = ",
"{ 5 , , ~ | ~ , , 2 { ~ 8 p D ! D p O z B z N D Q r Q p p r D Q r K Q r z z d u t g d 8 0 g o d ~ H 8 7 8 7 7 ! ) , & , , * & * ",
"2 * ~ 2 ~ 2 , v g g d e O U V 7 r z p O r p p p z p r r D r r O p p D r z 8 o o t o v g ~ , 0 8 , H e e n d ! , 2 , , ! ~ , & * ",
"2 } 5 { 2 | , 8 e p N N r W r ! r D r Q z z z B 8 B p D D D X D r p D N p r p 9 o o g o 0 f d d ) n d 8 g , ) ! ) , 2 $ * * Y $ ",
"} % } , { ~ ~ d f d d p p p U , p p N z A z z p R r r p p A z p r p g o 8 F z z 8 8 z A p z p A | d 9 o o 0 8 ! ! , , | ' 2 & Y ",
"[ > - } } & & * } c $ * ~ , ~ # { = 1 { { , , | | , , | , ~ P 5 P } a 5 { , ! 9 8 ! , 7 8 ! 2 , * | $ $ * ~ ~ & ; y y & & & Y * ",
"^ } $ } } % $ ' { } P 2 ~ 0 9 2 { 5 { u v u ' 5 o o 8 8 g o g v , g 8 d p z e A p D D e 8 g | 8 d 0 , ! , 2 ! | 2 , ! ! ~ & * $ ",
"; } { ~ 2 { { a Z P 1 u o u u 5 w w v g g o o M B z z E B E A d z r r L p p N O r D D D U U r p p H 8 8 d d d 8 0 8 H e d f f 7 ",
"4 ) , ~ ~ , { ~ , o 5 5 ' o o w g 8 A A F B N K L p z p r V Q r r p p p p D K K r z D D r p r A A p A e z H d d g g d H H e e H ",
"7 3 7 d H 8 8 g 8 d 8 g g f z r r O r r K ` ` r p Q V V ` ` Q r r Q R z r Q K V Q K r p p z O r r O r p p p d d v , ! 8 8 8 4 ! ",
", ~ ~ ~ ! f d 9 8 d 8 g g 9 8 A z r D L ` V D r D K Q r r p p 9 p p Q K Q Q Q V K r Q O z z z z N O p e e e d 8 0 , { { { { { ~ ",
"4 ! ! ~ | 7 8 8 8 e e p p A f d p r U r D r r O r p z S r S p d A p p A z p S A p p r z A O U r N p n r n e d 8 , ~ | ! 7 ) , , ",
"7 ) 7 7 ! ! 9 4 9 9 g 8 d p r r p p N D D D O r U r Q r p B E o g E E F E B z Q Q r r K W D D U O O O n e d 8 , 5 { ~ ~ , , , Y ",
"$ $ ; $ ; , , , 5 5 { ! 8 H f d e 8 f e 8 9 d 8 0 o v u t o g 2 ~ g 9 8 8 8 d H d e d 8 d e e d 8 9 7 8 , ) ! | | * $ } c - * $ ",
"& & $ * ) , ~ 2 ~ ~ d d g 9 g = o g g d 8 A e d 8 p r p p r A p z e d f f A d C 8 B p A B d 9 g 2 H e e d g | ! 9 , ~ * $ ^ c - ",
"; & , ) ! 7 ! ~ 8 f f o t v 9 * B B A Q p p Q L  .S z  .Q L Q Q R S S Q Q K V K K Q V K ` V N p ! S p r D F 8 d z e H f { { , ~ ",
"* & | ~ , , | 2 | ! , d 0 o o - 8 F F p p B r K L S K ` K Q Q ..Q ` K X Q K K K ` K Q Q Q Q S R 9 V D K r p z p r D D e f 7 , 2 ",
"; & | 7 ! ~ d e H n D D z A 9 $ g F N L p F 0 B O ` ` ` ` Q Q V Q K X +.@.#.` $.` S S p B z L L e O V K r U r O N p e d H 3 7 ~ ",
"- } $ , ) ! 8 f d r D U r p A 2 z p O r r p p z B p r Q Q Q K S R S S R S ..R %.#.#.V V S F A p d V K p p r r e d g g 8 , , { * ",
"2 , 7 f d d 8 d N p p z z r D 7 D r N p O z z z 9 0 g p p N r p p K K Q ..L ` Q K K K Q K Q z A 2 8 f d g 0 d e 8 ! , ~ ~ ~ & * ",
"| , | 7 8 d d g d z D D O p N , r O N A g o g g u t g F E g E Q p S S p p S K X V p K Q D p p z ~ A d 8 8 g , 0 ! 7 7 , | , | , ",
"c } % , , , ! , ' ~ g 8 8 f H , p r O z d 9 v g g g d 8 d 0 o 9 z z B 8 8 p r W p z d p d e 9 0 * v , ! 8 4 7 3 4 ! , ! | & * $ ",
"_ ] > ] / ^ &.c * } = $ } % 5 a 5 , g 8 8 8 d 9 8 ! g 8 ! , 9 ) ~ , , d 8 d d 9 8 d ) ) , ) | , { $ ~ * * * * Y & * ; } # } $ $ ",
"c } 5 1 ~ P Z ' 9 d 8 g g 9 8 B r D L O p r L r N R Q p z R K r p ..Q K Q r ..S r S ` ` D Q r A O r 8 8 e e n n n n e H 3 7 7 4 ",
"c } c - 5 { g d 8 e e p A d d d z A O O D K Q K V K r N r r S p d p O p z Q p V X ` r D r z p r p O O e e e n *.q d , , 2 , | , ",
"&.^ } ~ , ! 7 d f 8 8 8 8 f f e p r O D D =.=.W D W K ` K V r f d p r Q ` K K Q ` W r D p g 9 d z O r D D q n e f 7 d e d ! ! ! ",
"- $ * ~ | ! | 7 d d H d d f q n n n r D W W ` =.W ` K K r D D f e z r D r r z B d d B d d g 9 e D =.p p n D r q e e f 7 7 ) , ~ ",
"c } * % $ ! 7 4 ) e e n n -.*.e H 8 ) 9 o g g g 9 H z d z A r r n r D D r r r W r 8 d z d p e O O r p e d n e n e 8 d d 7 7 7 ! ",
"- } = $ ! , , ! f 3 n -.q 8 | ~ ~ 0 0 8 d d d z N r U V ` K ` N r K ;.+.` ` ` X r p 8 8 9 z D p z N f d 8 d 8 9 9 8 d ! | 2 ) , ",
"* $ $ ! ) 7 ! 4 7 ! 7 ~ { v 8 9 d 8 e p r =.=.W W W D ` ` ;.` r r ` +.>.+.Q r r D p z O p z 9 8 d d d 8 0 8 8 d d , | ! ! ! ~ * ",
"# J * $ 6 $ ; # - > ^ ] / % Y # ! & Y $ * , & 2 , , , ! , , ~ 2 2 ~ , & ~ ~ * ; ! ! ! 7 7 7 ! , 6 Y * * Y * * $ * $ } # > [ > @ ",
"% & & | | & * 1 ; ! ~ 2 ! d ) $ 9 d 8 9 d 8 d e f d e d d d 8 8 8 8 d z e d d d r D r p e d 8 H ; 9 ! 9 e 7 8 d 3 8 7 , ~ , & $ ",
"$ $ ; } $ * * $ % $ ~ ~ | 7 9 & n H f e e e p r r p p N e d d f e d g 0 8 e n f n D r r f d d 8 * 9 8 g g 0 8 f 9 ! , , | 2 % ^ ",
"$ $ $ $ = * & | 2 * $ 5 , 2 { = , 8 H e d A 9 z r D r z 9 F d 9 g d g { { 8 d r p n n f 8 g 0 , $ ~ ! , 7 d 7 ! , , , , ~ * ^ - ",
"$ 6 # c } $ } - - } * { P ' 5 ^ 5 , 0 8 8 8 e A A p z B 8 g B 8 0 u 5 5 5 P t g d p N n e e e 8 * 7 ! , | , ) ! 7 7 ! ~ $ $ & $ ",
"[ > c - } } - = = 5 $ { ' ~ 2 - ~ 8 d d e d g g f g v 0 v B p B d g t C G 5 P 5 t o d e n e e e ) f 7 7 7 , ~ & * $ } * c ] [ ] ",
"> - - $ $ * & ~ ' ! , , ! ! | ^ - a { 1 o o 8 f 8 8 t 0 8 0 g u { { o t P P 5 u 5 o t o 9 e n H & 7 7 7 7 ! , | * * * } > > ( : ",
"> - } & ! , ~ | , ! 8 8 7 9 g = 5 5 a P 5 0 v g t ' o g g 0 o u t g ~ t { { { 5 ~ ~ 2 v ~ { ' ~ * 9 , ) | ~ , & * $ $ $ * # # ] ",
"m j ] [ _ ] > # # # > # = - } # > - / ] ^ = - % - / } $ - } } # # % * & * * ; $ $ $ } $ $ $ } = @ # h # h > @ > > ] ] j k _ j ,.",
"/ ] c ^ ] - } ' ; { 5 ' | ! ) , 5 ~ 5 1 { g 8 o 9 g 0 f 0 9 e d 7 e e e d e n n r 7 d d d ! ! , , 4 ! ! , , , Y & * $ } } # [ > ",
"] } > / ^ &.&.^ c - * | ~ , ) ! ! , ~ ~ , , 2 | 8 g ! 8 e H e ) ! e e f 8 8 d e e d 8 ! 9 d e q 7 ! ~ ~ * * $ & & $ } > ] ] [ > ",
"> ] ] > ^ } = c = } } } ' 2 | ~ * { 1 5 , 4 7 9 d f ! 8 e n d 2 ~ 8 8 , g , d n e e H 9 d 8 | ! , ~ 2 , | & * * * $ - > ] ] > ] ",
"# $ } - - - } = - - } $ { { { ~ ~ ~ $ { ~ * } { 2 | , ~ ! d 7 & , , , 4 e e f n e e ) , ! ~ , | ~ | ~ | 2 , 2 $ $ ^ $ } # ] > h ",
"h # # - > - $ * Y & * Y 2 ~ | , ! , ~ ~ ~ } * } * $ ; | ~ ' } - $ ' $ ~ , ! ! ) , ~ ~ $ = } } * ~ ~ * ~ y , * ; $ - } $ # ] h > ",
"] > # = # } $ $ } $ & * ; ; ~ ~ , , , , & 2 ! ) ~ ~ $ % $ % * = } } } $ ; $ % $ } - } - - - = = } } } $ % * * $ - } } } $ # @ b ",
"> # # # # } } ; & $ $ $ $ * ; , ! ! ! ! | 2 ~ 2 2 { ~ , ~ ~ { % ^ - - ^ '.^ - ^ $ - - c ^ &.c - } Y 2 * ; & Y * * % h > 6 6 > > "};
