/* XPM */
static char * C:\Users\Rin_K\Documents\techo_def_xpm[] = {
"64 64 23 1",
" 	c None",
".	c #020100",
"+	c #010101",
"@	c #020101",
"#	c #030100",
"$	c #010100",
"%	c #030101",
"&	c #040100",
"*	c #020000",
"=	c #010000",
"-	c #050100",
";	c #040101",
">	c #000000",
",	c #060200",
"'	c #060100",
")	c #050101",
"!	c #070201",
"~	c #070200",
"{	c #050200",
"]	c #080200",
"^	c #050201",
"/	c #060201",
"(	c #010001",
"..+..@.#.@@@..###.#@@...$.%#%&%....#&.*......#.##&#....$+...$=$=",
"..@##.#$+@.#.@.###...@=....##&-...##%.$...$++#..&.##.$$$=$...$$.",
"..;%...#.$#....#.#..@#####.#..%#..@.#...==.$.#.###...=.=...$$$$$",
"..&&####%$.+=@.###...=..#.##...#&%&-&.##.$+$%#.$.##...@...#%.$=$",
"+.###.###%.=#...#..==.@@#%##.*%&&###&#&##+=.&#..$....#.....#...$",
"$$=$.+++..#@@$....$+..#..#.+..#%&&#&###..@###.............$+....",
"+$$=.+==...@..+#;=>=..&...###&&&&%#;;@....#.&##.@...=%#.#.+$$+@.",
"%..=.===.....%$&#=@..=....##....@##&##..#.%&%#.......@##.==@....",
"%==.%.=.##&#...&....#.###@$....##&&..#=$.%#####.#@..&#..@==.$##.",
"#>..$++%#&&%$#=###.%###.%##...#&.;,##.###&&###.....*#&###=$+..+$",
"+=.#.+=.#.#%..+.#&#&'#-&#.....&'&@#%+$.......&....$..%#&.=@.&@+.",
"#@.###....#.....#&.####@...$##&#-##....$#.##%&....@....$$==@..$@",
"#*..%.$@.##...-....##.&&.#&##&-#.$$$.....@.#.#%#.@.$..$$+..$$...",
".#...@$....@$.#.$.#%.......####....###.@.###*.##%#....@=+..=$.@=",
"%.#.$....@+..=+.#&##....$....#.#.$........#&+@##.....@.=#$+@.$.@",
",-&.=#&#.$......##%.##@.$#&&#&.#.=$...#%#.&#$..&......=$.==#&##.",
")'&#@&&%&&##%%#.##...@.#.#####.#$$@=$@.==$##..)&#%.##.=$@$=.;###",
"&&#&%;&&&##%#......+$=.##$#;.=$=..$@$=$@..#....&@$$...+=.#.$.#%#",
";-#&,%--!#+=$=@$==$=+==$%&&&#..$##&#....=.&&&%$..=@#.@==..$@=.&%",
"..#-&#-~'@.=$.$.=$%...@$$#.#..$=##-#..#%$..&{-&..@=$=.=...==$.#=",
"$$.$##-%#=.$@@@...#%.#.#.$==$$.+#&-##.#...&#&~)#.@..=.=$@$$$$==$",
"%..&%$]&.$@@#.#####&.#.&&##$.=@$&&.%#.#@..-&%)~&...$=$+.&.+$$$%.",
".%.##$,&#$$..#%.&#..##.#&##=.+#.#..####.=.&-&&~)##;..+=.#.=+$.#@",
"...#..~-.$$..$...%%#&$=%&##+.=##.##&#$=+$=#&&---&.#..&&$)#&##&&#",
".=##.+#%$$=.$@.....+=@.*.*=..$=%..#&$$.....-..&#&@.#&&&$%..####&",
"+..#%.-&$.@@====$===$-&&-#&#.*$$>==%&-#%###-@@..#&..####@#;&');.",
"%.#..$.#$#..$=$==>@@$###;.##&;#.....#&##--##&.&%@..##%##..#%#..%",
"####;&#.=$.$$$.#,&&&&#####@%.....&%..-.#&&&#..#..@.#'#&#%..#$.%.",
".###&)&@$=..=+#&~-&;,;#####&&&&@.#&&&&&%&&#%###.#@...#&.%$.#$=..",
"@&'&#.#.#-.=.#&&&###&&&%##,-,-##;&&#&####.##;@@#......#...@..@$.",
".)&.#.&..@=..#&#-&;&##.#%##&-#&&####&&##&###..#@@@@..$$==$...$#%",
"##@#..#...$###%###&{,%.##.%%#.&)##-#&##)-##.....#%##.+=++==$@$#.",
"###.%#.@.$$..@#%#&&--#..#...####.#...@.@.*$%&#..%%.$$$$$.$=$....",
".....&-&####&-)##')&#&.%..#&&.&&-&.######..-&.@..=$$.$.$.$@@=$.$",
"##...#);%&##&###&-#&&&&&)&&{,&######&#.###.'&-#.$+#...##..=*+.#.",
"##%...&&#....%;#&.%#-;%###$#'~&%.#%-,&.@##.#,-@%=%&#.@#%%$..@..#",
"..#.@..%..&#..#&#........&#.,&-#.&&#####&##...;.$$..$$#$=#......",
"@$.....#%#&#$.##.*@#&&##;&.&&#&#.####&#&&##...&;%$+$.%#$==.$....",
".&%-##.##..#..@.#%@@##.#-#.;#&##.&&#.##%;##....&-;.$.&&+...#;.@.",
".&###..#.....@@###@$.%%#&&.&##.@###..####&##..###;&$#;.$;.$#..$.",
"&-.#@=.....$.##......#.%-##&&#&%####...&&-^&.@%#&##.$.&$.$%#*.&#",
";&&#.$$$@.....#.#.@@###.;.#.##--&##&#&..&&&###.;%#...$..#=&&#-#)",
"@#@.#$$=$=##%&&##%@&###-.##@.&'-'~&&##.@##&.#####;%..=.+#=.#;&%#",
"...&.==.$.#.#)&#&&@&&%;~''..&&-;#--&&&..##&..#--&;&..+=$@==.#&&&",
"..#...$$..#...##=$....&/'&#&&&#&#&&###...##..#%###&#$.=.$$+.#@##",
"@##%..#%%#.#-&##+..%.$&&@%###%..#&#-&###.#..##.@@#...=$$.$=&&###",
".#%#.&&#%#.#;&)&.@@#..-&&.;;##.#.#%#'-.%#...&&&&#@#...=++$#.;#;#",
"##.#@$.##&..#%#%..##.@#.*.=$.@..$=.$......#@..%&.&#.#..$$=+=#&#.",
"&..#..+#-'-.+.%..#%&-&#;.#=.#..@.=.$=$.#..&#....##&-@.$$=$$=&,&#",
"%#.@#.=;)-&%#..$###%&#-&%#===$..*$...=$##.##.*.@%;&.-.=.=$.#&&&&",
"##@$....;-&-&&).=%%#.####$.$=$=+=$$$.=*@#..#@..#.%##&#>++$#.&&;#",
"...$@..@###&-;&;##.&.%.#.=$.$@$$==>>===>=..@..%..=..$==$$....$=.",
"#.$$.....##-&#&#..%###.;@$=#.$$$$==>==>==$@.###..$=$#.@#....=$=$",
"%....#.@@#.#;.%...##....+=+....#*.=#...=$=..#...@+..$..$$..=$.@.",
"...#$...@#..###..#...$.($...#@#..#.....@=###;#.%$$.....#..$$$.@.",
".##......#.....@#.$$=$=.##...@.@.#.....#=.;@.#%.=..##.&#$$$=....",
".=#......##.&.*..=+=$$.$$......$......$$.$###-.++..#@.@$.$$=..#.",
"+.%#..$+%..@@.@..$=+=>=$+#%%..#..&#.#.=$..####$$=+$==.$.#.#$..$.",
"$.#@..#.%.*.$.@.=$====.+=$$..@.@.#&.#...=.##%#$@=$$$$..##.....+$",
"=$==..%....$++.....$=$$+$+....$+$$$=.=.$..%;..%.....@.##.#....*.",
"$..#...@....$$$....$..$.%@#...===#.###&..=#.#==+.%.@%.%#&##..#.@",
"@...=.#.@..@+=+=....=.=..=@@.+=$#####.$$$$..%$..##...$=.#&#...%#",
"...@........@+$$$$...$=$=.=%$+.%#$$$%#&..$.##,&;&#.$..==.$....@@",
"........##.....$..$#@+$+$=.$==#;$.$.&&#.#$.@..%,#%.=@.+$=+#.#..."};
