/* XPM */
static char *out[] = {
/* columns rows colors chars-per-pixel */
"64 64 84 1 ",
"  c black",
". c #010101",
"X c #020202",
"o c gray1",
"O c #040404",
"+ c #070707",
"@ c #090909",
"# c gray4",
"$ c #0E0E0E",
"% c gray6",
"& c gray7",
"* c gray8",
"= c #151515",
"- c #161616",
"; c #191919",
": c gray10",
"> c gray13",
", c #222222",
"< c #252525",
"1 c gray15",
"2 c #2A2A2A",
"3 c gray17",
"4 c gray18",
"5 c gray19",
"6 c #313131",
"7 c gray21",
"8 c #373737",
"9 c gray22",
"0 c gray23",
"q c #3E3E3E",
"w c gray25",
"e c #414141",
"r c gray28",
"t c gray40",
"y c #6C6C6C",
"u c #6D6D6D",
"i c gray44",
"p c #727272",
"a c #777777",
"s c gray47",
"d c gray50",
"f c #818181",
"g c #838383",
"h c gray53",
"j c #898989",
"k c #8B8B8B",
"l c #939393",
"z c gray71",
"x c #B7B7B7",
"c c gray73",
"v c #BCBCBC",
"b c gray",
"n c #C1C1C1",
"m c gray76",
"M c #C3C3C3",
"N c gray77",
"B c #C5C5C5",
"V c #C6C6C6",
"C c gray78",
"Z c gray80",
"A c #CDCDCD",
"S c gray82",
"D c #D2D2D2",
"F c LightGray",
"G c #D5D5D5",
"H c gray87",
"J c gray88",
"K c #E4E4E4",
"L c #E7E7E7",
"P c gray91",
"I c #EAEAEA",
"U c #ECECEC",
"Y c #EFEFEF",
"T c #F1F1F1",
"R c gray95",
"E c #F4F4F4",
"W c gray97",
"Q c #F9F9F9",
"! c gray98",
"~ c #FBFBFB",
"^ c gray99",
"/ c #FDFDFD",
"( c #FEFEFE",
") c white",
/* pixels */
"))))))))))))))))))))))))))))))))))))))))))))))))))))))))))))))))",
"))))))))))))))))))))))))))))))))))))))))))))))))))))))))))))))))",
"))))))))))))))))))))))))))))))))))))))))))))))))))))))))))))))))",
"))))))))))))))))))))))))))))))))))))))))))))))))))))))))))))))))",
"))))))))))))))))))))))))))))))))))))))))))))))))))))))))))))))))",
"))))))))))))))))))))))))))))))))))))))))))))))))))))))))))))))))",
"))))))))))))))))))))))))))))))))))))))))))))))))))))))))))))))))",
"))))))))))))))))))))))))))))))))))))))))))))))))))))))))))))))))",
"))))))))))))))))))))))))))))))))))))))))))))))))))))))))))))))))",
"))))))))))))))))))))))))))))))))))))))))))))))))))))))))))))))))",
"))))))))))))))))))))))))))))))))))))))))))))))))))))))))))))))))",
"))))))))))))))))))))))))))))))))))))))))))))))))))))))))))))))))",
"))))))))))))))))(!QQQQ())))))))))))))))(QQQQ))))))))))))))))))))",
"))))))))))))))))L5:::,Z))))))))))))))))A::::))))))))))))))))))))",
"))))))))))))))))K;    rQ)))))))))))))))C    ))))))))))))))))))))",
"))))))))))))))))K;    .d())))))))))))))C    ))))))))))))))))))))",
"))))))))))))))))K;     *S))))))))))))))C    ))))))))))))))))))))",
"))))))))))))))))K;      9/)))))))))))))C    ))))))))))))))))))))",
"))))))))))))))))K;       g/))))))))))))C    ))))))))))))))))))))",
"))))))))))))))))K;       &P))))))))))))C    ))))))))))))))))))))",
"))))))))))))))))K;   ,.   8T)))))))))))C    ))))))))))))))))))))",
"))))))))))))))))K;   d4    h)))))))))))C    ))))))))))))))))))))",
"))))))))))))))))K;   kzX   =J))))))))))C    ))))))))))))))))))))",
"))))))))))))))))K;   k)pX   2R)))))))))C    ))))))))))))))))))))",
"))))))))))))))))K;   k)I1   .j)))))))))C    ))))))))))))))))))))",
"))))))))))))))))K;   k))z#   %D))))))))C    ))))))))))))))))))))",
"))))))))))))))))K;   k))(d    3T)))))))C    ))))))))))))))))))))",
"))))))))))))))))K;   k)))L<   ok)))))))C    ))))))))))))))))))))",
"))))))))))))))))K;   k))))GO   XF))))))C    ))))))))))))))))))))",
"))))))))))))))))K;   k)))))s    0T)))))C    ))))))))))))))))))))",
"))))))))))))))))K;   k)))))U-   .l())))C    ))))))))))))))))))))",
"))))))))))))))))K;   k))))))D$   @m))))C    ))))))))))))))))))))",
"))))))))))))))))K;   k))))))(i    w!)))C    ))))))))))))))))))))",
"))))))))))))))))K;   k)))))))T>   Xg)))C    ))))))))))))))))))))",
"))))))))))))))))K;   k))))))))C%   XN))C    ))))))))))))))))))))",
"))))))))))))))))K;   k))))))))(t    q))C    ))))))))))))))))))))",
"))))))))))))))))K;   k)))))))))Y6    a/C    ))))))))))))))))))))",
"))))))))))))))))K;   k))))))))))V#   @BC    ))))))))))))))))))))",
"))))))))))))))))K;   k))))))))))!y    9n    ))))))))))))))))))))",
"))))))))))))))))K;   k)))))))))))^6    e    ))))))))))))))))))))",
"))))))))))))))))K;   k))))))))))))co        ))))))))))))))))))))",
"))))))))))))))))K;   k))))))))))))(u.       ))))))))))))))))))))",
"))))))))))))))))K;   k)))))))))))))~0       ))))))))))))))))))))",
"))))))))))))))))K;   k))))))))))))))vo      ))))))))))))))))))))",
"))))))))))))))))K;   k)))))))))))))))f.     ))))))))))))))))))))",
"))))))))))))))))K;   k)))))))))))))))E7     ))))))))))))))))))))",
"))))))))))))))))K;   k))))))))))))))))b+    ))))))))))))))))))))",
"))))))))))))))))WbxxxH))))))))))))))))(Mxxxx))))))))))))))))))))",
"))))))))))))))))))))))))))))))))))))))))))))))))))))))))))))))))",
"))))))))))))))))))))))))))))))))))))))))))))))))))))))))))))))))",
"))))))))))))))))))))))))))))))))))))))))))))))))))))))))))))))))",
"))))))))))))))))))))))))))))))))))))))))))))))))))))))))))))))))",
"))))))))))))))))))))))))))))))))))))))))))))))))))))))))))))))))",
"))))))))))))))))))))))))))))))))))))))))))))))))))))))))))))))))",
"))))))))))))))))))))))))))))))))))))))))))))))))))))))))))))))))",
"))))))))))))))))))))))))))))))))))))))))))))))))))))))))))))))))",
"))))))))))))))))))))))))))))))))))))))))))))))))))))))))))))))))",
"))))))))))))))))))))))))))))))))))))))))))))))))))))))))))))))))",
"))))))))))))))))))))))))))))))))))))))))))))))))))))))))))))))))",
"))))))))))))))))))))))))))))))))))))))))))))))))))))))))))))))))",
"))))))))))))))))))))))))))))))))))))))))))))))))))))))))))))))))",
"))))))))))))))))))))))))))))))))))))))))))))))))))))))))))))))))",
"))))))))))))))))))))))))))))))))))))))))))))))))))))))))))))))))",
"))))))))))))))))))))))))))))))))))))))))))))))))))))))))))))))))"
};
