/* XPM */
static char *out[] = {
/* columns rows colors chars-per-pixel */
"64 64 177 2 ",
"   c black",
".  c #010101",
"X  c #020202",
"o  c gray1",
"O  c #040404",
"+  c gray2",
"@  c #060606",
"#  c #070707",
"$  c #090909",
"%  c gray4",
"&  c #0B0B0B",
"*  c #0C0C0C",
"=  c gray5",
"-  c gray6",
";  c #101010",
":  c #111111",
">  c gray7",
",  c #131313",
"<  c gray8",
"1  c #151515",
"2  c gray9",
"3  c #181818",
"4  c #191919",
"5  c gray10",
"6  c #1B1B1B",
"7  c gray11",
"8  c #1D1D1D",
"9  c #1E1E1E",
"0  c gray12",
"q  c #202020",
"w  c #222222",
"e  c #232323",
"r  c #272727",
"t  c #282828",
"y  c gray16",
"u  c gray17",
"i  c #2C2C2C",
"p  c gray18",
"a  c #2F2F2F",
"s  c #313131",
"d  c #323232",
"f  c #343434",
"g  c gray21",
"h  c #373737",
"j  c gray22",
"k  c #3A3A3A",
"l  c gray23",
"z  c gray24",
"x  c #3E3E3E",
"c  c gray25",
"v  c #414141",
"b  c #434343",
"n  c #444444",
"m  c gray27",
"M  c #484848",
"N  c #494949",
"B  c #4B4B4B",
"V  c #4C4C4C",
"C  c #4E4E4E",
"Z  c gray31",
"A  c #515151",
"S  c #535353",
"D  c #555555",
"F  c #565656",
"G  c gray34",
"H  c #585858",
"J  c gray36",
"K  c gray37",
"L  c #5F5F5F",
"P  c #606060",
"I  c #626262",
"U  c gray39",
"Y  c #646464",
"T  c #656565",
"R  c gray40",
"E  c DimGray",
"W  c #6A6A6A",
"Q  c gray42",
"!  c #6C6C6C",
"~  c #6D6D6D",
"^  c gray43",
"/  c #6F6F6F",
"(  c gray44",
")  c #727272",
"_  c gray45",
"`  c gray46",
"'  c #797979",
"]  c gray48",
"[  c #7B7B7B",
"{  c #7C7C7C",
"}  c #808080",
"|  c #838383",
" . c #848484",
".. c #888888",
"X. c gray54",
"o. c gray55",
"O. c #8D8D8D",
"+. c #8E8E8E",
"@. c gray56",
"#. c #939393",
"$. c gray58",
"%. c #959595",
"&. c gray59",
"*. c #979797",
"=. c #989898",
"-. c #9A9A9A",
";. c #9B9B9B",
":. c gray62",
">. c #A0A0A0",
",. c #A2A2A2",
"<. c gray65",
"1. c #A7A7A7",
"2. c gray66",
"3. c #A9A9A9",
"4. c gray67",
"5. c gray69",
"6. c #B2B2B2",
"7. c #B4B4B4",
"8. c gray71",
"9. c #B7B7B7",
"0. c gray72",
"q. c #B9B9B9",
"w. c gray73",
"e. c #BCBCBC",
"r. c gray74",
"t. c gray",
"y. c gray75",
"u. c #C1C1C1",
"i. c gray76",
"p. c #C3C3C3",
"a. c gray77",
"s. c #C5C5C5",
"d. c #C6C6C6",
"f. c #C8C8C8",
"g. c gray79",
"h. c #CACACA",
"j. c #CBCBCB",
"k. c #CDCDCD",
"l. c #CECECE",
"z. c #D0D0D0",
"x. c #D2D2D2",
"c. c LightGray",
"v. c #D5D5D5",
"b. c gray84",
"n. c #D7D7D7",
"m. c #DADADA",
"M. c gray86",
"N. c gainsboro",
"B. c #DDDDDD",
"V. c gray87",
"C. c gray88",
"Z. c #E1E1E1",
"A. c #E2E2E2",
"S. c gray89",
"D. c #E4E4E4",
"F. c #E7E7E7",
"G. c #E9E9E9",
"H. c gray92",
"J. c #ECECEC",
"K. c gray93",
"L. c #EEEEEE",
"P. c #EFEFEF",
"I. c gray94",
"U. c #F1F1F1",
"Y. c gray95",
"T. c #F3F3F3",
"R. c #F4F4F4",
"E. c #F6F6F6",
"W. c gray97",
"Q. c #F8F8F8",
"!. c #F9F9F9",
"~. c gray98",
"^. c #FBFBFB",
"/. c gray99",
"(. c #FDFDFD",
"). c #FEFEFE",
"_. c white",
/* pixels */
"_._._._._._._._._._._._._._._._._._._._._._._._._._._._._._._._._._._._._._._._._._._._._._._._._._._._._._._._._._._._._._._._.",
"_._._._._._._._._._._._._._._._._._._._._._._._._._._._._._._._._._._._._._._._._._._._._._._._._._._._._._._._._._._._._._._._.",
"_._._._._._._._._._._._._._._._._._._._._._._._._._._._._._._._._._._._._._._._._._._._._._._._._._._._._._._._._._._._._._._._.",
"_._._._._._._._._._._._._._._._._._._._._._._._._._._._._._._._._._._._._._._._._._._._._._._._._._._._._._._._._._._._._._._._.",
"_._._._._._._._._._._._._._._._._._._._._._._._._._._._._._._._._._._._._._._._._._._._._._._._._._._._._._._._._._._._._._._._.",
"_._._._._._._._._._._._._._._._._._._._._._._._._._._._._._._._._._._._._._._._._._._._._._._._._._._._._._._._._._._._._._._._.",
"_._._._._._._._._._._._._._._._._._._._._._._._._._._._._._._._._._._._._._._._._._._._._._._._._._._._._._._._._._._._._._._._.",
"_._._._._._._._._._._._._._._._._._._._._._._._._._._._._._._._._._._._._._._._._._._._._._._._._._._._._._._._._._._._._._._._.",
"_._._._._._._._._._._._._._._._._._._._._._._._._._._._._._._._._._._._._._._._._._._._._._._._._._._._._._._._._._._._._._._._.",
"_._._._._._._._._._._._._._._._._._._._._._._._._._._._._._._._._._._._._._._._._._._._._._._._._._._._._._._._._._._._._._._._.",
"_._._._._._._._._._._._._._._._._._._._._._._._._._._._._._._._._._._._._._._._._._._._._._._._._._._._._._._._._._._._._._._._.",
"_._._._._._._._._._._._._._._._._._._._._._._._._._._._._._._._._._._._._._._._._._._._._._._._._._._._._._._._._._._._._._._._.",
"_._._._._._._._.(.!.!.!.!.(._._._._._._._._._._._._._.).!.!.!.!.!.^._._._._._._._._._._._._._._.~.!.!.!.~._._._._._._._._._._._.",
"_._._._._._._._.s.5 5 5 5 %._._._._._._._._._._._._._.l.5 5 5 5 5 n _._._._._._._._._._._._._.(.i 5 5 5 Y _._._._._._._._._._._.",
"_._._._._._._._./.=       F _._._._._._._._._._._._._.&.            S._._._._._._._._._._._._.v.        .._._._._._._._._._._._.",
"_._._._._._._._._.Z       0 _._._._._._._._._._._._._.L             :._._._._._._._._._._._._.O.        e._._._._._._._._._._._.",
"_._._._._._._._._.#..       B._._._._._._._._._._._.).e             P )._._._._._._._._._._.(.V       O J._._._._._._._._._._._.",
"_._._._._._._._._.i.#       +._._._._._._._._._._._.z..     > O     d ^._._._._._._._._._._.I.i       N _._._._._._._._._._._._.",
"_._._._._._._._._.F.:       n )._._._._._._._._._._.(       ( q     $ H._._._._._._._._._._.Z.:       6._._._._._._._._._._._._.",
"_._._._._._._._._._.h       9 K._._._._._._._._._.Q.3       z.x       $._._._._._._._._._._.9.      - W._._._._._._._._._._._._.",
"_._._._._._._._._._.&.      - c._._._._._._._._._.c.*     w _.[       t (._._._._._._._._._.U       z /._._._._._._._._._._._._.",
"_._._._._._._._._._.Y.o     X 0._._._._._._._._._.4.X     I _.k.        N._._._._._._._._.(.3       W _._._._._._._._._._._._._.",
"_._._._._._._._._._._.f       ] _._._._._._._._._.R     . :._./.9       2._._._._._._._._.c.        3._._._._._._._._._._._._._.",
"_._._._._._._._._._._.Q       j _._._._._._._._.(.0     O l._._.!       ( _._._._._._._._.=.      O F._._._._._._._._._._._._._.",
"_._._._._._._._._._._.>.      + U._._._._._._._.h.      ; W._._.7.o     f _._._._._._._.).Y       c _._._._._._._._._._._._._._.",
"_._._._._._._._._._._.x.        6._._._._._._._.)       E _._._.n.>     O G._._._._._._./.l       ;._._._._._._._._._._._._._._.",
"_._._._._._._._._._._.(.=       ^ _._._._._._.E.s       b._._._.E.e       O._._._._._._.Q.>     & M._._._._._._._._._._._._._._.",
"_._._._._._._._._._._._./       x !._._._._._.V.2     9 _._._._._.!       a ^._._._._._.a.      y L._._._._._._._._._._._._._._.",
"_._._._._._._._._._._._.v.      e H._._._._._.t..     S _._._._._.h.      - B._._._._._.W       V )._._._._._._._._._._._._._._.",
"_._._._._._._._._._._._.!.8     % M._._._._._.W       X._._._._._./.7     O 8._._._._.^.>       =._._._._._._._._._._._._._._._.",
"_._._._._._._._._._._._.(.M       <._._._._.^.2       p._._._._._._.K       ' _._._._.v.      o D._._._._._._._._._._._._._._._.",
"_._._._._._._._._._._._._.'       G _._._._.s.      - W._._._._._._.-..     s _._._._.3.      g _._._._._._._._._._._._._._._._.",
"_._._._._._._._._._._._._.9.      ; ~._._._.]       T _._._._._._._.g.O     . D._._._.'       | _._._._._._._._._._._._._._._._.",
"_._._._._._._._._._._._._.Y.+       z._._.!.m       f._._._._._._._.R.%       &._._._.n     # u._._._._._._._._._._._._._._._._.",
"_._._._._._._._._._._._._._.V       *._._.P.8     6 L._._._._._._._._.J       V )._./.,     2 Z._._._._._._._._._._._._._._._._.",
"_._._._._._._._._._._._._._.<.      I _._.j.      v !._._._._._._._._.d.      r L._.d.      a /._._._._._._._._._._._._._._._._.",
"_._._._._._._._._._._._._._.B.=     z /._.!       ` _._._._._._._._._._.4     < M._.!        ._._._._._._._._._._._._._._._._._.",
"_._._._._._._._._._._._._._.P.u     4 !.(.,       y._._._._._._._._._._.C     X d.^.7     X C._._._._._._._._._._._._._._._._._.",
"_._._._._._._._._._._._._._.(.A     X M.c.      > Q._._._._._._._._._._.}       o.V.-     i _._._._._._._._._._._._._._._._._._.",
"_._._._._._._._._._._._._._._.&.      @.,.      P _._._._._._._._._._._.r.      Z t.@     ! _._._._._._._._._._._._._._._._._._.",
"_._._._._._._._._._._._._._._.A.      b /     . 7._._._._._._._._._._._.T.+     2 &.    . 1._._._._._._._._._._._._._._._._._._.",
"_._._._._._._._._._._._._._._._.p     # x     , m._._._._._._._._._._._._.D       B     + c._._._._._._._._._._._._._._._._._._.",
"_._._._._._._._._._._._._._._._.{       o     i T._._._._._._._._._._._._.q.      o     : ^._._._._._._._._._._._._._._._._._._.",
"_._._._._._._._._._._._._._._._.w.O           Y _._._._._._._._._._._._._.K.<           _ _._._._._._._._._._._._._._._._._._._.",
"_._._._._._._._._._._._._._._._.N.<           q._._._._._._._._._._._._._.W.k           B._._._._._._._._._._._._._._._._._._._.",
"_._._._._._._._._._._._._._._._.W.y         1 !._._._._._._._._._._._._._.).Q         e _._._._._._._._._._._._._._._._._._._._.",
"_._._._._._._._._._._._._._._._._.~         H _._._._._._._._._._._._._._._.5.        D _._._._._._._._._._._._._._._._._._._._.",
"_._._._._._._._._._._._._._._._._.D.9.9.9.9.M._._._._._._._._._._._._._._._.R.9.9.9.9.n._._._._._._._._._._._._._._._._._._._._.",
"_._._._._._._._._._._._._._._._._._._._._._._._._._._._._._._._._._._._._._._._._._._._._._._._._._._._._._._._._._._._._._._._.",
"_._._._._._._._._._._._._._._._._._._._._._._._._._._._._._._._._._._._._._._._._._._._._._._._._._._._._._._._._._._._._._._._.",
"_._._._._._._._._._._._._._._._._._._._._._._._._._._._._._._._._._._._._._._._._._._._._._._._._._._._._._._._._._._._._._._._.",
"_._._._._._._._._._._._._._._._._._._._._._._._._._._._._._._._._._._._._._._._._._._._._._._._._._._._._._._._._._._._._._._._.",
"_._._._._._._._._._._._._._._._._._._._._._._._._._._._._._._._._._._._._._._._._._._._._._._._._._._._._._._._._._._._._._._._.",
"_._._._._._._._._._._._._._._._._._._._._._._._._._._._._._._._._._._._._._._._._._._._._._._._._._._._._._._._._._._._._._._._.",
"_._._._._._._._._._._._._._._._._._._._._._._._._._._._._._._._._._._._._._._._._._._._._._._._._._._._._._._._._._._._._._._._.",
"_._._._._._._._._._._._._._._._._._._._._._._._._._._._._._._._._._._._._._._._._._._._._._._._._._._._._._._._._._._._._._._._.",
"_._._._._._._._._._._._._._._._._._._._._._._._._._._._._._._._._._._._._._._._._._._._._._._._._._._._._._._._._._._._._._._._.",
"_._._._._._._._._._._._._._._._._._._._._._._._._._._._._._._._._._._._._._._._._._._._._._._._._._._._._._._._._._._._._._._._.",
"_._._._._._._._._._._._._._._._._._._._._._._._._._._._._._._._._._._._._._._._._._._._._._._._._._._._._._._._._._._._._._._._.",
"_._._._._._._._._._._._._._._._._._._._._._._._._._._._._._._._._._._._._._._._._._._._._._._._._._._._._._._._._._._._._._._._.",
"_._._._._._._._._._._._._._._._._._._._._._._._._._._._._._._._._._._._._._._._._._._._._._._._._._._._._._._._._._._._._._._._.",
"_._._._._._._._._._._._._._._._._._._._._._._._._._._._._._._._._._._._._._._._._._._._._._._._._._._._._._._._._._._._._._._._.",
"_._._._._._._._._._._._._._._._._._._._._._._._._._._._._._._._._._._._._._._._._._._._._._._._._._._._._._._._._._._._._._._._.",
"_._._._._._._._._._._._._._._._._._._._._._._._._._._._._._._._._._._._._._._._._._._._._._._._._._._._._._._._._._._._._._._._."
};
