/* XPM */
static char *out[] = {
/* columns rows colors chars-per-pixel */
"64 64 156 2 ",
"   c #FF000000",
".  c #762E2A",
"X  c #743525",
"o  c #783527",
"O  c #74372F",
"+  c #7D342D",
"@  c #743828",
"#  c #7A3731",
"$  c #7E3D33",
"%  c #7D4134",
"&  c #833D2E",
"*  c #8A3D2C",
"=  c #833E33",
"-  c #883D37",
";  c #853F38",
":  c #883D38",
">  c #8A4126",
",  c #83402C",
"<  c #844134",
"1  c #8B4434",
"2  c #8D4C36",
"3  c #854139",
"4  c #8A4539",
"5  c #8E4B3B",
"6  c #934735",
"7  c #924936",
"8  c #9A4E37",
"9  c #914D3B",
"0  c #9C4F39",
"q  c #8E503B",
"w  c #935137",
"e  c #9C5235",
"r  c #92503C",
"t  c #9C513A",
"y  c #98593D",
"u  c #A35437",
"i  c #A15932",
"p  c #AB5B36",
"a  c #A0523D",
"s  c #A8573D",
"d  c #A55B3B",
"f  c #A95C3C",
"g  c #AB623F",
"h  c #B5643A",
"j  c #B6693D",
"k  c #BC6C3D",
"l  c #BF713C",
"z  c #C5763E",
"x  c #C9753D",
"c  c #854D42",
"v  c #8A4E45",
"b  c #854B49",
"n  c #884F49",
"m  c #914D41",
"M  c #865045",
"N  c #895145",
"B  c #955542",
"V  c #995542",
"C  c #955A45",
"Z  c #9C5B46",
"A  c #985749",
"S  c #9C5E4A",
"D  c #A45C42",
"F  c #A05F49",
"G  c #A36347",
"H  c #AA6545",
"J  c #A3634A",
"K  c #AB674E",
"L  c #AC6C4D",
"P  c #B16642",
"I  c #B36841",
"U  c #BC6E43",
"Y  c #B06D4D",
"T  c #AD714F",
"R  c #BE7143",
"E  c #BC714A",
"W  c #A76953",
"Q  c #AC6C52",
"!  c #B06E54",
"~  c #AF7050",
"^  c #B37355",
"/  c #B97355",
"(  c #B57B56",
")  c #BB7B53",
"_  c #BA775B",
"`  c #B6795B",
"'  c #BB7C5B",
"]  c #BF7F60",
"[  c #C67641",
"{  c #C97641",
"}  c #C67943",
"|  c #CA7B45",
" . c #C5794B",
".. c #CC7E49",
"X. c #C47D53",
"o. c #C27E58",
"O. c #BC805D",
"+. c #CC8047",
"@. c #C1814E",
"#. c #CD814B",
"$. c #D2844E",
"%. c #C48154",
"&. c #CD8452",
"*. c #CF8856",
"=. c #C2825C",
"-. c #CA8559",
";. c #CB885A",
":. c #D38752",
">. c #D48A54",
",. c #D88E57",
"<. c #D58E5A",
"1. c #D98E58",
"2. c #D7915E",
"3. c #DC945C",
"4. c #C48463",
"5. c #CA8661",
"6. c #CA8B64",
"7. c #C4866A",
"8. c #CE8E6B",
"9. c #CC9166",
"0. c #CF9269",
"q. c #D29366",
"w. c #DB9561",
"e. c #DE9A63",
"r. c #D1946B",
"t. c #DD996B",
"y. c #C88C71",
"u. c #DC9E74",
"i. c #E19B65",
"p. c #E29E69",
"a. c #E29F75",
"s. c #DEA176",
"d. c #E5A46C",
"f. c #EBA46E",
"g. c #E4A672",
"h. c #EAA774",
"j. c #E5A973",
"k. c #EBAB74",
"l. c #E4A67B",
"z. c #E8A67A",
"x. c #E6AA7C",
"c. c #EBAD7B",
"v. c #F1AF76",
"b. c #F1AF7A",
"n. c #EDB077",
"m. c #EEB27C",
"M. c #EFB97F",
"N. c #F2B57D",
"B. c #F8B57E",
"V. c #F3B87E",
"C. c #E6AC80",
"Z. c #ECAD81",
"A. c #EEB381",
"S. c #F2B682",
"D. c #F1B881",
"F. c #F2B888",
/* pixels */
"            3 3 =                                                                                             ; = <             ",
"          w s / _                                                                                           W ` G d <           ",
"        < f x f.S., =                                                                                     3 4.N.:.[ 6 +         ",
"        < f x h.S.g g b b b S O.S v ( ) %.O.%.%.o.o.o.o.%.@.@.@.@.%.%.o.5.=.6.=.%.O.%.X.%.S c ` O.M v M C P q.F.:.x 6 +         ",
"        ; d x h.N.} k = = ; e z e & R x x z } z [ z z z z z z z z z } |  .| } [ } [ [ [ z e $ U [ & & & e z e.S.:.} 6 +         ",
"        - d { k.D.x | Z.g.U &.N.c.C.b.N.v.c.m.m.m.m.m.m.m.c.m.m.m.m.m.D.A.A.A.A.A.m.c.Z.c.Z.c.m.N.R  .c.p.z i.S.:.[ 7 +         ",
"        - f x k.N.} | B.h.} <.M.D.D.D.D.D.D.D.D.S.S.M.D.N.D.D.D.D.D.D.D.D.D.S.S.D.D.D.D.D.D.D.D.S.} ..S.p.{ i.A.:.{ 7 +         ",
"        ; f x k.N.} { } #.N.N.S.N.D.D.V.D.D.D.A.M.S.D.D.D.D.D.D.D.D.D.D.D.D.D.A.D.S.D.D.D.D.D.D.N.S.m.} [ { i.S.:.{ 6 $         ",
"        ; H x h.S.[ } ..:.b.m.S.D.D.C.x.C.C.C.m.D.A.x.D.D.D.D.D.D.x.c.C.x.C.M.A.x.C.D.M.x.D.D.D.D.n.k...| x e.D.:.{ m +         ",
"        ; f x k.A.} | N.h.z >.S.D.D.2 % < $ % 5 D.0.% 4.D.D.D.D.r.< , % , < u.x.< L A.` % r.D.D.S.} ..N.d.} e.D.:.{ 7 +         ",
"        ; d x k.S.} | f.p.:.e.D.D.F.2 3 G S 3 5 F.0., 4.D.D.D.D.0.< 9 G 9 3 u.x.4 W D.` < 0.D.D.S.*.,.d.3.} i.D.:.{ 7 +         ",
"        ; d z k.N.} { { $.V.D.D.D.F.w < S.Z.= B F.8.< 4.D.D.D.M.0.= ^ S.^ 3 u.x.4 L V.` < 0.D.D.D.V.v.} { { i.A.>.{ 7 +         ",
"        : f x k.S.} | 3.3.e.d.D.V.F.q < 4.o.3 r S.8.< 5.D.D.D.D.0.< Z 4.Z 3 u.x.4 C 4.S 3 r.D.D.F.e.i.3.:.{ i.S.:.[ 6 +         ",
"        : d z h.S.x ..N.k.z 2.V.V.F.q < ; < < w S.r.< 5.A.D.D.D.0.< < < , 3 u.j.1 3 < < < 0.D.N.S.| ..B.p.{ p.S.2.[ 6 +         ",
"        : d z h.N.} } ,.,.d.g.V.D.F.2 3 8.8.6.r.S.8.< =.D.D.D.D.9.< F 6.G < u.N.9.^ < W 9.x.V.S.S.d.i.,.:.{ p.S.:.{ 7 &         ",
"        : d x h.S.[ } z #.V.V.D.D.F.q ; S.S.D.F.S.0.< 5.D.D.D.S.0.; ^ B.^ 3 u.D.D.q.< ] D.D.D.D.S.B.m.} { { p.F.:.[ 7 #         ",
"        : d x h.S.[ | k.d.$.3.D.D.F.5 < D.D.D.D.D.8.< 9 B y G S.0.< ^ N.^ < u.D.S.r.< O.S.D.D.D.S.&.:.n.g.{ i.S.:.{ 6 +         ",
"        : d x k.S.} | v.f.| 2.D.D.D.y 2 D.D.D.D.D.r.7 2 5 5 C S.r.7 ` S.) 5 s.V.S.r.5 4.S.D.D.D.S...q.A.h.{ i.S.:.{ 6 +         ",
"        ; f x h.S.} { { #.N.V.V.D.D.M.M.D.D.D.D.D.A.S.A.A.A.D.D.D.S.S.S.S.A.S.S.D.S.A.S.D.D.D.D.D.F.m.| | { p.S.:.{ 7 +         ",
"        ; g z h.S.{ { :.,.d.k.M.D.D.A.D.D.D.D.F.D.D.D.D.D.D.D.D.V.D.D.D.D.D.D.D.D.D.D.D.D.D.D.D.D.g.g.>...x p.S.:.{ 7 #         ",
"        - f z k.S.[ | S.k.[ 1.D.D.D.D.F.D.D.F.D.D.D.D.N.S.M.D.V.D.M.S.A.V.V.D.M.D.S.V.D.S.S.D.F.D.....S.d.{ p.S.:.} 6 +         ",
"        - f z h.S.} [ ' / d E e.5.' t.e.i.e.e.i.e.e.e.e.e.e.e.e.e.e.e.e.e.e.e.e.e.e.e.e.e.5.O.e.i.f D o.X.{ p.D.:.{ 6 +         ",
"        - d z k.S.[ z < ; - e x a 3  .[ } } x x x x x x z x x x x x x x x x x x x x z x { t ; } [ * = = u { i.D.:.x 6 #         ",
"        : 7 t K K [ [                                                                                   V x E Q D a 1 +         ",
"        : 1 - = 1 [ [                                                                                     z p < - - - +         ",
"        3 e k k j 6 7                                                                                     7 f j k k 6 +         ",
"        $ u R k U & #                                                                                     + d U k z - .         ",
"            1 1 ;                                                                                             1 < <             ",
"                                                                                                              = = =             ",
"                                                                                                                                ",
"                                                                                                                                ",
"                                                                                                                                ",
"                                                                                                                                ",
"                                                                                                                                ",
"                                                                                                                                ",
"            @ o X                                                                                             O $ $             ",
"            4 7 5                                                                                             v v 4             ",
"        3 t [ w.A.C %                                                                                     3 S F.t.[ t 4         ",
"        3 w } 3.N.H 7                                                                                     9 J D.i.{ t 3         ",
"        < t z 3.D.:.} > & ; 1 [ j = d z x z z x } x } } x x x x x x x x x x x x x x x x x p = P { 6 = = 3 | ..S.e.{ t 3         ",
"        3 0 [ 3.D.&.} L L e d <.-.L X.1.1.3.1.3.3.2.1.2.1.1.,.2.1.1.1.1.,.,.1.,.,.,.,.,.,.%.L -.3.f a Q ! { #.D.i.} t 3         ",
"        3 t z 3.N.:.z N.A.} ..N.D.S.S.S.S.S.F.A.F.A.M.V.V.M.D.D.D.D.D.V.D.D.D.D.D.D.D.D.D.D.V.S.S.#.} A.S.| #.D.e.{ t 4         ",
"        3 t z 3.S.:.{ 1.w.e.p.S.S.S.S.S.S.F.S.S.D.S.S.S.D.D.D.D.D.D.D.D.M.D.S.S.D.D.D.D.D.D.D.S.S.p.p.w.1.{ #.S.e.z t 3         ",
"        3 t z 3.N.:.} } } N.M.N.S.D.S.S.A.S.A.A.S.S.S.S.A.D.D.A.D.D.A.D.S.F.A.S.A.D.A.D.S.D.V.S.D.S.N.| } { #.D.i.} t 3         ",
"        3 w z 3.D.:.z f.g.#.,.S.D.S.6.F F Z Z G S.S.S.r.C 9.M.T Q A.r.Z r.V.^ Z S C S ^ N.D.D.D.S.,.:.g.k.x #.D.e.} t 3         ",
"        3 8 z 3.V.&.z k.n...:.D.S.S.7.= 5 B 1 9 S.S.D.5., 4.m.Z B m.5.; 5.V.L B 1 3 r J S.D.D.D.S.>...k.c.x ..D.i.| t 4         ",
"        3 t z 3.D.:.{ | +.M.A.D.S.S.y.; 8.Z.2 5 S.D.M.4.< 4.N.Z B A.6.= 4.S.m.c.m 4 Z.A.S.D.D.N.S.M.m...| x #.S.e.} t 4         ",
"        3 t z 3.D.#.} >.:.g.j.D.S.F.7.; r.S.5 5 S.D.V.4.< 5.m.Z B A.6.; 4.S.D.S.m 1 F.V.M.S.D.S.M.j.d.,.>.x #.S.e.{ t 3         ",
"        3 8 z 3.D.&.x N.V.} | D.F.S.4.; 0.S.5 5 S.S.S.5., 4.m.S V A.6.= 4.V.A.S.B 4 A.D.D.V.D.D.D.&.} N.B.x $.D.i.z t 4         ",
"        3 t z 3.V.&.x 3.i.3.e.S.D.S.4.= r.S.5 5 S.S.S.5.< 5.m.C V Z.6.< 4.D.F.S.v 4 F.D.D.D.D.S.A.e.3.w.e.} +.D.i.} e 3         ",
"        3 t z 3.V.:.z x } D.V.D.N.D.4.3 r.S.5 5 S.S.S.4., 7.M.Z V Z.6.= 4.D.S.S.9 1 S.D.S.D.D.S.D.N.B.} z z #.D.i.x t 3         ",
"        3 t z 3.D.&.z d.p.<.3.S.S.S.4.; F K 8.7.Q O.S.4.< Z W 5.r.S.6.< 4.D.S.F.m 1 S.V.D.D.D.D.D.3.,.d.p.x #.D.e.} t 3         ",
"        3 t z 3.S.:.x B.S.z | V.D.D.4.; = $ A.m., G S.4.= $ < s.S.D.6.= 4.S.S.F.m < D.D.D.D.D.D.D.+.x N.S.z $.N.i.[ 0 c         ",
"        3 0 z 3.N.$.x $.#.b.m.D.D.D.m.l.l.l.S.D.l.c.S.A.l.l.l.S.D.S.m.x.S.D.F.S.x.l.D.D.D.D.S.N.D.c.k.$...x #.D.e.| 0 3         ",
"        3 8 z 3.V.$.x { } S.S.D.D.D.D.D.M.A.D.D.S.S.S.S.D.S.D.D.D.D.S.S.S.S.S.D.D.D.D.D.D.D.S.S.D.S.S.| { x #.D.e.{ t 4         ",
"        3 e [ 3.V.:.x B.S.x +.D.D.D.F.D.D.D.D.D.D.D.D.D.D.D.D.D.S.F.S.S.S.D.S.S.S.D.D.D.D.S.S.S.D.#.x N.B.} #.D.i.} t 3         ",
"        3 0 | 3.V.$.z h.z.z  .c.k.x.m.n.n.n.n.n.n.n.n.n.n.n.m.k.c.n.N.S.c.c.c.c.c.m.m.n.n.x.c.c.k.} U l.z.} #.D.e.} t 3         ",
"        3 u x 3.V.$.} > = ; 1 [ j * e z z z z z z z x z z z z z z [ } } } z z z z z z z z p & P } 6 - , * { #.D.e.{ t 3         ",
"        3 t U X.q...z 9 n n B =.( N W %.@.#.%.%.@.%.%.%.%.%.%.&.;.;.9.%.&.-.%.%.-.X.X.-.%.L N ^ o.A v n q [  .r.X.h 8 3         ",
"        3 ; ; ; 3 I }                                                                                      .U < ; = ; 3         ",
"        ; 5 s s d d d                                                                                     D d s s d 7 4         ",
"        3 w } z z 7 <                                                                                     3 6 z x } u 3         ",
"            0 0 8                                                                                             e 0 t             ",
"            < % =                                                                                             3 = =             "
};
