/* XPM */
static char * C:\Users\Rin_K\Documents\techo3_xpm[] = {
"64 64 42 1",
" 	c None",
".	c #1B0700",
"+	c #1A0701",
"@	c #190700",
"#	c #1A0700",
"$	c #1B0701",
"%	c #1B0801",
"&	c #1C0801",
"*	c #180601",
"=	c #1C0800",
"-	c #1B0800",
";	c #1D0801",
">	c #190600",
",	c #190701",
"'	c #1D0800",
")	c #1E0900",
"!	c #180600",
"~	c #170601",
"{	c #160600",
"]	c #190601",
"^	c #170600",
"/	c #1C0701",
"(	c #1C0700",
"_	c #140500",
":	c #1E0801",
"<	c #160500",
"[	c #1E0800",
"}	c #1F0900",
"|	c #150501",
"1	c #1E0901",
"2	c #150500",
"3	c #1F0901",
"4	c #200900",
"5	c #200A00",
"6	c #200A01",
"7	c #200901",
"8	c #210A00",
"9	c #1D0900",
"0	c #180701",
"a	c #160601",
"b	c #160501",
"c	c #140501",
"..+@#+###$%&@*==-==;$&>.#@,=&';=.#)'.'.....#.==-.==#==##*!##$.#@",
"#.*!~{!#$+#=,]#.=====&#>*^!'==''%#'=&;#/..#*+###===..===#>##@#.#",
">>++.'@@$#$(@='=#.@!,(='&='')#;&..&.==@.='.=.'=#.=..==,..@>@####",
"@.+.#.!.$#.$@&='===.,.='''====''=;)')'#.-=$=&'=#======,++@#,###>",
"+.#$%.{_^*@#@==)'''=!&;:';=''=;'===#..#.=&''=='>.=='.'.!<<{<<!^<",
"###.#,$$#..%+=='=''+.====&#$=-=$.$$==.'=(;===.&#==.==####'=$...#",
",#..#+...=#+');';'''''==.#''))==.&=;;;['}[=#'['';'&'.*$#&=&'&&$$",
"|^@.=$=.#!<^=1&='=&====)'.''['='&;'''})''=&.&='==')=>*@>==.$#>!<",
"$#..&.>.(=.#>..=..#.'#='}&='==='''=#-'===&'-===@#$)#.-==&-.=.#..",
".--=.&+;[):$#2!..=#3})))1#!.''.))1'@#='&.##&'-.^>='#====&==&=.&.",
"$===&&#')[}3$!+###>})[))).#.=#-')1=+,+.@.!##.&=###.##+=.==&=&&%=",
"=&==='#..$##>.=''-]....&.#'')[==)}'.'='.[)));[=1'';'#+==='';^@#+",
"&=.=&==;'))#@...'=!#.%'''[13'[1=)4))''='=&''''$'';[).='=%='=!###",
"&'===&&'=''+@@#..#^+.#...'['''.==')3['=;==';)).';=)'.#$.+.=.!!*>",
"]!!@@@>>@,+=1=3)}(@'1)[['##='3}['+''=...=}).&&1})'$..$.=.-$*#..+",
"##$''&=.=='')=)[[=+''}1)'.''=[)})!=[)'';}4}=;}}}').===-'===!=+#+",
"$.##+==;''''1&)'=##)[3}''''))';;'~]#=,)))}}[)41'';.!@##=&==>&.#.",
"+###*$.('==;=.'===#;)'[=#==;'.''[''+@@=1[)}'[))';'=#@@+=$#.!-++#",
",!>@<,=';=$>'):})')'1.'=$===#+}543}=';=.#''}}6)1[';'=$=''==&=..+",
"#.#><+['[;[)))})))1['=;''))))#[4})}['')1[')}1[[)';==.(=.&..#..#!",
",##,!+[1)[))&$1[['';'=#===='[''1)})[})'[[':['';=';.....#$.#@#>>#",
";='=&]=='=&&'))4)['))})}})}}))1=)}}:''-%-.'=;1'.1))[[):';';=''&.",
"-&'''#==;')[');})'')6)))3}}})3}})))}5}}}))}1)5'$1}3}}1['''=&&&.&",
"..=''>''=')[))=)';3}))';3}53)}}))}'[)3}1}))))'=@[7))}['=;''===;(",
"#.='=,.&=))));+@=[':);'==='[)}}3)))')))='=')'=&.)3)'''';&='['==-",
"$-');-#^#=;&=='=)['})'=)}'')}}3)'.=&..!~5))}31}'='^<!##';=+#@,*!",
"$$''=@@.=#.['''=)';;)'$=:==}}6})[=})}}'>)}}4}')31)]^>,#.=)=%+@!~",
"=.'[;.''['=#=&#.=$-=.=}')'&;''.###&#[}5;.=.==.;['3[''')>1'''==&.",
"..='=$'&=['=)1)'))}1)3)'[')))''1)4}'}8}1'[=&}}}};;'-.==!;[)...##",
"$.==;#.#.=.==.&@#(&=...&')})[''';)'==));'..=;11}1)[)'='=.[:==%'=",
"=&'==#.$&;'='!..==;9')1';')}))['''))}}==='=[')}3333'=='=.''''[=;",
".'1';.==='==)+$')}3}[:)';)13}}):)464['';='}'')}))1)''&';&)'';'''",
".===&.@+@####0@+#'5[)3})'})})'3)}}=-#+.$-.#:'[[)31}})''=&=.==';'",
";'';')'''1;''53}}':-===&=')1)'})3).})}9}}}&[';;==#..#$==-=;&'=.=",
".=;''=&$;)))1'}}}:1'[)))1}}55})}4}.35}}}}}=)[')1;&''''[==''>&'(&",
"/=&'[=.>&=''':3}};1;'11}3'}}}})14}&5}}}64}''[):1';;=)3';+='!$==.",
"#.''$!<,#..&=='&=.&-.%=)}=}448})6}=55)}65};;==&'=&'')''[#.'^#..#",
"+.=;'##'1}))[;})'[1}:)'!,*..#'..#@!##.='''=)}))13);==&#@.-.#==.'",
"&';='.#='))}:)6))133)')#;')3')))'==##})6:['[))})}3'.'==;=['=&'&'",
"$(;===@';[)))63='}3}}3;>''''=;'&.=@^#})}[)'''.:&=&.##$..+..=;'''",
".=.=;#>$..&.=')=))[[['.&'[)})[31;))}.'.;[):;=:1'')'='=);)';=.#.#",
"$=='=.^0,#==')).[)&;''&'11[}})5}'4}'[[=[))'))[)3;)'')''''''&..#]",
"$=&.===''''[3}).'1;1[))'1)}3)}5}[53}})=&1''')'}))1;=)''&;'''$#+#",
"=''[''[);'')}61#.=$#'1;=[}}}}3};'}))'[-!=''')=;=';).)1''&==.@!^^",
"#...;';'==;[[&&#@=''''=&'[')'''))['=.'')'=&''.1'';=#))'&#.&==+#.",
"|^!+.''&1''='.%=$'1:})})11[)'1))[))))})}}['')'[&%.==.=##>#'''=='",
"^!,.#==':')':'1).;1))'))'[13'[)1))1.=}}1''==1}})':;'''';%#==&;&.",
"-=='&.=]!^!!@,-&.==')11['''=.&##-.'[.''.=''&#.$..#..=='==#,#=..(",
"..=='';#####;&&))';))))1[))'[[';}[)'')}#''})'''''%))19''=.#==$=/",
"+=.&&''$;==&');':='1))});'))'''})')))))@')))[)'&&&)1[['''##=====",
"#.%=='=#&===&';'[&%=.=''===;=..1))}1[)}*@.'';)'==1)'=;'1&#!.%&&(",
"##..&-=+&===';';'';#>;&==.=#-&'=='''='==''';==&)-.'=#@.#@>====.(",
".==%='[.='='=)''');=#)[31)=-=[['=#@#'.='[';'''))[=!!,>~!!!'[====",
"%.&====$$#>#$.$...==>'=.$.+=&=)=(=';)''''.=#...=$$.'=#....='&.$.",
"@!@!-(''&#.'''1')===!.)3'));'+';==''))'1)=.=;=};==^!>@.;==.===&.",
">#>!.='&=.#=.$'&'=''#+)[':))']=;'==''['')'a+-.;''&#$&='..''=''=.",
"##=&.##.#@>>*@==)=1)'*@]#+#==''');='}}1''#>==='$+#^!*^b!#@@@!!^]",
"$.&==##&/=';&@&.'''3)=!>,>b&1))[[[';['=='#.''='''1==###+#@!^>@]@",
"..#+=.'=&=.&=#&''=''}'+&..@.'1[1['''='===.==;==&''''===...###.]#",
"..##..$&&=..+,$.==;');.+=;=.''[;='''.==='.;&=.+@##+#+##@@##@#@@#",
"##@###@+.#!^<#=='=5''==@b*@@@@###.!a<!].@!$==.'1'&.++>+>#=..@##+",
"+###@!!#+#@+*.;')#===-.#>#++.&..=%.#!!@&.>##$.)'==#.!>!,#.###@+.",
"@##,#>!@###-+c!!!!>.#+.&='=&=&.&''=-$.('###')=1&.==.+@#.#=#..@,]",
">#..#>>,@@##=_]>#=.)1&':&==--.#;'.'#=.==@#.;'';=#$$.$.$..$]#-##."};
