/* XPM */
static char * C:\Users\Rin_K\Documents\techo2_xpm[] = {
"64 64 54 1",
" 	c None",
".	c #262326",
"+	c #262426",
"@	c #252224",
"#	c #252225",
"$	c #242224",
"%	c #222023",
"&	c #221F22",
"*	c #272427",
"=	c #272426",
"-	c #252325",
";	c #201D20",
">	c #232023",
",	c #211F21",
"'	c #242124",
")	c #292629",
"!	c #211E21",
"~	c #232022",
"{	c #201E20",
"]	c #222022",
"^	c #272527",
"/	c #1F1D1F",
"(	c #232123",
"_	c #282528",
":	c #242123",
"<	c #282527",
"[	c #211E20",
"}	c #1F1C1F",
"|	c #262325",
"1	c #1F1C1E",
"2	c #221F21",
"3	c #1D1B1D",
"4	c #1B191B",
"5	c #1E1C1E",
"6	c #201D1F",
"7	c #1E1B1D",
"8	c #292628",
"9	c #1E1B1E",
"0	c #191719",
"a	c #1D1A1D",
"b	c #242225",
"c	c #2A272A",
"d	c #1D1A1C",
"e	c #282628",
"f	c #282629",
"g	c #292528",
"h	c #272528",
"i	c #232124",
"j	c #1C1A1C",
"k	c #282427",
"l	c #2A2729",
"m	c #292729",
"n	c #2B282B",
"o	c #1B191C",
".+@#$$##$...%&***.=*-.;>&,&****.'&)*.*>$##'&$*..-..'..-';!#$#..#",
"-.~&{;,'.##+>]#.^.+***>!!/{*^**+#(_.*_>##'({>:(#+..$.*<*:]#@$-+.",
"$'..._{,>~>',.*.(>[}!$$**+=._>-'~]:&>(;]$.#.#^=,('(>##!>>;{,~](>",
"$.-.|+1&''#'&*.*..#'!#++^.+..@*..*^**+2>$#'#.*.,..*.**]'(2>>'#@'",
"-*|..@34/!]>&**)__*#{|*_*+#.*$**.-#>''](#.*.-=_!$.#.|*'!5/;/6!;;",
"'(($>>##($$$>##*.*.'$###'$](->$:(>>..$|-'.#'''$>-.|.+!,&'=+|.#-$",
"]>#.'$##$#((^_*=.**.=.#>!&..**-@$##=*<**_*-~.*-**+..$5&,*..*|-'#",
"3}]#+$.'&;7/|_.-+--@@$$*->**_*-.|-#|*8_*.#|(##...+_-[/{;.--$],;9",
"#$-#.#2'##$(!>>'(>]#.(#._-##$##=.+.2>#--$##'@$#&]'.&'#.-|##.-$''",
"|.**.->_8)_#&0a{,:>_8___*]3!>>'_*_*&;&(&&/;(-$$3/>',#-#.*****..-",
"#*_*+.'^__)_~5{,&2,)_*__*>{&~&'*__.([&&;>;2&>'#&&~>~>(@#.*.#|*..",
"***=.-]~>]&!}&'$#~}!,&]~&;#...'>.*#$.#->.**_**.*++__(>#'#*_*3!,!",
"+*=+..=.=*_&5,&,>>9{!&>$'#.*#.-~*_.=..-.'#-.+*]-..__@$|#'+_-;&&2",
"*_^+-..*|=*>!!>>:,5&~&>>:@..-->:$#*<+-$.''##=*]..-^*@&(']-.-/[6,",
"{66{;////6,$_b)__',=__=*.;;~#*_=#{$(&{!&>*.>##*)_.>>:'#.(:(5~:':",
"(:'.|':>''.**'**+'&.*8_*.&'-'.*_.}>##>#._)_'.__)._(('''.+-.{']>:",
"##'('##..|.*_(.-$,]^*)_.|--*=#-.|3/{&/***__._)_*+|~5/{,(#-#!#'](",
"'(>>{('$.##|#>#$#$].*..:&'$$#]....+2{5'..*_-.**..#$2,&]#$2$6'>>>",
"{/};32#-#>,/#+*_+.+#={(&,&]&{,<c)__$#@(,}##*^_**..-#@'@+*#$@$$@>",
"&>!{d]^**...=*_**_^*.>$'(|###&*)_*_..-*.#.+__***#-'((:(]#'>(''(,",
">>(~6>e____.''*=*..|-$&'''$###.*__*.f+.*+|**..#$.->>'>'('']2>]]]",
"*+=.#{''-#$$.**8<^.<*_*__*__*.#'*__.#']&,,:>$.@]___<*_^+^**|***.",
"-.*++]*..*****'_***_)_**___8<__*_*__)g*^.+*.._$&^))___^^**..=*.+",
"##.+.,=*.._*^*&+..*^**.$*___*__**_**__*+*+.*.#({*)__8**..+=..-^.",
">@.*-,.++___<_{!@-|..-->''#.=*__^_*.***'@'#|$(@~_)_*+.=+#-.*^..|",
"$-._.',3&'$''$##_.._*$'=*|.*____.!((,!398***^._+''343;{##']&[{55",
"''**.&&('>(.*..#<.-.*#!&#'-*_)_**(^**+>/*_)_*$*)__[9/{&~#h#(&{{1",
".-**|$****'[>]!>'>>>]'*$*#$###],!{,;|_8#]:&(:>-.@_*.=*_{--...##$",
"#$-=.@*+.<.'.*=#**^*._*#..***..=._*'.)_.#->$*<_*#.#>('i1-*_'~>>]",
"#...*('>>$(('>'!](''>:>(.**+.-##@.-'(-#'']&>'_*_*_**=.=#(.*-..*=",
"++^..,,2>$$''j!,>'@-'|....k_<*.##-++*=&&>''#:___^))+#-*#>.*<*_**",
"#_)=<,,]>'>:-}{(#*_*.++|.+*e_**.*e8_|$##''*#'___*_**.-*.#*.=*_**",
"'#-.#>{,{2,2,/{{,$).*__*.<*e+$_.**'(&,2]]]&#'*+___8e***.'-'#*^**",
"*.****===_**=))__'$~:':'>-...|**_.>**_+<__$-$''''&>~]('@'-*(.@$#",
"#...=#'(*____*e)_#.#--.=*^_)))__)^>_)___g_$..#=.#'|##.+.:**!-.||",
"-++..:&{'$#..._^*'-'#..__#_ggg<*)*>)_)g)))##....$@.#*_.+]-*}'#.#",
":#..';5!&(>'''#':>(>]>:._$_))c_*)_'l)_e))).#'''@$'-#*.._&'.5~>(>",
"]'.++(:*_)__**)=.*__**.9}5,&,$>],;5,,>'$$##*_*_<)*.''(,/''('..-*",
".*^..''.*8__*_c++*_)*+*5>>$-(..#(~,/&_*_...===_***.>#'$(#*.-.*.^",
"#-+#.#(^*___*m)(._____|5>>(],##~,294&__<.*|.$&#:]~~!,]>>&]'#*__^",
"'-$#+>,$''-(#._~.....$](.=__*=__#=++'#(..**.@=**._*$.#*+_*..''#:",
"-..*.'3{!,>:+^*&-.@|-#'#***)_*)).)_.+.(-**.*.**_*<*-_.*+.*.#(>&{",
".*.|-#'..-.*___&'-$.....**)__))_-)_*h*'>|...*#_****$_..|..=->&&2",
".e^*..*_*+*^e)_!!],!($$(#+*___*#'*.##.>3&:#.<>|##._]*_.=$$'~{/53",
"'##$..*.##.*=##{,#|..-##=.|.#@#-..#@(#-+.'#.#~.-##$]***#>>--#''.",
"j3/&:**._*=#|((''***_._*_***-**=.*=|*f*__*.#=.=$(>''((,{5[^*^+._",
"/;,]].**_*_**.**(=k__....**_#***^*.&#))_*..@___*.*..=..-~!#***..",
".*.*.##!/}{{,,''>$$+=*_*.#-@>:],>>.-(#-]$##:&~>((&>>@@..-]&'.##-",
"#-.+*^*,{!,~#$#*^|.*_*__.+...--#*+<--k8&##_^.+.##(*<_*.+.'>#.$..",
"$...+**]i''$#.#.*>#+**)*##*.#$|_*.*<_^_!(#*.**.#:#^******>]|.|+.",
"~('##.#,('(''$'#*>&'](##(&>(>{&.*__**^_/1!>:'.|#(**+#.*_.>/>'-*.",
"'('$###]'#-$#....#'2[|#-#''!(#.#'...#.-#-|.+@##*>$-#~&$>],#.|##.",
"-.*..*_#'.##'.-#-|#'&^*^*='&'+**({6,'(@+*...-.**|:/6{{5661__*...",
"..+##$-:>,{2>(>((&>>!#'(&]&(('*#(($#.##..($&~](>&&>-']&]],*_*#|#",
"],>!+*_*.('***<*_|'@/$_)+__*.{$-''##=<**_.>#=.).##3/!,(.++#+.***",
"2]],-**=.#$.-#..*##.&>__**__.}>$$(>'$|##.-a&''=**#&>$$#(.__+__=.",
"|._*$>>(>],&!&=._-<_.!,!],&-#.**_*.*))_*+>,'@#-(%&;;{{9/>~]&&2!>",
"..^_*''.|.=-#&+-_**)_-16{/d'^_____****..=>>-.|...*.#>]&2>]{/&>>'",
"*+.#=-**=.#-$>**<.**).;>(>{'.___**^*|*...:-..#.'-..*-#'](>]&>'(@",
"=+#@$((-**-#&]#$.=<__=,&$.$@^___=<**$..+*$-.@],{!,,!>]2{!2&&~~>:",
"##>'#@'~'>&;5$..*.n_+.|]45,&2]]>~(/33;!(&/]'(#*8_*~&!{!5#*.-$-##",
"##'(>/{]>'>>[#_k_'**...(/!,&>']~>(&{1}!$]{2]]#)*#.2]{{;{$+#$#$-.",
"@..##({'###-#o{!,{~#$$#.+*.+*+#*^*=-$#|*>'#_)_)*$+*.#'#-#h#--@(>",
"#++.#(/](>'#*j!](.#)_+_<.*.-..'**-*(#$|#,'@_<__*>##---+#-+>'...."};
