/* XPM */
static char *out[] = {
/* columns rows colors chars-per-pixel */
"64 64 170 2 ",
"   c None",
".  c #020202",
"X  c gray4",
"o  c #151515",
"O  c #181818",
"+  c #222222",
"@  c #293821",
"#  c #313D2C",
"$  c #343433",
"%  c gray23",
"&  c #364C29",
"*  c #3B542D",
"=  c #3D5930",
"-  c #544B2D",
";  c #465E2F",
":  c #425F32",
">  c #4A5B39",
",  c #754832",
"<  c #7C4B34",
"1  c #734732",
"2  c #685735",
"3  c #7E5739",
"4  c #735D3A",
"5  c #446434",
"6  c #476936",
"7  c #496B36",
"8  c #4C6D3A",
"9  c #57693B",
"0  c #4E733B",
"q  c #51743C",
"w  c #5D773F",
"e  c #53793E",
"r  c #62683A",
"t  c #726E3E",
"y  c #434443",
"u  c gray30",
"i  c #4E504E",
"p  c #495542",
"a  c #555A51",
"s  c #5B5B5B",
"d  c #4F6A40",
"f  c #526C45",
"g  c #567D41",
"h  c #597A47",
"j  c #5A744C",
"k  c #5D7B4B",
"l  c #557643",
"z  c #5C7352",
"x  c #716C40",
"c  c #6B7841",
"v  c #657A41",
"b  c #747944",
"n  c #797944",
"m  c #617655",
"M  c #65765A",
"N  c #636363",
"B  c #6A6D67",
"V  c #6D7C66",
"C  c #6F716F",
"Z  c #657260",
"A  c gray47",
"S  c #824F37",
"D  c #88593B",
"F  c #945A3D",
"G  c #9B5D3F",
"H  c #90563C",
"J  c #88653F",
"K  c #91623F",
"L  c #9A613F",
"P  c #9E5E41",
"I  c #A05F41",
"U  c #886D42",
"Y  c #906047",
"T  c #9F6242",
"R  c #946C43",
"E  c #867544",
"W  c #996A50",
"Q  c #A56243",
"!  c #AC6645",
"~  c #AE6845",
"^  c #8D776A",
"/  c #578241",
"(  c #5A8443",
")  c #5D8A45",
"_  c #5E8949",
"`  c #5E864A",
"'  c #628344",
"]  c #618D47",
"[  c #61834D",
"{  c #628C4A",
"}  c #65944A",
"|  c #67984C",
" . c #68984D",
".. c #648554",
"X. c #668F52",
"o. c #69835C",
"O. c #6C895C",
"+. c #6B9653",
"@. c #6F9A57",
"#. c #6F935C",
"$. c #70965B",
"%. c #73995D",
"&. c #77896D",
"*. c #708264",
"=. c #729261",
"-. c #799F64",
";. c #7C976E",
":. c #7E9E6B",
">. c #7D8D75",
",. c #7F9B71",
"<. c #7D9373",
"1. c #7EA16B",
"2. c #809177",
"3. c #819279",
"4. c #839B76",
"5. c #AC846F",
"6. c #84A673",
"7. c #8AA27C",
"8. c #898A88",
"9. c #8B9A84",
"0. c #9F9087",
"q. c #909D88",
"w. c #90938E",
"e. c #989D98",
"r. c #959694",
"t. c #AC9785",
"y. c #90A783",
"u. c #95A58D",
"i. c #9CB28F",
"p. c #99A791",
"a. c #9FAD98",
"s. c #9CA896",
"d. c #A1AF9B",
"f. c #A5B09F",
"g. c #A2A4A1",
"h. c #A9AEA8",
"j. c #BCABA4",
"k. c #A7B2A1",
"l. c #A9B3A5",
"z. c #B2BCAD",
"x. c gray70",
"c. c #B5BBB3",
"v. c #BBBDBA",
"b. c #BEB8B3",
"n. c #C7B1A4",
"m. c #ABC29F",
"M. c #B5C3AC",
"N. c #BDC5B8",
"B. c #C1C7BD",
"V. c #CAC1BB",
"C. c #C2C5C1",
"Z. c #C6CAC5",
"A. c #C8CFC5",
"S. c #CACBCA",
"D. c #CFDCC7",
"F. c #CDD3CA",
"G. c #CEDBC8",
"H. c #D0D2CE",
"J. c #D2D5D2",
"K. c #D9DBD7",
"L. c #DCDDDC",
"P. c #D6DBD4",
"I. c #DDE1DB",
"U. c #E0E2DF",
"Y. c #E4E4E4",
"T. c #E4E8E2",
"R. c #E7EAE8",
"E. c #EBECEB",
"W. c #F4F4F3",
"Q. c #FFFFFF",
/* pixels */
"                                                                                                                                ",
"                                                                                                                                ",
"                                                                                                                                ",
"                                                                                                                                ",
"                                                                                                                                ",
"                                                                                                                                ",
"                                                                                                                                ",
"                                                                                                                                ",
"                                                                                                                                ",
"                                                                                                                                ",
"                                                                                                                                ",
"Q.Q.Q.Q.Q.Q.Q.Q.Q.Q.Q.Q.Q.Q.Q.Q.Q.Q.Q.Q.Q.Q.Q.Q.Q.Q.Q.Q.Q.Q.Q.Q.Q.Q.Q.Q.Q.Q.Q.Q.Q.Q.Q.Q.Q.Q.Q.Q.Q.Q.Q.Q.Q.Q.Q.Q.Q.Q.Q.Q.Q.Q.Q.Q.",
"Q.Q.Q.Q.Q.Q.Q.Q.Q.Q.Q.Q.Q.Q.Q.Q.Q.Q.Q.Q.Q.Q.Q.Q.Q.Q.Q.Q.Q.Q.Q.Q.Q.Q.Q.Q.Q.Q.Q.Q.Q.Q.Q.Q.Q.Q.Q.Q.Q.Q.Q.Q.Q.Q.Q.Q.Q.Q.Q.Q.Q.Q.Q.Q.",
"Q.Q.Q.Q.Q.Q.Q.Q.Q.Q.Q.Q.Q.Q.Q.Q.Q.Q.Q.Q.Q.Q.Q.Q.Q.Q.Q.Q.Q.Q.Q.Q.Q.Q.Q.Q.Q.Q.Q.Q.Q.Q.Q.Q.Q.Q.Q.Q.Q.Q.Q.Q.Q.Q.Q.Q.Q.Q.Q.Q.Q.Q.Q.Q.",
"Q.Q.Q.Q.Q.Q.Q.Q.Q.Q.Q.Q.Q.Q.Q.Q.Q.Q.Q.Q.Q.Q.Q.Q.Q.Q.Q.Q.Q.Q.Q.Q.Q.Q.Q.Q.Q.Q.Q.Q.Q.Q.Q.Q.Q.Q.Q.Q.Q.Q.Q.Q.Q.Q.Q.Q.Q.Q.Q.Q.Q.Q.Q.Q.",
"Q.Q.Q.Q.Q.Q.Q.Q.Q.Q.Q.Q.Q.Q.Q.Q.Q.Q.Q.Q.Q.Q.Q.Q.Q.Q.Q.Q.Q.Q.Q.Q.Q.Q.Q.Q.Q.Q.Q.Q.Q.Q.Q.Q.Q.Q.Q.Q.Q.Q.Q.Q.Q.Q.Q.Q.Q.Q.Q.Q.Q.Q.Q.Q.",
"Q.Q.Q.Q.Q.Q.Q.Q.Q.Q.Q.Q.Q.Q.Q.Q.Q.Q.Q.Q.Q.Q.Q.Q.Q.Q.Q.Q.Q.Q.Q.Q.Q.Q.Q.Q.Q.Q.Q.Q.Q.Q.Q.Q.Q.Q.Q.Q.Q.Q.Q.Q.Q.Q.Q.Q.Q.Q.Q.Q.Q.Q.Q.Q.",
"Q.Q.Q.Q.Q.Q.Q.Q.Q.Q.Q.Q.Q.Q.Q.Q.Q.Q.Q.Q.Q.Q.Q.Q.Q.Q.Q.W.L.Y.W.Q.Q.Q.Q.Q.Q.Q.Q.Q.Q.Q.Q.Q.Q.Q.Q.Q.Q.Q.Q.Q.Q.Q.Q.Q.Q.Q.Q.Q.Q.Q.Q.Q.",
"Q.Q.Q.Q.Q.Q.Q.Q.Q.Q.Q.Q.Q.Q.Q.Q.Q.Q.Q.Q.Q.Q.Q.Q.Q.H.2.m +.+.m 2.K.Q.Q.Q.W.F.z.l.B.R.Q.Q.Q.Q.Q.Q.Q.Q.Q.Q.Q.Q.Q.Q.Q.Q.Q.Q.Q.Q.Q.Q.",
"Q.Q.Q.Q.Q.Q.Q.Q.Q.Q.Q.Q.Q.Q.Q.Q.Q.Q.Q.Q.Q.Q.Q.R.<.} |  . . .| | _ k.L.9.k } | | } o.N.Q.Q.Q.Q.Q.Q.Q.Q.Q.Q.Q.Q.Q.Q.Q.Q.Q.Q.Q.Q.Q.",
"Q.Q.Q.Q.Q.Q.Q.Q.Q.Q.Q.Q.Q.Q.Q.Q.Q.Q.Q.Q.Q.Q.L.;.}  . . . . .} | | / q }  . . . .| | ..P.Q.Q.Q.Q.Q.Q.Q.Q.Q.Q.Q.Q.Q.Q.Q.Q.Q.Q.Q.Q.",
"Q.Q.Q.Q.Q.Q.Q.Q.Q.Q.Q.Q.Q.Q.Q.Q.Q.Q.Q.Q.Q.T.7.}  . .} ( / ) ) / ) } / ]  . . . . . .} p.Q.Q.Q.Q.Q.Q.Q.Q.Q.Q.Q.Q.Q.Q.Q.Q.Q.Q.Q.Q.",
"Q.Q.Q.Q.Q.Q.Q.Q.Q.Q.Q.Q.Q.Q.Q.Q.Q.Q.Q.Q.W.k.{  .} g ) / ( { { / ( ( q e / e l e q e e j E.Q.Q.Q.Q.Q.Q.Q.Q.Q.Q.Q.Q.Q.Q.Q.Q.Q.Q.Q.",
"Q.Q.Q.Q.Q.Q.Q.Q.Q.Q.Q.Q.Q.Q.Q.Q.Q.Q.Q.Q.T.#.|  . .) }  . .| | | | ] e e ) ( ( ( ) ( ( ] 6.s.E.Q.Q.Q.Q.Q.Q.Q.Q.Q.Q.Q.Q.Q.Q.Q.Q.Q.",
"Q.Q.Q.Q.Q.Q.Q.Q.Q.Q.Q.Q.Q.Q.Q.Q.Q.Q.Q.Q.N.} |  . .|  . .| ) 6 5 8 0 7 * q } | } ) ( 0 8 0 _ ;.Z.Q.Q.Q.Q.Q.Q.Q.Q.Q.Q.Q.Q.Q.Q.Q.Q.",
"Q.Q.Q.Q.Q.Q.Q.Q.Q.Q.Q.Q.Q.Q.Q.Q.Q.Q.Q.E.z | | |  . . .} q g e = & * * 8 ) 7 5 5 g 8 = * : g g V L.Q.Q.Q.Q.Q.Q.Q.Q.Q.Q.Q.Q.Q.Q.Q.",
"Q.Q.Q.Q.Q.Q.Q.Q.Q.Q.Q.Q.Q.Q.Q.Q.Q.W.d.l ( |  .| | } / 5 l k > y s r.w.&.=.d ; ) $.z a N B V O.d s.W.Q.Q.Q.Q.Q.Q.Q.Q.Q.Q.Q.Q.Q.Q.",
"Q.Q.Q.Q.Q.Q.Q.Q.Q.Q.Q.Q.Q.Q.Q.Q.Q.a. .} }  . .| ] ] / f 9.h.$ N $ % N.Q.Q.h.h u.J.A y u o Y.W.v.M H.Q.Q.Q.Q.Q.Q.Q.Q.Q.Q.Q.Q.Q.Q.",
"Q.Q.Q.Q.Q.Q.Q.Q.Q.Q.Q.Q.Q.Q.Q.Q.C.%.| ) } |  .| ' } [ d.Q.e.O X u $ 8.Q.Q.E.8.Q.L.u X s X x.Q.Q.S.Y.Q.Q.Q.Q.Q.Q.Q.Q.Q.Q.Q.Q.Q.Q.",
"Q.Q.Q.Q.Q.Q.Q.Q.Q.Q.Q.Q.Q.Q.Q.Q.i.}  .} |  . .| } | { y.Z.x.+ . . + x.Q.W.e.N.Q.Y.N . . o L.E.c.v.W.Q.Q.Q.Q.Q.Q.Q.Q.Q.Q.Q.Q.Q.Q.",
"Q.Q.Q.Q.Q.Q.Q.Q.Q.Q.Q.Q.Q.Q.Q.S.=.|  . . . . . . . .} 8 $.M a i C g.g.>.:.h -.:.M p # @ & :.1.m c.Q.Q.Q.Q.Q.Q.Q.Q.Q.Q.Q.Q.Q.Q.Q.",
"Q.Q.Q.Q.Q.Q.Q.Q.Q.Q.Q.Q.Q.Q.Q.M._  . . . . . . . . .| } / = 8 { +.@.X.8 = _  . .} } } } } } 1.R.Q.Q.Q.Q.Q.Q.Q.Q.Q.Q.Q.Q.Q.Q.Q.Q.",
"Q.Q.Q.Q.Q.Q.Q.Q.Q.Q.Q.Q.Q.Q.W.m.|  . . . . . . . . . . .| | | | } } ( e } | } | } } } }  .m E.Q.Q.Q.Q.Q.Q.Q.Q.Q.Q.Q.Q.Q.Q.Q.Q.Q.",
"Q.Q.Q.Q.Q.Q.Q.Q.Q.Q.Q.Q.Q.Q.K.O. . . . . . . . . . . . . .| | } } 7 ( | | | | ] 5 = : 7 / F.Q.Q.Q.Q.Q.Q.Q.Q.Q.Q.Q.Q.Q.Q.Q.Q.Q.Q.",
"Q.Q.Q.Q.Q.Q.Q.Q.Q.Q.Q.Q.Q.Q.A.e  . . . . . . . . . . . . . .| ' | | |  . . .| | | |  . . .+.A.Q.Q.Q.Q.Q.Q.Q.Q.Q.Q.Q.Q.Q.Q.Q.Q.Q.",
"Q.Q.Q.Q.Q.Q.Q.Q.Q.Q.Q.Q.Q.Q.D.}  . . . . . . . . . . . . . . . .| | |  . . . .|  . . . . .| 4.W.Q.Q.Q.Q.Q.Q.Q.Q.Q.Q.Q.Q.Q.Q.Q.Q.",
"Q.Q.Q.Q.Q.Q.Q.Q.Q.Q.Q.Q.Q.Q.G.}  . . . . . . . . .| | | | | |  . . .| |  . . . . . . . .| | -.C.Q.Q.Q.Q.Q.Q.Q.Q.Q.Q.Q.Q.Q.Q.Q.Q.",
"Q.Q.Q.Q.Q.Q.Q.Q.Q.Q.Q.Q.Q.Q.G.}  . . . . . . . .| 9 t K J 2 > /  . .| |  . . .|  . . . .| { 9 0.W.Q.Q.Q.Q.Q.Q.Q.Q.Q.Q.Q.Q.Q.Q.Q.",
"Q.Q.Q.Q.Q.Q.Q.Q.Q.Q.Q.Q.Q.Q.G.(  . . . . . . . .9 I ! ~ ~ ~ ~ Q L S - ; / |  .+. . .} 6 - T Q 5.L.Q.Q.Q.Q.Q.Q.Q.Q.Q.Q.Q.Q.Q.Q.Q.",
"Q.Q.Q.Q.Q.Q.Q.Q.Q.Q.Q.Q.Q.Q.F.l  . . . . . . .| r ~ I I P H , , G ~ Q T G F F F H F F P T Q W x.Q.Q.Q.Q.Q.Q.Q.Q.Q.Q.Q.Q.Q.Q.Q.Q.",
"Q.Q.Q.Q.Q.Q.Q.Q.Q.Q.Q.Q.Q.Q.U.4. . . . . . .} } 9 R R R R G Y T Q L F S < < < < < < < < < Y ^ Q.Q.Q.Q.Q.Q.Q.Q.Q.Q.Q.Q.Q.Q.Q.Q.Q.",
"Q.Q.Q.Q.Q.Q.Q.Q.Q.Q.Q.Q.Q.Q.Q.M.{  . . . . .} g ) ] ] { ' w r t E U J H H P Q ! ! ! ! ! ! Y j.Q.Q.Q.Q.Q.Q.Q.Q.Q.Q.Q.Q.Q.Q.Q.Q.Q.",
"Q.Q.Q.Q.Q.Q.Q.Q.Q.Q.Q.Q.Q.Q.Q.U.<.} } |  . .| ] ( }  .| |  . .} } { v v c b n n n n x t.n.n.W.Q.Q.Q.Q.Q.Q.Q.Q.Q.Q.Q.Q.Q.Q.Q.Q.Q.",
"Q.Q.Q.Q.Q.Q.Q.Q.Q.Q.Q.Q.Q.Q.Q.Q.R.z.k }  . . . . . . . . . . . . .| | |  . .} } } o.d.R.Q.Q.Q.Q.Q.Q.Q.Q.Q.Q.Q.Q.Q.Q.Q.Q.Q.Q.Q.Q.",
"Q.Q.Q.Q.Q.Q.Q.Q.Q.Q.Q.Q.Q.Q.Q.Q.Q.Q.W.A.u.j e |  . . . . . . . . . . . . . . .( 9.I.W.Q.Q.Q.Q.Q.Q.Q.Q.Q.Q.Q.Q.Q.Q.Q.Q.Q.Q.Q.Q.Q.",
"Q.Q.Q.Q.Q.Q.Q.Q.Q.Q.Q.Q.Q.Q.Q.Q.Q.Q.Q.Q.Q.Q.R.S.z.9.*.j j ..X.+.@.@.+.[ m 3.B.R.Q.Q.Q.Q.Q.Q.Q.Q.Q.Q.Q.Q.Q.Q.Q.Q.Q.Q.Q.Q.Q.Q.Q.Q.",
"Q.Q.Q.Q.Q.Q.Q.Q.Q.Q.Q.Q.Q.Q.Q.Q.Q.Q.Q.Q.Q.Q.Q.Q.Q.Q.Q.Q.W.E.R.U.L.L.Y.E.Q.Q.Q.Q.Q.Q.Q.Q.Q.Q.Q.Q.Q.Q.Q.Q.Q.Q.Q.Q.Q.Q.Q.Q.Q.Q.Q.Q.",
"Q.Q.Q.Q.Q.Q.Q.Q.Q.Q.Q.Q.Q.Q.Q.Q.Q.Q.Q.Q.Q.Q.Q.Q.Q.Q.Q.Q.Q.Q.Q.Q.Q.Q.Q.Q.Q.Q.Q.Q.Q.Q.Q.Q.Q.Q.Q.Q.Q.Q.Q.Q.Q.Q.Q.Q.Q.Q.Q.Q.Q.Q.Q.Q.",
"Q.Q.Q.Q.Q.Q.Q.Q.Q.Q.Q.Q.Q.Q.Q.Q.Q.Q.Q.Q.Q.Q.Q.Q.Q.Q.Q.Q.Q.Q.Q.Q.Q.Q.Q.Q.Q.Q.Q.Q.Q.Q.Q.Q.Q.Q.Q.Q.Q.Q.Q.Q.Q.Q.Q.Q.Q.Q.Q.Q.Q.Q.Q.Q.",
"Q.Q.Q.Q.Q.Q.Q.Q.Q.Q.Q.Q.Q.Q.Q.Q.Q.Q.Q.Q.Q.Q.Q.Q.Q.Q.Q.Q.Q.Q.Q.Q.Q.Q.Q.Q.Q.Q.Q.Q.Q.Q.Q.Q.Q.Q.Q.Q.Q.Q.Q.Q.Q.Q.Q.Q.Q.Q.Q.Q.Q.Q.Q.Q.",
"Q.Q.Q.Q.Q.Q.Q.Q.Q.Q.Q.Q.Q.Q.Q.Q.Q.Q.Q.Q.Q.Q.Q.Q.Q.Q.Q.Q.Q.Q.Q.Q.Q.Q.Q.Q.Q.Q.Q.Q.Q.Q.Q.Q.Q.Q.Q.Q.Q.Q.Q.Q.Q.Q.Q.Q.Q.Q.Q.Q.Q.Q.Q.Q.",
"Q.Q.Q.Q.Q.Q.Q.Q.Q.Q.Q.Q.Q.Q.Q.Q.Q.Q.Q.Q.Q.Q.Q.Q.Q.Q.Q.Q.Q.Q.Q.Q.Q.Q.Q.Q.Q.Q.Q.Q.Q.Q.Q.Q.Q.Q.Q.Q.Q.Q.Q.Q.Q.Q.Q.Q.Q.Q.Q.Q.Q.Q.Q.Q.",
"Q.Q.Q.Q.Q.Q.Q.Q.Q.Q.Q.Q.Q.Q.Q.Q.Q.Q.Q.Q.Q.Q.Q.Q.Q.Q.Q.Q.Q.Q.Q.Q.Q.Q.Q.Q.Q.Q.Q.Q.Q.Q.Q.Q.Q.Q.Q.Q.Q.Q.Q.Q.Q.Q.Q.Q.Q.Q.Q.Q.Q.Q.Q.Q.",
"                                                                                                                                ",
"                                                                                                                                ",
"                                                                                                                                ",
"                                                                                                                                ",
"                                                                                                                                ",
"                                                                                                                                ",
"                                                                                                                                ",
"                                                                                                                                ",
"                                                                                                                                ",
"                                                                                                                                ",
"                                                                                                                                "
};
