/* XPM */
static char *out[] = {
/* columns rows colors chars-per-pixel */
"64 64 211 2 ",
"   c #000000",
".  c #090601",
"X  c #060803",
"o  c #0B0B04",
"O  c #040409",
"+  c #0D0D09",
"@  c #120E04",
"#  c #170E06",
"$  c #0F1007",
"%  c #0F110D",
"&  c #121506",
"*  c #1B1505",
"=  c #1D1905",
"-  c #13130B",
";  c #1A160D",
":  c #16190E",
">  c #1B1B0D",
",  c #141512",
"<  c #181712",
"1  c #1C1C13",
"2  c #191B15",
"3  c #231A07",
"4  c #2A1F04",
"5  c #231C0B",
"6  c #201E15",
"7  c #1E2114",
"8  c #1E201A",
"9  c #25230B",
"0  c #2B210D",
"q  c #37290A",
"w  c #35320D",
"e  c #3B360E",
"r  c #232314",
"t  c #2C2314",
"y  c #262815",
"u  c #2B2B15",
"i  c #24251A",
"p  c #26291B",
"a  c #2B2C1C",
"s  c #392710",
"d  c #332B12",
"f  c #3A2E12",
"g  c #302F1C",
"h  c #2E301F",
"j  c #323312",
"k  c #3D3516",
"l  c #33341E",
"z  c #3B361B",
"x  c #37391B",
"c  c #3C3A1D",
"v  c #1E2320",
"b  c #232622",
"n  c #2C2D22",
"m  c #332F23",
"M  c #2F3220",
"N  c #333423",
"B  c #393623",
"V  c #373A27",
"C  c #3B3C24",
"Z  c #34342A",
"A  c #3B3C2B",
"S  c #3B3C32",
"D  c #46340A",
"F  c #4B3A0D",
"G  c #433412",
"H  c #473A16",
"J  c #4E3C14",
"K  c #453B1B",
"L  c #523C10",
"P  c #403E22",
"I  c #4E3E20",
"U  c #413E2B",
"Y  c #3E4126",
"T  c #3F402A",
"R  c #57450F",
"E  c #4B4315",
"W  c #49471D",
"Q  c #544516",
"!  c #53441A",
"~  c #5C4D1C",
"^  c #5A541E",
"/  c #604D18",
"(  c #66581A",
")  c #6D5B1D",
"_  c #725D1C",
"`  c #6C601E",
"'  c #75621E",
"]  c #79651D",
"[  c #434325",
"{  c #4D4522",
"}  c #454924",
"|  c #4E4D24",
" . c #43442B",
".. c #49472D",
"X. c #46482B",
"o. c #4A4B2B",
"O. c #534A25",
"+. c #4E5325",
"@. c #4F512B",
"#. c #5C5324",
"$. c #52542E",
"%. c #56582D",
"&. c #444331",
"*. c #494732",
"=. c #464933",
"-. c #4B4C32",
";. c #4D4F3D",
":. c #524E32",
">. c #4D5032",
",. c #4F503C",
"<. c #535535",
"1. c #575A34",
"2. c #5B5C35",
"3. c #54543A",
"4. c #595739",
"5. c #5B5C3A",
"6. c #614A20",
"7. c #665923",
"8. c #635B2D",
"9. c #645832",
"0. c #665D36",
"q. c #605E3B",
"w. c #5E6134",
"e. c #5E603C",
"r. c #61622D",
"t. c #6A612B",
"y. c #7A682C",
"u. c #636333",
"i. c #696436",
"p. c #63643B",
"a. c #6B6539",
"s. c #666A3C",
"d. c #6C6C3B",
"f. c #726836",
"g. c #6F713C",
"h. c #74753D",
"j. c #787938",
"k. c #565840",
"l. c #5A5A44",
"z. c #625F45",
"x. c #5F6040",
"c. c #636345",
"v. c #6B6B42",
"b. c #676548",
"n. c #6B6C4B",
"m. c #746B43",
"M. c #6D7042",
"N. c #6D704E",
"B. c #747343",
"V. c #797A45",
"C. c #73734C",
"Z. c #7C7C4B",
"A. c #6E6F51",
"S. c #787955",
"D. c #8A731B",
"F. c #88781F",
"G. c #927816",
"H. c #806725",
"J. c #877223",
"K. c #8A7927",
"L. c #907B26",
"P. c #877835",
"I. c #817F4A",
"U. c #817D59",
"Y. c #7F8149",
"T. c #7D8155",
"R. c #9A852B",
"E. c #A48E33",
"W. c #AD963C",
"Q. c #84844F",
"!. c #898A4F",
"~. c #858452",
"^. c #898751",
"/. c #8B8955",
"(. c #85845A",
"). c #8E8D5B",
"_. c #928F5C",
"`. c #93925C",
"'. c #9C985F",
"]. c #AC974B",
"[. c #BFAD57",
"{. c #8C8C64",
"}. c #969464",
"|. c #999566",
" X c #9C9A63",
".X c #9B9B6B",
"XX c #A29F68",
"oX c #A29E71",
"OX c #A4A165",
"+X c #A4A36C",
"@X c #AAA56B",
"#X c #ACA96E",
"$X c #B3AB6E",
"%X c #B8B26F",
"&X c #A2A373",
"*X c #AEAA71",
"=X c #B5AC72",
"-X c #B5B274",
";X c #BBB375",
":X c #BCB679",
">X c #C5BA76",
",X c #C1B778",
"<X c #C5BD7A",
"1X c #CABE7D",
"2X c #CCC27D",
"3X c #D4C67F",
"4X c #D2C87D",
"5X c #CBBF83",
"6X c #CCC482",
"7X c #D5C780",
"8X c #D6C881",
/* pixels */
"                              O                                                                                                 ",
"                                                                                                                                ",
"                  O     X X X                                                                                                   ",
"                  X 2 h N a 1 + X                                                                                               ",
"              X - A S.+X+X|.(.4.N 1 X                                                                                           ",
"            + n b..X-X;X;X:X;X=X.XC.*.a - X   O                                                                                 ",
"        O - *.(.*X-X,X<X<X<X1X3X%X#X|.S.o.i X                                                                                   ",
"      X 1 5.{.*X-X>X1X3X3X3X3X3X<X-X+X).Z.2.u X                                                                                 ",
"    X y c.{.+X#X;X2X7X7X7X7X7X7X1X5X$X'.^.m.$.1                                                                                 ",
"    + e.Q.`.|.+X-X2X7X8X7X7X7X7X3X8X>X$X`.V.p. .-                                                                               ",
"  X > M.Y.!._. X#X:X3X3X7X7X7X7X3X3X1X;XOX!.h.2.l +                                                                             ",
"    y M.Y.V.~._. X#X1X3X3X7X7X8X8X3X3X1X@X/.V.a.@.9 X                                                                           ",
"  X C s.g.d.B.Z./. X-X3X8X3X3X3X8X3X3X5X*X}.V.d.%.x & X                                                                         ",
"  X X.w.u.u.a.h.V.).XX>X3X3X3X8X7X3X3X,X+X}.Z.p.$.[ :                                                                           ",
"  X [ %.@.:.%.r.g.Q.`.@X2X8X8X3X7X7X5X$XXX`.Z.r.@.} V $                                                                         ",
"  X l } C C  .| 2.h.Q. X#X2X3X8X7X5X=X@X_.!.Y.u.| }  .1                                                                         ",
"    8 Y N n N C <.u.B.^.OX<X4X7X2X$X@X_./.I.B.u.|  .*.N o O                                                                     ",
"    : N M b p N C 1.a.Y.`.-X2X4X4X$X`.~.V.m.g.2.} [ N a X                                                                       ",
"    + p y 7 > 8 a  .$.i.~.OX>X4X6X:X|.~.B.d.a.%.[ N a r + X                                                                     ",
"    + h y > : > r l U <.p.).#X2X+X}.{.Z.g.u.w.%.z 6 < 1 .                                                                       ",
"    + V Y y > - 1 i N [ @.v.`. XB.q.4.1.@.o.o.} g - < 1 X                                                                       ",
"    O > Y o.N - , 1 p N T @.).!.w.X.B p r N o.x i - - N +                                                                       ",
"      X 7  .5.a - < 7 n V o..XY.o.y : X - A 4.l r X - a +                                                                       ",
"        . r =.;.a : : 8 p Y {.s.a + X X $ *.p.i n S ,.i                                                                         ",
"          X 1 A  .=.&.n 7 c C.1.-   X   $ -.n.p i k.k.,                                                                         ",
"            X n A &.l.b.e.e.s.@.N   O - *.v.n.i i a - O                                                                         ",
"              - , & i 3.N.S.p.%.S.l.A (.~.Q.4.& 2 ,                                                                             ",
"                  + 8 M h <.{.5.,.S.|.&Xp.v.B . n 8                                                                             ",
"                  O b A k.4.-.r % r a x X.e.B & A i                                                                             ",
"                  X 1 U 5.s.X.S N u 8 V <.%.C.{.c.1                                                                             ",
"                    1 V *.$.c a e.~.{.(.B.h.!.~.>.>                                                                             ",
"                    $ p N C ..X B | w.B.j.j.h.w.A ,                                                                             ",
"                      + : 9 A P e.C.1.o.w.s.p. .8 +                             O + O                                           ",
"                        X & y l.Y +.<.y 7 8 1 r A i X O   X                 X   S Z X                                           ",
"                            o p X.Y x Y *.-.&.a : v 2 $ X     X O O       + - O i 2   X X                                       ",
"                                : a =.o.@.$.o.o.h O , g 9 > @ @ o @ X o - 1 < 1 p o X X Z +                                     ",
"                                X X > V o.>.<.T : O   o c O.F { d w u n A i o N Z X X p S o                                     ",
"                                      X X X + X X     X X * Q O.d k z A Z ;.; S Z X X &.:     X                                 ",
"                                                          t f = W { k z  .l.a  .a   7 V + O X n                                 ",
"                                                          z K   . 5 K E o.:.V o.W u *.i X X r A                                 ",
"                                                        X > 8.9 . O o K 0.v.q.0.7.7.0.z o + A + O X                             ",
"                                                          X 8.e n , @ C { Z.8.9.f ! f.f.#.:.g   O                               ",
"                                                        X   :.U :.d :.9.^ q.C  .M P I / ) 7.7.d .                               ",
"                                                            1 n o.) j.f.#.| X.N 8 N U z u.#.y.D.( f .                           ",
"                                                            X O * y.t.m.8.a.B.z.> C V n ,.k J _ F.K.t.w $ X                     ",
"                                                                X | 0.a.6.0.c.3.C b. .i p o.! G H ] D.J.` G o     O   O ; r r . ",
"                                                                  @ d 0.a.a.Z.A.l A.3.h V < 6 7./ D #.H.L.F.' K * . . t ; * 0 = ",
"                                                                    ; 2.d.r.(.T.<.n.o.n.-.@ < 3 P.8.& w / ] J.L.y.J K 4 3 9 q q ",
"                                                                      r U.#./.z.<.v. .S.3.Z b   H I.. . 3 F ) ] _ _ / F D L L G ",
"                                                                      $ o.Z.Z.&.T 3.x.c. .i :.K # f.@   X @ q D R ' H.7.) ( / f ",
"                                                                        m U.p.N N N 3.,.[ &.K y.5 R .       . 3 R ].[.R.J.y.7.5 ",
"                                                                        - U -.a i r x 1 9 O.{ ! s E .         o Q E.[.W.W.L.^ . ",
"                                                                      O   1 -.<. .l > X O @ W W f 5           @ F D.E.E.R.K.j X ",
"                                                                          > 5.).|.C.h +     . & o             @ F ] G.G.] Q . O ",
"                                                                          - U d._.oX3.+ X                     . G _ D.] ~ ;     ",
"                                                                          + A A.S.v.a                         X 0 ~ ( J 3 X X   ",
"                                                                          X + p a : X       X                   o ; > & X X     ",
"                                                                                X                                               ",
"                                                                                                                                ",
"                                                                                                                                ",
"                                                                                                                                ",
"                                                                                                                                ",
"                                                                                                                                ",
"                                                                                                                                "
};
