/* XPM */
static char *out[] = {
/* columns rows colors chars-per-pixel */
"64 64 97 2 ",
"   c gray13",
".  c gray14",
"X  c gray15",
"o  c gray16",
"O  c #2A2A2A",
"+  c #2C2C2C",
"@  c #2F2F2F",
"#  c gray19",
"$  c #323232",
"%  c gray20",
"&  c gray21",
"*  c #373737",
"=  c gray22",
"-  c #393939",
";  c #3A3A3A",
":  c gray23",
">  c gray24",
",  c #3E3E3E",
"<  c #434343",
"1  c gray28",
"2  c #484848",
"3  c #494949",
"4  c #4B4B4B",
"5  c #4C4C4C",
"6  c #4E4E4E",
"7  c #515151",
"8  c gray33",
"9  c #565656",
"0  c gray34",
"q  c #5A5A5A",
"w  c #5B5B5B",
"e  c gray36",
"r  c #5D5D5D",
"t  c gray37",
"y  c #5F5F5F",
"u  c gray38",
"i  c #626262",
"p  c gray39",
"a  c #686868",
"s  c DimGray",
"d  c #6D6D6D",
"f  c #6F6F6F",
"g  c gray44",
"h  c #717171",
"j  c #727272",
"k  c #747474",
"l  c #767676",
"z  c #777777",
"x  c gray47",
"c  c #797979",
"v  c gray48",
"b  c #7B7B7B",
"n  c gray49",
"m  c #7E7E7E",
"M  c gray50",
"N  c #808080",
"B  c #818181",
"V  c gray51",
"C  c #838383",
"Z  c gray52",
"A  c #868686",
"S  c gray53",
"D  c #888888",
"F  c #898989",
"G  c gray54",
"H  c #8E8E8E",
"J  c gray56",
"K  c #909090",
"L  c gray57",
"P  c gray58",
"I  c #959595",
"U  c #9B9B9B",
"Y  c gray61",
"T  c #9D9D9D",
"R  c gray62",
"E  c #9F9F9F",
"W  c #A2A2A2",
"Q  c gray64",
"!  c #A4A4A4",
"~  c gray65",
"^  c gray66",
"/  c #A9A9A9",
"(  c #AAAAAA",
")  c #ACACAC",
"_  c #AFAFAF",
"`  c gray69",
"'  c #B1B1B1",
"]  c #B2B2B2",
"[  c gray70",
"{  c #B4B4B4",
"}  c #B6B6B6",
"|  c #B7B7B7",
" . c gray72",
".. c #B9B9B9",
"X. c #C0C0C0",
"o. c gray77",
"O. c #CBCBCB",
/* pixels */
"' ' ' ' ' ' ~ ~ P P M M y y e e e e ' ' ' ' ' ' B B e e { { J J ' ' ' ' ' ' ~ ~ P P M M y y e e e e ' ' ' ' ' ' B B e e { { J J ",
"' ' ' ' ' ' ~ ~ P P M M y y e e e e ' ' ' ' ' ' B B e e { { J J ' ' ' ' ' ' ~ ~ P P M M y y e e e e ' ' ' ' ' ' B B e e { { J J ",
"' ' ' ' a a M M + + e e ' ' ' ' e e M M D S M M K K ; ; f f T T ' ' ' ' a a M M + + e e ' ' ' ' e e M M D S M M K K ; ; f f T T ",
"' ' ' ' a a M M + + e e ' ' ' ' e e M M D D M M K K ; ; f f T T ' ' ' ' a a M M + + e e ' ' ' ' e e M M D D M M K K ; ; f f T T ",
"q q M M M M @ @ w w ' ' ' ' C C % % X X F G M M = = e e e e C C q q M M M M @ @ w w ' ' ' ' C C % % X X F G M M = = e e e e C C ",
"q q M M M M @ @ w w ' ' ' ' V C % % X X G G M M = = e e e e C C q q M M M M @ @ w w ' ' ' ' V C % % X X G G M M = = e e e e C C ",
"h h 2 2 $ $ e e  . .a a P P M M * = w w = = : > e e / / | | w w h h 2 2 $ $ e e  . .a a P P M M * = w w = = : > e e / / | | w w ",
"h h 2 2 $ $ e e |  .a a P P M M = = w w = = > > w e / / | | w w h h 2 2 $ $ e e |  .a a P P M M = = w w = = > > w e / / | | w w ",
"[ ] ' ' e e e e ' ' Z Z Z Z > > e e ! Q R T Y Y 7 7 n n ( ( e e [ ] ' ' e e e e ' ' Z Z Z Z > > e e ! Q R T Y Y 7 7 n n ( ( e e ",
"[ [ ' ' e e e e ' ' Z Z Z Z : > e e ! ! R R Y Y 7 7 n n ( ( e e [ [ ' ' e e e e ' ' Z Z Z Z : > e e ! ! R R Y Y 7 7 n n ( ( e e ",
"j j Z C n n e e c c F G M M * * / / o.o.c c D D p i w w @ @ - ; j j Z C n n e e c c F G M M * * / / o.o.c c D D p i w w @ @ - ; ",
"j j C Z n n e e c c G G M M * * / / o.o.c c S D p p w w @ @ ; ; j j C Z n n e e c c G G M M * * / / o.o.c c S D p p w w @ @ ; ; ",
"M M M M m M e e a a = = = = y y u u H H Q Q M M j j M M m m 9 9 M M M M m M e e a a = = = = y y u u H H Q Q M M j j M M m m 9 9 ",
"M M M M M M w e a a = = = = t y y u H H Q Q M M j j M M m m 9 9 M M M M M M w e a a = = = = t y y u H H Q Q M M j j M M m m 9 9 ",
"M M M M # # 8 8 ( ( ` ' e w 7 7 t t 5 5 * * S D M M = = i i X.X.M M M M # # 8 8 ( ( ` ' e w 7 7 t t 5 5 * * S D M M = = i i X.X.",
"M M M M # # 8 8 ( ( ' ' e e 7 7 t t 5 5 * * D D M M = = i i X.X.m M M M # # 8 8 ( ( ' ' e e 7 7 t t 5 5 * * D D M M = = i i X.X.",
"n n . . e e .. .` ' M M d d ' ` ^ ^ m m y y 3 2 , ,     o.o.' ' n n . . e e .. .` ' M M d d ' ` ^ ^ m m y y 3 2 , ,     o.o.' ' ",
"n n . . e e  ...' ' M M d d ' ' ^ ^ m m y y 3 3 , ,     o.o.' ' n n . . e e  ...' ' M M d d ' ' ^ ^ m m y y 3 3 , ,     o.o.' ' ",
"G G e e ' ' [ { D D : : ' ' s s ....K K L L e e r t X.X.M M M M F G e e ' ' [ { D D : : ' ' s s ....K K L L e e r t X.X.M M M M ",
"G G e e ' ' { { S D ; : ' ' s s ....K K L L e e t t X.X.M M M M G G e e ' ' { { S D ; : ' ' s s ....K K L L e e t t X.X.M M M M ",
"e e ~ ~ c c m M M M % % ' ' I I M M M M A A = = y t e e U U V C e e ~ ~ c c m M M M % % ' ' I I M M M M A A = = y t e e U U V C ",
"e e ~ ~ c c m M M M % % ' ' I I M M M M A A = = y y e e U U C C e e ~ ~ c c m M M M % % ' ' I I M M M M A A = = y y e e U U C C ",
"e e e e E E n n f f * = M M N B L L M M = = 7 7 ) ) e e e e = = e e e e E E n n f f * = M M N B L L M M = = 7 7 ) ) e e e e = = ",
"e e e e E E n n f f = = M M N B L L M M = = 7 7 ) ) e e e e = = e e e e E E n n f f = = M M N B L L M M = = 7 7 ) ) e e e e = = ",
"' ' ' ' = = = = = = = = p p M M 1 1 & & ' ' E E M M M M e e e e ' ' ' ' = = = = = = = = p p M M 1 1 & & ' ' E E M M M M e e e e ",
"' ' ' ' = = = = = = = = i p M M 1 1 & & ' ' E E M M M M e e e e ' ' ' ' = = = = = = = = i p M M 1 1 & & ' ' E E M M M M e e e e ",
" . .b v g g | | ^ ^ } } e e = = p p O.O.! ! M M L L M M D F & & |  .b v g g | | ^ ^ } } e e = = p p O.O.! ! M M L L M M D F & & ",
" . .b b g g | | ^ ^ } } e e = = i p O.O.! ! M M K L M M F F & &  . .b b g g | | ^ ^ } } e e = = i p O.O.! ! M M K L M M F F & & ",
"l l F F < < W W C V c c n m e e e e e e M M K J G G P P > : * = l l F F < < W W C V c c n m e e e e e e M M K J G G P P > : * = ",
"l l F F < < W W C C c c m m e e e e e e M M K K G G P P > > = = l l F F < < W W C C c c m m e e e e e e M M K K G G P P > > = = ",
"x z l k j j 6 6 O O o o = = e e _ _ B B 0 0 r t 1 1 3 4 > > i i z z l k j j 6 6 O O o o = = e e _ _ B B 0 0 r t 1 1 3 4 > > i i ",
"x x l l j j 6 6 O O o o = = e e _ _ B B 0 0 t t 1 1 4 4 > > i i x x l l j j 6 6 O O o o = = e e _ _ B B 0 0 t t 1 1 4 4 > > i i ",
"' ' ' ' ' ` ~ ~ P P M M y t e e e e ' ' ' ' ' ' B B e e { { J J ' ' ' ' ' ` ~ ~ P P M M y t e e e e ' ' ' ' ' ' B B e e { { J J ",
"' ' ' ' ' ' ~ ~ P P M M y y e e e e ' ' ' ' ' ' B B e e { { J J ' ' ' ' ' ' ~ ~ P P M M y y e e e e ' ' ' ' ' ' B B e e { { J J ",
"' ' ' ' a a M M + + e e ' ' ' ' e e M M D S M M K K ; ; f f T T ' ' ' ' a a M M + + e e ' ' ' ' e e M M D S M M K K ; ; f f T T ",
"' ' ' ' a a M M + + e e ' ' ' ' e e M M D D M M K K ; ; f f T T ' ' ' ' a a M M + + e e ' ' ' ' e e M M D D M M K K ; ; f f T T ",
"q q M M M M @ @ w w ' ' ' ' C C % % X X F G M M = = e e e e C C q q M M M M @ @ w w ' ' ' ' C C % % X X F G M M = = e e e e C C ",
"q q M M M M @ @ w w ' ' ' ' V C % % X X G G M M = = e e e e C C q q M M M M @ @ w w ' ' ' ' V C % % X X G G M M = = e e e e C C ",
"h h 2 2 $ $ e e  . .a a P P M M * = w w = = : > e e / / | | w w h h 2 2 $ $ e e  . .a a P P M M * = w w = = : > e e / / | | w w ",
"h h 2 2 $ $ e e |  .a a P P M M = = w w = = > > w e / / | | w w h h 2 2 $ $ e e |  .a a P P M M = = w w = = > > w e / / | | w w ",
"[ ] ' ' e e e e ' ' Z Z Z Z > > e e ! Q R T Y Y 7 7 n n ( ( e e [ ] ' ' e e e e ' ' Z Z Z Z > > e e ! Q R T Y Y 7 7 n n ( ( e e ",
"[ [ ' ' e e e e ' ' Z Z Z Z : > e e ! ! R R Y Y 7 7 n n ( ( e e [ [ ' ' e e e e ' ' Z Z Z Z : > e e ! ! R R Y Y 7 7 n n ( ( e e ",
"j j Z C n n e e c c F G M M * * / / o.o.c c D D p i w w @ @ - ; j j Z C n n e e c c F G M M * * / / o.o.c c D D p i w w @ @ - ; ",
"j j C Z n n e e c c G G M M * * / / o.o.c c S D p p w w @ @ ; ; j j C Z n n e e c c G G M M * * / / o.o.c c S D p p w w @ @ ; ; ",
"M M M M m M e e a a = = = = y y u u H H Q Q M M j j M M m m 9 9 M M M M m M e e a a = = = = y y u u H H Q Q M M j j M M m m 9 9 ",
"M M M M M M w e a a = = = = t y y u H H Q Q M M j j M M m m 9 9 M M M M M M w e a a = = = = t y y u H H Q Q M M j j M M m m 9 9 ",
"M M M M # # 8 8 ( ( ` ' e w 7 7 t t 5 5 * * S D M M = = i i X.X.M M M M # # 8 8 ( ( ` ' e w 7 7 t t 5 5 * * S D M M = = i i X.X.",
"M M M M # # 8 8 ( ( ' ' e e 7 7 t t 5 5 * * D D M M = = i i X.X.m M M M # # 8 8 ( ( ' ' e e 7 7 t t 5 5 * * D D M M = = i i X.X.",
"n n . . e e .. .` ' M M d d ' ` ^ ^ m m y y 3 2 , ,     o.o.' ' n n . . e e .. .` ' M M d d ' ` ^ ^ m m y y 3 2 , ,     o.o.' ' ",
"n n . . e e  ...' ' M M d d ' ' ^ ^ m m y y 3 3 , ,     o.o.' ' n n . . e e  ...' ' M M d d ' ' ^ ^ m m y y 3 3 , ,     o.o.' ' ",
"G G e e ' ' [ { D D : : ' ' s s ....K K L L e e r t X.X.M M M M F G e e ' ' [ { D D : : ' ' s s ....K K L L e e r t X.X.M M M M ",
"G G e e ' ' { { S D ; : ' ' s s ....K K L L e e t t X.X.M M M M G G e e ' ' { { S D ; : ' ' s s ....K K L L e e t t X.X.M M M M ",
"e e ~ ~ c c m M M M % % ' ' I I M M M M A A = = y t e e U U V C e e ~ ~ c c m M M M % % ' ' I I M M M M A A = = y t e e U U V C ",
"e e ~ ~ c c m M M M % % ' ' I I M M M M A A = = y y e e U U C C e e ~ ~ c c m M M M % % ' ' I I M M M M A A = = y y e e U U C C ",
"e e e e E E n n f f * = M M N B L L M M = = 7 7 ) ) e e e e = = e e e e E E n n f f * = M M N B L L M M = = 7 7 ) ) e e e e = = ",
"e e e e E E n n f f = = M M N B L L M M = = 7 7 ) ) e e e e = = e e e e E E n n f f = = M M N B L L M M = = 7 7 ) ) e e e e = = ",
"' ' ' ' = = = = = = = = p p M M 1 1 & & ' ' E E M M M M e e e e ' ' ' ' = = = = = = = = p p M M 1 1 & & ' ' E E M M M M e e e e ",
"' ' ' ' = = = = = = = = i p M M 1 1 & & ' ' E E M M M M e e e e ' ' ' ' = = = = = = = = i p M M 1 1 & & ' ' E E M M M M e e e e ",
" . .b v g g | | ^ ^ } } e e = = p p O.O.! ! M M L L M M D F & & |  .b v g g | | ^ ^ } } e e = = p p O.O.! ! M M L L M M D F & & ",
" . .b b g g | | ^ ^ } } e e = = i p O.O.! ! M M K L M M F F & &  . .b b g g | | ^ ^ } } e e = = i p O.O.! ! M M K L M M F F & & ",
"l l F F < < W W C V c c n m e e e e e e M M K J G G P P > : * = l l F F < < W W C V c c n m e e e e e e M M K J G G P P > : * = ",
"l l F F < < W W C C c c m m e e e e e e M M K K G G P P > > = = l l F F < < W W C C c c m m e e e e e e M M K K G G P P > > = = ",
"x z l k j j 6 6 O O o o = = e e _ _ B B 0 0 r t 1 1 3 4 > > i i z z l k j j 6 6 O O o o = = e e _ _ B B 0 0 r t 1 1 3 4 > > i i ",
"x x l l j j 6 6 O O o o = = e e _ _ B B 0 0 t t 1 1 4 4 > > i i x x l l j j 6 6 O O o o = = e e _ _ B B 0 0 t t 1 1 4 4 > > i i "
};
