/* XPM */
static char *out[] = {
/* columns rows colors chars-per-pixel */
"64 64 184 2 ",
"   c #543225",
".  c #5D3827",
"X  c #5B3429",
"o  c #5C3D2D",
"O  c #4C3B33",
"+  c #543D32",
"@  c #5E3F33",
"#  c #613B27",
"$  c #61372A",
"%  c #623C2C",
"&  c #6C3E2C",
"*  c #653E31",
"=  c #4E453D",
"-  c #564537",
";  c #5A4435",
":  c #52463E",
">  c #5A453E",
",  c #68422E",
"<  c #69492F",
"1  c #72472F",
"2  c #654335",
"3  c #6B4432",
"4  c #664935",
"5  c #6C4A36",
"6  c #664B3C",
"7  c #6E4E3B",
"8  c #734B35",
"9  c #794F36",
"0  c #754E3B",
"q  c #794F3A",
"w  c #6D513D",
"e  c #72523D",
"r  c #7B543C",
"t  c #4F4B44",
"y  c #524A44",
"u  c #5B4E40",
"i  c #524F49",
"p  c #4B514A",
"a  c #515046",
"s  c #5E5446",
"d  c #52534B",
"f  c #5B544D",
"g  c #575A4C",
"h  c #5A5A4D",
"j  c #535251",
"k  c #535A53",
"l  c #5A5D55",
"z  c #5A5F59",
"x  c #634F42",
"c  c #665443",
"v  c #6D5544",
"b  c #6C5845",
"n  c #655248",
"m  c #625B4F",
"M  c #745641",
"N  c #7B5440",
"B  c #765A45",
"V  c #7B5B44",
"C  c #71574A",
"Z  c #7B5E4A",
"A  c #635B52",
"S  c #725E52",
"D  c #55635D",
"F  c #5B645C",
"G  c #5B695F",
"H  c #70604D",
"J  c #7E614C",
"K  c #6D6256",
"L  c #61645B",
"P  c #69675D",
"I  c #61685D",
"U  c #7E6351",
"Y  c #7A6A57",
"T  c #706B5E",
"R  c #576760",
"E  c #5C6661",
"W  c #5E6A64",
"Q  c #606761",
"!  c #626D64",
"~  c #6A6E64",
"^  c #636E69",
"/  c #657166",
"(  c #6A7266",
")  c #65726A",
"_  c #6B756B",
"`  c #6D796E",
"'  c #737365",
"]  c #72766A",
"[  c #787769",
"{  c #737A6D",
"}  c #7B7C6D",
"|  c #6A7770",
" . c #6D7A71",
".. c #707771",
"X. c #737D72",
"o. c #7B7E71",
"O. c #81553B",
"+. c #81583C",
"@. c #845C43",
"#. c #835A48",
"$. c #816044",
"%. c #81614D",
"&. c #8B624A",
"*. c #88694E",
"=. c #816552",
"-. c #836A54",
";. c #856D5B",
":. c #886E5B",
">. c #86715E",
",. c #8A735D",
"<. c #94715C",
"1. c #8B7562",
"2. c #8E7965",
"3. c #817B6C",
"4. c #8F7B68",
"5. c #927B65",
"6. c #997E64",
"7. c #937E6B",
"8. c #817E72",
"9. c #7D806E",
"0. c #758175",
"q. c #7C8273",
"w. c #768279",
"e. c #788279",
"r. c #83816F",
"t. c #88826E",
"y. c #958165",
"u. c #9A8266",
"i. c #96816E",
"p. c #9B856C",
"a. c #9E896D",
"s. c #848373",
"d. c #8B8573",
"f. c #868976",
"g. c #8D8A76",
"h. c #828678",
"j. c #8C8A79",
"k. c #968370",
"l. c #998572",
"z. c #948B75",
"x. c #9D8A74",
"c. c #958D7A",
"v. c #9D8D79",
"b. c #9C9176",
"n. c #95917B",
"m. c #9C937B",
"M. c #9F987C",
"N. c #A1896E",
"B. c #A28D74",
"V. c #A18F78",
"C. c #A49176",
"Z. c #A99276",
"A. c #A5937B",
"S. c #A8967D",
"D. c #A59A7E",
"F. c #AB997E",
"G. c #B19B7D",
"H. c #9B9681",
"J. c #9C9882",
"K. c #A49581",
"L. c #A99780",
"P. c #A49B81",
"I. c #AC9C82",
"U. c #A89F89",
"Y. c #B19F84",
"T. c #A7A081",
"R. c #ADA285",
"E. c #AEA489",
"W. c #B3A385",
"Q. c #B8A787",
"!. c #B8A887",
"~. c #B6A589",
"^. c #B8A78A",
"/. c #B7A98A",
"(. c #BCAB8C",
"). c #BFB08F",
"_. c #B6AA90",
"`. c #BFAE91",
"'. c #BFB091",
"]. c #C0AE8E",
"[. c #C1B18F",
"{. c #C0AF91",
"}. c #C2B292",
"|. c #C6B699",
/* pixels */
"^.B.6.6.p.p.N.p.p.p.l.p.N.a.N.a.N.u.a.a.p.p.B.p.p.N.p.p.N.p.p.Z.p.B.p.p.p.p.a.p.a.p.N.a.p.a.N.N.a.p.a.p.p.p.p.a.p.a.p.p.p.u.Z.(.",
"6.7 w >.5.i.2.y.i.y.1.5.7.i.y.2.7.7.6.>.1.y.k.y.i.i.i.y.7.7.,.1.y.,.7.y.7.i.5.y.i.i.1.7.7.7.7.7.7.y.y.7.i.i.1.7.i.5.7.U Z M 5 Z.",
"u.B %.1.5.k.i.i.i.k.i.i.l.l.i.k.p.k.k.k.7.7.i.i.k.7.k.i.l.7.7.7.i.l.i.i.k.l.i.k.k.i.k.i.i.i.p.i.l.i.k.k.k.k.7.2.7.i.7.,.-.=.0 y.",
"u.J >.2.i.i.i.i.k.i.i.k.k.i.k.i.7.l.i.i.i.7.7.7.7.7.i.l.l.7.i.i.i.i.i.i.k.i.i.i.i.k.i.i.i.i.k.k.7.i.k.k.l.i.i.i.7.i.i.5.2.J V y.",
"u.%.1.k.x.k.l.p.x.p.p.p.i.l.i.i.k.l.l.l.p.k.p.p.l.i.l.V.i.i.7.l.i.6.=.#.2.l.i.i.k.l.k.l.p.k.i.p.l.l.l.l.p.B.k.v.x.x.x.x.4.;.B u.",
"p.;.i.7.V.l.W.I.A.W.R.S.C.z.3.x.x.Y.A.Y.m.W.A.5.Z.A.S.Y.F.Y.v.Y.A.7.c * 1.(.F.C.C.W.S.W.S.S.L.F.I.Y.~.Z.V.l.C.B.I.C.I.C.7.1.;.p.",
"p.i.i.7.A.S.[.x.P.}.(.g.{ | ` } R.}.}.}.{.G.5.C 6.Y.{.{.].[.}.].#.O.1 1 @.*.].}.}.|.}.}.}.`.).[.].{.}.].W.s.8.s.8.^.Y.l.7.i.7.p.",
"p.i.i.i.v.F.(.-.;.!.D.! _ `  .( { q.[.}.~.A.2.w *.*.B.{.[.}.{.%.6 d L j m r &.}.}.}.}.}.}.}.}.}.}.}.}.[.z._ ..X.X.s.P.x.i.i.2.a.",
"l.7.k.7.S.C.;.U v ,.D.r.! ` ` ( ! m.(.(.Y.B.,.M e v >.V./.(.^.% m h - : D f N B ~.^.^.(.).^.(.(.(.!.(.^.I.] / ) ( v.E.L.i.i.i.a.",
"N.7.i.i.x.:.B H v M C.W.b.( ! _ ~.}.}.}.Q.I.v.5.1.k.A.I.{.}.a.. K c & 3 L g 0 4 W.W.(.}.}.}.}.}.[.}.}.}.}.'.~.W.}.`.K.C.i.i.i.p.",
"p.7.i.i.A.S Z B V $.C.[./.I.n.W.}.}.}.}.}.}.G.W.I.!.}.'.}.).Y , s g + x F D X 2 (.{.[.}.}.}.}.}.}.[.}.[.}.[.}.}.(.^.v.C.i.i.7.p.",
"V.7.k.k.V.Z 2 V e V (.[.}.{.`.g.P./.~./.(.i.Z (.(.d.d.(.(._ D   r i n A E O * f 9.g.P.].).(.).(.m.9.{ n.(.(.[.}.}.}.S.S.k.i.i.N.",
"N.7.l.l.l.i.,.U ,.[.}.}.}.}.R._ _ | { (.[.Q.e i.g.` ..q.{ / W k 2 9 r 3 9 3 - Q _ ` ] } (.).~.q.` ` ` ` } r.^.(.(.(.C.v.k.i.i.p.",
"l.l.l.7.l.S.W.W.Q.}.}.}.}./.s._ ` X.` ) n.Y   u ` X.X.X.) )  .R t @ 2 @ + : z | ) ` X.X.( 9.9.( ~ ! _ / ` ! E.}.}.'.I.W.p.i.i.a.",
"V.7.7.l.C.I.}.}.[.[.[.(.P.X._ ) ) | ` { / (   - ) ..! X.X._ ) ` ! D k k k Q _ _ W / _ ` 0.q.9.{ _ | / W E W P.}.}.'.S.S.i.i.i.p.",
"N.1.l.7.x.S.(.(.(.(.(.W.! ) ^ ) ^ ! ^ ) _ T # +.w b f !  .X._ ) / / W ^ ^ | _ _ ] d._ ! ` ` ` ` X.) W W j.T.(.^.(.(.A.P.i.p.i.a.",
"p.7.l.7.L.L.}.|.|.}.[.(.n.[ ! _ } ! W ! W f   r     @.y W / / W ! _ 0.0./ ! ) 9.(./.L.z.s.{ _ ( ^ E s.U.}.}.}.}.}.}.K.V.i.i.i.B.",
"l.7.7.7.7.Y.`.(.(.(.^.(.I.S.d.c.R.W.I.r.D p   8 9 3 , < D W _ E _ | _ _ ! W s.W.(.(.}.}.(.I.K.c.c.K.Q.(.(.(.(.(.^.^.A.L.i.i.l.a.",
"N.7.l.l.A.I.{.{.}.}.}.}.}.}.}.}.[.}.}.Q.o.E t o 3 r +.; G _ G z ! ! ! ! ( D.}.}.}.}.}.[.].Y.}.}.}.}.[.}.}.|.}.}.}.}.S.S.i.i.2.a.",
"l.7.7.7.V.A.(.^.^.^.^./.^.!.!.!.!.Q.Q.Q.P.} k i : : = g _ r.W.g.d.[ j.J.(.}.}.}.}.}.}.[.(.2 B.}.}.}.}.}.|.}.}.}.}.}.S.C.i.i.5.p.",
"N.k.i.i.V.Y.{.}.[.}.}.}.}.}.[.}.[.}.[.|.`./.J.{ ( ( ( ] m.).}.}.{.^.[.[.^.^.^.}.[.(.[.{.Q., 8 Q.].].(.(.`.(.].(.(.^.V.Y.i.i.-.p.",
"a.1.i.i.l.Y.^.(.^.(.(.(.^.(.^.^.^.^.^.^.(.^.(.}.[.[.[.Q.[.}.}.}.}.}.^.}.}.[.}.[.(.[.B.. % % . 3 6.(.[.}.}.}.}.{.[.[.L.F.i.i.y.a.",
"a.l.i.i.C.S.}.}.}.|.'.}.}.}.}.}.}.].[.].}.}.}.}.|.|.}.}.[.}.}.}.}.(.^.}.[.].(.(.[.r.a 2 r e J @.S K.W.Q.^.^.~.~.W.~.v.v.i.7.t.N.",
"l.k.k.i.l.W.}.}.}.(.I.W.~.(.}.}.[.F.x.a.Q.}.}.}.}.}.}.}.}.}.}.}.|.}.].].Q.[.[.}.[.R.( d : : : y ~ I.(.}.}.}.{.}.|.}.S.Y.i.i.y.a.",
"p.i.k.x.V.Y.(.}.}.].(.(.D.}.}.(.(.(.!.W.~.^.^.(.^.!.Q.Q.Q.Q.!.!.!.Q.!.Q.!.Q.Q.Q.G.W.D.c.c.c.c.J.~.{.{.}.{.`.~.{.}.[.^.Q.i.i.i.p.",
"p.i.i.l.V.Y.].[.].[.{.' _ h.{ E.[.}.}.}.}.}.}.}.}.}.}.}.}.[.}.[.}.}.}.}.}.}.}.[.}.|.}.}.}.}.`.(.`.(.(.`.(.(.^.~.(.}.L.G.i.k.k.a.",
"N.k.i.i.L.I.].(.(.^.d.( ! _ ` f.^.(.(.(.(.(.(.(.(.(.(.(.(.].(.(.!.(.(.(.^.(.~.~.(.}.}.}.}.}.}.}.}.}.}.}.}.}.^.{.}.[.S.m.k.l.7.N.",
"p.7.k.l.V.Y.{.}.}.(.K.[ ! { X.` f.}.}.}.|.}.{.}.}.}.}.}.}.}.^.}.}.}.[.}.|.I.A.i.A.(.(.^.(.(.(.(.^.`.(.^.`.(.(.`.^.^.C.A.x.i.,.y.",
"p.7.l.l.K.V.(.}.}.}.^.K.I W _ ` _ } ~.}.}.}.|.'.}.}.|.|.(.^.Y.(.}.}.}.}.}.}.(.!.~.`.{.}.}.}.}.{.`.{.[.|.{.}.}.}.}.{.A.S.k.k.2.l.",
"B.1.7.7.7.K.{.{.}.[.[.n.F l d ! | _ o.(.|.}.}.}.}.}.}.{.^.~.(.}.[.}.}.}.}.}.[.}.}.}.`.^.^.^.^.^.~.~.~.Q.^.^.^.^.^.~.B.v.7.7.:.p.",
"p.7.7.l.K.V.^.^.(.(.^.q.G k = h ~ e. .h.(.(.(.(.(.(.(.(.^.].(.^.(.(.(.(.(.(.(./.(.`.}.}.}.}.}.}.}.}.}.}.{.}.}.}.}.}.K.V.i.7.i.a.",
"N.7.l.7.l.V.{.|.}.}.'.( ! / f > P | _ ! ~.}.}.}.}.}.{.}.}.}.}.I.x.p.R.}.}.}.}.^.} n.(.(.(.(.(.(.`.(.(.(.^.`.(.`.`.(.C.S.i.i.7.x.",
"B.4.i.i.S.S.}.}.}.D.{ ) / X./ G ` W / /.}.}.}.|.}.}.}.}.}.}.}.}.(./.(.}.}.}.}.e q Z.{.{.{.}.(.}.}.}.{.}.{.}.{.}.}.}.S.S.i.i.1.a.",
"p.y.i.A.C.F.^.^.W.d.G / | W ) / t.W.^.}.}.}.|.}.|.}.(.(.}.}.}.}.}.}.}.}.}.}.}.<.0 $ N.}.}.].~.~.}.}.{.|.}.}.^.(.}.}.K.v.k.7.7.Z.",
"p.:.i.i.v.F.}.}.'./.n.! ) W G W b.W.^.^./.^./.~.~.~.^.!.(./.!.~.^.^.~.^.!.m.7 3 X =.B I.Y.^.W.Y.^.^.^.^.~.L.~.~.~.Q.v.C.i.i.1.p.",
"p.7.i.i.x.S.[.}.}.}.^.m.{ ) q.W.}.}.}.}.}.}.}.}.}.}.}.[.}.}.}.}.}.}.}.}.E.! ; w o 0 2 T }.}.}.}.}.}.}.}.^.^.}.}.}.}.S.A.z.i.4.a.",
"Z.1.k.k.K.A.}.}.}.}.}.(.~./.}.}.[.}.[.}.}.}.}.}.}.}.}.|.}.[.}.[.[.[.}.}.h._ l i y t p { I.~.W.~.~.W.Y.W.~.W.Q.~.Q.W.v.L.k.i.7.p.",
"x.:.k.k.l.x.L.I.R.W.E.(.(.'.(.(.(.(.(.(.(.).(.(.^.(.}.(.).(.(.).(.).(.(.R.} ] ( ( _ ] ~.].{.}.{.}.`.|.{.}.{.}.}.[.}.L.L.x.7.y.x.",
"N.5.7.k.k.I.[.).).}.I.T.}.}.}.'.[.E.b.R.'.}.}.}.}.|.}.}.}.'.E.n.D.}.}.}.}.[.}.H.m.J.}.}.}.}.{.(.^.`.^.~.~.~.~.W.~.~.B.V.i.i.7.B.",
"l.k.k.7.x.W.}.}.}.(.9.! n.}.}./.q.! 0./ j.~.}.}.[.}.}.}.(.q.W ! q.R.[.}.}.}.}.}.|.}.}.}.}.}.}.^.}.Y.v.V.L.^.}.}.}.}.F.L.k.i.7.B.",
"l.7.k.7.L.Y.].{.(.z.W } W./.g.X.0. .0.` 0._ n.).).).[.(.( ( / / _ 9.W.~.(.^.(.{.^.^.^.^.^.^.(.(.W.B.A.S.S.A.~.^.^.^.A.L.k.i.i.B.",
"N.7.l.7.V.I.}.{.}.W.d.F.}.J.E | ` ` W W ` ` _ (.[.[.[.b.! ` 0.) G ) q.}.}.}.{.{.{.|.{.|.}.{.}.{.'.{.}.{.(.^.[.}.{.}.S.l.i.i.l.N.",
"N.7.k.k.B.L.{.{.}.}.^.(.J._ ) ) ! _  .` _ X.` } (.[.D.( ` 0.W G r.g.c.[.}.}.}.}.}.}.}.}.].}.}.}.}.}.}.}.}.|.}.}.{.}.W.L.l.i.i.p.",
"N.7.k.7.l.L.(.].^.(.~.~.' / _ ) W W | 0.| / ..` ! W / ` 0.0.D F 9.b.F.W.^.^.^.^.~.Y.~.Y.^.Q.^.Q.~.Q.W.~.~.W.W.R.S.W.C.A.i.i.-.B.",
"N.7.l.7.L.F.{.}.}.}.[.x.D |  .) W W | w. ._ _ ! _  . ...) ! ( D _ / P.|.}.}.}.}.^.{.{.}.W.(.].}.}.}.}.}.}.}.{.s.M.(.A.k.i.i.7.p.",
"N.7.l.l.k.V.Q.Q.W.Q.Y.] G _ 0.! W W |  . . . ._ ) ) ! W ` ! [ / E 8.I.~.~.~.W.W.W.~.~.W.Y.~.~.W.W.W.~.~.~.^.3._ W [ c.S.k.i.i.a.",
"B.7.l.7.A.L.{.{.}.}.^.] E _ | ) W W W ) _ |  .| / W ) ` W W / t.P.~.}.}.}.}.}.}.}.{.}.}.}.}.}.}.}.}.{.{.(.c.! } P.~.I.D.i.i.i.a.",
"7.1.7.7.l.L.(.(.(.(.(.j.! _ |  .W W / W W  .) _ ) ! W | ) _ _ r.(.(.(.(.^.(.(.(.(.(.(.(.(.(.(.(.}.(.(.(.~.} _ f./.~.A.x.k.y.2.p.",
"7.1.7.7.l.Y.}.}.}.|.}.}.] W ..X.| W W W W W ! w.W ) _ E ( ! s.Q.}.|.{.|.|.}.}.|.|.}.}.(.!.|.}.|.}.}.|.}.(.m.' ( D.L.S.C.i.i.i.a.",
"B.7.7.7.x.L.}.}.[.[.}.[.g.! ` 0.) ^ W W W ^  ...! ^ { I.m.~.^.}.}.}.}.{.{.}.|.{.{.}.}.}.[.[.}.}.}.}.}.[.{.(.d.( ( n.Q.x.k.i.k.p.",
"7.V.V.7.V.L.`.(.(.(.(.(.A._ W _ ^ W W W W | .. .E ! f.~.Q.(.`.(.(.].{.(.(.{.(.`.`.`.~.F.].].(.(.(.(.(.(.`.^.R.} ! z.D.A.k.l.>.a.",
"B.7.7.7.L.F.}.{.m.).}.}.(.j.! E | ) W ^ | | _ ! ( P.}.}.|.}.}.}.}.}.}.}.}.}.}.}.{.{.}.].}.[.[.(.(.(.}.}.}.}.^.d.I d.A.C.k.p.4.a.",
"7.7.7.7.K.L.`.r./ m.[.[.}.).F.n.[ W ^ ( W ! / q./.[.].}.(.(.(.`.{.].(.].(.(.].].].].(.{.(.].(.^.F.S.(.{.(.~.! / ! _ ] k.v.7.7.a.",
"6.7.7.B.L.L.^.x.( m.(.|.}.}.}.}.'.I.c.} 8.3.W.}.}.}.}.}.}.|.}.}.{.}.}.}.}.}.}.}.}.}.|.}.}.}.}.}.}.[.}.}.}.R.{ E ! Q d.m.C.i.7.a.",
"B.2.7.7.L.L.Y.8.{ { T.(.^././.!.Q.^.Q.I.S./.(.^.^.!./.~.^.~.^.(.~.(.^.^.^.^.^.^.^.^.^.~.Q.Q.~.Q.!.Q.Q.~.(.~.L.d.3.T.K.l.L.i.7.p.",
"7.7.7.7.7.Z.L._ / _ S.}.}.}.'.}.}.}.}.}.}.}.}.}.}.}.}.[.}.}.}.}.}.}.{.].}.{.{.}.{.}.}.}.}.{.{.[.[.}.`.`.{.{.'.(.}.'.x.C.p.i.7.a.",
"p.k.7.k.l.S.~.l.o.c.`.(.`.`.^.(._.(.(.].(.].(.{.(.].(.].(.`.(.`.(.(.(.(.(.(.(.(.(.(.(.].(.{.(.].(.(.(.(.(.^.^.~.K.W.A.a.i.i.t.N.",
"p.7.k.7.v.I.{.{.}.}.}.{.`.{.|.{.}.}.{.{.{.{.}.].}.}.{.{.{.}.{.{.}.}.}.}.[.}.}.[.{.{.{.}.{.{.|.[.}.}.}.}.}.W.J.[ { d.k.v.i.i.5.B.",
"6.1.7.7.A.L.V.^.Y.^.Y.A.^.~.Y.Y.L.Y.Y.^.].Y.V.Y.^.^.F.^.Y.A.Q.(.W.L.S.F.S.Y.Z.I.Y.^.^.Y.Q.{.I.S.L.D.L.S.R.S.( G W ~ c.B.i.k.i.a.",
"7.-.:.7.V.x.K.N.i.B.V.i.l.V.x.l.7.B.l.7.l.k.l.V.N.B.l.l.k.k.x.x.p.C.v.A.V.A.V.C.B.V.V.A.V.V.l.S.B.C.l.C.A.A.l.c.z.x.v.p.7.2.J u.",
"p.%.1.6.1.2.7.7.7.7.7.7.l.7.l.7.l.l.7.l.l.7.l.7.7.k.l.l.i.i.7.i.7.i.k.l.k.k.i.k.7.7.l.7.k.i.k.k.i.k.i.l.i.V.i.V.x.x.i.i.:.=.e y.",
"6.=.:.-.<.4.7.7.7.7.7.7.7.l.7.l.7.7.l.7.7.l.7.l.7.7.l.7.i.i.7.7.l.k.7.7.k.i.p.i.5.7.7.l.k.k.i.k.k.i.l.i.i.i.7.7.i.7.i.<.U J w u.",
"5.M J =.:.7.7.7.7.4.1.2.7.7.7.l.7.l.7.7.7.7.7.7.7.5.1.7.7.7.,.5.7.7.1.7.7.7.7.7.2.l.7.7.7.7.y.7.:.k.5.7.7.7.1.1.,.,.:.%.e 5 4 N.",
"(.B.6.p.N.7.N.N.N.6.N.N.N.p.N.N.N.N.6.N.7.N.6.N.p.N.N.N.N.p.p.N.p.N.a.p.B.p.p.N.B.N.N.l.N.N.p.p.B.B.B.p.a.p.a.p.u.y.u.y.u.6.Z.^."
};
