/* XPM */
static char * C:\Users\Rin_K\Documents\marco_oscuro2_xpm[] = {
"64 64 349 2",
"  	c None",
". 	c #140A07",
"+ 	c #150B07",
"@ 	c #170C08",
"# 	c #190C08",
"$ 	c #160C08",
"% 	c #180C08",
"& 	c #190D08",
"* 	c #190D09",
"= 	c #170D09",
"- 	c #160C09",
"; 	c #150C09",
"> 	c #180D09",
", 	c #190E09",
"' 	c #160D0A",
") 	c #170D0A",
"! 	c #160D09",
"~ 	c #140C09",
"{ 	c #140C0A",
"] 	c #120C09",
"^ 	c #110B09",
"/ 	c #130B09",
"( 	c #120B09",
"_ 	c #130B08",
": 	c #150C08",
"< 	c #180D08",
"[ 	c #100A08",
"} 	c #110A08",
"| 	c #1A0D08",
"1 	c #170C09",
"2 	c #190E0A",
"3 	c #180E0A",
"4 	c #150D0A",
"5 	c #130C09",
"6 	c #140B08",
"7 	c #120A08",
"8 	c #0F0A08",
"9 	c #140B07",
"0 	c #150B08",
"a 	c #1A0E09",
"b 	c #180D0A",
"c 	c #1A0E0A",
"d 	c #1B0E09",
"e 	c #120B08",
"f 	c #130A08",
"g 	c #1A0F0A",
"h 	c #1B0F0A",
"i 	c #1C0E09",
"j 	c #110B08",
"k 	c #160B08",
"l 	c #150D09",
"m 	c #1D0F0A",
"n 	c #1D0F09",
"o 	c #140C08",
"p 	c #140B09",
"q 	c #1A0D09",
"r 	c #140D0A",
"s 	c #0F0A09",
"t 	c #1B0E0A",
"u 	c #1C0F0A",
"v 	c #170E0A",
"w 	c #1E100A",
"x 	c #1C0F09",
"y 	c #160E0A",
"z 	c #E69BD9",
"A 	c #E59BD9",
"B 	c #E59AD8",
"C 	c #E59BDA",
"D 	c #E59AD9",
"E 	c #E79CD9",
"F 	c #A4D1DC",
"G 	c #E59CDA",
"H 	c #E49BDA",
"I 	c #E69AD9",
"J 	c #A1D0DC",
"K 	c #B0D1DF",
"L 	c #E2A0DE",
"M 	c #E2A2DE",
"N 	c #E69CDA",
"O 	c #A1D1DC",
"P 	c #A8D1DE",
"Q 	c #D6B5E2",
"R 	c #E0A3E1",
"S 	c #E0A5E0",
"T 	c #E79CDA",
"U 	c #A0D0DC",
"V 	c #A2D1DD",
"W 	c #C9C5E3",
"X 	c #DFA7E3",
"Y 	c #E0A8E2",
"Z 	c #E69DDA",
"` 	c #E79DDA",
" .	c #593736",
"..	c #5A3B37",
"+.	c #5B413A",
"@.	c #58433C",
"#.	c #4C3A31",
"$.	c #463829",
"%.	c #1F170E",
"&.	c #A4D1DF",
"*.	c #A2D1DE",
"=.	c #A3D1DF",
"-.	c #BED1E5",
";.	c #DFA8E4",
">.	c #E0A9E3",
",.	c #E7A0DC",
"'.	c #E89EDB",
").	c #E9A2DC",
"!.	c #5D3B3C",
"~.	c #583934",
"{.	c #584039",
"].	c #59463E",
"^.	c #43342D",
"/.	c #443927",
"(.	c #A6D2E1",
"_.	c #A7D2E2",
":.	c #A5D2E1",
"<.	c #A8D1E1",
"[.	c #BED3E7",
"}.	c #DFAAE5",
"|.	c #E4A1DD",
"1.	c #E8A2DD",
"2.	c #E9A1DC",
"3.	c #EDA9E0",
"4.	c #E8A1DC",
"5.	c #110812",
"6.	c #131114",
"7.	c #100E10",
"8.	c #2B2222",
"9.	c #6A4249",
"0.	c #6B4448",
"a.	c #664440",
"b.	c #614A42",
"c.	c #514338",
"d.	c #43372F",
"e.	c #494027",
"f.	c #A3D1DE",
"g.	c #A9D3E3",
"h.	c #ACD4E7",
"i.	c #A9D3E4",
"j.	c #A9D1E4",
"k.	c #C8C8E6",
"l.	c #E1A7E0",
"m.	c #E8A0DC",
"n.	c #EBA5DE",
"o.	c #EDAAE0",
"p.	c #EEACE1",
"q.	c #E89FDB",
"r.	c #1A081B",
"s.	c #0D0A0E",
"t.	c #0B090C",
"u.	c #635F64",
"v.	c #674F50",
"w.	c #6F4548",
"x.	c #62453E",
"y.	c #5E4E3D",
"z.	c #494333",
"A.	c #4B4231",
"B.	c #A6D2DF",
"C.	c #B1D6EB",
"D.	c #A9D4E4",
"E.	c #AAD2E4",
"F.	c #D7B9E8",
"G.	c #DEB0E4",
"H.	c #E79EDB",
"I.	c #EEADE3",
"J.	c #1F0B1E",
"K.	c #0C0B0D",
"L.	c #050506",
"M.	c #6D6865",
"N.	c #695A52",
"O.	c #734F49",
"P.	c #685040",
"Q.	c #585538",
"R.	c #474634",
"S.	c #48402D",
"T.	c #170D0B",
"U.	c #AED6E7",
"V.	c #AED5E8",
"W.	c #ACD2E4",
"X.	c #D3BEEA",
"Y.	c #C7C6E7",
"Z.	c #EDAAE1",
"`.	c #ECAAE1",
" +	c #EAA4DE",
".+	c #491043",
"++	c #220B21",
"@+	c #0D0C0E",
"#+	c #09090B",
"$+	c #030304",
"%+	c #B16BA3",
"&+	c #64795C",
"*+	c #675E4C",
"=+	c #69774D",
"-+	c #6A5B3C",
";+	c #5E5435",
">+	c #4C5A30",
",+	c #484633",
"'+	c #A5D2DF",
")+	c #B1D7EB",
"!+	c #A6D1E0",
"~+	c #CBC1E8",
"{+	c #BCCDE7",
"]+	c #E49FDB",
"^+	c #E9A2DD",
"/+	c #EDABE1",
"(+	c #E79FDB",
"_+	c #4F1148",
":+	c #230C22",
"<+	c #0E0C0F",
"[+	c #0C0C0D",
"}+	c #060506",
"|+	c #030203",
"1+	c #DE8FCB",
"2+	c #E196CF",
"3+	c #DB8FCB",
"4+	c #6E8F50",
"5+	c #585220",
"6+	c #84C46D",
"7+	c #728F4C",
"8+	c #59662B",
"9+	c #496A2F",
"0+	c #4A4C35",
"a+	c #ABD5E4",
"b+	c #A9D3E2",
"c+	c #A6BDD7",
"d+	c #CEC0E6",
"e+	c #E4A2DD",
"f+	c #E9A3DE",
"g+	c #EBA6DE",
"h+	c #4E1248",
"i+	c #1E0A1C",
"j+	c #0C0A0D",
"k+	c #09090A",
"l+	c #070607",
"m+	c #050305",
"n+	c #E59ED3",
"o+	c #ECABDB",
"p+	c #EAA9DB",
"q+	c #D89DD1",
"r+	c #88C581",
"s+	c #86C47A",
"t+	c #84C370",
"u+	c #72AA54",
"v+	c #548326",
"w+	c #4F7239",
"x+	c #4C4E32",
"y+	c #5892A5",
"z+	c #6BA5B7",
"A+	c #629AB0",
"B+	c #637EA3",
"C+	c #857FAD",
"D+	c #BC79B8",
"E+	c #C478B8",
"F+	c #CD80BF",
"G+	c #DC8FCD",
"H+	c #6F1850",
"I+	c #55193F",
"J+	c #341721",
"K+	c #291515",
"L+	c #21130F",
"M+	c #A19B75",
"N+	c #A39D79",
"O+	c #1F110D",
"P+	c #F2B5E1",
"Q+	c #F8C0EA",
"R+	c #F8C3ED",
"S+	c #D1A2E2",
"T+	c #A18DDA",
"U+	c #88B6A4",
"V+	c #89C387",
"W+	c #86C37F",
"X+	c #85C474",
"Y+	c #7DBE63",
"Z+	c #55952E",
"`+	c #547046",
" @	c #101818",
".@	c #083841",
"+@	c #0B4D5D",
"@@	c #184D61",
"#@	c #324764",
"$@	c #404267",
"%@	c #592F62",
"&@	c #5A2054",
"*@	c #5C1D54",
"=@	c #641D5A",
"-@	c #602756",
";@	c #4D0E3C",
">@	c #50133F",
",@	c #300E24",
"'@	c #220E15",
")@	c #1B0C0E",
"!@	c #160B09",
"~@	c #433E2A",
"{@	c #8B8666",
"]@	c #190F0A",
"^@	c #0F0708",
"/@	c #B6B4F9",
"(@	c #9DB0FC",
"_@	c #8CBBB6",
":@	c #8AC38D",
"<@	c #86C382",
"[@	c #85C478",
"}@	c #83C569",
"|@	c #5C9F3E",
"1@	c #536A49",
"2@	c #130D09",
"3@	c #130E0A",
"4@	c #0F0C09",
"5@	c #0E0B08",
"6@	c #0F0A07",
"7@	c #1E0B16",
"8@	c #340F2F",
"9@	c #2F0E2A",
"0@	c #250A21",
"a@	c #1B0716",
"b@	c #10060B",
"c@	c #0C0607",
"d@	c #0A0606",
"e@	c #0A0605",
"f@	c #191404",
"g@	c #191504",
"h@	c #0C0705",
"i@	c #0B0606",
"j@	c #0D0707",
"k@	c #110908",
"l@	c #946B89",
"m@	c #9F7998",
"n@	c #7274A4",
"o@	c #6B76A7",
"p@	c #597979",
"q@	c #587E5E",
"r@	c #567F4D",
"s@	c #547F48",
"t@	c #54813E",
"u@	c #30501F",
"v@	c #222718",
"w@	c #1D0E09",
"x@	c #0F0907",
"y@	c #0E0907",
"z@	c #110A07",
"A@	c #0F0908",
"B@	c #1B0D08",
"C@	c #180C07",
"D@	c #170B07",
"E@	c #100B09",
"F@	c #0E0B09",
"G@	c #1C0E08",
"H@	c #190C07",
". + @ # $ @ @ @ % & * = - = * * = ; ; > = = > , > * > > = = ' ) ! = ) = ) ' ; ~ { = - ; ] ^ ; - - / ( ( _ : < @ : _ [ } [ [ [ _ ",
"+ + @ | : % @ $ 1 = * 1 ~ ; * > = > = = > , , ) 2 > 3 > 2 3 ) 2 3 2 3 ' ' ' ' ; ' ) ; 4 5 5 ~ - = ; ~ / ~ - ; - : 6 [ [ } 7 8 _ ",
"9 0 _ % @ : ; ; ~ = * > = > a > = ! 4 = 2 2 b 3 3 b b 2 3 3 3 2 2 2 c > 2 c 2 , , ! ! ~ ~ ~ ! , d * 5 ~ ; = - - : e 8 [ e e 8 6 ",
"f 6 _ @ $ : ( / = a > = a d = 5 ! ) 4 c 2 b ) 3 ) 2 3 ' 3 2 c c g g c c c c h c 2 ' ) ' 4 4 = i a > ~ = ; ; ~ ; ~ / j ( $ e [ $ ",
"k 6 _ % = 1 / ~ = , * ; = , 3 l 4 ' c c 3 2 2 4 4 2 3 ) h h h c 2 c h h h m c 2 3 2 3 ) ) b n n d * > ! ~ 5 ~ 5 ^ ^ ~ : @ : $ @ ",
"$ 0 _ : > > ; ; =                                                                                             ; ~ ~ = > > $ : @ ",
"@ 0 : ; > = _                                                                                                     e 5 - - = ; @ ",
"% $ : o > -                                                                                                         ^ = = = - < ",
"% $ < - >                                                                                                             ! - p ; - ",
"% < 1 > =                                                                                                             ; ] ; - ; ",
"< & > > =                                                                                                             5 ; = - ; ",
"$ > q > =                                                                                                             ; = ! = ; ",
": - * a *                                                                                                             l > > ~ ; ",
"_ ; > , d                                                                                                             = = ! ; - ",
"; ~ = - =                                                                                                             > l ! > , ",
"; - ; ; 5                                                                                                             = r ! > d ",
"( ~ > ! l                                                                                                             4 ' ! , > ",
"s ( > * !                                                                                                             4 b ) = = ",
"~ ; ! = =                                                                                                             b 2 = ! = ",
"- ! ! ! =                                                                                                             a ' l = = ",
"1 = ! ) l                                                                                                             ) r l > ; ",
"= = a a )                                                                                                             4 ' ' ' ; ",
"= ~ ! > ,                                                                                                             4 ' ) a ! ",
"= ~ ! c c                                                                                                             ) 3 t 2 = ",
"; ! a h ,                                                                                                             2 3 ) 2 ) ",
"! > a c '                                                                                                             c 3 3 4 ~ ",
"! a c 2 )                                                                                                             3 u b = { ",
"> d 2 4 '                                                                                                             2 2 ) 2 ' ",
"a > 3 3 3                                                                                                             2 3 3 b ! ",
"a 2 ' ' '                                                                                                             2 4 3 ) 3 ",
"* 2 ' 3 2                                                                                                             3 ' 3 b ) ",
"> ) r ' 3                                                                                                             c 2 ) c = ",
"* 2 r r 2                                                                                                             c 2 b c b ",
", 2 ' 4 )                                                                                                             u 2 b > ! ",
"a 2 c v 2                                                                                                             w 2 2 > b ",
"a t 2 c c                                                                                                             u m a b 2 ",
"d u x u 2                                                                                                             t m u = ! ",
"d x m g 2                                                                                                             m m t > = ",
"d u h m 3                                                                                                             c u x = ; ",
"i a 2 h c                                                                                                             ) t u ! 5 ",
"i x c c h                                                                                                             > 3 2 = ] ",
"i x t ) c                                                                                                             a b > > - ",
"a x c 3 4                                                                                                             2 2 t a * ",
"* a 2 2 y               z                                                                                             ! 3 x * d ",
"! , d c c               A B                                                                                           = ! a * a ",
"! * d c c               C D E                                                                                         ! l * > > ",
"5 = a 2 '         F   G H C I                                                                                         ! ; l > - ",
"5 ! > ) b         J K L L M z N                                                                                       ; > ! = ; ",
"~ ! = = *       O O P Q R S T N                                                                                       = * ! = ; ",
"= * > ; b       U V V W X Y Z `                                                                            ...+.@.#.$.%.a ~ * ; ",
"- > - ] {       &.*.=.-.;.>.,.'.    ).`                                                                   !.~.{.].^./.= > ; > > ",
"o ! ! ; 5     (._.:.<.[.}.|.1.2.  3.4.E           5.6.7.                                              8.9.0.a.b.c.d.e.> = = = * ",
"~ ; = ! ]   f.g.h.i.j.k.l.A m.n.o.p.m.q.        r.s.t.                                                u.v.w.x.y.z.A.  ! * ! ; a ",
"/ ~ ! > {   V B.C.D.E.F.G.I H.3.I.m.2.Z         J.K.L.                                                M.N.O.P.Q.R.S.  > d - - i ",
"/ ~ = = T.  U V U.V.W.X.Y.A m.Z.`.H. +C       .+++@+#+$+                                    %+      &+*+=+-+;+>+,+    > * ; ; q ",
"~ ~ ~ > !     U '+)+!+~+{+]+^+/+  2.(+        _+:+<+[+}+|+                                1+2+3+    4+5+6+7+8+9+0+    * > = ; 1 ",
": 5 ~ - = 4     V a+b+c+d+e+f+Z.g+^+          h+i+j+k+l+m+                              n+o+p+q+    r+s+t+u+v+w+x+  , i > * - < ",
": $ ; / ; ;     y+z+A+B+C+D+E+F+G+2.        H+I+J+K+L+M+N+O+                            P+Q+R+S+T+U+V+W+X+Y+Z+`+    a d * > @ % ",
"$ < @ ~ ( ( ~  @.@+@@@#@$@%@&@*@=@-@      ;@>@,@'@)@!@~@{@]@^@                            Q+R+/@(@_@:@<@[@}@|@1@6 * i d - 6 : : ",
"0 @ & $ _ : = = > 2@3@4@5@6@[ 6@6@} 7@8@9@0@a@b@c@d@e@f@g@h@i@j@k@> m v c r ' 2 u 2 4 ) a l@m@n@o@p@q@r@s@t@u@v@: q w@| | @ @ $ ",
"@ % @ $ o $ : - 1 ; - ; ; - ] ~ ! * d a a = _ x@y@x@z@[ A@j = ; ' ) h c 3 4 4 2 u ) ' ) t * , > ! = d d i q - > > q | < < B@& % ",
"k C@$ _ : 6 : : $ < @ ~ - ~ ! ~ = = * a , = ~ - ; p 5 ~ 5 ~ ) ) 4 ) 2 h 2 ' b c h b ) b 2 > = = = * d i a = - q q | | % % & @ $ ",
"+ D@0 0 $ _ : : : o $ ! ~ ~ ; ~ ; ; = ! > ! > * ; ( ^ 5 5 ' l ' 4 ' ' 3 3 l = c , ! ) ; * , = ; * n i a d - q & & & | & # % 0 @ ",
". 9 9 0 k 6 6 : : _ 6 1 _ ^ ^ ( / ; = = = > = * ~ E@F@] 5 ] ~ = ! ! = = , - = > = > l 5 > = - - d w@d * i < G@| & & & % H@# C@H@"};
