/* XPM */
static char * C:\Users\Rin_K\Documents\marco_xpm[] = {
"64 64 457 2",
"  	c None",
". 	c #2A1A15",
"+ 	c #2B1B15",
"@ 	c #2F1C15",
"# 	c #321D15",
"$ 	c #2D1C16",
"% 	c #2F1D16",
"& 	c #2E1D16",
"* 	c #2E1D17",
"= 	c #2F1E17",
"- 	c #321E17",
"; 	c #311E17",
"> 	c #2C1D17",
", 	c #2E1E18",
"' 	c #311F18",
") 	c #2A1D18",
"! 	c #2B1D18",
"~ 	c #301F18",
"{ 	c #2E1E19",
"] 	c #321F18",
"^ 	c #311F19",
"/ 	c #2F1F19",
"( 	c #2D1E19",
"_ 	c #2D1E18",
": 	c #2C1E19",
"< 	c #291D18",
"[ 	c #2A1D19",
"} 	c #261C18",
"| 	c #251C18",
"1 	c #2C1D18",
"2 	c #281C18",
"3 	c #261B18",
"4 	c #261B17",
"5 	c #281C17",
"6 	c #2B1C17",
"7 	c #301E17",
"8 	c #2F1D17",
"9 	c #2C1C17",
"0 	c #281B16",
"a 	c #231A16",
"b 	c #251A16",
"c 	c #231916",
"d 	c #231915",
"e 	c #281B15",
"f 	c #2A1B15",
"g 	c #2C1B15",
"h 	c #2E1C16",
"i 	c #331E16",
"j 	c #2B1C16",
"k 	c #301D17",
"l 	c #311E18",
"m 	c #2E1D18",
"n 	c #301E18",
"o 	c #2F1E18",
"p 	c #2E1F19",
"q 	c #321F19",
"r 	c #322019",
"s 	c #312019",
"t 	c #301F19",
"u 	c #2B1D19",
"v 	c #2B1E19",
"w 	c #281D18",
"x 	c #2A1C18",
"y 	c #2D1D17",
"z 	c #2B1D17",
"A 	c #2A1C17",
"B 	c #231A17",
"C 	c #241A17",
"D 	c #241A16",
"E 	c #211916",
"F 	c #271A16",
"G 	c #311D16",
"H 	c #291C18",
"I 	c #2E1E17",
"J 	c #342018",
"K 	c #2F1F18",
"L 	c #332019",
"M 	c #291D19",
"N 	c #2D1D18",
"O 	c #271B17",
"P 	c #221A17",
"Q 	c #261B16",
"R 	c #221916",
"S 	c #2A1B16",
"T 	c #271A15",
"U 	c #291B16",
"V 	c #291C17",
"W 	c #331F18",
"X 	c #332018",
"Y 	c #352019",
"Z 	c #2D1F19",
"` 	c #30201A",
" .	c #301F1A",
"..	c #342119",
"+.	c #34211A",
"@.	c #33211A",
"#.	c #332119",
"$.	c #352119",
"%.	c #362118",
"&.	c #241B17",
"*.	c #2C1C16",
"=.	c #271B16",
"-.	c #271C17",
";.	c #32201A",
">.	c #2C1E1A",
",.	c #35211A",
"'.	c #382219",
").	c #392218",
"!.	c #392118",
"~.	c #241B18",
"{.	c #2A1C16",
"].	c #281B17",
"^.	c #301D16",
"/.	c #301E16",
"(.	c #271C18",
"_.	c #311E16",
":.	c #2C1E18",
"<.	c #352018",
"[.	c #211A18",
"}.	c #2A1E19",
"|.	c #2C1F19",
"1.	c #342019",
"2.	c #302019",
"3.	c #362119",
"4.	c #2F1F1A",
"5.	c #2D1F1A",
"6.	c #31201A",
"7.	c #291E19",
"8.	c #2A1E1A",
"9.	c #2E1F1A",
"0.	c #3A2219",
"a.	c #372219",
"b.	c #392219",
"c.	c #372119",
"d.	c #382119",
"e.	c #32211A",
"f.	c #372118",
"g.	c #362018",
"h.	c #BE56B0",
"i.	c #BB53B0",
"j.	c #BD55B0",
"k.	c #BC55B1",
"l.	c #BF56B0",
"m.	c #63A5BB",
"n.	c #BB54B0",
"o.	c #BA54B1",
"p.	c #BC56B1",
"q.	c #BD56B1",
"r.	c #5CA4B9",
"s.	c #77A5BF",
"t.	c #B959B6",
"u.	c #B95BB7",
"v.	c #BA5FB8",
"w.	c #C05BB4",
"x.	c #C059B3",
"y.	c #4CA0B4",
"z.	c #5EA5BA",
"A.	c #6EA7BE",
"B.	c #A87BBB",
"C.	c #B85FBA",
"D.	c #B963BB",
"E.	c #C05CB4",
"F.	c #BF59B3",
"G.	c #74644C",
"H.	c #6C5C45",
"I.	c #3E3122",
"J.	c #4B9FB5",
"K.	c #5EA5BC",
"L.	c #61A6BE",
"M.	c #9791C0",
"N.	c #B763BD",
"O.	c #B865BD",
"P.	c #C15CB5",
"Q.	c #C05AB3",
"R.	c #675944",
"S.	c #6D5E45",
"T.	c #6F624D",
"U.	c #736856",
"V.	c #635845",
"W.	c #675B3E",
"X.	c #3D3122",
"Y.	c #322018",
"Z.	c #271C19",
"`.	c #4EA0B8",
" +	c #59A3BC",
".+	c #5EA4BF",
"++	c #85A1C4",
"@+	c #B763BE",
"#+	c #B966BE",
"$+	c #C05EB6",
"%+	c #C363B8",
"&+	c #C060B4",
"*+	c #6B604E",
"=+	c #6C5E47",
"-+	c #756853",
";+	c #726856",
">+	c #5B5140",
",+	c #6A6040",
"'+	c #54A1BB",
")+	c #56A2BD",
"!+	c #5BA4BE",
"~+	c #63A5C1",
"{+	c #7FA2C4",
"]+	c #B766BF",
"^+	c #BD64B8",
"/+	c #C25FB8",
"(+	c #C35CB5",
"_+	c #C965BB",
":+	c #C465B8",
"<+	c #BF60B3",
"[+	c #151316",
"}+	c #242425",
"|+	c #1F1F20",
"1+	c #453D39",
"2+	c #645A49",
"3+	c #6E624E",
"4+	c #71644C",
"5+	c #766A55",
"6+	c #6F6451",
"7+	c #5E5441",
"8+	c #5BA5BD",
"9+	c #5CA5C0",
"0+	c #5EA5C4",
"a+	c #5EA5C1",
"b+	c #65A6C4",
"c+	c #9292C1",
"d+	c #B662B8",
"e+	c #BF64B5",
"f+	c #C262B6",
"g+	c #C560B7",
"h+	c #C65FB6",
"i+	c #CA68BC",
"j+	c #C261B6",
"k+	c #C163B6",
"l+	c #130E15",
"m+	c #19181B",
"n+	c #171718",
"o+	c #7A7C77",
"p+	c #706C5E",
"q+	c #6E634F",
"r+	c #6C624D",
"s+	c #736951",
"t+	c #605846",
"u+	c #6C6347",
"v+	c #331F17",
"w+	c #5CA4BB",
"x+	c #68A9C0",
"y+	c #68A8CA",
"z+	c #5EA5C2",
"A+	c #65A5C3",
"B+	c #AB7DC4",
"C+	c #B36EBF",
"D+	c #BE5AB2",
"E+	c #C863BA",
"F+	c #C763B9",
"G+	c #C261B7",
"H+	c #C160B6",
"I+	c #19131A",
"J+	c #1A1A1C",
"K+	c #0F0F10",
"L+	c #7C8279",
"M+	c #7B7E75",
"N+	c #706F61",
"O+	c #645B43",
"P+	c #675E44",
"Q+	c #70684E",
"R+	c #5E5642",
"S+	c #6F6645",
"T+	c #362017",
"U+	c #50A0B7",
"V+	c #63A6BD",
"W+	c #6AAAC7",
"X+	c #62A6C6",
"Y+	c #68A5C3",
"Z+	c #A484C8",
"`+	c #9191C3",
" @	c #BD58B2",
".@	c #C964BA",
"+@	c #C55FB8",
"@@	c #C464B7",
"#@	c #BB52AF",
"$@	c #240C22",
"%@	c #1C1C1D",
"&@	c #181819",
"*@	c #080809",
"=@	c #808069",
"-@	c #7F7159",
";@	c #6D765B",
">@	c #605F41",
",@	c #605839",
"'@	c #666246",
")@	c #625A3F",
"!@	c #53A1B8",
"~@	c #67A8BF",
"{@	c #65A8C9",
"]@	c #9788C5",
"^@	c #809BC4",
"/@	c #BA5CB3",
"(@	c #C35EB6",
"_@	c #C25DB5",
":@	c #BF5BB3",
"<@	c #270C25",
"[@	c #19121A",
"}@	c #1D1C1E",
"|@	c #100F11",
"1@	c #070608",
"2@	c #7C8446",
"3@	c #826025",
"4@	c #6AA459",
"5@	c #58743C",
"6@	c #636139",
"7@	c #646542",
"8@	c #6D6544",
"9@	c #56A2B9",
"0@	c #68A9C3",
"a@	c #60A5C0",
"b@	c #688FB2",
"c@	c #9E89C2",
"d@	c #BC5CB5",
"e@	c #C561B7",
"f@	c #C25FB5",
"g@	c #280E26",
"h@	c #161017",
"i@	c #111113",
"j@	c #0B0B0C",
"k@	c #795D72",
"l@	c #7A5F74",
"m@	c #614E5A",
"n@	c #72AA65",
"o@	c #73AB67",
"p@	c #6EA65F",
"q@	c #5D8B41",
"r@	c #63703F",
"s@	c #636843",
"t@	c #6E6844",
"u@	c #321F17",
"v@	c #276072",
"w@	c #347385",
"x@	c #2F687C",
"y@	c #334E67",
"z@	c #535074",
"A@	c #8D4087",
"B@	c #95428A",
"C@	c #9E4A91",
"D@	c #AF4EA0",
"E@	c #C05BB3",
"F@	c #441B2B",
"G@	c #412328",
"H@	c #3E2722",
"I@	c #3F2A21",
"J@	c #3C271E",
"K@	c #A59D7B",
"L@	c #A69F7E",
"M@	c #332319",
"N@	c #5D3954",
"O@	c #7B476E",
"P@	c #79486E",
"Q@	c #5F555F",
"R@	c #616366",
"S@	c #6C9C63",
"T@	c #70AA63",
"U@	c #73AB66",
"V@	c #70A862",
"W@	c #5C9742",
"X@	c #637A41",
"Y@	c #6A6E4A",
"Z@	c #342017",
"`@	c #311F17",
" #	c #231C18",
".#	c #1C2526",
"+#	c #1D3035",
"@#	c #22323A",
"##	c #29313C",
"$#	c #2F303E",
"%#	c #3A2A3B",
"&#	c #392433",
"*#	c #392232",
"=#	c #3B1E34",
"-#	c #3E1B35",
";#	c #290C1E",
">#	c #311323",
",#	c #2B171A",
"'#	c #2B1B18",
")#	c #281A14",
"!#	c #4E4530",
"~#	c #8C8769",
"{#	c #2A1D15",
"]#	c #1B1310",
"^#	c #582F4D",
"/#	c #542D4B",
"(#	c #4D4E74",
"_#	c #4E5684",
":#	c #5B9550",
"<#	c #6AA65B",
"[#	c #6FA861",
"}#	c #6FA762",
"|#	c #599D3F",
"1#	c #5E7D45",
"2#	c #676947",
"3#	c #291A15",
"4#	c #352017",
"5#	c #271F19",
"6#	c #221D18",
"7#	c #1F1B16",
"8#	c #221914",
"9#	c #221A15",
"0#	c #211915",
"a#	c #231A15",
"b#	c #271916",
"c#	c #2B191D",
"d#	c #2B191C",
"e#	c #221316",
"f#	c #1C1011",
"g#	c #19100F",
"h#	c #19100E",
"i#	c #17100E",
"j#	c #18100E",
"k#	c #221D0C",
"l#	c #211C0C",
"m#	c #19120F",
"n#	c #1A1210",
"o#	c #1E1512",
"p#	c #241815",
"q#	c #32201F",
"r#	c #342021",
"s#	c #393342",
"t#	c #3A3445",
"u#	c #3C5B30",
"v#	c #466831",
"w#	c #486935",
"x#	c #496937",
"y#	c #385C1C",
"z#	c #2D2215",
"A#	c #382017",
"B#	c #2E1C15",
"C#	c #221915",
"D#	c #211815",
"E#	c #221815",
"F#	c #241915",
"G#	c #251A17",
"H#	c #341F16",
"I#	c #321E16",
"J#	c #341F17",
"K#	c #281D19",
"L#	c #382118",
"M#	c #341F18",
"N#	c #291B15",
"O#	c #2C1C15",
"P#	c #291C16",
"Q#	c #251B17",
"R#	c #251B18",
"S#	c #231B18",
"T#	c #201B18",
"U#	c #261C19",
"V#	c #372117",
"W#	c #311D15",
"X#	c #311D14",
". + @ # $ % & * = - ; = > , ' ; , ) ! ~ , { ' ] ~ ^ ^ / { , ( { _ { / , { : ! < [ , _ ! } | ! _ 1 2 3 4 5 6 7 8 9 0 a b a c d e ",
"f g h i j k * > * = l m ) ! ' n o ' , p / q r / s ^ t / r ^ / s ^ s t ( ( ( ( u ( p ! v w 2 ) 1 , ! x 2 x y z > 9 A B C D b E F ",
"f j 0 G 8 A 6 > H I ] n , ' J t K ( v { ^ s t t s / t s t s t r r r L t s r r ^ ] _ : M [ < ( ] J ' 2 < ! o N * 6 O P B O Q R S ",
"T S U % y 6 4 V , W ' o X Y { M : p v L r t p / Z s ` Z  .r L ..+.@...#.#...$.L r ( / : : : , %.X ~ ) o ! ! ) ! x 5 &.O y 4 a $ ",
"*.U =.8 8 * -.H o ] ' ! , r t v : ( L L t r ;.>.v r s p ..$.$.#.r #.$.$.,.'...;.t s t p p t ).!.$.] ~ _ < 2 < 2 ~.~.A 6 8 j *.% ",
"$ {.].6 7 n ! ) I                                                                                             ! A ) , o 7 y 9 * ",
"& {.A 6 7 , 5                                                                                                     O 2 N y = 6 * ",
"G y 6 V = >                                                                                                         ~., , = y ; ",
"^.9 7 y n                                                                                                             _ N V z y ",
"/.; * = ,                                                                                                             ! (.! 1 ) ",
"_.- 7 7 =                                                                                                             2 ! , 1 > ",
"y 7 W n =                                                                                                             1 o _ , ) ",
"6 y ] W ]                                                                                                             u ~ ~ < ! ",
"5 1 n ] J                                                                                                             { p : 1 1 ",
"z x o :.,                                                                                                             t : :.~ ] ",
"6 1 1 ) 2                                                                                                             p [ ( ~ <.",
"3 H n _ :                                                                                                             : ( ( ' ~ ",
"[.| n ' :.                                                                                                            v / p { o ",
"H ! _ , n                                                                                                             / r / ( , ",
"y _ _ ( o                                                                                                             L ( v { o ",
"I o _ { :.                                                                                                            / }.: / v ",
", o X L /                                                                                                             v Z ( ( ! ",
", ) :.K r                                                                                                             }.|./ X ( ",
", < _ L L                                                                                                             Z / ..^ , ",
"! :.J $.^                                                                                                             r ` / ^ / ",
"_ ~ X 1.p                                                                                                             1.2./ : }.",
"_ X 1.r /                                                                                                             2.3./ { M ",
"~ <.r v p                                                                                                             ;.r p r : ",
"X t t t s                                                                                                             r 4.s t ( ",
"J r Z Z Z                                                                                                             s >.2.p ^ ",
"' r Z t r                                                                                                             t 5.s t p ",
"' { }.Z 2.                                                                                                            r 6./ L / ",
"' ^ }.7.;.                                                                                                            +.s / L t ",
"] ^ Z 8.9.                                                                                                            3.r / ^ ( ",
"J ^ L / s                                                                                                             0.r r t t ",
"X 1.r r ;.                                                                                                            a.b.r t ^ ",
"<.3.c.3.6.                                                                                                            ..'.c.{ _ ",
"<.%.d...e.                                                                                                            d.a.$.t { ",
"<.c.$.a.`                                                                                                             L c.3.{ 1 ",
"f.L r 3.#.                                                                                                            p ..$._ 2 ",
"g.c.r #.+.                                                                                                            t / ^ , (.",
"%.3.$.p #.                                                                                                            1.t ' ~ 1 ",
"X f.r t :                                                                                                             ^ ^ 1.X ] ",
"] J r r 5.              h.                                                                                            _ t f.' <.",
"_ ' J 1.L               i.j.                                                                                          , ( 1.' W ",
"_ ' 1.1.L               i.k.l.                                                                                        :.: ' n o ",
"< o L s (         m.  n.o.p.q.                                                                                        1 : :.n 1 ",
"2 _ ~ / /         r.s.t.u.v.w.x.                                                                                      1 / _ , 1 ",
") _ , p '       y.z.A.B.C.D.E.F.                                                                          G.H.        I.^ ( , ! ",
", ' K ! t       J.K.L.M.N.O.P.Q.                                                                          R.S.T.U.V.W.X.Y.< ' 1 ",
"N ~ :.Z.M       `. +.+++@+#+$+Q.    %+&+                                                                  *+=+-+;+>+,+_ ~ ! o n ",
"A , , u w     '+)+!+~+{+]+^+/+(+  _+:+<+          [+}+|+                                              1+2+3+4+5+6+7+  o o o , ] ",
") z o _ (.  8+9+0+a+b+c+d+e+f+g+h+i+j+k+        l+m+n+                                                o+p+q+r+s+t+u+  , ' _ ! v+",
"-.V _ ~ )   w+x+y+z+A+B+C+D+x.E+F+G+H+D+        I+J+K+                                              L+M+N+O+P+Q+R+S+  = J 1 N T+",
"O A , o _   U+V+W+X+Y+Z+`+ @P..@+@w.@@#@      $@I+%@&@*@                                            =@-@;@>@,@'@)@    ~ ] 1 ! v+",
"A V V o _     !@~@{@.+]@^@/@(@_+  _@:@        <@[@}@%@|@1@                                          2@3@4@5@6@7@8@    ' ~ o z * ",
"A V A 1 o !     9@0@a@b@c@d@(@.@e@f@          g@h@&@n+i@j@                                k@l@m@    n@o@p@q@r@s@t@  ' T+n u@y ; ",
"6 y 6 5 ! !     v@w@x@y@z@A@B@C@D@E@        F@G@H@I@J@K@L@M@                            N@O@P@Q@R@S@T@U@V@W@X@Y@    W Z@`@7 8 7 ",
"*.7 * V 4 (.)  #.#+#@###$#%#&#*#=#-#      ;#>#,#'#6 )#!#~#{#]#                            ^#/#(#_#:#<#[#}#|#1#2#3#; T+4#y A > *.",
"j % _.> 5 z o o 7 w 5#6#7#8#9#8#0#a#b#c#d#e#f#g#h#i#j#k#l#m#n#o#p#n '.4.@.8.Z 6.3.r : p 1.q#r#s#t#u#v#w#x#y#z#e > W A#v+- * % *.",
"B#^.& y A y 9 N * ! 1 1 ! 1 (.) { ' Y L J , U C#D#E#F#C#D#G#_ v p p 3.#.s : : r 3./ Z / ..^ r t { { <.J %.W 1 n l v+v+; ; H#I#% ",
"g @ h 0 *.A 6 6 * 7 * ) 1 ) :.< o K ' J X K ) N ! V H ) (.[ p p v p r $.r ( t L $./ / t r ^ , { o ' J g.W o > J#J#J#- k 8 I#% B#",
"g B#j j & U 9 > 6 A y , A ) > ) 1 ! , , ' _ ' ] ! } | K#(.( v ( v ( { t t v p L r ( { }.' ] o ) ] L#g.M#J y v+v+- - i _._.^.*.B#",
"3#N#f O#$ U P#{.9 V V * 5 Q#R#4 V ! o o o ' , ' M S#T#U#w U#[ { : ( / o r :.K ~ , ~ :.< ~ o _ 1 4#V#Z@u@T+= 4#i ; - I#^.# W#W#X#"};
