/* XPM */
static char * C:\Users\Rin_K\Documents\menu_play_xpm[] = {
"64 64 249 2",
"  	c None",
". 	c #4F281D",
"+ 	c #53261D",
"@ 	c #4F261B",
"# 	c #4F2722",
"$ 	c #582B25",
"% 	c #643029",
"& 	c #6B3227",
"* 	c #67342A",
"= 	c #643630",
"- 	c #5F2E29",
"; 	c #763729",
"> 	c #A7512E",
", 	c #C56E42",
"' 	c #E3905B",
") 	c #6E3D30",
"! 	c #582E25",
"~ 	c #764033",
"{ 	c #EA9662",
"] 	c #C87349",
"^ 	c #6C3727",
"/ 	c #A7532F",
"( 	c #C66D3E",
"_ 	c #EA9258",
": 	c #854430",
"< 	c #6A352A",
"[ 	c #7D4333",
"} 	c #E8965B",
"| 	c #CE7544",
"1 	c #AB512E",
"2 	c #5E2E25",
"3 	c #A6512C",
"4 	c #B96138",
"5 	c #642E1C",
"6 	c #5D2B21",
"7 	c #5F2C28",
"8 	c #642F25",
"9 	c #93472B",
"0 	c #5D2C25",
"a 	c #7F3E2A",
"b 	c #AB502B",
"c 	c #863E27",
"d 	c #8D452E",
"e 	c #6C3126",
"f 	c #AC5530",
"g 	c #AF5832",
"h 	c #EA935C",
"i 	c #C97443",
"j 	c #763629",
"k 	c #B05E38",
"l 	c #874935",
"m 	c #763826",
"n 	c #BC673D",
"o 	c #AC5F3C",
"p 	c #A45839",
"q 	c #C2673C",
"r 	c #BF6A40",
"s 	c #C0673B",
"t 	c #A45B39",
"u 	c #843E2A",
"v 	c #7A382B",
"w 	c #874938",
"x 	c #8C4B39",
"y 	c #B05B34",
"z 	c #E59759",
"A 	c #EB9658",
"B 	c #D07847",
"C 	c #8E4D34",
"D 	c #85452F",
"E 	c #A35E3D",
"F 	c #E5945A",
"G 	c #894931",
"H 	c #E49359",
"I 	c #E7965B",
"J 	c #E6915B",
"K 	c #E8925C",
"L 	c #7F3F2D",
"M 	c #DD8956",
"N 	c #D78554",
"O 	c #E5915B",
"P 	c #E09058",
"Q 	c #83442F",
"R 	c #DE8C57",
"S 	c #E6955A",
"T 	c #E7955A",
"U 	c #E9925C",
"V 	c #E89460",
"W 	c #E8925B",
"X 	c #EA945C",
"Y 	c #DE7E4B",
"Z 	c #D3814E",
"` 	c #E38E59",
" .	c #793A2A",
"..	c #7A3B2B",
"+.	c #874731",
"@.	c #E18D58",
"#.	c #DF8C57",
"$.	c #E38E5A",
"%.	c #7C3D2C",
"&.	c #8A4A32",
"*.	c #C3764B",
"=.	c #E48F59",
"-.	c #864630",
";.	c #965337",
">.	c #8B4B33",
",.	c #EA935A",
"'.	c #DE864F",
").	c #743627",
"!.	c #E18C52",
"~.	c #81412E",
"{.	c #DC8956",
"].	c #E6905A",
"^.	c #E48E59",
"/.	c #925036",
"(.	c #9B5839",
"_.	c #914F35",
":.	c #DF8B57",
"<.	c #7D3D2C",
"[.	c #E7915B",
"}.	c #E9935C",
"|.	c #773829",
"1.	c #80412E",
"2.	c #BA6439",
"3.	c #DE8955",
"4.	c #AF5A31",
"5.	c #84442F",
"6.	c #7F402D",
"7.	c #965437",
"8.	c #E08C58",
"9.	c #8D4C33",
"0.	c #A96340",
"a.	c #E8915B",
"b.	c #E5905A",
"c.	c #7D3C2D",
"d.	c #7B3C2B",
"e.	c #AA6340",
"f.	c #DC8957",
"g.	c #E38E57",
"h.	c #D4844F",
"i.	c #EA9460",
"j.	c #EA925C",
"k.	c #E28E59",
"l.	c #E9925B",
"m.	c #E8945B",
"n.	c #D47E49",
"o.	c #DC8A56",
"p.	c #E6915A",
"q.	c #F49258",
"r.	c #B75E36",
"s.	c #E18D59",
"t.	c #854530",
"u.	c #8E4C34",
"v.	c #9A5639",
"w.	c #DB8856",
"x.	c #78382A",
"y.	c #E9935D",
"z.	c #EB9659",
"A.	c #A8623F",
"B.	c #D48352",
"C.	c #904E35",
"D.	c #DE8A57",
"E.	c #D88654",
"F.	c #C5784C",
"G.	c #C1754A",
"H.	c #DC8856",
"I.	c #D28152",
"J.	c #83432F",
"K.	c #894932",
"L.	c #D68453",
"M.	c #DA8855",
"N.	c #8A4932",
"O.	c #D98755",
"P.	c #E58F5A",
"Q.	c #82422E",
"R.	c #EB9459",
"S.	c #E8935C",
"T.	c #7E3F2D",
"U.	c #AB6440",
"V.	c #AE6742",
"W.	c #AC6541",
"X.	c #CC7D4F",
"Y.	c #9B583A",
"Z.	c #A45E3D",
"`.	c #9F5A3B",
" +	c #E28D59",
".+	c #904E34",
"++	c #5F352E",
"@+	c #E88B54",
"#+	c #E59058",
"$+	c #80402E",
"%+	c #E5905B",
"&+	c #E38F59",
"*+	c #C4764B",
"=+	c #8B4A32",
"-+	c #DF8D57",
";+	c #E49059",
">+	c #DF8F57",
",+	c #CD7E4F",
"'+	c #915135",
")+	c #E7955B",
"!+	c #9D5B3A",
"~+	c #864530",
"{+	c #C97B4E",
"]+	c #945236",
"^+	c #E6945A",
"/+	c #854630",
"(+	c #E29158",
"_+	c #E19158",
":+	c #874831",
"<+	c #965537",
"[+	c #A7613F",
"}+	c #99573B",
"|+	c #9B5939",
"1+	c #DC824F",
"2+	c #D98154",
"3+	c #A65334",
"4+	c #D68557",
"5+	c #DF8A51",
"6+	c #CF7F4E",
"7+	c #D47F4B",
"8+	c #D88553",
"9+	c #E08B52",
"0+	c #DD8854",
"a+	c #DD8855",
"b+	c #9A4B2F",
"c+	c #D38155",
"d+	c #7D3927",
"e+	c #642B20",
"f+	c #622B27",
"g+	c #5D2D20",
"h+	c #B76C45",
"i+	c #623632",
"j+	c #6E3A2E",
"k+	c #A25C3E",
"l+	c #92553A",
"m+	c #633730",
"n+	c #824739",
"o+	c #A15B36",
"p+	c #AE623D",
"q+	c #AF6A45",
"r+	c #904F3A",
"s+	c #A2583C",
"t+	c #713B32",
"u+	c #67372A",
"v+	c #B66D49",
"w+	c #924429",
"x+	c #90462E",
"y+	c #833B2B",
"z+	c #7E3E2E",
"            . + @                                                                                             # $ $             ",
"            % & *                                                                                             = = %             ",
"        - ; > , ' ) !                                                                                     - ~ { ] > ; %         ",
"        - ^ / ( _ : &                                                                                     < [ } | 1 ; -         ",
"        2 ; 3 ( } 4 / 5 6 7 8 > 9 0 a 3 b 3 3 b / b / / b b b b b b b b b b b b b b b b b c 0 d 1 e 0 0 - f g h i 1 ; -         ",
"        - j > ( } k / l l m a n o l p q q ( q ( ( r q r q q s r q q q q s s q s s s s s s t l o ( u v w x 1 y } | / ; -         ",
"        - ; 3 ( _ 4 3 _ ' / g _ } h h h h h { ' { ' z A A z } } } } } A } } } } } } } } } } A h h y / ' h f y } i 1 ; %         ",
"        - ; 3 ( h 4 1 q , i B h h h h h h { h C D E h h } } F G H } } } z I h h } } } } } } } h h B B , q 1 y h i 3 ; -         ",
"        - ; 3 ( _ 4 / / / _ z _ h } h h J h K L M N h h O } P Q R S ' T U V J W K h O X h } A h } h _ f / 1 y } | / ; -         ",
"        - ^ 3 ( } 4 3 Y Z y s h } h ` W W W J  ...+.@.#.$.K h %.&.*.=.-...;.J >.;.K W J ,.} } } h s 4 Z '.b y } i / ; -         ",
"        - ).3 ( A k 3 '.!.g 4 } h h h J h h h ~.{.].^.../.(.h _.U h :.<.[.}.J |. .1.K h h } } } h 2.g '.3.b g } | f ; %         ",
"        - ; 3 ( } 4 1 f 4.z ' } h h h W h h h 5.6.7.8.9.R 0.a.9.5.9.b.c.d.e.h <.f.h h h h } } _ h z g.g f b y h i / ; %         ",
"        - ; 3 ( } y / 2.4 Z h.} h i.W h h h h h h h h h W j.h [.k.}.l.}.` ].h h h h h h m.h } h z h.n.s 2.b y h i 1 ; -         ",
"        - ).3 ( } k b _ A / f } { h W h h h h W h h h o.W h h h h h h W p.U h h h h h h m.A } } } k / _ q.b r.} | 3 ; %         ",
"        - ; 3 ( A k b ( | ( i h m.h s.W h ..t.u.v.L w.x.` h h h h h h h K h y.h h ` ].U S } } h ' i ( , i / 4.} | / m -         ",
"        - ; 3 ( A 4 3 b / } z.} _ m.h K h %.A.B.` C.D.6.E.h h h h h h h F.G.h h H.1.:.h h } } h } _ q./ 3 3 y } | b ; -         ",
"        - ; 3 ( } k 3 n.B n ( h h h h h h 5.I.h M J.@.K.L.h }.}.].h ` h M.N.O.P.Q.J.[.R.} } } } } ( s n.B b y } i / ; -         ",
"        - ; 3 ( h 4 b q.h 3 f A } m.$.S.[.T.U.V.W.5.].1.P.X.5.Y.Z.u.`.h h  +.+ . .h X } } } } } } 4.b _ h 3 r._ | > j ++        ",
"        - j 3 ( _ r.b r.y @+g.} } } #+K D.$+P.].%+b.h 6.&+*+t.}.X =+d.{.h h ]...*.%+} } } } h _ } 3.'.r.g b y } i f j -         ",
"        - ).3 ( A r.b 1 / h h } } } } m.-+d.;+X h h M ..>+,+'+)+} !+G.~+{+[.A.]+X } } } } } h h } h h f 1 b y } i 1 ; %         ",
"        - m > ( A 4 b q.h b 4.} } } { } ^+/+(+} } } _+T._+H :+<+[+}+` h 7.|+..M h } } } } h h h } y b _ q./ y } | / ; -         ",
"        - j f ( A r.3 1+2+3 3+3.'.4+g.!.!.!.!.!.!.!.!.!.!.5+6+7+8+9+_ h 3.0+a+3.3.g.g.!.!.4+3.3.'./ b+c+2+/ y } i / ; -         ",
"        - d+b ( A r./ 5 0 7 8 > 9 e+m 3 3 3 3 3 3 3 b 3 3 3 3 3 3 > / / / 3 3 3 3 3 3 3 3 c 6 d / e f+g+e+1 y } i 1 ; -         ",
"        - ; b+p h+g 3 < i+i+j+k+l+m+n+t o+y t t o+t t t t t t k p+p+q+t k o t t o p p o t l m+r+s+t+= i+u+> 3+v+p w+).-         ",
"        - 7 7 7 - x+/                                                                                     3+b+2 7 0 7 -         ",
"        7 * y+y+a a a                                                                                     z+a y+y+a & %         ",
"        - ^ / 3 3 & 2                                                                                     - e 3 b / d+-         ",
"            j j ).                                                                                            m j ;             ",
"            2 ! 0                                                                                             - 0 0             ",
"                                                                                                                                ",
"                                                                                                                                ",
"                                                                                                                                ",
"                                                                                                                                ",
"                                                                                                                                ",
"                                                                                                                                ",
"                                                                                                                                ",
"                                                                                                                                ",
"                                                                                                                                ",
"                                                                                                                                ",
"                                                                                                                                ",
"                                                                                                                                ",
"                                                                                                                                ",
"                                                                                                                                ",
"                                                                                                                                ",
"                                                                                                                                ",
"                                                                                                                                ",
"                                                                                                                                ",
"                                                                                                                                ",
"                                                                                                                                ",
"                                                                                                                                ",
"                                                                                                                                ",
"                                                                                                                                ",
"                                                                                                                                ",
"                                                                                                                                ",
"                                                                                                                                ",
"                                                                                                                                ",
"                                                                                                                                ",
"                                                                                                                                ",
"                                                                                                                                ",
"                                                                                                                                ",
"                                                                                                                                ",
"                                                                                                                                ",
"                                                                                                                                ",
"                                                                                                                                "};
