/* XPM */
static char * C:\Users\Rin_K\Documents\menu_quit_xpm[] = {
"64 64 217 2",
"  	c None",
". 	c #4F281D",
"+ 	c #53261D",
"@ 	c #4F261B",
"# 	c #4F2722",
"$ 	c #582B25",
"% 	c #643029",
"& 	c #6B3227",
"* 	c #67342A",
"= 	c #643630",
"- 	c #5F2E29",
"; 	c #763729",
"> 	c #A7512E",
", 	c #C56E42",
"' 	c #E3905B",
") 	c #6E3D30",
"! 	c #582E25",
"~ 	c #764033",
"{ 	c #EA9662",
"] 	c #C87349",
"^ 	c #6C3727",
"/ 	c #A7532F",
"( 	c #C66D3E",
"_ 	c #EA9258",
": 	c #854430",
"< 	c #6A352A",
"[ 	c #7D4333",
"} 	c #E8965B",
"| 	c #CE7544",
"1 	c #AB512E",
"2 	c #5E2E25",
"3 	c #A6512C",
"4 	c #B96138",
"5 	c #642E1C",
"6 	c #5D2B21",
"7 	c #5F2C28",
"8 	c #642F25",
"9 	c #93472B",
"0 	c #5D2C25",
"a 	c #7F3E2A",
"b 	c #AB502B",
"c 	c #863E27",
"d 	c #8D452E",
"e 	c #6C3126",
"f 	c #AC5530",
"g 	c #AF5832",
"h 	c #EA935C",
"i 	c #C97443",
"j 	c #763629",
"k 	c #B05E38",
"l 	c #874935",
"m 	c #763826",
"n 	c #BC673D",
"o 	c #AC5F3C",
"p 	c #A45839",
"q 	c #C2673C",
"r 	c #BF6A40",
"s 	c #C0673B",
"t 	c #A45B39",
"u 	c #843E2A",
"v 	c #7A382B",
"w 	c #874938",
"x 	c #8C4B39",
"y 	c #B05B34",
"z 	c #E59759",
"A 	c #EB9658",
"B 	c #D07847",
"C 	c #E6915B",
"D 	c #E8925C",
"E 	c #E5915B",
"F 	c #E8945B",
"G 	c #EA9661",
"H 	c #EA945C",
"I 	c #DE7E4B",
"J 	c #D3814E",
"K 	c #E38E59",
"L 	c #E8925B",
"M 	c #E5905A",
"N 	c #E38E5A",
"O 	c #EA935A",
"P 	c #DE864F",
"Q 	c #743627",
"R 	c #E18C52",
"S 	c #E6905A",
"T 	c #E28E59",
"U 	c #E28D58",
"V 	c #CA7C4F",
"W 	c #E9925C",
"X 	c #E48F59",
"Y 	c #BA6439",
"Z 	c #DE8955",
"` 	c #AF5A31",
" .	c #DD8956",
"..	c #894932",
"+.	c #8B4B33",
"@.	c #884831",
"#.	c #CA7C4E",
"$.	c #E5915A",
"%.	c #E7915B",
"&.	c #9C583A",
"*.	c #84442F",
"=.	c #904E35",
"-.	c #DF8B57",
";.	c #D88654",
">.	c #935136",
",.	c #E38E57",
"'.	c #D4844F",
").	c #904F36",
"!.	c #C4774B",
"~.	c #9C593A",
"{.	c #9E5A3B",
"].	c #EA925C",
"^.	c #8F4D34",
"/.	c #A05C3C",
"(.	c #D98755",
"_.	c #D68553",
":.	c #E9935C",
"<.	c #DA8755",
"[.	c #E58F5A",
"}.	c #CE7E50",
"|.	c #CA7B4E",
"1.	c #7A3B2B",
"2.	c #985738",
"3.	c #D47E49",
"4.	c #E18F5E",
"5.	c #8D4C33",
"6.	c #A7613F",
"7.	c #975438",
"8.	c #DC8856",
"9.	c #A55F3E",
"0.	c #D98754",
"a.	c #8B4A32",
"b.	c #DE8A57",
"c.	c #985538",
"d.	c #D58453",
"e.	c #915035",
"f.	c #DC8B52",
"g.	c #E7965B",
"h.	c #F49258",
"i.	c #B75E36",
"j.	c #DF8D57",
"k.	c #995639",
"l.	c #E18D59",
"m.	c #A6603E",
"n.	c #874631",
"o.	c #AC6441",
"p.	c #DB8856",
"q.	c #9D593A",
"r.	c #82422E",
"s.	c #D58353",
"t.	c #9B5739",
"u.	c #D78554",
"v.	c #A15E3C",
"w.	c #EB9659",
"x.	c #E89157",
"y.	c #9F5A3B",
"z.	c #9B583A",
"A.	c #A96340",
"B.	c #925035",
"C.	c #D98654",
"D.	c #914F35",
"E.	c #E18D58",
"F.	c #A25D3D",
"G.	c #D38252",
"H.	c #9E593B",
"I.	c #E7955B",
"J.	c #C3764B",
"K.	c #995538",
"L.	c #925036",
"M.	c #E08C58",
"N.	c #A15C3C",
"O.	c #A45F3E",
"P.	c #E48E59",
"Q.	c #A9623F",
"R.	c #E99358",
"S.	c #9A5839",
"T.	c #955437",
"U.	c #D48752",
"V.	c #D68654",
"W.	c #8A4932",
"X.	c #C87A4D",
"Y.	c #894831",
"Z.	c #D68953",
"`.	c #5F352E",
" +	c #E88B54",
".+	c #E59058",
"++	c #E8915B",
"@+	c #E5905B",
"#+	c #DC824F",
"$+	c #D98154",
"%+	c #A65334",
"&+	c #D68557",
"*+	c #9A4B2F",
"=+	c #D38155",
"-+	c #7D3927",
";+	c #642B20",
">+	c #622B27",
",+	c #5D2D20",
"'+	c #B76C45",
")+	c #623632",
"!+	c #6E3A2E",
"~+	c #A25C3E",
"{+	c #92553A",
"]+	c #633730",
"^+	c #824739",
"/+	c #A15B36",
"(+	c #AE623D",
"_+	c #AF6A45",
":+	c #904F3A",
"<+	c #A2583C",
"[+	c #713B32",
"}+	c #67372A",
"|+	c #B66D49",
"1+	c #924429",
"2+	c #90462E",
"3+	c #833B2B",
"4+	c #7E3E2E",
"                                                                                                                                ",
"                                                                                                                                ",
"                                                                                                                                ",
"                                                                                                                                ",
"                                                                                                                                ",
"                                                                                                                                ",
"                                                                                                                                ",
"                                                                                                                                ",
"                                                                                                                                ",
"                                                                                                                                ",
"                                                                                                                                ",
"                                                                                                                                ",
"                                                                                                                                ",
"                                                                                                                                ",
"                                                                                                                                ",
"                                                                                                                                ",
"                                                                                                                                ",
"                                                                                                                                ",
"                                                                                                                                ",
"                                                                                                                                ",
"                                                                                                                                ",
"                                                                                                                                ",
"                                                                                                                                ",
"                                                                                                                                ",
"                                                                                                                                ",
"                                                                                                                                ",
"                                                                                                                                ",
"                                                                                                                                ",
"                                                                                                                                ",
"                                                                                                                                ",
"                                                                                                                                ",
"                                                                                                                                ",
"                                                                                                                                ",
"                                                                                                                                ",
"                                                                                                                                ",
"            . + @                                                                                             # $ $             ",
"            % & *                                                                                             = = %             ",
"        - ; > , ' ) !                                                                                     - ~ { ] > ; %         ",
"        - ^ / ( _ : &                                                                                     < [ } | 1 ; -         ",
"        2 ; 3 ( } 4 / 5 6 7 8 > 9 0 a 3 b 3 3 b / b / / b b b b b b b b b b b b b b b b b c 0 d 1 e 0 0 - f g h i 1 ; -         ",
"        - j > ( } k / l l m a n o l p q q ( q ( ( r q r q q s r q q q q s s q s s s s s s t l o ( u v w x 1 y } | / ; -         ",
"        - ; 3 ( _ 4 3 _ ' / g _ } h h h h h { ' { ' z A A z } } } } } A } } } } } } } } } } A h h y / ' h f y } i 1 ; %         ",
"        - ; 3 ( h 4 1 q , i B h h h h h h { h h } h h h } } } } } } } } z } h h } } } } } } } h h B B , q 1 y h i 3 ; -         ",
"        - ; 3 ( _ 4 / / / _ z _ h } h h C h D D h h h h E } } E F } ' } h G C h D h E H h } A h } h _ f / 1 y } | / ; -         ",
"        - ^ 3 ( } 4 3 I J y s h } h K L L L C M h h h L N D h C C h L K L h C D L D L C O } } } h s 4 J P b y } i / ; -         ",
"        - Q 3 ( A k 3 P R g 4 } h h S T h h h h h h h C L L h D K U h h h h D L h h V W X } } } h Y g P Z b g } | f ; %         ",
"        - ; 3 ( } 4 1 f ` z ' } h  ...+.@.#.h h h h h D $.M h %.&.*.=.-.D h h h D U *.;.>.} } _ h z ,.g f b y h i / ; %         ",
"        - ; 3 ( } y / Y 4 J '.} L ).!.h ~.{.h h h h h h L ].h ^./.W (.{.h _.:.S <.[.}.|.1.1.2.h z '.3.s Y b y h i 1 ; -         ",
"        - Q 3 ( } k b _ A / f } 4.5.L h S 6.h L h h h L h h :.7.8.h h 9.0.a.L b.7._.c.d.e.f.g.} } k / _ h.b i.} | 3 ; %         ",
"        - ; 3 ( A k b ( | ( i h j.k.l.L S 5. .h h m.n.o.h h :./.M h h m.p.q.D b.r.s.t.u.v.} } h ' i ( , i / ` } | / m -         ",
"        - ; 3 ( A 4 3 b / } w.} x.@.b.D 6.y.K h h h K C L h h z.A.h K y.h B.C.<.D.E.F.G.H.I.} h } _ h./ 3 3 y } | b ; -         ",
"        - ; 3 ( } k 3 3.B n ( h h J.H.K.=.<.h h h h h h h h h %.K.L.7.M.h N.7.O.5.P.Q.R.S.T.U.} } ( s 3.B b y } i / ; -         ",
"        - ; 3 ( h 4 b h.h 3 f A } F N V.W.D.X.h h h h h h h h h h h 9.Y.X.W X K K h H } } Z.} } } ` b _ h 3 i._ | > j `.        ",
"        - j 3 ( _ i.b i.y  +,.} } } .+D M. .h h D L h h C ++C h H h X 0.%.h h h h @+} } } } h _ } Z P i.g b y } i f j -         ",
"        - Q 3 ( A i.b 1 / h h } } } } F F D H H h h h h } h } } } } h h h h h H H } } } } } h h } h h f 1 b y } i 1 ; %         ",
"        - m > ( A 4 b h.h b ` } } } { } } } } } } } } } } } } } h { h h h } h h h } } } } h h h } y b _ h./ y } | / ; -         ",
"        - j f ( A i.3 #+$+3 %+Z P &+,.R R R R R R R R R R R ,.P Z R _ h Z Z Z Z Z ,.,.R R &+Z Z P / *+=+$+/ y } i / ; -         ",
"        - -+b ( A i./ 5 0 7 8 > 9 ;+m 3 3 3 3 3 3 3 b 3 3 3 3 3 3 > / / / 3 3 3 3 3 3 3 3 c 6 d / e >+,+;+1 y } i 1 ; -         ",
"        - ; *+p '+g 3 < )+)+!+~+{+]+^+t /+y t t /+t t t t t t k (+(+_+t k o t t o p p o t l ]+:+<+[+= )+}+> %+|+p 1+Q -         ",
"        - 7 7 7 - 2+/                                                                                     %+*+2 7 0 7 -         ",
"        7 * 3+3+a a a                                                                                     4+a 3+3+a & %         ",
"        - ^ / 3 3 & 2                                                                                     - e 3 b / -+-         ",
"            j j Q                                                                                             m j ;             ",
"            2 ! 0                                                                                             - 0 0             "};
